<svg width="102" height="16" viewBox="0 0 102 16" fill="none" xmlns="http://www.w3.org/2000/svg">
<path d="M94.2477 15.7351V3.01039H89.543V0.244141H101.999V3.01039H97.317V15.7351H94.2477Z" fill="#0B0B0B"/>
<path d="M85.3525 15.7351V0.244141H88.4218V15.7351H85.3525Z" fill="#0B0B0B"/>
<path d="M76.6104 10.4011V7.90039H83.3314V10.4011H76.6104Z" fill="#0B0B0B"/>
<path d="M67.5349 16C65.9517 16 64.5478 15.6607 63.3231 14.982C62.1133 14.2886 61.1649 13.3444 60.4778 12.1494C59.7908 10.9396 59.4473 9.56017 59.4473 8.01106C59.4473 6.43246 59.7908 5.04564 60.4778 3.85062C61.1649 2.64085 62.1058 1.69663 63.3007 1.01798C64.5104 0.339326 65.8994 0 67.4677 0C69.0509 0 70.4399 0.346704 71.6347 1.04011C72.8445 1.71876 73.7929 2.66298 74.4799 3.87275C75.167 5.06777 75.5105 6.44721 75.5105 8.01106C75.5105 9.56017 75.167 10.9396 74.4799 12.1494C73.8078 13.3444 72.8669 14.2886 71.6571 14.982C70.4623 15.6607 69.0882 16 67.5349 16ZM67.5349 13.2337C68.4908 13.2337 69.3272 13.0124 70.0441 12.5698C70.7759 12.1125 71.3435 11.4929 71.7467 10.7109C72.1649 9.929 72.374 9.02905 72.374 8.01106C72.374 6.97833 72.1649 6.071 71.7467 5.28907C71.3285 4.50715 70.7535 3.89488 70.0217 3.45228C69.2898 2.99493 68.4385 2.76625 67.4677 2.76625C66.5267 2.76625 65.6829 2.99493 64.9361 3.45228C64.2043 3.89488 63.6292 4.50715 63.211 5.28907C62.7928 6.071 62.5837 6.97833 62.5837 8.01106C62.5837 9.02905 62.7928 9.929 63.211 10.7109C63.6292 11.4929 64.2117 12.1125 64.9585 12.5698C65.7053 13.0124 66.5641 13.2337 67.5349 13.2337Z" fill="#0B0B0B"/>
<path d="M48.0693 15.7351V0.244141H57.994V3.01039H51.1386V6.52906H57.0531V9.22893H51.1386V12.9689H58.0837V15.7351H48.0693Z" fill="#0B0B0B"/>
<path d="M41.4498 9.33958L38.5597 8.60928L43.6005 0.244141H47.0954L41.4498 9.33958ZM38.4701 15.7351V8.29946H41.5394V15.7351H38.4701ZM38.5597 9.33958L32.9141 0.244141H36.409L41.4498 8.60928L38.5597 9.33958Z" fill="#0B0B0B"/>
<path d="M25.4822 16C23.899 16 22.495 15.6607 21.2703 14.982C20.0605 14.2886 19.1121 13.3444 18.4251 12.1494C17.738 10.9396 17.3945 9.56017 17.3945 8.01106C17.3945 6.43246 17.738 5.04564 18.4251 3.85062C19.1121 2.64085 20.0531 1.69663 21.2479 1.01798C22.4577 0.339326 23.8467 0 25.415 0C26.9981 0 28.3871 0.346704 29.582 1.04011C30.7918 1.71876 31.7402 2.66298 32.4272 3.87275C33.1143 5.06777 33.4578 6.44721 33.4578 8.01106C33.4578 9.56017 33.1143 10.9396 32.4272 12.1494C31.7551 13.3444 30.8142 14.2886 29.6044 14.982C28.4095 15.6607 27.0355 16 25.4822 16ZM25.4822 13.2337C26.438 13.2337 27.2744 13.0124 27.9913 12.5698C28.7232 12.1125 29.2907 11.4929 29.694 10.7109C30.1122 9.929 30.3213 9.02905 30.3213 8.01106C30.3213 6.97833 30.1122 6.071 29.694 5.28907C29.2758 4.50715 28.7008 3.89488 27.9689 3.45228C27.2371 2.99493 26.3858 2.76625 25.415 2.76625C24.474 2.76625 23.6301 2.99493 22.8834 3.45228C22.1515 3.89488 21.5765 4.50715 21.1583 5.28907C20.7401 6.071 20.531 6.97833 20.531 8.01106C20.531 9.02905 20.7401 9.929 21.1583 10.7109C21.5765 11.4929 22.159 12.1125 22.9058 12.5698C23.6525 13.0124 24.5113 13.2337 25.4822 13.2337Z" fill="#0B0B0B"/>
<path d="M0 15.7351V0.244141H3.33811L7.9084 6.9274L12.4787 0.244141H15.7944V15.7351H12.7475V4.97996L7.9084 12.0173L3.06927 5.00209V15.7351H0Z" fill="#0B0B0B"/>
</svg>
