<svg width="67" height="67" viewBox="0 0 67 67" fill="none" xmlns="http://www.w3.org/2000/svg">
<g clip-path="url(#clip0_16978_12261)">
<path d="M54.8092 30.2158C55.8284 29.0167 55.1339 27.7676 54.5843 27.293C54.0447 27.293 53.2103 27.5178 52.9355 27.6677C54.2546 27.7276 54.7342 29.4164 54.8092 30.2158Z" fill="#1F73D7" stroke="#0B4A93" stroke-width="0.149889"/>
<path d="M35.0988 65.5932C34.6792 67.3919 32.8255 67.0921 31.9512 66.7174C31.9512 66.4176 32.3009 65.3434 32.4758 64.8438C32.1161 66.2827 34.0746 65.9429 35.0988 65.5932Z" fill="#1F73D7" stroke="#0B4A93" stroke-width="0.149889"/>
<path d="M15.8395 22.8704C18.5375 24.6691 24.583 31.7388 25.957 35.3861H30.5287L32.3273 26.6926C28.9049 23.9946 20.651 18.5237 15.0151 18.2239C9.37927 17.9241 8.02028 22.8954 8.04526 25.4185C9.01954 21.6712 12.467 20.622 15.8395 22.8704Z" fill="url(#paint0_linear_16978_12261)" stroke="#257CE2" stroke-width="0.149889"/>
<path d="M54.5855 27.2923C51.108 27.1124 47.7405 32.5634 46.4915 35.3114L39.8963 35.6862L38.0977 30.4401C38.7572 25.4637 45.2674 23.6201 48.44 23.3203C50.6584 23.4402 50.8133 25.7185 50.6134 26.8427C51.7526 26.1832 53.7361 26.8676 54.5855 27.2923Z" fill="url(#paint1_linear_16978_12261)" stroke="#257CE2" stroke-width="0.149889"/>
<path d="M38.172 57.2722C43.0285 52.4157 42.344 46.3052 41.3947 43.8571L37.2727 39.6602L30.6026 47.6043C30.7026 49.378 30.3928 53.3151 28.3543 54.8739C26.3158 56.4328 26.9553 58.6212 27.5299 59.5205C28.754 59.8453 31.0823 60.7646 30.6026 61.8438C30.123 62.923 31.2522 65.541 31.8767 66.7152C31.9516 65.591 33.3156 62.1286 38.172 57.2722Z" fill="url(#paint2_linear_16978_12261)" stroke="#257CE2" stroke-width="0.149889"/>
<path d="M22.6598 58.6953C24.2786 59.175 23.7839 60.5439 23.3343 61.1685C22.375 61.5282 21.3108 61.5682 21.0859 61.4683C22.7647 61.1685 22.9596 59.4448 22.6598 58.6953Z" fill="#257CE2" stroke="#285282" stroke-width="0.149889"/>
<path d="M35.1757 6.38331C33.5055 6.04013 30.4312 5.74727 30.3865 7.0363C30.3974 7.19353 30.4232 7.32916 30.4542 7.43263C30.4038 7.28639 30.3824 7.15467 30.3865 7.0363C30.3473 6.47205 30.4997 5.62959 31.2898 4.99671C32.0868 4.67139 33.847 4.53458 35.1757 6.38331Z" fill="#257CE2"/>
<path d="M31.2037 5.0343C31.231 5.02157 31.2597 5.009 31.2898 4.99671M31.2898 4.99671C32.0868 4.67139 33.847 4.53458 35.1757 6.38331C33.3521 6.00861 29.8547 5.69391 30.4542 7.43263C30.3118 6.95783 30.2795 5.80594 31.2898 4.99671Z" stroke="#285282" stroke-width="0.149889"/>
<path d="M45.7408 48.2004C46.6401 51.9776 51.3617 51.423 53.61 50.6736C54.3295 50.5002 55.4087 49.2523 55.7834 48.65C53.0854 52.0975 44.6166 43.4789 45.7408 48.2004Z" fill="#257CE2" stroke="#285282" stroke-width="0.149889"/>
<path d="M51.5109 44.0072C43.9565 45.5661 38.8202 43.1079 37.1964 41.6839C33.749 48.6539 29.8519 47.3796 25.2803 48.4288C20.7086 49.4781 18.9849 56.5978 19.5095 60.1952C19.7366 61.7524 22.1825 61.719 23.2567 61.0945C21.608 63.1929 17.7708 65.0066 15.6124 55.4736C13.454 45.9407 23.1069 36.4127 28.2031 32.8404C25.1304 29.7676 24.9055 18.9756 24.6807 13.6545C24.5008 9.39766 26.954 9.23278 28.2031 9.68245C28.0232 7.52404 30.1766 5.63544 31.2758 4.96094C29.1774 7.1793 31.2009 9.43264 32.4749 10.282C41.4683 20.1747 38.6204 32.9154 40.6439 32.2409C42.6674 31.5664 61.4036 31.6413 59.53 41.6839C58.6804 44.0322 56.3817 49.0884 53.9834 50.5273C56.3071 48.3735 59.0658 44.0541 51.5109 44.0072Z" fill="url(#paint3_radial_16978_12261)" stroke="#2674C7" stroke-width="0.149889"/>
<path d="M9.46949 26.6179C7.9706 26.9926 8.04554 25.1939 8.04554 25.119C8.03145 24.8192 8.73915 23.795 9.09477 23.3203C8.49521 24.3695 10.9684 26.2432 9.46949 26.6179Z" fill="#1F73D7" stroke="#0B4A93" stroke-width="0.149889"/>
<path d="M18.0114 58.9939C16.6624 43.9306 28.1503 37.9436 32.7005 36.5139L35.2404 35.7937C35.6709 36.1028 36.9286 41.4426 34.7241 43.9306C31.9684 47.0405 25.3515 47.2276 24.6065 47.6773C21.5659 49.5125 19.397 49.5509 18.0114 58.9939Z" fill="url(#paint4_linear_16978_12261)"/>
<path d="M27.6801 11.4062C27.3203 32.5107 31.9269 37.2871 34.2752 37.0373C37.198 36.7375 41.6198 35.5984 35.924 33.44C30.2282 31.2816 28.0548 17.8515 27.6801 11.4062Z" fill="url(#paint5_linear_16978_12261)"/>
<path d="M35.0092 39.306C30.2127 36.9078 34.6495 34.039 37.8721 33.5894C53.4313 31.9138 58.886 37.9141 58.8569 41.8119C58.8572 41.8195 58.8572 41.8268 58.8566 41.8339C58.8567 41.8266 58.8568 41.8193 58.8569 41.8119C58.8034 40.7571 49.889 35.3759 45.2167 37.4118C40.8699 39.306 41.0047 42.3038 35.0092 39.306Z" fill="url(#paint6_linear_16978_12261)"/>
<path d="M34.6491 51.2771C36.7475 49.1786 35.6234 45.6562 37.1972 42.4336L39.6704 43.4828C41.0694 45.7561 42.908 50.9473 39.0709 53.5254C35.2337 56.1035 32.3258 62.144 31.3515 64.842C30.8269 63.9427 31.3515 62.4438 31.3515 61.9942C31.3515 61.6344 31.0018 60.9949 30.8269 60.7201C30.5272 56.3733 32.026 53.9001 34.6491 51.2771Z" fill="url(#paint7_linear_16978_12261)"/>
<path d="M45.0663 25.6445C41.5888 26.7837 40.6695 30.0163 40.6445 31.4902V31.9399L42.8179 31.4902C44.6766 28.7323 47.6394 27.2933 48.8884 26.9186C47.3896 27.0385 43.7672 29.4667 42.1434 30.6658C42.0235 27.7879 44.042 26.1192 45.0663 25.6445Z" fill="url(#paint8_linear_16978_12261)"/>
<path d="M19.8105 23.3945C23.4079 25.0733 26.0559 30.1396 26.9303 32.4628L24.9817 26.3174C22.7034 24.0391 20.585 23.4195 19.8105 23.3945Z" fill="url(#paint9_linear_16978_12261)"/>
<path d="M32.1011 27.0652C30.7771 23.2181 28.2339 14.5495 28.6536 10.6523C29.9527 12.3511 32.4608 18.0119 32.1011 27.0652Z" fill="url(#paint10_linear_16978_12261)"/>
<path d="M28.9218 41.0779C29.4998 40.6151 31.9959 38.393 33.076 37.1832L32.8511 30.3633L36.5984 35.9841L43.4933 36.7336L36.8981 37.7828V41.1553L34.0502 38.6821C32.2535 39.615 29.5234 40.7521 28.9218 41.0779C28.8314 41.1503 28.7879 41.1796 28.8041 41.1553C28.8139 41.1406 28.8546 41.1143 28.9218 41.0779Z" fill="#257CE2"/>
<path d="M35.2487 37.9367C34.4692 38.3564 34.0745 37.7618 33.9746 37.4121C36.0731 35.6134 37.1223 30.4422 36.4478 29.9925C35.9082 29.6328 35.5734 28.7435 35.4735 28.3438H37.572C38.3514 30.9218 36.3479 35.8132 35.2487 37.9367Z" fill="url(#paint11_linear_16978_12261)"/>
<ellipse cx="36.4484" cy="28.194" rx="1.12417" ry="0.674502" fill="#9F6161"/>
<path d="M41.394 33.0652C39.2356 32.7055 36.5475 36.3175 35.4733 38.1661C35.3534 38.3676 34.8988 37.8707 34.7988 37.7867C37.5718 33.2901 39.3707 32.5478 41.1691 32.3946C43.2676 32.2158 44.5416 34.1189 44.6166 34.7185C44.6765 35.1981 44.3917 35.2181 44.2419 35.1682C44.1919 34.6186 43.5524 33.425 41.394 33.0652Z" fill="url(#paint12_linear_16978_12261)"/>
<path d="M31.0527 32.3906C31.1527 31.5412 31.8322 30.0823 33.7507 31.0416C34.5002 31.4912 35.6993 33.3349 34.5002 37.1121C34.3253 37.3869 33.8557 37.8166 33.376 37.3369C33.8756 36.5875 34.725 34.6389 34.1255 32.8402C33.376 30.5919 31.8022 31.2664 31.5773 32.3906C31.3375 32.8702 31.1277 32.5904 31.0527 32.3906Z" fill="url(#paint13_linear_16978_12261)"/>
</g>
<defs>
<linearGradient id="paint0_linear_16978_12261" x1="20.1861" y1="18.2109" x2="20.1861" y2="35.3861" gradientUnits="userSpaceOnUse">
<stop stop-color="#92BFF4"/>
<stop offset="1" stop-color="#4D9DFA"/>
</linearGradient>
<linearGradient id="paint1_linear_16978_12261" x1="46.3416" y1="23.3203" x2="46.3416" y2="35.6862" gradientUnits="userSpaceOnUse">
<stop stop-color="#92BFF4"/>
<stop offset="1" stop-color="#4D9DFA"/>
</linearGradient>
<linearGradient id="paint2_linear_16978_12261" x1="34.5168" y1="39.6602" x2="34.5168" y2="66.7152" gradientUnits="userSpaceOnUse">
<stop stop-color="#92BFF4"/>
<stop offset="1" stop-color="#4D9DFA"/>
</linearGradient>
<radialGradient id="paint3_radial_16978_12261" cx="0" cy="0" r="1" gradientUnits="userSpaceOnUse" gradientTransform="translate(35.8468 35.6882) rotate(86.5445) scale(27.1307 20.8184)">
<stop stop-color="white"/>
<stop offset="0.636704" stop-color="#91BFF4"/>
</radialGradient>
<linearGradient id="paint4_linear_16978_12261" x1="33.1502" y1="45.9536" x2="26.7961" y2="36.4612" gradientUnits="userSpaceOnUse">
<stop stop-color="#76B5FF" stop-opacity="0"/>
<stop offset="1" stop-color="#257CE2"/>
</linearGradient>
<linearGradient id="paint5_linear_16978_12261" x1="33.9754" y1="32.7655" x2="28.7123" y2="34.7203" gradientUnits="userSpaceOnUse">
<stop stop-color="#76B5FF" stop-opacity="0"/>
<stop offset="1" stop-color="#5B9EEC"/>
</linearGradient>
<linearGradient id="paint6_linear_16978_12261" x1="43.8677" y1="40.7098" x2="43.2849" y2="33.6215" gradientUnits="userSpaceOnUse">
<stop stop-color="#76B5FF" stop-opacity="0"/>
<stop offset="1" stop-color="#5B9EEC"/>
</linearGradient>
<linearGradient id="paint7_linear_16978_12261" x1="44.0921" y1="51.1272" x2="34.0496" y2="51.427" gradientUnits="userSpaceOnUse">
<stop stop-color="#65A9F8" stop-opacity="0"/>
<stop offset="1" stop-color="#4291ED"/>
</linearGradient>
<linearGradient id="paint8_linear_16978_12261" x1="41.5439" y1="31.5652" x2="45.4888" y2="30.4759" gradientUnits="userSpaceOnUse">
<stop stop-color="#4794EE"/>
<stop offset="1" stop-color="#62ABFF"/>
</linearGradient>
<linearGradient id="paint9_linear_16978_12261" x1="24.1747" y1="30.459" x2="20.6339" y2="29.7179" gradientUnits="userSpaceOnUse">
<stop stop-color="#4794EE"/>
<stop offset="1" stop-color="#62ABFF"/>
</linearGradient>
<linearGradient id="paint10_linear_16978_12261" x1="32.6257" y1="17.1725" x2="33.2252" y2="28.9388" gradientUnits="userSpaceOnUse">
<stop stop-color="#6EAAF0"/>
<stop offset="1" stop-color="#D0E3FA"/>
</linearGradient>
<linearGradient id="paint11_linear_16978_12261" x1="35.8611" y1="28.3438" x2="35.8611" y2="38.081" gradientUnits="userSpaceOnUse">
<stop stop-color="#68C463"/>
<stop offset="1" stop-color="#325E30"/>
</linearGradient>
<linearGradient id="paint12_linear_16978_12261" x1="39.7118" y1="32.3828" x2="39.7118" y2="38.2138" gradientUnits="userSpaceOnUse">
<stop stop-color="#68C463"/>
<stop offset="1" stop-color="#325E2F"/>
</linearGradient>
<linearGradient id="paint13_linear_16978_12261" x1="33.0308" y1="30.7266" x2="33.0308" y2="37.553" gradientUnits="userSpaceOnUse">
<stop stop-color="#68C463"/>
<stop offset="1" stop-color="#325E2F"/>
</linearGradient>
<clipPath id="clip0_16978_12261">
<rect width="67" height="67" fill="white"/>
</clipPath>
</defs>
</svg>
