<svg width="67" height="67" viewBox="0 0 67 67" fill="none" xmlns="http://www.w3.org/2000/svg">
<path d="M24.0913 47.7468C8.60485 52.2123 6.84835 37.8687 7.9059 30.1388C7.60795 20.2827 14.4077 17.3365 17.8449 17.0954C19.8732 13.4102 24.3993 13.1911 26.4088 13.5423C30.4555 10.2551 34.891 13.0008 36.603 14.7845C39.6959 10.5591 43.7021 16.3656 43.8344 17.0695C43.9667 17.7735 44.2313 19.1814 47.3263 18.8426C49.8023 18.5716 48.8284 21.2326 48.032 22.597C50.5536 19.2078 54.6022 21.3621 55.5708 22.6377C56.5394 23.9134 51.0684 23.241 58.6972 27.6378C64.8002 31.1552 57.6454 37.5532 53.3051 40.3125C63.5394 46.1631 55.7247 51.0331 50.5381 52.7367C51.6784 57.77 43.1726 57.9272 38.7772 57.3766C38.4396 56.8732 36.3742 56.2248 30.8131 57.6588C25.252 59.0927 24.0148 51.6483 24.0913 47.7468Z" fill="#FBFFFC" stroke="#B6BFE4" stroke-width="0.861295"/>
<path d="M27.2571 47.4947C23.3828 42.3923 28.1692 40.7001 30.544 37.8243C32.4841 36.083 34.639 33.5077 40.4724 37.6589C47.7641 42.8478 45.9504 54.1848 40.5817 52.7645C35.2129 51.3441 32.1 53.8728 27.2571 47.4947Z" fill="url(#paint0_linear_17130_3781)"/>
<path d="M13.2245 45.5188C11.2873 42.9676 7.86433 36.9058 9.66963 33.0681C11.9263 28.271 16.6668 35.3971 21.2434 36.4805C24.9047 37.3472 27.0715 37.3286 27.6972 37.211L28.9424 38.0622C29.0486 38.0359 29.092 38.0808 29.091 38.1638L28.9424 38.0622C28.5299 38.1646 27.1697 39.3424 23.7839 43.5342C19.5269 48.8044 14.9705 47.0532 13.2245 45.5188Z" fill="url(#paint1_linear_17130_3781)"/>
<path d="M24.6627 36.5658C19.6503 34.0257 10.5384 30.1828 11.0776 28.9153C11.7516 27.331 10.9827 12.899 24.6627 36.5658Z" fill="url(#paint2_linear_17130_3781)"/>
<path d="M15.9871 21.4314L23.1782 31.2551C26.5456 27.031 33.2308 25.5125 33.5753 27.1145C34.5179 25.2367 36.0373 23.1534 35.096 17.111C34.1547 11.0686 29.071 13.0606 26.6468 14.8119C21.5656 13.6291 16.4117 19.8129 15.9871 21.4314Z" fill="url(#paint3_linear_17130_3781)"/>
<path d="M37.355 16.2029L35.3063 27.2773C36.8613 27.6398 37.7259 27.8545 37.9915 29.9309C39.4383 29.0111 43.0915 27.0774 46.1304 26.7006C49.1692 26.3238 47.5319 22.955 46.3334 21.3177C45.3559 22.1493 43.2158 22.8269 42.4749 18.8847C41.734 14.9425 38.7529 15.4543 37.355 16.2029Z" fill="url(#paint4_linear_17130_3781)"/>
<path d="M53.5802 26.2726L38.5926 30.5472C40.7632 30.7223 41.4935 34.7798 40.7802 35.7237C43.0056 37.6539 46.9126 39.9158 52.3679 37.9187C59.187 35.4224 60.5774 28.6016 56.8371 28.0899C53.8448 27.6805 53.419 26.7078 53.5802 26.2726Z" fill="url(#paint5_linear_17130_3781)"/>
<path d="M28.9733 36.2412L25.7464 35.876C24.465 34.6592 22.3626 32.0904 24.2045 31.5499C26.5069 30.8742 25.9353 31.7105 26.3746 30.1702C26.814 28.63 31.2424 26.34 32.3433 28.3196C33.224 29.9032 34.8321 29.0665 35.5261 28.4502C36.3818 28.6943 39.1052 29.9153 39.0473 31.6754C39.0119 32.7519 39.0735 33.9251 39.4466 34.7993C39.8803 35.1892 40.2668 35.5931 40.5893 36.0015C40.0461 35.7891 39.6835 35.3545 39.4466 34.7993C35.1631 30.9484 26.2745 28.4538 28.9733 36.2412Z" fill="url(#paint6_linear_17130_3781)"/>
<path d="M35.5981 32.7778C31.7944 31.5736 30.1866 32.1142 29.712 32.709C29.5899 32.862 29.5915 33.0701 29.6277 33.2625C29.8352 34.3668 31.5706 34.8713 32.6576 34.5869C33.496 34.3676 34.3636 34.354 35.0921 34.4311C35.6457 34.4897 36.1777 34.0648 36.1533 33.5087C36.1385 33.1732 35.9183 32.8791 35.5981 32.7778Z" fill="#3B4A51"/>
<path d="M35.0966 53.3125C29.839 51.191 28.4481 54.5621 28.4098 56.5128C31.9151 57.0687 34.5112 55.3661 36.3884 55.0132C38.2656 54.6604 40.9646 56.0967 46.1128 56.3438C50.2314 56.5414 48.7076 53.3457 47.4308 51.7231C45.5101 53.1368 40.3541 55.434 35.0966 53.3125Z" fill="#D8DDF1"/>
<path d="M54.4075 42.5724C59.0087 46.3721 53.6087 49.5249 50.3336 50.6264C49.3013 45.1341 43.9261 39.6234 41.3675 37.5546C44.5828 38.1164 51.4005 41.1339 54.4075 42.5724Z" fill="url(#paint7_linear_17130_3781)"/>
<path d="M9.26138 36.0597C8.75882 40.6243 12.5358 44.4332 14.4871 45.767C19.034 45.3983 11.2992 33.9762 10.5212 32.4218C9.74313 30.8674 14.8597 25.7757 12.8784 22.9899C11.2934 20.7612 9.94085 24.5947 9.46268 26.7901C9.60498 27.9781 9.76393 31.4951 9.26138 36.0597Z" fill="#D8DDF1"/>
<defs>
<linearGradient id="paint0_linear_17130_3781" x1="44.6381" y1="38.1543" x2="26.822" y2="48.0623" gradientUnits="userSpaceOnUse">
<stop stop-color="#D5DAF0"/>
<stop offset="1" stop-color="#FBFFFC"/>
</linearGradient>
<linearGradient id="paint1_linear_17130_3781" x1="27.4634" y1="36.4032" x2="16.6025" y2="43.663" gradientUnits="userSpaceOnUse">
<stop stop-color="#D5DAF0"/>
<stop offset="1" stop-color="#FBFFFC"/>
</linearGradient>
<linearGradient id="paint2_linear_17130_3781" x1="23.2113" y1="29.1449" x2="13.214" y2="24.5086" gradientUnits="userSpaceOnUse">
<stop stop-color="#D5DAF0"/>
<stop offset="1" stop-color="#FBFFFC"/>
</linearGradient>
<linearGradient id="paint3_linear_17130_3781" x1="27.2447" y1="28.0937" x2="24.5146" y2="14.1989" gradientUnits="userSpaceOnUse">
<stop stop-color="#D5DAF0"/>
<stop offset="1" stop-color="#FBFFFC"/>
</linearGradient>
<linearGradient id="paint4_linear_17130_3781" x1="34.5" y1="28.1577" x2="46.9678" y2="18.063" gradientUnits="userSpaceOnUse">
<stop stop-color="#D5DAF0"/>
<stop offset="1" stop-color="#FBFFFC"/>
</linearGradient>
<linearGradient id="paint5_linear_17130_3781" x1="37.3011" y1="33.396" x2="55.25" y2="28.0474" gradientUnits="userSpaceOnUse">
<stop stop-color="#D5DAF0"/>
<stop offset="1" stop-color="#FBFFFC"/>
</linearGradient>
<linearGradient id="paint6_linear_17130_3781" x1="30.1428" y1="27.6182" x2="31.1189" y2="35.1545" gradientUnits="userSpaceOnUse">
<stop stop-color="#D5DAF0"/>
<stop offset="1" stop-color="#FBFFFC"/>
</linearGradient>
<linearGradient id="paint7_linear_17130_3781" x1="42.7613" y1="38.5073" x2="47.766" y2="48.7209" gradientUnits="userSpaceOnUse">
<stop stop-color="#D5DAF0"/>
<stop offset="1" stop-color="#FBFFFC"/>
</linearGradient>
</defs>
</svg>
