<svg preserveAspectRatio="none" width="100%" height="100%" overflow="visible" style="display: block;" viewBox="0 0 71.0942 48.3879" fill="none" xmlns="http://www.w3.org/2000/svg">
<g id="Group 198">
<path id="Vector 537" d="M41.5133 36.7463C35.8666 35.5656 34.8294 36.4951 31.0008 40.1953L29.5008 36.7463C44.3233 31.6771 39.075 26.4145 52.9991 16.7895C64.1385 9.08958 69.7039 11.2936 71.0941 12.1705C65.6015 12.5811 59.3516 17.0044 56.9133 19.1647C62.6626 17.7274 66.0677 18.5658 67.0516 19.1647C63.0733 18.3305 44.6575 26.6722 49.7266 25.1322C53.782 23.9002 57.063 26.3299 58.1966 27.6988C50.3426 25.4915 46.4541 28.6185 45.4916 30.458C53.8076 29.3286 57.4266 33.2385 58.1966 35.3346C51.1126 30.7146 45.1066 31.7413 42.9891 32.8321L39.46 35.3346C46.7493 35.1806 50.0261 39.1204 50.7533 41.1096C50.0261 40.1471 47.16 37.927 41.5133 36.7463Z" fill="var(--fill-0, #467446)"/>
<path id="Vector 538" d="M24.7199 36.5476C29.4387 35.5609 31.1672 37.1031 34.3667 40.1953L35.1763 36.5468C22.7895 32.3106 26.7576 27.9136 15.1215 19.8703C5.81266 13.4356 1.16182 15.2774 0 16.0102C4.59007 16.3534 9.81289 20.0498 11.8505 21.8551C7.04598 20.654 4.20042 21.3546 3.37821 21.8551C6.70279 21.158 22.0924 28.1289 17.8562 26.842C14.4673 25.8124 11.7254 27.8429 10.7781 28.9868C17.3415 27.1422 20.591 29.7554 21.3953 31.2926C14.4459 30.3488 11.4216 33.6162 10.7781 35.3679C16.698 31.507 21.7171 32.365 23.4866 33.2766L26.4358 35.3679C20.3443 35.2392 17.606 38.5316 16.9983 40.1939C17.606 39.3895 20.0011 37.5342 24.7199 36.5476Z" fill="var(--fill-0, #569156)"/>
<g id="Group 195">
<path id="Vector 15" d="M11.0006 10.9334C17.5593 10.4962 24.5037 10.9334 26.1433 12.9589C26.1433 6.86326 28.0509 1.70639 28.7796 0.195337C33.4864 1.6871 39.2484 7.20405 39.2484 10.9334C45.9613 5.96947 52.6978 6.93611 55.227 8.03993C55.227 10.1619 55.227 16.624 47.3302 22.4432C55.0462 23.8063 55.5592 32.4525 55.227 36.4606C52.1365 35.2281 44.9614 32.7119 40.9845 32.5061C41.4306 35.8819 41.4506 43.7458 37.9624 48.1953C32.9984 46.2921 29.2926 38.1645 28.0602 34.3387C21.9838 40.8973 12.8332 41.701 12.8332 41.3474C13.7256 36.6642 16.3729 26.8863 20.6778 25.3688C15.1737 21.9223 11.0757 14.052 11.0006 10.9334Z" fill="var(--fill-0, #3A78CE)" stroke="var(--stroke-0, #2161BA)" stroke-width="0.3215"/>
<path id="Vector 16" d="M45.0478 14.6303C38.0519 14.2445 34.1811 18.3705 33.1201 20.4816C29.7508 17.1123 23.7859 16.7201 21.2246 16.9452C22.2791 24.8412 28.2655 27.0081 31.1268 27.1046C30.8439 32.7373 34.2025 36.3531 35.9172 37.4569C39.2093 33.1359 38.5963 27.919 37.8783 25.8507C43.7168 22.4814 45.0906 16.9666 45.0478 14.6303Z" fill="var(--fill-0, #91BFFF)"/>
<path id="Vector 19" d="M38.298 18.9394C34.9367 18.7605 33.0375 21.4253 32.5299 22.4422C30.9079 20.8242 27.6006 20.5326 26.3703 20.6434C26.8845 24.4416 30.5254 25.2936 31.9002 25.3373C31.7697 28.0478 34.5154 30.3698 35.3402 30.8993C36.9177 28.817 35.6872 26.0103 35.3402 25.0158C38.1418 23.389 38.3208 20.0635 38.298 18.9394Z" fill="var(--fill-0, #F0FFBD)"/>
<path id="Vector 17" d="M34.4641 17.1537C32.8952 18.8769 32.0636 23.8087 31.9243 24.9983L32.3975 25.0947C32.4511 24.1302 33.78 17.9896 35.0338 17.1537H34.4641Z" fill="var(--fill-0, #BCD394)"/>
<path id="Vector 18" d="M34.6811 22.6207C33.1121 23.3063 32.3448 24.5846 32.2055 25.0579L32.5611 25.3797C32.6146 24.9959 33.6863 23.4099 34.9402 23.0773L34.6811 22.6207Z" fill="var(--fill-0, #BCD394)"/>
<rect id="Rectangle 108" x="34.8739" y="13.9558" width="1.8647" height="3.66511" rx="0.932351" transform="rotate(20.8 34.8739 13.9558)" fill="var(--fill-0, #7D4F63)"/>
<rect id="Rectangle 109" x="36.9763" y="20.4714" width="1.8647" height="3.66511" rx="0.932351" transform="rotate(55.3405 36.9763 20.4714)" fill="var(--fill-0, #7D4F63)"/>
</g>
</g>
</svg>
