<svg width="67" height="67" viewBox="0 0 67 67" fill="none" xmlns="http://www.w3.org/2000/svg">
<ellipse cx="32.8379" cy="48.9626" rx="7.9981" ry="9.03681" fill="url(#paint0_linear_0_1)"/>
<mask id="path-2-inside-1_0_1" fill="white">
<path fill-rule="evenodd" clip-rule="evenodd" d="M42.1025 15C50.7402 15.0001 57.742 21.1098 57.7422 28.6465C57.7422 34.6436 53.3087 39.7365 47.1455 41.5674C48.5224 42.703 49.3827 44.3075 49.3828 46.0879C49.3828 49.5299 46.1731 52.3203 42.2148 52.3203C38.2568 52.3201 35.0479 49.5298 35.0479 46.0879C35.048 44.3329 35.883 42.7478 37.2256 41.6152C36.6682 41.4558 36.1245 41.2705 35.5967 41.0596C34.3429 42.3783 32.8377 43.509 31.1445 44.3975C32.6286 45.5393 33.5654 47.2068 33.5654 49.0654C33.5654 52.5073 30.3565 55.2976 26.3984 55.2979C22.4401 55.2979 19.2305 52.5074 19.2305 49.0654C19.2305 48.1301 19.469 47.2435 19.8936 46.4473C11.3163 45.49 4.68759 39.1217 4.6875 31.4072C4.6875 23.0317 12.5011 16.2422 22.1387 16.2422C25.5855 16.2422 28.7988 17.1105 31.5049 18.6094C34.2914 16.3683 38.0141 15 42.1025 15Z"/>
</mask>
<path fill-rule="evenodd" clip-rule="evenodd" d="M42.1025 15C50.7402 15.0001 57.742 21.1098 57.7422 28.6465C57.7422 34.6436 53.3087 39.7365 47.1455 41.5674C48.5224 42.703 49.3827 44.3075 49.3828 46.0879C49.3828 49.5299 46.1731 52.3203 42.2148 52.3203C38.2568 52.3201 35.0479 49.5298 35.0479 46.0879C35.048 44.3329 35.883 42.7478 37.2256 41.6152C36.6682 41.4558 36.1245 41.2705 35.5967 41.0596C34.3429 42.3783 32.8377 43.509 31.1445 44.3975C32.6286 45.5393 33.5654 47.2068 33.5654 49.0654C33.5654 52.5073 30.3565 55.2976 26.3984 55.2979C22.4401 55.2979 19.2305 52.5074 19.2305 49.0654C19.2305 48.1301 19.469 47.2435 19.8936 46.4473C11.3163 45.49 4.68759 39.1217 4.6875 31.4072C4.6875 23.0317 12.5011 16.2422 22.1387 16.2422C25.5855 16.2422 28.7988 17.1105 31.5049 18.6094C34.2914 16.3683 38.0141 15 42.1025 15Z" fill="#DDF0FF"/>
<path d="M42.1025 15L42.1025 14.3961H42.1025V15ZM57.7422 28.6465H58.3461V28.6465L57.7422 28.6465ZM47.1455 41.5674L46.9735 40.9885L45.8862 41.3115L46.7613 42.0333L47.1455 41.5674ZM49.3828 46.0879H49.9867V46.0879L49.3828 46.0879ZM42.2148 52.3203L42.2148 52.9242H42.2148V52.3203ZM35.0479 46.0879L34.444 46.0879V46.0879H35.0479ZM37.2256 41.6152L37.615 42.0768L38.4809 41.3463L37.3917 41.0346L37.2256 41.6152ZM35.5967 41.0596L35.8208 40.4988L35.4409 40.347L35.159 40.6435L35.5967 41.0596ZM31.1445 44.3975L30.8639 43.8627L30.0288 44.3009L30.7763 44.8761L31.1445 44.3975ZM33.5654 49.0654H34.1693V49.0654H33.5654ZM26.3984 55.2979V55.9017H26.3985L26.3984 55.2979ZM19.2305 49.0654H18.6266V49.0654H19.2305ZM19.8936 46.4473L20.4264 46.7314L20.8453 45.9458L19.9605 45.8471L19.8936 46.4473ZM4.6875 31.4072H4.08361V31.4072L4.6875 31.4072ZM22.1387 16.2422L22.1387 15.6383H22.1387V16.2422ZM31.5049 18.6094L31.2123 19.1376L31.5672 19.3342L31.8834 19.08L31.5049 18.6094ZM42.1025 15L42.1025 15.6039C50.4866 15.604 57.1382 21.518 57.1383 28.6465L57.7422 28.6465L58.3461 28.6465C58.3459 20.7016 50.9937 14.3962 42.1025 14.3961L42.1025 15ZM57.7422 28.6465H57.1383C57.1383 34.3238 52.9347 39.2176 46.9735 40.9885L47.1455 41.5674L47.3175 42.1463C53.6827 40.2554 58.3461 34.9635 58.3461 28.6465H57.7422ZM47.1455 41.5674L46.7613 42.0333C48.0186 43.0703 48.7788 44.5117 48.7789 46.0879L49.3828 46.0879L49.9867 46.0879C49.9866 44.1033 49.0261 42.3357 47.5298 41.1015L47.1455 41.5674ZM49.3828 46.0879H48.7789C48.7789 49.1198 45.9217 51.7164 42.2148 51.7164V52.3203V52.9242C46.4246 52.9242 49.9867 49.94 49.9867 46.0879H49.3828ZM42.2148 52.3203L42.2149 51.7164C38.5083 51.7162 35.6517 49.1197 35.6517 46.0879H35.0479H34.444C34.444 49.9398 38.0052 52.924 42.2148 52.9242L42.2148 52.3203ZM35.0479 46.0879L35.6517 46.0879C35.6518 44.5337 36.39 43.1103 37.615 42.0768L37.2256 41.6152L36.8362 41.1537C35.3761 42.3854 34.4441 44.1321 34.444 46.0879L35.0479 46.0879ZM37.2256 41.6152L37.3917 41.0346C36.8534 40.8806 36.329 40.7019 35.8208 40.4988L35.5967 41.0596L35.3726 41.6203C35.9199 41.8391 36.483 42.0309 37.0595 42.1958L37.2256 41.6152ZM35.5967 41.0596L35.159 40.6435C33.9527 41.9123 32.501 43.0037 30.8639 43.8627L31.1445 44.3975L31.4251 44.9322C33.1743 44.0144 34.7332 42.8442 36.0343 41.4757L35.5967 41.0596ZM31.1445 44.3975L30.7763 44.8761C32.1336 45.9204 32.9615 47.4202 32.9615 49.0654H33.5654H34.1693C34.1693 46.9933 33.1236 45.1582 31.5128 43.9188L31.1445 44.3975ZM33.5654 49.0654H32.9615C32.9615 52.0973 30.105 54.6938 26.3984 54.694L26.3984 55.2979L26.3985 55.9017C30.608 55.9015 34.1693 52.9173 34.1693 49.0654H33.5654ZM26.3984 55.2979V54.694C22.6916 54.694 19.8344 52.0973 19.8344 49.0654H19.2305H18.6266C18.6266 52.9175 22.1887 55.9017 26.3984 55.9017V55.2979ZM19.2305 49.0654H19.8344C19.8344 48.2348 20.0458 47.4452 20.4264 46.7314L19.8936 46.4473L19.3607 46.1631C18.8922 47.0417 18.6266 48.0254 18.6266 49.0654H19.2305ZM19.8936 46.4473L19.9605 45.8471C11.6162 44.9158 5.29148 38.746 5.29139 31.4072L4.6875 31.4072L4.08361 31.4072C4.0837 39.4973 11.0164 46.0641 19.8266 47.0474L19.8936 46.4473ZM4.6875 31.4072H5.29139C5.29139 23.4421 12.7522 16.8461 22.1387 16.8461V16.2422V15.6383C12.25 15.6383 4.08361 22.6213 4.08361 31.4072H4.6875ZM22.1387 16.2422L22.1387 16.8461C25.4841 16.8461 28.5966 17.6888 31.2123 19.1376L31.5049 18.6094L31.7975 18.0811C29.001 16.5321 25.6869 15.6384 22.1387 15.6383L22.1387 16.2422ZM31.5049 18.6094L31.8834 19.08C34.5599 16.9274 38.1482 15.6039 42.1025 15.6039V15V14.3961C37.88 14.3961 34.023 15.8092 31.1264 18.1388L31.5049 18.6094Z" fill="#5CB7FF" mask="url(#path-2-inside-1_0_1)"/>
<path d="M19.0654 38.3699C20.9351 38.3699 25.2199 34.5271 28.2668 35.462C31.3829 34.9426 30.2403 29.8496 28.6822 30.68C21.7049 34.399 21.3505 16.3444 13.8717 22.6815C5.12905 30.0897 11.5434 38.3699 19.0654 38.3699Z" fill="url(#paint1_linear_0_1)"/>
<path d="M45.6866 37.4287C44.2657 37.4287 41.0093 34.4578 38.6938 35.3912C36.3255 34.8727 37.1939 29.7875 38.378 30.6167C43.6806 34.3299 43.95 15.4371 49.6337 21.7645C56.278 29.1612 51.4032 37.4287 45.6866 37.4287Z" fill="url(#paint2_linear_0_1)"/>
<path d="M30.2411 35.4609C28.6138 36.465 28.4752 36.6035 30.6566 43.9784C27.2634 41.8317 22.5962 38.5355 30.2411 35.4609Z" fill="url(#paint3_linear_0_1)"/>
<path d="M37.5128 35.4609C39.1401 36.465 39.2787 36.6035 37.0973 43.9784C40.4905 41.8317 45.1577 38.5355 37.5128 35.4609Z" fill="url(#paint4_linear_0_1)"/>
<path d="M39.4953 36.1747L37.962 38.6276L29.2391 33.3476C29.8987 29.9994 31.3266 29.4638 34.6917 29.5447L39.4953 36.1747Z" fill="url(#paint5_linear_0_1)"/>
<ellipse cx="38.5773" cy="37.2492" rx="1.38001" ry="1.68667" fill="#37A4FD"/>
<defs>
<linearGradient id="paint0_linear_0_1" x1="32.8379" y1="57.9994" x2="32.8379" y2="39.9258" gradientUnits="userSpaceOnUse">
<stop stop-color="#B9E0FF"/>
<stop offset="1" stop-color="#37A4FD"/>
</linearGradient>
<linearGradient id="paint1_linear_0_1" x1="30.9674" y1="31.0959" x2="6.45376" y2="31.4075" gradientUnits="userSpaceOnUse">
<stop stop-color="#B9E0FF"/>
<stop offset="1" stop-color="#DDEFFF"/>
</linearGradient>
<linearGradient id="paint2_linear_0_1" x1="36.6413" y1="31.0317" x2="55.2725" y2="31.212" gradientUnits="userSpaceOnUse">
<stop stop-color="#B9E0FF"/>
<stop offset="1" stop-color="#DDEFFF"/>
</linearGradient>
<linearGradient id="paint3_linear_0_1" x1="31.3421" y1="38.7415" x2="25.76" y2="38.7686" gradientUnits="userSpaceOnUse">
<stop stop-color="#B9E0FF"/>
<stop offset="1" stop-color="#DDEFFF"/>
</linearGradient>
<linearGradient id="paint4_linear_0_1" x1="36.4118" y1="38.7415" x2="41.9939" y2="38.7686" gradientUnits="userSpaceOnUse">
<stop stop-color="#B9E0FF"/>
<stop offset="1" stop-color="#DDEFFF"/>
</linearGradient>
<linearGradient id="paint5_linear_0_1" x1="38.2776" y1="40.4965" x2="31.0283" y2="30.1026" gradientUnits="userSpaceOnUse">
<stop stop-color="#9FD5FF"/>
<stop offset="1" stop-color="#55A1DE"/>
</linearGradient>
</defs>
</svg>
