<svg width="67" height="67" viewBox="0 0 67 67" fill="none" xmlns="http://www.w3.org/2000/svg">
<g clip-path="url(#clip0_17130_3233)">
<mask id="path-1-inside-1_17130_3233" fill="white">
<path fill-rule="evenodd" clip-rule="evenodd" d="M37.19 10.123C39.699 10.4789 40.2227 13.5043 39.5364 15.9556L39.0082 17.8402L40.6593 14.6168C41.7337 12.5186 44.0761 10.6219 46.1046 11.822C48.2643 13.1001 47.7903 16.2241 46.4333 18.3349L44.8771 20.7554L48.111 17.8737C50.1002 16.1012 53.325 15.2448 54.951 17.3554C56.6641 19.5794 55.0502 22.6492 52.7557 24.2667L49.2317 26.7503L54.7952 24.5507C57.2729 23.5708 60.5962 23.8764 61.3965 26.4178C62.1024 28.6596 60.414 30.6537 58.2549 31.6719C60.5264 31.9975 62.6645 33.3629 62.5656 35.6112C62.442 38.4156 59.2296 39.7218 56.4329 39.4799L52.2879 39.1207L57.075 40.9465C59.5646 41.8958 61.8101 44.365 60.6854 46.7804C59.5002 49.325 56.032 49.3063 53.5395 48.0147L53.2763 47.878L53.976 48.448C56.0419 50.1304 57.3996 53.1785 55.5739 55.119C53.6502 57.1635 50.3636 56.0578 48.4022 54.0494L47.8273 53.4611L48.9003 55.4762C50.1521 57.8281 50.2218 61.1644 47.7866 62.2451C45.2206 63.3836 42.6192 61.0895 41.5903 58.4776L40.5848 55.926L41.3123 60.0063C41.7793 62.6295 40.8186 65.8248 38.1689 66.1033C35.3769 66.3968 33.6089 63.4133 33.4339 60.6114L33.0917 55.1423L32.3595 62.1183C32.0811 64.7681 30.2723 67.572 27.6491 67.1051C24.8854 66.6132 24.0132 63.2573 24.6215 60.5168L25.6878 55.7125L23.9889 60.4638C23.0915 62.9724 20.6705 65.2683 18.2325 64.1944C15.6634 63.0625 15.6097 59.5947 16.8493 57.0759L17.7864 55.1703L16.3335 56.8591C14.7021 58.754 11.8924 59.9601 10.2608 58.0796C8.53352 56.0886 9.78785 52.9566 11.7008 51.1592L15.1647 47.9026L11.0834 49.6229C8.76938 50.5975 5.83604 50.3372 5.38892 47.8875C4.91801 45.3066 7.45782 43.0283 9.95357 42.2937L17.6566 40.026L11.2019 40.6047C8.63416 40.8347 5.88233 39.5897 6.16229 37.0459C6.45567 34.3811 9.55581 32.9114 12.2149 33L17.4652 33.1745L13.4461 31.2911C11.1234 30.2027 9.41401 27.5905 10.7175 25.3816C12.0674 23.0944 15.2724 23.1936 17.4839 24.6641L22.3942 27.9285L18.2361 23.6409C16.4785 21.8284 15.7044 18.7133 17.5373 16.9542C19.4385 15.1295 22.2932 16.269 23.8469 18.4182L25.285 20.408L24.675 16.7171C24.2762 14.3069 25.1479 11.1706 27.54 10.5841C30.0649 9.96508 31.6258 12.5813 31.7672 15.1979L31.9654 18.8832L32.6862 14.7352C33.0922 12.3958 34.8277 9.78783 37.19 10.123Z"/>
</mask>
<path fill-rule="evenodd" clip-rule="evenodd" d="M37.19 10.123C39.699 10.4789 40.2227 13.5043 39.5364 15.9556L39.0082 17.8402L40.6593 14.6168C41.7337 12.5186 44.0761 10.6219 46.1046 11.822C48.2643 13.1001 47.7903 16.2241 46.4333 18.3349L44.8771 20.7554L48.111 17.8737C50.1002 16.1012 53.325 15.2448 54.951 17.3554C56.6641 19.5794 55.0502 22.6492 52.7557 24.2667L49.2317 26.7503L54.7952 24.5507C57.2729 23.5708 60.5962 23.8764 61.3965 26.4178C62.1024 28.6596 60.414 30.6537 58.2549 31.6719C60.5264 31.9975 62.6645 33.3629 62.5656 35.6112C62.442 38.4156 59.2296 39.7218 56.4329 39.4799L52.2879 39.1207L57.075 40.9465C59.5646 41.8958 61.8101 44.365 60.6854 46.7804C59.5002 49.325 56.032 49.3063 53.5395 48.0147L53.2763 47.878L53.976 48.448C56.0419 50.1304 57.3996 53.1785 55.5739 55.119C53.6502 57.1635 50.3636 56.0578 48.4022 54.0494L47.8273 53.4611L48.9003 55.4762C50.1521 57.8281 50.2218 61.1644 47.7866 62.2451C45.2206 63.3836 42.6192 61.0895 41.5903 58.4776L40.5848 55.926L41.3123 60.0063C41.7793 62.6295 40.8186 65.8248 38.1689 66.1033C35.3769 66.3968 33.6089 63.4133 33.4339 60.6114L33.0917 55.1423L32.3595 62.1183C32.0811 64.7681 30.2723 67.572 27.6491 67.1051C24.8854 66.6132 24.0132 63.2573 24.6215 60.5168L25.6878 55.7125L23.9889 60.4638C23.0915 62.9724 20.6705 65.2683 18.2325 64.1944C15.6634 63.0625 15.6097 59.5947 16.8493 57.0759L17.7864 55.1703L16.3335 56.8591C14.7021 58.754 11.8924 59.9601 10.2608 58.0796C8.53352 56.0886 9.78785 52.9566 11.7008 51.1592L15.1647 47.9026L11.0834 49.6229C8.76938 50.5975 5.83604 50.3372 5.38892 47.8875C4.91801 45.3066 7.45782 43.0283 9.95357 42.2937L17.6566 40.026L11.2019 40.6047C8.63416 40.8347 5.88233 39.5897 6.16229 37.0459C6.45567 34.3811 9.55581 32.9114 12.2149 33L17.4652 33.1745L13.4461 31.2911C11.1234 30.2027 9.41401 27.5905 10.7175 25.3816C12.0674 23.0944 15.2724 23.1936 17.4839 24.6641L22.3942 27.9285L18.2361 23.6409C16.4785 21.8284 15.7044 18.7133 17.5373 16.9542C19.4385 15.1295 22.2932 16.269 23.8469 18.4182L25.285 20.408L24.675 16.7171C24.2762 14.3069 25.1479 11.1706 27.54 10.5841C30.0649 9.96508 31.6258 12.5813 31.7672 15.1979L31.9654 18.8832L32.6862 14.7352C33.0922 12.3958 34.8277 9.78783 37.19 10.123Z" fill="url(#paint0_linear_17130_3233)"/>
<path d="M37.19 10.123L37.2634 9.60518L37.2634 9.60518L37.19 10.123ZM39.5364 15.9556L40.04 16.0968L40.04 16.0966L39.5364 15.9556ZM39.0082 17.8402L38.5047 17.699L39.4737 18.0786L39.0082 17.8402ZM40.6593 14.6168L41.1247 14.8552L41.1247 14.8552L40.6593 14.6168ZM46.1046 11.822L46.3709 11.372L46.3709 11.372L46.1046 11.822ZM46.4333 18.3349L46.8732 18.6177L46.8732 18.6177L46.4333 18.3349ZM44.8771 20.7554L44.4372 20.4726L45.225 21.1459L44.8771 20.7554ZM48.111 17.8737L48.4589 18.2642V18.2642L48.111 17.8737ZM54.951 17.3554L55.3653 17.0363L55.3653 17.0363L54.951 17.3554ZM52.7557 24.2667L53.057 24.6942L53.0571 24.6942L52.7557 24.2667ZM49.2317 26.7503L48.9304 26.3228L49.424 27.2366L49.2317 26.7503ZM54.7952 24.5507L54.9875 25.037L54.9875 25.037L54.7952 24.5507ZM61.3965 26.4178L61.8954 26.2608L61.8953 26.2607L61.3965 26.4178ZM58.2549 31.6719L58.0319 31.1989L56.4556 31.9422L58.1807 32.1895L58.2549 31.6719ZM62.5656 35.6112L63.0881 35.6343L63.0881 35.6342L62.5656 35.6112ZM56.4329 39.4799L56.3877 40.0009L56.3878 40.0009L56.4329 39.4799ZM52.2879 39.1207L52.333 38.5997L52.1015 39.6093L52.2879 39.1207ZM57.075 40.9465L56.8886 41.4352L56.8886 41.4352L57.075 40.9465ZM60.6854 46.7804L61.1595 47.0012L61.1595 47.0011L60.6854 46.7804ZM53.5395 48.0147L53.2985 48.4788L53.2989 48.479L53.5395 48.0147ZM53.2763 47.878L53.5174 47.4139L52.946 48.2834L53.2763 47.878ZM53.976 48.448L53.6457 48.8534L53.6457 48.8535L53.976 48.448ZM55.5739 55.119L55.9547 55.4774L55.9548 55.4774L55.5739 55.119ZM48.4022 54.0494L48.7764 53.684L48.7762 53.6839L48.4022 54.0494ZM47.8273 53.4611L48.2013 53.0956L47.3657 53.7069L47.8273 53.4611ZM48.9003 55.4762L49.362 55.2305L49.3619 55.2304L48.9003 55.4762ZM47.7866 62.2451L47.9987 62.7231L47.9988 62.7231L47.7866 62.2451ZM41.5903 58.4776L42.0768 58.2859L42.0768 58.2859L41.5903 58.4776ZM40.5848 55.926L41.0713 55.7343L40.07 56.0178L40.5848 55.926ZM41.3123 60.0063L41.8271 59.9147L41.8271 59.9145L41.3123 60.0063ZM38.1689 66.1033L38.2235 66.6234L38.2235 66.6234L38.1689 66.1033ZM33.4339 60.6114L33.9558 60.5788L33.9558 60.5787L33.4339 60.6114ZM33.0917 55.1423L33.6136 55.1097L32.5716 55.0877L33.0917 55.1423ZM32.3595 62.1183L32.8796 62.1729L32.8796 62.1729L32.3595 62.1183ZM27.6491 67.1051L27.5575 67.62L27.5575 67.62L27.6491 67.1051ZM24.6215 60.5168L25.132 60.6301L25.132 60.6301L24.6215 60.5168ZM25.6878 55.7125L26.1983 55.8258L25.1954 55.5364L25.6878 55.7125ZM23.9889 60.4638L24.4813 60.6399L24.4813 60.6398L23.9889 60.4638ZM18.2325 64.1944L18.0216 64.673L18.0217 64.673L18.2325 64.1944ZM16.8493 57.0759L17.3185 57.3068L17.3186 57.3067L16.8493 57.0759ZM17.7864 55.1703L18.2557 55.401L17.3899 54.8292L17.7864 55.1703ZM16.3335 56.8591L16.7298 57.2003L16.7299 57.2001L16.3335 56.8591ZM10.2608 58.0796L9.86575 58.4223L9.86577 58.4223L10.2608 58.0796ZM11.7008 51.1592L12.0589 51.5403L12.059 51.5402L11.7008 51.1592ZM15.1647 47.9026L15.5229 48.2836L14.9616 47.4207L15.1647 47.9026ZM11.0834 49.6229L11.2864 50.1049L11.2865 50.1048L11.0834 49.6229ZM5.38892 47.8875L4.87446 47.9814L4.87446 47.9814L5.38892 47.8875ZM9.95357 42.2937L10.1012 42.7954L10.1013 42.7954L9.95357 42.2937ZM17.6566 40.026L17.8043 40.5276L17.6099 39.5051L17.6566 40.026ZM11.2019 40.6047L11.2485 41.1256L11.2486 41.1255L11.2019 40.6047ZM6.16229 37.0459L5.64248 36.9887L5.64248 36.9887L6.16229 37.0459ZM12.2149 33L12.1975 33.5227L12.1976 33.5227L12.2149 33ZM17.4652 33.1745L17.4478 33.6972L17.6871 32.701L17.4652 33.1745ZM13.4461 31.2911L13.2241 31.7647L13.2242 31.7647L13.4461 31.2911ZM10.7175 25.3816L10.2671 25.1158L10.2671 25.1159L10.7175 25.3816ZM17.4839 24.6641L17.1944 25.0996L17.1944 25.0996L17.4839 24.6641ZM22.3942 27.9285L22.1046 28.364L22.7696 27.5644L22.3942 27.9285ZM18.2361 23.6409L17.8607 24.005L17.8607 24.005L18.2361 23.6409ZM17.5373 16.9542L17.1752 16.5769L17.1751 16.5769L17.5373 16.9542ZM23.8469 18.4182L24.2707 18.1118L24.2707 18.1118L23.8469 18.4182ZM25.285 20.408L24.8612 20.7143L25.801 20.3227L25.285 20.408ZM24.675 16.7171L25.191 16.6318L25.1909 16.6317L24.675 16.7171ZM27.54 10.5841L27.4155 10.0762L27.4155 10.0762L27.54 10.5841ZM31.7672 15.1979L32.2894 15.1698L32.2894 15.1696L31.7672 15.1979ZM31.9654 18.8832L31.4432 18.9113L32.4807 18.9727L31.9654 18.8832ZM32.6862 14.7352L33.2014 14.8247L33.2014 14.8246L32.6862 14.7352ZM37.19 10.123L37.1165 10.6407C38.1259 10.7839 38.7505 11.4475 39.0639 12.4147C39.3839 13.4023 39.3551 14.6636 39.0328 15.8147L39.5364 15.9556L40.04 16.0966C40.404 14.7963 40.4564 13.3192 40.0589 12.0923C39.6547 10.845 38.763 9.81794 37.2634 9.60518L37.19 10.123ZM39.5364 15.9556L39.0329 15.8145L38.5047 17.699L39.0082 17.8402L39.5118 17.9813L40.04 16.0968L39.5364 15.9556ZM39.0082 17.8402L39.4737 18.0786L41.1247 14.8552L40.6593 14.6168L40.1938 14.3784L38.5428 17.6018L39.0082 17.8402ZM40.6593 14.6168L41.1247 14.8552C41.6265 13.8753 42.4193 12.9574 43.294 12.4305C44.159 11.9094 45.0393 11.7994 45.8383 12.2721L46.1046 11.822L46.3709 11.372C45.1414 10.6446 43.8363 10.8828 42.7543 11.5346C41.6821 12.1805 40.7665 13.2601 40.1938 14.3785L40.6593 14.6168ZM46.1046 11.822L45.8383 12.2721C46.7107 12.7884 47.0811 13.681 47.0648 14.7583C47.0484 15.8473 46.6298 17.0622 45.9934 18.0521L46.4333 18.3349L46.8732 18.6177C47.5938 17.4968 48.0907 16.0943 48.1106 14.7741C48.1307 13.4422 47.6583 12.1338 46.3709 11.372L46.1046 11.822ZM46.4333 18.3349L45.9934 18.0521L44.4372 20.4726L44.8771 20.7554L45.317 21.0382L46.8732 18.6177L46.4333 18.3349ZM44.8771 20.7554L45.225 21.1459L48.4589 18.2642L48.111 17.8737L47.7631 17.4833L44.5292 20.365L44.8771 20.7554ZM48.111 17.8737L48.4589 18.2642C49.3885 17.4358 50.5984 16.8321 51.738 16.6765C52.8654 16.5225 53.8683 16.8069 54.5367 17.6746L54.951 17.3554L55.3653 17.0363C54.4077 15.7932 52.9852 15.4505 51.5964 15.6402C50.2197 15.8283 48.8227 16.5391 47.7631 17.4833L48.111 17.8737ZM54.951 17.3554L54.5367 17.6746C55.2545 18.6064 55.297 19.727 54.8676 20.852C54.4341 21.9881 53.5302 23.0809 52.4544 23.8393L52.7557 24.2667L53.0571 24.6942C54.2757 23.835 55.326 22.5842 55.8448 21.2249C56.3677 19.8547 56.3606 18.3285 55.3653 17.0363L54.951 17.3554ZM52.7557 24.2667L52.4545 23.8393L48.9304 26.3228L49.2317 26.7503L49.533 27.1778L53.057 24.6942L52.7557 24.2667ZM49.2317 26.7503L49.424 27.2366L54.9875 25.037L54.7952 24.5507L54.6029 24.0643L49.0394 26.264L49.2317 26.7503ZM54.7952 24.5507L54.9875 25.037C56.1454 24.5791 57.4894 24.4286 58.613 24.6746C59.7248 24.918 60.5688 25.5302 60.8977 26.5749L61.3965 26.4178L61.8953 26.2607C61.424 24.764 60.2061 23.9527 58.8367 23.6529C57.4792 23.3557 55.9227 23.5424 54.6029 24.0644L54.7952 24.5507ZM61.3965 26.4178L60.8977 26.5749C61.1951 27.5194 60.9968 28.4155 60.4649 29.2137C59.9257 30.0229 59.0469 30.7202 58.0319 31.1989L58.2549 31.6719L58.478 32.1449C59.6221 31.6053 60.667 30.7966 61.3353 29.7937C62.0109 28.7799 62.3038 27.558 61.8954 26.2608L61.3965 26.4178ZM58.2549 31.6719L58.1807 32.1895C59.2461 32.3423 60.2518 32.7361 60.967 33.3244C61.6709 33.9035 62.0841 34.6581 62.0432 35.5883L62.5656 35.6112L63.0881 35.6342C63.1461 34.3161 62.5396 33.2638 61.6314 32.5167C60.7344 31.7788 59.5353 31.3271 58.3291 31.1542L58.2549 31.6719ZM62.5656 35.6112L62.0432 35.5882C61.9914 36.7631 61.3017 37.6471 60.2483 38.2304C59.1847 38.8194 57.7893 39.0723 56.478 38.9589L56.4329 39.4799L56.3878 40.0009C57.8732 40.1294 59.4824 39.8501 60.755 39.1454C62.038 38.4349 63.0162 37.2637 63.0881 35.6343L62.5656 35.6112ZM56.4329 39.4799L56.478 38.9589L52.333 38.5997L52.2879 39.1207L52.2427 39.6417L56.3877 40.0009L56.4329 39.4799ZM52.2879 39.1207L52.1015 39.6093L56.8886 41.4352L57.075 40.9465L57.2613 40.4579L52.4743 38.6321L52.2879 39.1207ZM57.075 40.9465L56.8886 41.4352C58.052 41.8788 59.1452 42.675 59.8082 43.6151C60.4642 44.5452 60.6737 45.5667 60.2113 46.5597L60.6854 46.7804L61.1595 47.0011C61.8219 45.5786 61.4709 44.1579 60.6629 43.0122C59.8619 41.8766 58.5875 40.9636 57.2613 40.4579L57.075 40.9465ZM60.6854 46.7804L60.2113 46.5596C59.7148 47.6257 58.7396 48.1795 57.5432 48.3165C56.3351 48.4549 54.9488 48.1559 53.7801 47.5504L53.5395 48.0147L53.2989 48.479C54.6227 49.165 56.2168 49.5212 57.6622 49.3557C59.1193 49.1888 60.4708 48.4797 61.1595 47.0012L60.6854 46.7804ZM53.5395 48.0147L53.7806 47.5506L53.5174 47.4139L53.2763 47.878L53.0353 48.3421L53.2985 48.4788L53.5395 48.0147ZM53.2763 47.878L52.946 48.2834L53.6457 48.8534L53.976 48.448L54.3063 48.0425L53.6066 47.4725L53.2763 47.878ZM53.976 48.448L53.6457 48.8535C54.6112 49.6397 55.3993 50.7385 55.734 51.8389C56.065 52.9276 55.9435 53.963 55.193 54.7607L55.5739 55.119L55.9548 55.4774C57.03 54.3345 57.1424 52.8757 56.7346 51.5346C56.3304 50.2052 55.4067 48.9387 54.3062 48.0425L53.976 48.448ZM55.5739 55.119L55.193 54.7607C54.387 55.6173 53.2874 55.8373 52.1087 55.5921C50.9183 55.3445 49.696 54.6258 48.7764 53.684L48.4022 54.0494L48.0281 54.4148C49.0698 55.4815 50.4714 56.3198 51.8957 56.6161C53.3315 56.9147 54.8371 56.6653 55.9547 55.4774L55.5739 55.119ZM48.4022 54.0494L48.7762 53.6839L48.2013 53.0956L47.8273 53.4611L47.4533 53.8266L48.0282 54.4149L48.4022 54.0494ZM47.8273 53.4611L47.3657 53.7069L48.4387 55.722L48.9003 55.4762L49.3619 55.2304L48.2889 53.2153L47.8273 53.4611ZM48.9003 55.4762L48.4387 55.7219C49.0236 56.821 49.3241 58.1395 49.2059 59.2836C49.089 60.4156 48.5755 61.3229 47.5745 61.7671L47.7866 62.2451L47.9988 62.7231C49.433 62.0866 50.1022 60.7854 50.2463 59.3911C50.3891 58.0089 50.0287 56.4833 49.362 55.2305L48.9003 55.4762ZM47.7866 62.2451L47.5746 61.7671C46.4994 62.2441 45.4004 62.0203 44.4087 61.3371C43.4074 60.6472 42.5593 59.5106 42.0768 58.2859L41.5903 58.4776L41.1037 58.6693C41.6502 60.0565 42.6172 61.3729 43.8153 62.1984C45.0231 63.0305 46.5078 63.3846 47.9987 62.7231L47.7866 62.2451ZM41.5903 58.4776L42.0768 58.2859L41.0713 55.7343L40.5848 55.926L40.0982 56.1177L41.1037 58.6693L41.5903 58.4776ZM40.5848 55.926L40.07 56.0178L40.7974 60.0981L41.3123 60.0063L41.8271 59.9145L41.0996 55.8342L40.5848 55.926ZM41.3123 60.0063L40.7974 60.098C41.0157 61.3238 40.8957 62.6707 40.431 63.7228C39.9713 64.7636 39.2034 65.4687 38.1142 65.5832L38.1689 66.1033L38.2235 66.6234C39.7841 66.4594 40.8214 65.4275 41.3878 64.1453C41.9491 62.8743 42.0759 61.3119 41.8271 59.9147L41.3123 60.0063ZM38.1689 66.1033L38.1142 65.5832C36.9444 65.7062 35.9679 65.1551 35.2349 64.1998C34.4948 63.2351 34.0379 61.8926 33.9558 60.5788L33.4339 60.6114L32.9119 60.644C33.0049 62.1321 33.5196 63.6823 34.4051 64.8365C35.2979 66.0001 36.6013 66.7939 38.2235 66.6234L38.1689 66.1033ZM33.4339 60.6114L33.9558 60.5787L33.6136 55.1097L33.0917 55.1423L32.5697 55.175L32.9119 60.6441L33.4339 60.6114ZM33.0917 55.1423L32.5716 55.0877L31.8394 62.0637L32.3595 62.1183L32.8796 62.1729L33.6118 55.1969L33.0917 55.1423ZM32.3595 62.1183L31.8394 62.0636C31.7093 63.302 31.2206 64.5628 30.4825 65.4449C29.7523 66.3176 28.8191 66.7822 27.7408 66.5903L27.6491 67.1051L27.5575 67.62C29.1024 67.895 30.3851 67.1911 31.2847 66.1161C32.1764 65.0504 32.7313 63.5844 32.8796 62.1729L32.3595 62.1183ZM27.6491 67.1051L27.7408 66.5903C26.5828 66.3841 25.7972 65.584 25.3576 64.4632C24.9138 63.3314 24.8468 61.9151 25.132 60.6301L24.6215 60.5168L24.111 60.4035C23.7879 61.859 23.8528 63.4909 24.3839 64.8451C24.9193 66.2104 25.9517 67.3342 27.5575 67.62L27.6491 67.1051ZM24.6215 60.5168L25.132 60.6301L26.1983 55.8258L25.6878 55.7125L25.1773 55.5992L24.111 60.4035L24.6215 60.5168ZM25.6878 55.7125L25.1954 55.5364L23.4965 60.2877L23.9889 60.4638L24.4813 60.6398L26.1802 55.8886L25.6878 55.7125ZM23.9889 60.4638L23.4965 60.2876C23.0772 61.4599 22.304 62.5692 21.3782 63.2515C20.4622 63.9266 19.4455 64.1573 18.4433 63.7158L18.2325 64.1944L18.0217 64.673C19.4575 65.3054 20.8703 64.9251 21.9987 64.0935C23.1172 63.2692 24.0033 61.9762 24.4813 60.6399L23.9889 60.4638ZM18.2325 64.1944L18.4433 63.7159C17.3669 63.2416 16.7928 62.2781 16.6308 61.0849C16.4673 59.88 16.7373 58.4878 17.3185 57.3068L16.8493 57.0759L16.3801 56.845C15.7217 58.1828 15.3988 59.7839 15.5944 61.2256C15.7917 62.6789 16.529 64.0153 18.0216 64.673L18.2325 64.1944ZM16.8493 57.0759L17.3186 57.3067L18.2557 55.401L17.7864 55.1703L17.3171 54.9395L16.38 56.8451L16.8493 57.0759ZM17.7864 55.1703L17.3899 54.8292L15.937 56.518L16.3335 56.8591L16.7299 57.2001L18.1828 55.5113L17.7864 55.1703ZM16.3335 56.8591L15.9371 56.5179C15.174 57.4042 14.1486 58.1104 13.1594 58.3807C12.1896 58.6456 11.3071 58.4875 10.6558 57.7369L10.2608 58.0796L9.86577 58.4223C10.8461 59.5522 12.1842 59.7313 13.435 59.3896C14.6664 59.0532 15.8615 58.2088 16.7298 57.2003L16.3335 56.8591ZM10.2608 58.0796L10.6558 57.7369C9.93937 56.9111 9.81398 55.8271 10.1208 54.6822C10.4292 53.5317 11.1637 52.3815 12.0589 51.5403L11.7008 51.1592L11.3427 50.7781C10.325 51.7343 9.4758 53.0488 9.11059 54.4114C8.74386 55.7796 8.85492 57.2571 9.86575 58.4223L10.2608 58.0796ZM11.7008 51.1592L12.059 51.5402L15.5229 48.2836L15.1647 47.9026L14.8065 47.5216L11.3426 50.7782L11.7008 51.1592ZM15.1647 47.9026L14.9616 47.4207L10.8803 49.141L11.0834 49.6229L11.2865 50.1048L15.3678 48.3845L15.1647 47.9026ZM11.0834 49.6229L10.8804 49.1409C9.79899 49.5964 8.60083 49.7488 7.65392 49.5298C6.73533 49.3173 6.08208 48.7727 5.90337 47.7936L5.38892 47.8875L4.87446 47.9814C5.14288 49.452 6.17986 50.2624 7.41822 50.5488C8.62827 50.8287 10.0538 50.624 11.2864 50.1049L11.0834 49.6229ZM5.38892 47.8875L5.90338 47.7937C5.70581 46.7108 6.13012 45.6537 6.94698 44.7486C7.76524 43.8419 8.93837 43.1376 10.1012 42.7954L9.95357 42.2937L9.80592 41.792C8.47301 42.1843 7.12837 42.9865 6.17052 44.0478C5.21126 45.1108 4.60112 46.4833 4.87446 47.9814L5.38892 47.8875ZM9.95357 42.2937L10.1013 42.7954L17.8043 40.5276L17.6566 40.026L17.5089 39.5243L9.80588 41.7921L9.95357 42.2937ZM17.6566 40.026L17.6099 39.5051L11.1552 40.0838L11.2019 40.6047L11.2486 41.1255L17.7033 40.5468L17.6566 40.026ZM11.2019 40.6047L11.1552 40.0838C9.95894 40.191 8.74728 39.9497 7.88866 39.4203C7.05161 38.9042 6.5684 38.1363 6.68211 37.1031L6.16229 37.0459L5.64248 36.9887C5.47622 38.4993 6.22896 39.6258 7.33975 40.3106C8.42897 40.9822 9.87707 41.2484 11.2485 41.1256L11.2019 40.6047ZM6.16229 37.0459L6.68211 37.1031C6.80601 35.9776 7.52311 35.07 8.57137 34.4384C9.6228 33.8048 10.9615 33.4815 12.1975 33.5227L12.2149 33L12.2323 32.4774C10.8092 32.43 9.26831 32.7972 8.03154 33.5425C6.79161 34.2897 5.81195 35.4494 5.64248 36.9887L6.16229 37.0459ZM12.2149 33L12.1976 33.5227L17.4478 33.6972L17.4652 33.1745L17.4825 32.6519L12.2323 32.4774L12.2149 33ZM17.4652 33.1745L17.6871 32.701L13.668 30.8176L13.4461 31.2911L13.2242 31.7647L17.2433 33.6481L17.4652 33.1745ZM13.4461 31.2911L13.668 30.8176C12.599 30.3167 11.682 29.4677 11.1858 28.515C10.6953 27.5732 10.6271 26.5639 11.1679 25.6474L10.7175 25.3816L10.2671 25.1159C9.50442 26.4083 9.63912 27.8095 10.2582 28.9981C10.8715 30.1759 11.9705 31.1772 13.2241 31.7647L13.4461 31.2911ZM10.7175 25.3816L11.1678 25.6474C11.737 24.6831 12.699 24.2046 13.81 24.1357C14.9315 24.0661 16.174 24.4211 17.1944 25.0996L17.4839 24.6641L17.7735 24.2286C16.5823 23.4366 15.1165 23.0067 13.7452 23.0918C12.3633 23.1775 11.0479 23.7929 10.2671 25.1158L10.7175 25.3816ZM17.4839 24.6641L17.1944 25.0996L22.1046 28.364L22.3942 27.9285L22.6837 27.493L17.7734 24.2286L17.4839 24.6641ZM22.3942 27.9285L22.7696 27.5644L18.6116 23.2768L18.2361 23.6409L17.8607 24.005L22.0187 28.2925L22.3942 27.9285ZM18.2361 23.6409L18.6116 23.2769C17.8038 22.4439 17.2243 21.3104 17.0574 20.1998C16.8914 19.0954 17.1361 18.064 17.8994 17.3315L17.5373 16.9542L17.1751 16.5769C16.1056 17.6034 15.8208 19.0092 16.0231 20.3552C16.2245 21.6951 16.9108 23.0254 17.8607 24.005L18.2361 23.6409ZM17.5373 16.9542L17.8994 17.3315C18.694 16.5689 19.6813 16.4155 20.6795 16.699C21.695 16.9875 22.704 17.7299 23.4231 18.7245L23.8469 18.4182L24.2707 18.1118C23.4361 16.9573 22.2409 16.0553 20.9653 15.693C19.6724 15.3256 18.2818 15.5148 17.1752 16.5769L17.5373 16.9542ZM23.8469 18.4182L23.423 18.7245L24.8612 20.7143L25.285 20.408L25.7088 20.1016L24.2707 18.1118L23.8469 18.4182ZM25.285 20.408L25.801 20.3227L25.191 16.6318L24.675 16.7171L24.1591 16.8023L24.769 20.4932L25.285 20.408ZM24.675 16.7171L25.1909 16.6317C25.0058 15.5127 25.1178 14.2241 25.5459 13.1622C25.9734 12.1019 26.6842 11.3324 27.6645 11.092L27.54 10.5841L27.4155 10.0762C26.0037 10.4223 25.0826 11.5142 24.5759 12.7712C24.0698 14.0266 23.9454 15.5113 24.1591 16.8024L24.675 16.7171ZM27.54 10.5841L27.6645 11.092C28.6915 10.8402 29.5166 11.2269 30.1392 12.0045C30.7789 12.8035 31.1787 13.9989 31.2451 15.2261L31.7672 15.1979L32.2894 15.1696C32.2143 13.7803 31.763 12.3592 30.9556 11.3508C30.1311 10.3209 28.9134 9.70895 27.4155 10.0762L27.54 10.5841ZM31.7672 15.1979L31.245 15.2259L31.4432 18.9113L31.9654 18.8832L32.4876 18.8551L32.2894 15.1698L31.7672 15.1979ZM31.9654 18.8832L32.4807 18.9727L33.2014 14.8247L32.6862 14.7352L32.1709 14.6457L31.4502 18.7937L31.9654 18.8832ZM32.6862 14.7352L33.2014 14.8246C33.3905 13.7352 33.8904 12.5893 34.6001 11.7681C35.3071 10.9499 36.1684 10.5062 37.1165 10.6407L37.19 10.123L37.2634 9.60518C35.8493 9.40456 34.6616 10.0973 33.8088 11.0842C32.9586 12.068 32.3878 13.3958 32.1709 14.6458L32.6862 14.7352Z" fill="#FF8E9C" mask="url(#path-1-inside-1_17130_3233)"/>
<path fill-rule="evenodd" clip-rule="evenodd" d="M31.7181 21.7167C33.0206 21.6367 33.4721 23.0825 33.2542 24.3821L33.1019 25.2886L33.7863 23.5008C34.2079 22.3987 35.289 21.2563 36.4127 21.6348C37.6116 22.039 37.5503 23.5846 36.9862 24.7233L36.327 26.052L37.875 24.3753C38.8346 23.3354 40.5684 22.6384 41.6674 23.5455C42.8257 24.5021 42.1844 26.1532 41.0408 27.1438L39.2484 28.6961L42.3616 27.0361C43.5794 26.3868 45.3873 26.2682 46.0689 27.4756C46.7915 28.7558 45.6039 30.0791 44.2361 30.6353L42.7141 31.2529L45.4427 30.767C46.7896 30.5268 48.4873 30.9547 48.6575 32.3127C48.8381 33.7563 47.2474 34.6386 45.7961 34.7494L42.3118 35.0147L45.9453 35.6401C47.3163 35.876 48.7095 36.8618 48.279 38.1782C47.8221 39.5746 45.9566 39.8633 44.5479 39.4682L42.6761 38.9432L44.7686 39.9919C46.0467 40.6324 47.0529 42.007 46.1868 43.1323C45.2725 44.3198 43.3516 44.0632 42.1017 43.2546L39.9432 41.8578L41.7684 43.9879C42.7282 45.1082 43.0783 46.8184 41.8106 47.5546C40.481 48.3266 38.7691 47.3711 37.9225 46.0997L36.8433 44.4793L37.7018 46.6986C38.2399 48.09 37.9784 49.8742 36.5342 50.2309C35.0246 50.6037 33.7174 49.1815 33.3471 47.676L32.3388 43.5818L32.5693 48.0054C32.6465 49.4905 31.8343 51.1584 30.3449 51.1496C28.7888 51.1403 27.9863 49.4395 28.1059 47.8855L28.3812 44.3163L27.5871 47.9166C27.2705 49.3523 26.0518 50.7884 24.6095 50.4685C23.3405 50.1868 22.9134 48.8667 23.1187 47.5835C22.4255 48.4244 21.3152 49.0347 20.4794 48.382C19.4898 47.6088 19.9455 46.075 20.7422 45.1051L23.7634 41.4248L20.0422 43.7492C18.993 44.4041 17.544 44.5567 17.1618 43.3926C16.7565 42.1575 17.8738 40.8461 19.03 40.2779L22.8016 38.4236L19.9527 39.2357C18.7089 39.59 17.2722 39.2651 17.2671 37.9865C17.262 36.6416 18.7249 35.6336 20.0363 35.4167L22.8771 34.9464L20.7542 34.4534C19.4588 34.1524 18.3991 33.0421 18.9422 31.8389C19.5036 30.5954 21.1906 30.3221 22.4477 30.8247L25.1081 31.8879L22.8595 30.3256C21.7713 29.5696 21.138 28.072 21.9746 27.0411C22.8378 25.9773 24.4402 26.2804 25.4313 27.2301L26.1703 27.9384L25.69 26.3622C25.3172 25.1404 25.5852 23.4419 26.7688 22.923C28.0105 22.3788 29.0005 23.5555 29.2418 24.9057L29.5274 26.5099L29.6548 24.4869C29.7309 23.2696 30.4882 21.7925 31.7181 21.7167Z" fill="#FFBAC3"/>
<ellipse cx="30.7715" cy="34.5297" rx="5.13829" ry="5.28692" transform="rotate(38.6649 30.7715 34.5297)" fill="#94656A"/>
<ellipse cx="30.4566" cy="33.9532" rx="3.78115" ry="3.71344" transform="rotate(38.6649 30.4566 33.9532)" fill="#3C2A2C"/>
</g>
<defs>
<linearGradient id="paint0_linear_17130_3233" x1="36.2353" y1="10.0464" x2="32.0476" y2="67.4441" gradientUnits="userSpaceOnUse">
<stop stop-color="#FFE3E5"/>
<stop offset="1" stop-color="#FFCED4"/>
</linearGradient>
<clipPath id="clip0_17130_3233">
<rect width="67" height="67" fill="white"/>
</clipPath>
</defs>
</svg>
