<svg width="67" height="67" viewBox="0 0 67 67" fill="none" xmlns="http://www.w3.org/2000/svg">
<path d="M7.7455 37.2176C9.48348 50.5784 15.0776 55.4574 17.6574 56.2268C19.8752 56.9963 26.1844 59.3229 33.6795 62.473C43.0483 66.4106 52.2813 60.3005 56.7621 56.2268C60.3466 52.9679 60.9712 49.2569 60.8354 47.8088C64.0942 45.3104 65.7235 42.3323 66.1309 41.1555C65.9136 36.9192 60.1565 36.7651 57.3052 37.2176C59.8035 27.6585 51.7382 23.0061 47.3932 21.8748C44.1345 15.5746 40.7853 15.6289 39.518 16.4435C34.9558 9.70883 28.1125 12.0985 25.2611 14.1351C21.8938 11.9627 16.7975 16.6873 14.6703 19.3212C12.5883 19.2217 8.4244 19.8646 8.4244 23.2322C2.66733 21.8201 1.77118 24.6353 2.04274 26.2195C3.2195 24.3186 6.00752 23.8569 7.7455 37.2176Z" fill="#FED8E1" stroke="#EF8EAB" stroke-width="0.474648"/>
<path d="M18.6991 31.6859C16.2008 38.7464 19.7401 50.3782 21.8221 55.3116C24.3204 55.3116 30.1952 58.0271 32.8203 59.3849C37.3462 57.7556 46.6426 52.2972 47.6203 43.4987C48.8423 32.5005 21.8221 22.8602 18.6991 31.6859Z" fill="url(#paint0_linear_17130_3353)"/>
<path d="M49.251 44.0437C50.4459 50.018 40.2443 57.3954 34.9941 60.3373C48.3549 62.1838 56.6737 52.4168 59.163 47.3024C61.0639 38.7483 47.7574 36.5758 49.251 44.0437Z" fill="url(#paint1_linear_17130_3353)"/>
<path d="M17.4794 29.1069C14.8996 35.3528 18.1583 51.2383 18.1583 51.7815C13.6776 56.9409 7.16016 28.835 7.16016 27.2057C7.16016 25.5763 20.0592 22.8611 17.4794 29.1069Z" fill="url(#paint2_linear_17130_3353)"/>
<path d="M39.6112 17.7027C38.1629 21.414 36.5969 26.7315 36.4883 26.9487C43.1143 26.9487 48.3916 34.3703 50.202 38.0811C50.6365 35.0397 53.7323 36.6198 55.9048 36.7104C57.2083 29.7584 49.7495 24.4912 45.8571 22.7266C45.2054 18.5989 41.4216 17.6574 39.6112 17.7027Z" fill="url(#paint3_linear_17130_3353)"/>
<path d="M36.2164 28.1565C44.3632 29.3514 47.9387 36.258 48.7081 39.562C39.1492 26.5271 25.6256 26.5271 20.0586 28.1565L21.688 25.984C24.2949 21.6391 32.4598 25.6219 36.2164 28.1565Z" fill="#F092AD"/>
<path d="M38.525 17.0215L35.5379 27.0692C29.9981 22.6158 26.7122 22.2263 25.7617 22.5883V14.7132C30.867 11.2373 36.3978 14.8038 38.525 17.0215Z" fill="url(#paint4_linear_17130_3353)"/>
<path d="M24.9469 14.9844V23.5385C21.5796 23.5385 19.6968 26.6614 19.2442 27.4761C18.9183 24.326 13.3604 23.8553 10.5543 24.7605L9.60381 23.1312C8.95207 21.8277 12.7268 20.144 15.035 20.5513C16.2299 17.184 22.5029 15.0296 24.9469 14.9844Z" fill="url(#paint5_linear_17130_3353)"/>
<defs>
<linearGradient id="paint0_linear_17130_3353" x1="23.8588" y1="61.9647" x2="31.734" y2="31.55" gradientUnits="userSpaceOnUse">
<stop stop-color="#FED8E1" stop-opacity="0"/>
<stop offset="1" stop-color="#ED83A3"/>
</linearGradient>
<linearGradient id="paint1_linear_17130_3353" x1="47.1717" y1="39.4941" x2="47.1717" y2="60.5664" gradientUnits="userSpaceOnUse">
<stop stop-color="#EF90AD"/>
<stop offset="1" stop-color="#FED8E1"/>
</linearGradient>
<linearGradient id="paint2_linear_17130_3353" x1="12.3198" y1="24.0507" x2="12.3198" y2="52.3752" gradientUnits="userSpaceOnUse">
<stop stop-color="#EF8CA9"/>
<stop offset="1" stop-color="#FED8E1"/>
</linearGradient>
<linearGradient id="paint3_linear_17130_3353" x1="35.6736" y1="33.7232" x2="54.1397" y2="25.7122" gradientUnits="userSpaceOnUse">
<stop stop-color="#ED83A3"/>
<stop offset="1" stop-color="#FED8E1"/>
</linearGradient>
<linearGradient id="paint4_linear_17130_3353" x1="33.9085" y1="25.9828" x2="32.1434" y2="13.2598" gradientUnits="userSpaceOnUse">
<stop stop-color="#F092AD"/>
<stop offset="1" stop-color="#FED8E1"/>
</linearGradient>
<linearGradient id="paint5_linear_17130_3353" x1="17.2381" y1="27.4761" x2="17.2381" y2="14.9844" gradientUnits="userSpaceOnUse">
<stop stop-color="#F5A7BD"/>
<stop offset="1" stop-color="#FED8E1"/>
</linearGradient>
</defs>
</svg>
