<svg width="67" height="67" viewBox="0 0 67 67" fill="none" xmlns="http://www.w3.org/2000/svg">
<g clip-path="url(#clip0_17130_3473)">
<mask id="path-1-inside-1_17130_3473" fill="white">
<path fill-rule="evenodd" clip-rule="evenodd" d="M48.5249 10.8071C46.5281 9.60474 44.1158 11.098 43.0108 13.1504L42.0107 15.0082L42.4348 13.8049C43.2131 11.5974 42.635 8.71363 40.3955 7.99631C38.0752 7.25367 36.104 9.33247 35.6368 11.7356L35.4591 12.6502L35.4931 11.7733C35.5721 9.74494 34.4674 7.3408 32.4294 7.18952C30.2915 7.03128 29.2415 9.31979 29.4182 11.4711L29.4517 11.8712L29.4425 11.8358C28.9819 9.90359 27.3317 7.86431 25.3617 8.21533C23.2863 8.58539 22.9295 11.0383 23.6519 13.0353L24.3351 14.9212L23.2298 12.8213C22.2608 10.9796 20.0617 9.37159 18.1712 10.2733C16.1819 11.2228 16.4521 13.8119 17.7041 15.6436L17.9356 15.9811C16.625 14.6998 14.5366 13.8824 13.1919 15.0808C12.1957 15.9688 12.2589 17.262 12.8425 18.4378C11.2423 17.5518 9.18413 17.3201 8.19741 18.7988C6.98893 20.6105 8.53139 22.8565 10.4002 23.9765L13.3268 25.7295L10.2935 24.5599C8.26291 23.7764 5.65154 24.0462 5.08916 26.1408C4.61478 27.9092 6.16404 29.4605 7.9075 30.147C6.34338 30.3408 4.98637 31.1899 5.02399 32.7734C5.06448 34.4719 6.81357 35.5384 8.54626 35.8184C6.60229 36.3359 5.04499 37.8086 5.61982 39.7405C6.24884 41.8544 9.02482 42.5343 11.1491 42.0117L11.1532 42.0108L10.7028 42.1911C8.57225 43.0453 6.96368 45.1555 8.13556 47.1094C9.25852 48.9816 12.0645 48.9288 13.9541 47.8674L14.236 47.7094L14.1809 47.7523C12.4709 49.1016 11.5081 51.4983 13.0316 53.0423C14.4889 54.5188 16.9985 53.7382 18.4453 52.2633L20.0381 50.6405L19.1007 51.9362C17.8253 53.7015 17.5293 56.3677 19.3946 57.4916C20.8609 58.3748 22.5555 57.7615 23.7638 56.5502C23.6188 58.6042 24.4854 60.6869 26.4456 61.3129C28.4646 61.9573 30.2734 60.7305 31.2001 58.8829C31.2755 60.8095 32.3629 62.9073 34.2622 63.0483C36.4002 63.2067 37.4496 60.9188 37.2729 58.7676L37.2334 58.2822C37.7098 60.2834 39.4325 62.3603 41.4713 61.9959C43.5967 61.6156 44.0106 59.1451 43.2888 57.0921L43.7581 57.9841C44.7152 59.7985 46.8806 61.3965 48.7443 60.5082C50.7078 59.5719 50.4262 57.0125 49.1924 55.2041L48.5391 54.2459L49.0232 54.7915C50.3723 56.3109 52.7919 57.3345 54.3122 55.9758C55.9186 54.5396 54.9817 52.1024 53.3784 50.6514L52.8292 50.154L54.0708 50.9388C55.9671 52.137 58.746 52.5128 59.8506 50.5617C60.8168 48.8546 59.4072 46.9283 57.6882 45.9089C58.9143 45.8464 59.9895 45.307 60.3148 44.0876C60.8104 42.2286 58.871 40.6487 57.0195 40.1502L56.2838 39.952L57.3185 40.0855C59.3846 40.3518 61.7178 39.5332 61.6687 37.4628C61.6222 35.5062 59.3098 34.3868 57.3651 34.3439L56.097 34.3157L58.0443 34.0843C60.2169 33.8258 62.2784 32.3427 61.6568 30.2623C61.0653 28.2826 58.4342 27.6874 56.4404 28.1663L54.737 28.5754L56.2284 27.9705C58.2286 27.159 59.7982 25.1913 58.6936 23.354C57.6404 21.6026 54.9963 21.6997 53.221 22.6841L51.7117 23.5211L53.0088 22.5202C55.0018 20.9824 55.9727 18.2096 54.2166 16.4235C52.8092 14.9924 50.565 15.2866 48.8903 16.4215C50.151 14.6113 50.4108 11.943 48.5249 10.8071Z"/>
</mask>
<path fill-rule="evenodd" clip-rule="evenodd" d="M48.5249 10.8071C46.5281 9.60474 44.1158 11.098 43.0108 13.1504L42.0107 15.0082L42.4348 13.8049C43.2131 11.5974 42.635 8.71363 40.3955 7.99631C38.0752 7.25367 36.104 9.33247 35.6368 11.7356L35.4591 12.6502L35.4931 11.7733C35.5721 9.74494 34.4674 7.3408 32.4294 7.18952C30.2915 7.03128 29.2415 9.31979 29.4182 11.4711L29.4517 11.8712L29.4425 11.8358C28.9819 9.90359 27.3317 7.86431 25.3617 8.21533C23.2863 8.58539 22.9295 11.0383 23.6519 13.0353L24.3351 14.9212L23.2298 12.8213C22.2608 10.9796 20.0617 9.37159 18.1712 10.2733C16.1819 11.2228 16.4521 13.8119 17.7041 15.6436L17.9356 15.9811C16.625 14.6998 14.5366 13.8824 13.1919 15.0808C12.1957 15.9688 12.2589 17.262 12.8425 18.4378C11.2423 17.5518 9.18413 17.3201 8.19741 18.7988C6.98893 20.6105 8.53139 22.8565 10.4002 23.9765L13.3268 25.7295L10.2935 24.5599C8.26291 23.7764 5.65154 24.0462 5.08916 26.1408C4.61478 27.9092 6.16404 29.4605 7.9075 30.147C6.34338 30.3408 4.98637 31.1899 5.02399 32.7734C5.06448 34.4719 6.81357 35.5384 8.54626 35.8184C6.60229 36.3359 5.04499 37.8086 5.61982 39.7405C6.24884 41.8544 9.02482 42.5343 11.1491 42.0117L11.1532 42.0108L10.7028 42.1911C8.57225 43.0453 6.96368 45.1555 8.13556 47.1094C9.25852 48.9816 12.0645 48.9288 13.9541 47.8674L14.236 47.7094L14.1809 47.7523C12.4709 49.1016 11.5081 51.4983 13.0316 53.0423C14.4889 54.5188 16.9985 53.7382 18.4453 52.2633L20.0381 50.6405L19.1007 51.9362C17.8253 53.7015 17.5293 56.3677 19.3946 57.4916C20.8609 58.3748 22.5555 57.7615 23.7638 56.5502C23.6188 58.6042 24.4854 60.6869 26.4456 61.3129C28.4646 61.9573 30.2734 60.7305 31.2001 58.8829C31.2755 60.8095 32.3629 62.9073 34.2622 63.0483C36.4002 63.2067 37.4496 60.9188 37.2729 58.7676L37.2334 58.2822C37.7098 60.2834 39.4325 62.3603 41.4713 61.9959C43.5967 61.6156 44.0106 59.1451 43.2888 57.0921L43.7581 57.9841C44.7152 59.7985 46.8806 61.3965 48.7443 60.5082C50.7078 59.5719 50.4262 57.0125 49.1924 55.2041L48.5391 54.2459L49.0232 54.7915C50.3723 56.3109 52.7919 57.3345 54.3122 55.9758C55.9186 54.5396 54.9817 52.1024 53.3784 50.6514L52.8292 50.154L54.0708 50.9388C55.9671 52.137 58.746 52.5128 59.8506 50.5617C60.8168 48.8546 59.4072 46.9283 57.6882 45.9089C58.9143 45.8464 59.9895 45.307 60.3148 44.0876C60.8104 42.2286 58.871 40.6487 57.0195 40.1502L56.2838 39.952L57.3185 40.0855C59.3846 40.3518 61.7178 39.5332 61.6687 37.4628C61.6222 35.5062 59.3098 34.3868 57.3651 34.3439L56.097 34.3157L58.0443 34.0843C60.2169 33.8258 62.2784 32.3427 61.6568 30.2623C61.0653 28.2826 58.4342 27.6874 56.4404 28.1663L54.737 28.5754L56.2284 27.9705C58.2286 27.159 59.7982 25.1913 58.6936 23.354C57.6404 21.6026 54.9963 21.6997 53.221 22.6841L51.7117 23.5211L53.0088 22.5202C55.0018 20.9824 55.9727 18.2096 54.2166 16.4235C52.8092 14.9924 50.565 15.2866 48.8903 16.4215C50.151 14.6113 50.4108 11.943 48.5249 10.8071Z" fill="url(#paint0_linear_17130_3473)"/>
<path d="M48.5249 10.8071L48.8166 10.3227L48.8166 10.3227L48.5249 10.8071ZM43.0108 13.1504L42.5129 12.8823L42.5129 12.8823L43.0108 13.1504ZM42.0107 15.0082L42.5086 15.2763L41.4774 14.8203L42.0107 15.0082ZM42.4348 13.8049L41.9015 13.617L41.9015 13.6169L42.4348 13.8049ZM40.3955 7.99631L40.5679 7.45777L40.568 7.45781L40.3955 7.99631ZM35.6368 11.7356L35.0817 11.6277L35.0817 11.6276L35.6368 11.7356ZM35.4591 12.6502L36.0142 12.758L34.8941 12.6283L35.4591 12.6502ZM35.4931 11.7733L34.9281 11.7514L34.9281 11.7513L35.4931 11.7733ZM32.4294 7.18952L32.4712 6.62561L32.4713 6.62562L32.4294 7.18952ZM29.4182 11.4711L28.8547 11.5182L28.8546 11.5174L29.4182 11.4711ZM29.4517 11.8712L30.0152 11.8241L28.9042 12.0125L29.4517 11.8712ZM29.4425 11.8358L28.8949 11.9771L28.8925 11.9669L29.4425 11.8358ZM25.3617 8.21533L25.2624 7.65866L25.2625 7.65865L25.3617 8.21533ZM23.6519 13.0353L23.1203 13.2279L23.1202 13.2277L23.6519 13.0353ZM24.3351 14.9212L24.8668 14.7287L23.8348 15.1846L24.3351 14.9212ZM23.2298 12.8213L22.7294 13.0847L22.7294 13.0846L23.2298 12.8213ZM18.1712 10.2733L17.9276 9.76303L17.9278 9.76297L18.1712 10.2733ZM17.7041 15.6436L17.2378 15.9635L17.2372 15.9627L17.7041 15.6436ZM17.9356 15.9811L18.4018 15.6612L17.5403 16.3854L17.9356 15.9811ZM13.1919 15.0808L12.8156 14.6588L12.8157 14.6587L13.1919 15.0808ZM12.8425 18.4378L13.349 18.1864L14.1552 19.8109L12.5686 18.9324L12.8425 18.4378ZM8.19741 18.7988L7.72702 18.4851L7.72707 18.485L8.19741 18.7988ZM10.4002 23.9765L10.1097 24.4616L10.1096 24.4615L10.4002 23.9765ZM13.3268 25.7295L13.6173 25.2444L13.1233 26.2571L13.3268 25.7295ZM10.2935 24.5599L10.0901 25.0874L10.0899 25.0874L10.2935 24.5599ZM5.08916 26.1408L4.54302 25.9943L4.54305 25.9942L5.08916 26.1408ZM7.9075 30.147L8.11467 29.6209L7.97701 30.7082L7.9075 30.147ZM5.02399 32.7734L4.45871 32.7868L4.45871 32.7868L5.02399 32.7734ZM8.54626 35.8184L8.63648 35.2602L8.69172 36.3648L8.54626 35.8184ZM5.61982 39.7405L5.07786 39.9017L5.07785 39.9017L5.61982 39.7405ZM11.1491 42.0117L11.0141 41.4626L11.0182 41.4617L11.1491 42.0117ZM11.1532 42.0108L11.0222 41.4607L11.3633 42.5357L11.1532 42.0108ZM10.7028 42.1911L10.4924 41.6663L10.4926 41.6662L10.7028 42.1911ZM8.13556 47.1094L7.65066 47.4003L7.65064 47.4003L8.13556 47.1094ZM13.9541 47.8674L13.6772 47.3744L13.6777 47.3741L13.9541 47.8674ZM14.236 47.7094L13.9595 47.2162L14.5835 48.1554L14.236 47.7094ZM14.1809 47.7523L13.8306 47.3084L13.8333 47.3063L14.1809 47.7523ZM13.0316 53.0423L12.6292 53.4395L12.6292 53.4394L13.0316 53.0423ZM18.4453 52.2633L18.0417 51.8673L18.0418 51.8672L18.4453 52.2633ZM20.0381 50.6405L19.6345 50.2444L20.4962 50.9719L20.0381 50.6405ZM19.1007 51.9362L18.6424 51.605L18.6426 51.6048L19.1007 51.9362ZM19.3946 57.4916L19.1028 57.976L19.1028 57.9759L19.3946 57.4916ZM23.7638 56.5502L23.3635 56.1509L24.4346 55.0771L24.3278 56.5901L23.7638 56.5502ZM26.4456 61.3129L26.2737 61.8516L26.2736 61.8516L26.4456 61.3129ZM31.2001 58.8829L30.6947 58.6294L31.7652 58.8608L31.2001 58.8829ZM34.2622 63.0483L34.2204 63.6122L34.2204 63.6122L34.2622 63.0483ZM37.2729 58.7676L36.7094 58.8138L36.7094 58.8135L37.2729 58.7676ZM37.2334 58.2822L36.6698 58.3282L37.7834 58.1513L37.2334 58.2822ZM41.4713 61.9959L41.5709 62.5525L41.5708 62.5526L41.4713 61.9959ZM43.2888 57.0921L42.7554 57.2796L43.7893 56.8288L43.2888 57.0921ZM43.7581 57.9841L43.258 58.2479L43.2577 58.2473L43.7581 57.9841ZM48.7443 60.5082L48.9876 61.0185L48.9876 61.0186L48.7443 60.5082ZM49.1924 55.2041L48.7253 55.5228L48.7252 55.5226L49.1924 55.2041ZM48.5391 54.2459L48.0719 54.5644L48.9621 53.8706L48.5391 54.2459ZM49.0232 54.7915L48.6004 55.167L48.6002 55.1668L49.0232 54.7915ZM54.3122 55.9758L54.6891 56.3973L54.689 56.3974L54.3122 55.9758ZM53.3784 50.6514L52.999 51.0707L52.9989 51.0706L53.3784 50.6514ZM52.8292 50.154L52.4496 50.5731L53.1313 49.676L52.8292 50.154ZM54.0708 50.9388L53.7687 51.4168L53.7687 51.4168L54.0708 50.9388ZM59.8506 50.5617L60.3427 50.8402L60.3427 50.8403L59.8506 50.5617ZM57.6882 45.9089L57.3998 46.3952L55.7882 45.4395L57.6595 45.3442L57.6882 45.9089ZM60.3148 44.0876L60.8611 44.2333L60.8611 44.2334L60.3148 44.0876ZM57.0195 40.1502L56.8725 40.6963L56.8724 40.6962L57.0195 40.1502ZM56.2838 39.952L56.1366 40.498L56.3561 39.3912L56.2838 39.952ZM57.3185 40.0855L57.2462 40.6463L57.2462 40.6463L57.3185 40.0855ZM61.6687 37.4628L62.234 37.4493L62.234 37.4494L61.6687 37.4628ZM57.3651 34.3439L57.3526 34.9092L57.3525 34.9092L57.3651 34.3439ZM56.097 34.3157L56.0844 34.881L56.0303 33.7542L56.097 34.3157ZM58.0443 34.0843L58.1111 34.6458L58.1111 34.6458L58.0443 34.0843ZM61.6568 30.2623L62.1986 30.1004L62.1986 30.1004L61.6568 30.2623ZM56.4404 28.1663L56.5725 28.7162L56.5724 28.7162L56.4404 28.1663ZM54.737 28.5754L54.869 29.1252L54.5244 28.0514L54.737 28.5754ZM56.2284 27.9705L56.441 28.4945L56.4409 28.4945L56.2284 27.9705ZM58.6936 23.354L59.1781 23.0626L59.1782 23.0627L58.6936 23.354ZM53.221 22.6841L52.9468 22.1896L52.9468 22.1896L53.221 22.6841ZM51.7117 23.5211L51.9859 24.0156L51.3663 23.0734L51.7117 23.5211ZM53.0088 22.5202L53.3543 22.9679L53.3542 22.9679L53.0088 22.5202ZM54.2166 16.4235L54.6197 16.027L54.6198 16.0271L54.2166 16.4235ZM48.8903 16.4215L49.2075 16.8896L48.4263 16.0983L48.8903 16.4215ZM48.5249 10.8071L48.2332 11.2915C47.4344 10.8105 46.5401 10.8508 45.6798 11.2672C44.8085 11.6889 44.0117 12.4841 43.5087 13.4184L43.0108 13.1504L42.5129 12.8823C43.1149 11.7643 44.0767 10.7867 45.1871 10.2493C46.3084 9.70652 47.6186 9.60136 48.8166 10.3227L48.5249 10.8071ZM43.0108 13.1504L43.5087 13.4184L42.5086 15.2763L42.0107 15.0082L41.5128 14.7402L42.5129 12.8823L43.0108 13.1504ZM42.0107 15.0082L41.4774 14.8203L41.9015 13.617L42.4348 13.8049L42.9681 13.9929L42.544 15.1962L42.0107 15.0082ZM42.4348 13.8049L41.9015 13.6169C42.2537 12.618 42.2955 11.4683 42.0054 10.5048C41.7176 9.54927 41.1231 8.82312 40.223 8.53481L40.3955 7.99631L40.568 7.45781C41.9074 7.88682 42.7216 8.96122 43.0882 10.1788C43.4525 11.3884 43.3941 12.7843 42.968 13.9929L42.4348 13.8049ZM40.3955 7.99631L40.2231 8.53485C39.2828 8.23389 38.4107 8.49193 37.691 9.11405C36.9585 9.74733 36.4047 10.7485 36.1918 11.8435L35.6368 11.7356L35.0817 11.6276C35.3361 10.3195 36.0015 9.07975 36.9514 8.25853C37.9143 7.42613 39.1879 7.01609 40.5679 7.45777L40.3955 7.99631ZM35.6368 11.7356L36.1919 11.8434L36.0142 12.758L35.4591 12.6502L34.9041 12.5424L35.0817 11.6277L35.6368 11.7356ZM35.4591 12.6502L34.8941 12.6283L34.9281 11.7514L35.4931 11.7733L36.0582 11.7952L36.0241 12.6721L35.4591 12.6502ZM35.4931 11.7733L34.9281 11.7513C34.9637 10.8371 34.7299 9.83889 34.2695 9.06718C33.8115 8.29938 33.1692 7.81144 32.3876 7.75341L32.4294 7.18952L32.4713 6.62562C33.7276 6.71888 34.6566 7.50865 35.2407 8.48783C35.8225 9.4631 36.1015 10.6811 36.0582 11.7953L35.4931 11.7733ZM32.4294 7.18952L32.3877 7.75342C31.5683 7.69278 30.9559 8.0835 30.5368 8.76154C30.1049 9.46018 29.9012 10.444 29.9817 11.4248L29.4182 11.4711L28.8546 11.5174C28.7585 10.3468 28.9914 9.11079 29.5748 8.16691C30.171 7.20243 31.1526 6.52802 32.4712 6.62561L32.4294 7.18952ZM29.4182 11.4711L29.9817 11.4239L30.0152 11.8241L29.4517 11.8712L28.8882 11.9184L28.8547 11.5182L29.4182 11.4711ZM29.4517 11.8712L28.9042 12.0125L28.895 11.9771L29.4425 11.8358L29.9901 11.6945L29.9992 11.7299L29.4517 11.8712ZM29.4425 11.8358L28.8925 11.9669C28.6845 11.0942 28.2053 10.1982 27.5708 9.57168C26.9385 8.94726 26.2091 8.63868 25.4608 8.77201L25.3617 8.21533L25.2625 7.65865C26.4842 7.44096 27.565 7.97651 28.3655 8.76703C29.1638 9.55541 29.74 10.6452 29.9926 11.7047L29.4425 11.8358ZM25.3617 8.21533L25.4609 8.77199C24.6773 8.91173 24.2131 9.42526 24.0015 10.1698C23.7826 10.9404 23.8531 11.9294 24.1837 12.8429L23.6519 13.0353L23.1202 13.2277C22.7282 12.1443 22.616 10.9083 22.9137 9.86068C23.2188 8.78696 23.9707 7.88899 25.2624 7.65866L25.3617 8.21533ZM23.6519 13.0353L24.1836 12.8427L24.8668 14.7287L24.3351 14.9212L23.8035 15.1138L23.1203 13.2279L23.6519 13.0353ZM24.3351 14.9212L23.8348 15.1846L22.7294 13.0847L23.2298 12.8213L23.7301 12.558L24.8355 14.6579L24.3351 14.9212ZM23.2298 12.8213L22.7294 13.0846C22.2901 12.2496 21.5704 11.4704 20.7651 11.0092C19.9635 10.5502 19.1421 10.4367 18.4146 10.7837L18.1712 10.2733L17.9278 9.76297C19.0908 9.20821 20.3142 9.44785 21.327 10.0278C22.3362 10.6057 23.2005 11.5513 23.7302 12.5581L23.2298 12.8213ZM18.1712 10.2733L18.4148 10.7836C17.6501 11.1486 17.3079 11.814 17.2874 12.6416C17.2664 13.4939 17.5969 14.4848 18.1709 15.3246L17.7041 15.6436L17.2372 15.9627C16.5593 14.9708 16.1288 13.7512 16.1569 12.6137C16.1856 11.4514 16.703 10.3476 17.9276 9.76303L18.1712 10.2733ZM17.7041 15.6436L18.1703 15.3237L18.4018 15.6612L17.9356 15.9811L17.4693 16.301L17.2378 15.9635L17.7041 15.6436ZM17.9356 15.9811L17.5403 16.3854C16.9417 15.8001 16.1773 15.3351 15.4387 15.1495C14.709 14.966 14.0616 15.0632 13.5681 15.503L13.1919 15.0808L12.8157 14.6587C13.6669 13.9001 14.7361 13.8067 15.7144 14.0527C16.6839 14.2964 17.6189 14.8807 18.3309 15.5767L17.9356 15.9811ZM13.1919 15.0808L13.5682 15.5029C12.8458 16.1468 12.8196 17.1197 13.349 18.1864L12.8425 18.4378L12.336 18.6891C11.6982 17.4042 11.5456 15.7908 12.8156 14.6588L13.1919 15.0808ZM12.8425 18.4378L12.5686 18.9324C11.831 18.5241 11.0145 18.2831 10.3008 18.2969C9.6028 18.3104 9.03561 18.5614 8.66776 19.1127L8.19741 18.7988L7.72707 18.485C8.34593 17.5576 9.30116 17.1851 10.279 17.1662C11.2411 17.1476 12.2537 17.4655 13.1163 17.9431L12.8425 18.4378ZM8.19741 18.7988L8.66781 19.1126C8.20781 19.8022 8.24476 20.5898 8.64966 21.3923C9.06077 22.2072 9.82968 22.9754 10.6909 23.4915L10.4002 23.9765L10.1096 24.4615C9.10194 23.8577 8.16521 22.9428 7.63999 21.9017C7.10857 20.8484 6.97853 19.6071 7.72702 18.4851L8.19741 18.7988ZM10.4002 23.9765L10.6908 23.4915L13.6173 25.2444L13.3268 25.7295L13.0362 26.2146L10.1097 24.4616L10.4002 23.9765ZM13.3268 25.7295L13.1233 26.2571L10.0901 25.0874L10.2935 24.5599L10.4969 24.0323L13.5302 25.2019L13.3268 25.7295ZM10.2935 24.5599L10.0899 25.0874C9.15909 24.7283 8.11606 24.6212 7.27105 24.8213C6.44497 25.0169 5.85013 25.4872 5.63526 26.2875L5.08916 26.1408L4.54305 25.9942C4.89056 24.6999 5.88259 23.9879 7.01045 23.7208C8.11937 23.4582 9.39731 23.608 10.497 24.0323L10.2935 24.5599ZM5.08916 26.1408L5.6353 26.2873C5.45533 26.9582 5.64596 27.6082 6.11122 28.2002C6.58294 28.8005 7.31611 29.3065 8.11467 29.6209L7.9075 30.147L7.70033 30.6731C6.75542 30.3011 5.84224 29.6882 5.22205 28.899C4.59541 28.1016 4.2486 27.0918 4.54302 25.9943L5.08916 26.1408ZM7.9075 30.147L7.97701 30.7082C7.26591 30.7963 6.64726 31.0291 6.22352 31.3764C5.81705 31.7095 5.57493 32.1561 5.58928 32.7599L5.02399 32.7734L4.45871 32.7868C4.43543 31.8071 4.853 31.0374 5.50666 30.5017C6.14305 29.9801 6.98497 29.6915 7.83799 29.5859L7.9075 30.147ZM5.02399 32.7734L5.58928 32.7599C5.60447 33.397 5.93521 33.9428 6.49831 34.382C7.06742 34.8258 7.84362 35.1321 8.63648 35.2602L8.54626 35.8184L8.45604 36.3766C7.51621 36.2247 6.55153 35.8577 5.80279 35.2737C5.04804 34.685 4.484 33.8483 4.45871 32.7868L5.02399 32.7734ZM8.54626 35.8184L8.69172 36.3648C7.8025 36.6015 7.04091 37.0479 6.57335 37.6105C6.12105 38.1547 5.93369 38.8126 6.16178 39.5792L5.61982 39.7405L5.07785 39.9017C4.73112 38.7364 5.03499 37.6921 5.70363 36.8876C6.357 36.1015 7.34605 35.5528 8.4008 35.272L8.54626 35.8184ZM5.61982 39.7405L6.16178 39.5792C6.41001 40.4134 7.0894 41.0038 8.01306 41.332C8.9403 41.6614 10.0522 41.6993 11.0141 41.4627L11.1491 42.0117L11.2842 42.5608C10.1218 42.8467 8.7835 42.8059 7.63442 42.3976C6.48176 41.988 5.45865 41.1815 5.07786 39.9017L5.61982 39.7405ZM11.1491 42.0117L11.0182 41.4617L11.0222 41.4607L11.1532 42.0108L11.2841 42.5609L11.2801 42.5618L11.1491 42.0117ZM11.1532 42.0108L11.3633 42.5357L10.9129 42.716L10.7028 42.1911L10.4926 41.6662L10.943 41.4858L11.1532 42.0108ZM10.7028 42.1911L10.9132 42.716C9.94067 43.1058 9.11398 43.7741 8.66689 44.5267C8.23173 45.2591 8.15967 46.0503 8.62048 46.8186L8.13556 47.1094L7.65064 47.4003C6.93957 46.2147 7.08585 44.9737 7.69464 43.949C8.29148 42.9444 9.33435 42.1305 10.4924 41.6663L10.7028 42.1911ZM8.13556 47.1094L8.62047 46.8186C9.0622 47.555 9.85006 47.947 10.8034 48.0249C11.7617 48.1033 12.8238 47.8537 13.6772 47.3744L13.9541 47.8674L14.2311 48.3604C13.1948 48.9424 11.9092 49.25 10.7113 49.152C9.50848 49.0537 8.33188 48.536 7.65066 47.4003L8.13556 47.1094ZM13.9541 47.8674L13.6777 47.3741L13.9595 47.2162L14.236 47.7094L14.5124 48.2027L14.2306 48.3606L13.9541 47.8674ZM14.236 47.7094L14.5835 48.1554L14.5284 48.1984L14.1809 47.7523L13.8333 47.3063L13.8884 47.2634L14.236 47.7094ZM14.1809 47.7523L14.5311 48.1963C13.7545 48.809 13.1659 49.6481 12.9389 50.4741C12.7168 51.2823 12.8424 52.0455 13.4341 52.6451L13.0316 53.0423L12.6292 53.4394C11.6973 52.4951 11.5425 51.288 11.8484 50.1745C12.1495 49.0788 12.8972 48.0449 13.8306 47.3084L14.1809 47.7523ZM13.0316 53.0423L13.4341 52.6451C13.994 53.2124 14.7734 53.374 15.6332 53.2047C16.5009 53.034 17.3901 52.5316 18.0417 51.8673L18.4453 52.2633L18.849 52.6592C18.0538 53.4699 16.9647 54.0952 15.8516 54.3144C14.7306 54.535 13.5265 54.3487 12.6292 53.4395L13.0316 53.0423ZM18.4453 52.2633L18.0418 51.8672L19.6345 50.2444L20.0381 50.6405L20.4416 51.0366L18.8489 52.6593L18.4453 52.2633ZM20.0381 50.6405L20.4962 50.9719L19.5589 52.2676L19.1007 51.9362L18.6426 51.6048L19.5799 50.3091L20.0381 50.6405ZM19.1007 51.9362L19.5591 52.2673C18.9817 53.0664 18.6356 54.0605 18.6353 54.9545C18.6351 55.8351 18.9633 56.5716 19.6864 57.0073L19.3946 57.4916L19.1028 57.9759C17.9606 57.2877 17.5041 56.1291 17.5044 54.9542C17.5047 53.7929 17.9443 52.5712 18.6424 51.605L19.1007 51.9362ZM19.3946 57.4916L19.6863 57.0072C20.8332 57.6981 22.2449 57.2722 23.3635 56.1509L23.7638 56.5502L24.1641 56.9496C22.8661 58.2507 20.8886 59.0516 19.1028 57.976L19.3946 57.4916ZM23.7638 56.5502L24.3278 56.5901C24.1927 58.5042 25.0048 60.2592 26.6177 60.7743L26.4456 61.3129L26.2736 61.8516C23.966 61.1146 23.0449 58.7041 23.1998 56.5104L23.7638 56.5502ZM26.4456 61.3129L26.6176 60.7743C28.2744 61.3031 29.8409 60.3317 30.6947 58.6294L31.2001 58.8829L31.7056 59.1364C30.7059 61.1294 28.6548 62.6116 26.2737 61.8516L26.4456 61.3129ZM31.2001 58.8829L31.7652 58.8608C31.7994 59.7353 32.0647 60.6378 32.5186 61.3229C32.969 62.0028 33.5742 62.4302 34.3041 62.4844L34.2622 63.0483L34.2204 63.6122C33.0509 63.5254 32.1627 62.8334 31.5758 61.9475C30.9923 61.0668 30.6763 59.9571 30.6351 58.905L31.2001 58.8829ZM34.2622 63.0483L34.304 62.4844C35.1235 62.5451 35.7357 62.1545 36.1546 61.4768C36.5863 60.7784 36.7899 59.7947 36.7094 58.8138L37.2729 58.7676L37.8365 58.7213C37.9326 59.8917 37.6999 61.1276 37.1166 62.0714C36.5205 63.0358 35.539 63.7099 34.2204 63.6122L34.2622 63.0483ZM37.2729 58.7676L36.7094 58.8135L36.6698 58.3282L37.2334 58.2822L37.797 58.2363L37.8365 58.7216L37.2729 58.7676ZM37.2334 58.2822L37.7834 58.1513C37.9989 59.0562 38.4987 59.9777 39.1604 60.6206C39.8198 61.2611 40.5854 61.5798 41.3718 61.4393L41.4713 61.9959L41.5708 62.5526C40.3184 62.7764 39.2033 62.2389 38.3724 61.4317C37.5441 60.627 36.9443 59.5095 36.6833 58.4132L37.2334 58.2822ZM41.4713 61.9959L41.3717 61.4393C42.1881 61.2932 42.6775 60.7643 42.9065 60.0075C43.1433 59.225 43.0858 58.2195 42.7554 57.2796L43.2888 57.0921L43.8223 56.9045C44.2136 58.0177 44.3101 59.2739 43.989 60.335C43.6601 61.4218 42.8799 62.3183 41.5709 62.5525L41.4713 61.9959ZM43.2888 57.0921L43.7893 56.8288L44.2585 57.7208L43.7581 57.9841L43.2577 58.2473L42.7884 57.3554L43.2888 57.0921ZM43.7581 57.9841L44.2583 57.7203C44.692 58.5426 45.401 59.3129 46.1936 59.7698C46.9826 60.2245 47.7882 60.3375 48.501 59.9977L48.7443 60.5082L48.9876 61.0186C47.8367 61.5672 46.6278 61.3253 45.6289 60.7496C44.6336 60.1759 43.7813 59.24 43.258 58.2479L43.7581 57.9841ZM48.7443 60.5082L48.5009 59.9978C49.2509 59.6401 49.5847 58.9872 49.602 58.1712C49.6198 57.3303 49.2909 56.3519 48.7253 55.5228L49.1924 55.2041L49.6595 54.8855C50.3276 55.8648 50.7564 57.0702 50.7326 58.1952C50.7083 59.345 50.2011 60.4399 48.9876 61.0185L48.7443 60.5082ZM49.1924 55.2041L48.7252 55.5226L48.0719 54.5644L48.5391 54.2459L49.0063 53.9274L49.6596 54.8856L49.1924 55.2041ZM48.5391 54.2459L48.9621 53.8706L49.4462 54.4163L49.0232 54.7915L48.6002 55.1668L48.1161 54.6212L48.5391 54.2459ZM49.0232 54.7915L49.446 54.4161C50.059 55.1064 50.912 55.6767 51.7592 55.9193C52.5994 56.16 53.3631 56.0656 53.9354 55.5542L54.3122 55.9758L54.689 56.3974C53.741 57.2446 52.5348 57.3178 51.4478 57.0065C50.3678 56.6972 49.3365 55.996 48.6004 55.167L49.0232 54.7915ZM54.3122 55.9758L53.9353 55.5542C54.5472 55.0072 54.6968 54.2713 54.4993 53.4516C54.2971 52.613 53.734 51.7358 52.999 51.0707L53.3784 50.6514L53.7579 50.2322C54.6262 51.018 55.3331 52.0849 55.5987 53.1866C55.8688 54.3074 55.6836 55.5082 54.6891 56.3973L54.3122 55.9758ZM53.3784 50.6514L52.9989 51.0706L52.4496 50.5731L52.8292 50.154L53.2087 49.7349L53.758 50.2323L53.3784 50.6514ZM52.8292 50.154L53.1313 49.676L54.3729 50.4608L54.0708 50.9388L53.7687 51.4168L52.527 50.632L52.8292 50.154ZM54.0708 50.9388L54.3728 50.4608C55.2489 51.0143 56.3144 51.366 57.2575 51.3658C58.1868 51.3657 58.9343 51.0326 59.3585 50.2831L59.8506 50.5617L60.3427 50.8403C59.6624 52.042 58.468 52.4965 57.2577 52.4967C56.0611 52.4969 54.789 52.0615 53.7687 51.4168L54.0708 50.9388ZM59.8506 50.5617L59.3585 50.2832C59.7208 49.6431 59.6597 48.9476 59.2794 48.2472C58.8923 47.5343 58.1931 46.8657 57.3998 46.3952L57.6882 45.9089L57.9767 45.4225C58.9023 45.9715 59.7674 46.7758 60.2733 47.7076C60.786 48.652 60.9466 49.7733 60.3427 50.8402L59.8506 50.5617ZM57.6882 45.9089L57.6595 45.3442C58.7533 45.2885 59.5314 44.8305 59.7684 43.9419L60.3148 44.0876L60.8611 44.2334C60.4476 45.7835 59.0752 46.4044 57.717 46.4736L57.6882 45.9089ZM60.3148 44.0876L59.7684 43.9419C59.9497 43.2618 59.7049 42.5963 59.1371 41.9979C58.5647 41.3947 57.7133 40.9226 56.8725 40.6963L57.0195 40.1502L57.1665 39.6042C58.1771 39.8763 59.2212 40.4435 59.9575 41.2195C60.6984 42.0004 61.1754 43.0544 60.8611 44.2333L60.3148 44.0876ZM57.0195 40.1502L56.8724 40.6962L56.1366 40.498L56.2838 39.952L56.4309 39.406L57.1666 39.6043L57.0195 40.1502ZM56.2838 39.952L56.3561 39.3912L57.3908 39.5247L57.3185 40.0855L57.2462 40.6463L56.2114 40.5128L56.2838 39.952ZM57.3185 40.0855L57.3908 39.5246C58.3379 39.6467 59.3168 39.5138 60.028 39.1477C60.7165 38.7932 61.1217 38.2479 61.1034 37.4762L61.6687 37.4628L62.234 37.4494C62.2648 38.7481 61.528 39.6473 60.5457 40.1531C59.5859 40.6473 58.3652 40.7905 57.2462 40.6463L57.3185 40.0855ZM61.6687 37.4628L61.1034 37.4762C61.086 36.7456 60.6504 36.1274 59.9237 35.6619C59.1939 35.1944 58.2333 34.9287 57.3526 34.9092L57.3651 34.3439L57.3775 33.7786C58.4415 33.8021 59.6095 34.1175 60.5337 34.7096C61.461 35.3036 62.2048 36.2234 62.234 37.4493L61.6687 37.4628ZM57.3651 34.3439L57.3525 34.9092L56.0844 34.881L56.097 34.3157L56.1096 33.7504L57.3776 33.7786L57.3651 34.3439ZM56.097 34.3157L56.0303 33.7542L57.9776 33.5228L58.0443 34.0843L58.1111 34.6458L56.1637 34.8772L56.097 34.3157ZM58.0443 34.0843L57.9775 33.5228C58.9717 33.4045 59.9092 33.0073 60.5122 32.4435C61.0957 31.8979 61.3531 31.2209 61.1151 30.4241L61.6568 30.2623L62.1986 30.1004C62.5822 31.384 62.1196 32.4888 61.2846 33.2695C60.4691 34.032 59.2895 34.5056 58.1111 34.6458L58.0443 34.0843ZM61.6568 30.2623L61.1151 30.4241C60.8873 29.662 60.2591 29.1249 59.3911 28.8272C58.5199 28.5284 57.4737 28.4997 56.5725 28.7162L56.4404 28.1663L56.3083 27.6165C57.401 27.3541 58.6672 27.3834 59.7579 27.7574C60.8517 28.1326 61.8348 28.8828 62.1986 30.1004L61.6568 30.2623ZM56.4404 28.1663L56.5724 28.7162L54.869 29.1252L54.737 28.5754L54.6049 28.0256L56.3084 27.6165L56.4404 28.1663ZM54.737 28.5754L54.5244 28.0514L56.0159 27.4465L56.2284 27.9705L56.4409 28.4945L54.9495 29.0994L54.737 28.5754ZM56.2284 27.9705L56.0158 27.4465C56.9278 27.0765 57.7142 26.4515 58.1432 25.7515C58.5595 25.0721 58.6324 24.3496 58.209 23.6454L58.6936 23.354L59.1782 23.0627C59.8594 24.1958 59.6998 25.3757 59.1074 26.3424C58.5277 27.2883 57.5292 28.0529 56.441 28.4945L56.2284 27.9705ZM58.6936 23.354L58.209 23.6454C57.805 22.9737 57.0801 22.6201 56.1883 22.5571C55.2919 22.4939 54.2954 22.7349 53.4952 23.1786L53.221 22.6841L52.9468 22.1896C53.922 21.6489 55.1351 21.3491 56.2679 21.4291C57.4053 21.5093 58.5289 21.9829 59.1781 23.0626L58.6936 23.354ZM53.221 22.6841L53.4952 23.1786L51.9859 24.0156L51.7117 23.5211L51.4375 23.0266L52.9468 22.1896L53.221 22.6841ZM51.7117 23.5211L51.3663 23.0734L52.6634 22.0725L53.0088 22.5202L53.3542 22.9679L52.0571 23.9687L51.7117 23.5211ZM53.0088 22.5202L52.6634 22.0725C53.5724 21.3711 54.2316 20.3984 54.4695 19.4301C54.7033 18.478 54.5312 17.55 53.8134 16.8199L54.2166 16.4235L54.6198 16.0271C55.658 17.0831 55.8785 18.4345 55.5677 19.6998C55.2609 20.9489 54.4382 22.1315 53.3543 22.9679L53.0088 22.5202ZM54.2166 16.4235L53.8134 16.82C52.684 15.6716 50.7769 15.826 49.2075 16.8896L48.8903 16.4215L48.573 15.9534C50.353 14.7471 52.9344 14.3133 54.6197 16.027L54.2166 16.4235ZM48.8903 16.4215L48.4263 16.0983C48.9988 15.2763 49.3336 14.2703 49.3221 13.3687C49.3108 12.4809 48.9709 11.7359 48.2331 11.2915L48.5249 10.8071L48.8166 10.3227C49.9647 11.0143 50.4379 12.1714 50.4529 13.3543C50.4678 14.5233 50.0425 15.7565 49.3543 16.7446L48.8903 16.4215Z" fill="#FF8E9C" mask="url(#path-1-inside-1_17130_3473)"/>
<path fill-rule="evenodd" clip-rule="evenodd" d="M43.0095 19.8931C41.7764 19.1508 40.2872 20.0736 39.6049 21.341L38.3425 23.6865L38.9419 21.9226C39.3525 20.7147 39.0844 19.1142 37.8654 18.7213C36.5902 18.3107 35.537 19.5088 35.269 20.8271L34.8756 22.7649L34.9635 20.4888C35.012 19.2364 34.3299 17.7519 33.0716 17.6583C31.7513 17.5606 31.1033 18.9742 31.2124 20.3028L31.2348 20.5665L31.2256 20.5311C30.9412 19.338 29.9224 18.0794 28.706 18.2958C27.4242 18.5241 27.2036 20.0383 27.6497 21.2715L28.4203 23.3993L27.3802 21.4485C26.8155 20.3884 25.5553 19.4252 24.4638 19.9437C23.3086 20.4927 23.507 22.0068 24.2288 23.0718L24.5804 23.5886L24.2774 23.2519C23.4875 22.3698 22.0767 21.74 21.1897 22.5303C20.5734 23.0795 20.6141 23.8792 20.9761 24.6063C19.9877 24.058 18.715 23.914 18.105 24.8276C17.3586 25.9464 18.3113 27.3343 19.4655 28.0259L20.5781 28.6924L20.0293 28.483C18.8469 28.0317 17.3083 28.1519 16.9831 29.3707C16.6771 30.5187 17.8746 31.4952 19.018 31.803L19.4351 31.9152L18.8339 31.8376C17.5579 31.673 16.1163 32.1788 16.1466 33.4575C16.1755 34.6656 17.604 35.3572 18.8049 35.3837L21.0361 35.4325L18.7654 35.7068C17.4635 35.8641 16.2107 36.7431 16.5839 37.99C16.9386 39.1736 18.5216 39.5172 19.7149 39.2337L19.727 39.2308L19.5056 39.3204C18.2703 39.8215 17.301 41.0375 17.9832 42.1721C18.6338 43.2533 20.2664 43.1936 21.3625 42.5858L23.361 41.4776L21.8012 42.7078C20.7449 43.541 20.1507 45.0215 21.0918 45.9751C21.9918 46.8862 23.5415 46.4045 24.4348 45.4938L26.096 43.8008L24.1973 46.4255C23.4103 47.5143 23.2291 49.1585 24.3797 49.8517C25.5805 50.5747 27.0304 49.6725 27.6954 48.4385L28.9087 46.1878L28.3295 47.8908C27.9189 49.0987 28.1869 50.6993 29.406 51.0921C30.681 51.5023 31.7352 50.3049 32.0033 48.9868L32.3984 47.0444L32.309 49.3229C32.2604 50.5754 32.943 52.0591 34.2013 52.1525C35.5214 52.2501 36.1699 50.8378 36.0608 49.5095L36.0399 49.2454L36.048 49.2825C36.3325 50.4757 37.3511 51.7346 38.5676 51.5178C39.8488 51.2891 40.069 49.7746 39.623 48.5415L38.8514 46.4062L39.8919 48.3619C40.4567 49.422 41.7181 50.3851 42.8096 49.8664C43.9642 49.3172 43.7662 47.8031 43.0446 46.7383L42.7003 46.2282L42.9947 46.5585C43.7847 47.4404 45.1956 48.0705 46.0825 47.2801C47.0238 46.4407 46.4371 45.0124 45.5016 44.1602L45.2294 43.9113L46.4353 44.6741C47.6064 45.4137 49.3222 45.6455 50.0041 44.4407C50.6007 43.3865 49.73 42.1967 48.6685 41.5672C49.4254 41.5285 50.0896 41.1957 50.2904 40.4429C50.5965 39.295 49.3989 38.3185 48.2556 38.0106L47.8248 37.8945L48.4399 37.9738C49.7157 38.1382 51.156 37.6326 51.1258 36.3542C51.097 35.1462 49.6697 34.4544 48.4689 34.4277L46.2517 34.3784L48.506 34.1066C49.8077 33.9492 51.0606 33.0702 50.6876 31.8234C50.333 30.6397 48.7499 30.2962 47.5565 30.5797L47.5336 30.5852L47.766 30.4908C49.001 29.9896 49.9697 28.7744 49.2878 27.6399C48.6374 26.5586 47.0048 26.6185 45.9086 27.2262L43.9189 28.3295L45.4721 27.1044C46.5282 26.2713 47.1226 24.7898 46.182 23.8363C45.2821 22.9249 43.7324 23.4069 42.839 24.3176L41.7149 25.464L43.2004 23.4117C44.0097 22.2937 44.1916 20.6054 43.0095 19.8931Z" fill="#FFBAC3"/>
<circle cx="5.55385" cy="5.55385" r="5.55385" transform="matrix(-0.85163 -0.524143 -0.524143 0.85163 40.9883 32.1211)" fill="#94656B"/>
<circle cx="3.20705" cy="3.20705" r="3.20705" transform="matrix(-0.85163 -0.524143 -0.524143 0.85163 37.7148 32.8984)" fill="#3C2A2C"/>
</g>
<defs>
<linearGradient id="paint0_linear_17130_3473" x1="48.6643" y1="10.8927" x2="19.8224" y2="57.7551" gradientUnits="userSpaceOnUse">
<stop stop-color="#FFE3E5"/>
<stop offset="1" stop-color="#FFCED4"/>
</linearGradient>
<clipPath id="clip0_17130_3473">
<rect width="67" height="67" fill="white"/>
</clipPath>
</defs>
</svg>
