<svg preserveAspectRatio="none" width="100%" height="100%" overflow="visible" style="display: block;" viewBox="0 0 76 76" fill="none" xmlns="http://www.w3.org/2000/svg">
<g id="Frame 1739334044">
<rect width="76" height="76" rx="12" fill="var(--fill-0, white)"/>
<path id="Ellipse 362" d="M19.635 46.3751C25.5086 43.9585 31.6134 45.2645 33.2705 49.2921C34.9276 53.3197 31.5095 58.5437 25.6359 60.9603C19.7623 63.3769 12.0004 58.0433 12.0004 58.0433C12.0004 58.0433 13.7615 48.7917 19.635 46.3751Z" fill="var(--fill-0, #BDE682)"/>
<path id="Ellipse 363" d="M55.6363 46.3751C49.7627 43.9585 43.6579 45.2645 42.0008 49.2921C40.3437 53.3197 43.7618 58.5437 49.6354 60.9603C55.5089 63.3769 63.2708 58.0433 63.2708 58.0433C63.2708 58.0433 61.5098 48.7917 55.6363 46.3751Z" fill="var(--fill-0, #A5E24E)"/>
<g id="Group 197">
<g id="Union">
<mask id="path-4-inside-1_17107_3035" fill="white">
<path d="M38.0225 15.001C39.8592 15.0187 40.861 17.0178 40.7549 18.8516L40.5576 22.2461L41.0869 19.9248C41.4487 18.3374 42.8107 16.7773 44.3984 17.166C46.0587 17.5729 46.402 19.5795 45.8115 21.1914L44.9404 23.5674L46.3691 21.0312C47.154 19.6375 48.8882 18.4806 50.3184 19.2207C51.8185 19.9975 51.5774 21.9662 50.5703 23.3369L50.375 23.6016L50.4033 23.5742C51.5104 22.468 53.4595 21.7816 54.6367 22.8301C55.8769 23.9356 55.1036 25.7286 53.7939 26.7705L51.5215 28.5771L53.9668 27.1465C55.2895 26.3721 57.3041 26.1684 58.1436 27.4619C59.0318 28.8312 57.8034 30.345 56.3066 31.0195L55.583 31.3447L56.1318 31.1826C57.5801 30.7525 59.5343 31.0119 59.9697 32.4639C60.2717 33.4717 59.6942 34.3133 58.8164 34.8613C60.2568 34.9272 61.7346 35.622 61.7861 37.0225C61.8488 38.7374 59.8867 39.6071 58.1699 39.5869L56.5205 39.5674L57.2529 39.7061C58.8395 40.0065 60.4314 41.1662 59.9697 42.708C59.5345 44.1603 57.5803 44.4194 56.1318 43.9893L55.583 43.8262L56.3066 44.1523C57.8033 44.8269 59.0315 46.3407 58.1436 47.71C57.3042 49.0038 55.2896 48.7999 53.9668 48.0254L51.5254 46.5957L53.7939 48.4004C55.1037 49.4422 55.877 51.2353 54.6367 52.3408C53.4596 53.3899 51.5105 52.704 50.4033 51.5977L50.375 51.5693L50.5703 51.835C51.5775 53.2057 51.8185 55.1743 50.3184 55.9512C48.8881 56.6916 47.154 55.5346 46.3691 54.1406L44.9404 51.6035L45.8115 53.9805C46.4021 55.5924 46.0588 57.5989 44.3984 58.0059C42.8106 58.3948 41.4486 56.8346 41.0869 55.2471L40.416 52.3027L40.7227 56.416C40.8499 58.1258 39.9468 60.0339 38.2324 60.0176C36.4438 60.0003 35.4716 58.0505 35.5742 56.2646L35.7617 52.9902L35.248 55.2471C34.8863 56.8346 33.5244 58.3949 31.9365 58.0059C30.2765 57.5988 29.9329 55.5923 30.5234 53.9805L31.3945 51.6025L29.9658 54.1406C29.181 55.5345 27.4468 56.6914 26.0166 55.9512C24.5166 55.1743 24.7566 53.2057 25.7637 51.835L25.958 51.5693L25.9307 51.5977C24.8234 52.7039 22.8743 53.39 21.6973 52.3408C20.4576 51.2353 21.2305 49.4421 22.54 48.4004L24.8057 46.5977L22.3682 48.0254C21.0453 48.7999 19.0307 49.0038 18.1914 47.71C17.3037 46.3408 18.5317 44.8269 20.0283 44.1523L20.751 43.8262L20.2031 43.9893C18.7547 44.4193 16.8004 44.1602 16.3652 42.708C15.9037 41.1663 17.4955 40.0065 19.082 39.7061L19.5293 39.6211L17.7246 39.6426C15.9571 39.6634 13.9364 38.7675 14.001 37.002C14.0579 35.4563 15.8025 34.7456 17.3779 34.7725C16.58 34.2241 16.0796 33.4172 16.3652 32.4639C16.8005 31.0119 18.7548 30.7527 20.2031 31.1826L20.751 31.3447L20.0283 31.0195C18.5317 30.3449 17.3032 28.8312 18.1914 27.4619C19.0307 26.1683 21.0454 26.3722 22.3682 27.1465L24.8096 28.5752L22.54 26.7705C21.2306 25.7286 20.4572 23.9355 21.6973 22.8301C22.8743 21.7811 24.8234 22.468 25.9307 23.5742L25.958 23.6016L25.7637 23.3369C24.7568 21.9661 24.5165 19.9974 26.0166 19.2207C27.4467 18.4806 29.1809 19.6375 29.9658 21.0312L31.3936 23.5674L30.5234 21.1914C29.933 19.5796 30.2764 17.573 31.9365 17.166C33.5243 16.777 34.8862 18.3374 35.248 19.9248L35.7051 21.9316L35.4629 18.6973C35.3311 16.9408 36.2612 14.9842 38.0225 15.001Z"/>
</mask>
<path d="M38.0225 15.001C39.8592 15.0187 40.861 17.0178 40.7549 18.8516L40.5576 22.2461L41.0869 19.9248C41.4487 18.3374 42.8107 16.7773 44.3984 17.166C46.0587 17.5729 46.402 19.5795 45.8115 21.1914L44.9404 23.5674L46.3691 21.0312C47.154 19.6375 48.8882 18.4806 50.3184 19.2207C51.8185 19.9975 51.5774 21.9662 50.5703 23.3369L50.375 23.6016L50.4033 23.5742C51.5104 22.468 53.4595 21.7816 54.6367 22.8301C55.8769 23.9356 55.1036 25.7286 53.7939 26.7705L51.5215 28.5771L53.9668 27.1465C55.2895 26.3721 57.3041 26.1684 58.1436 27.4619C59.0318 28.8312 57.8034 30.345 56.3066 31.0195L55.583 31.3447L56.1318 31.1826C57.5801 30.7525 59.5343 31.0119 59.9697 32.4639C60.2717 33.4717 59.6942 34.3133 58.8164 34.8613C60.2568 34.9272 61.7346 35.622 61.7861 37.0225C61.8488 38.7374 59.8867 39.6071 58.1699 39.5869L56.5205 39.5674L57.2529 39.7061C58.8395 40.0065 60.4314 41.1662 59.9697 42.708C59.5345 44.1603 57.5803 44.4194 56.1318 43.9893L55.583 43.8262L56.3066 44.1523C57.8033 44.8269 59.0315 46.3407 58.1436 47.71C57.3042 49.0038 55.2896 48.7999 53.9668 48.0254L51.5254 46.5957L53.7939 48.4004C55.1037 49.4422 55.877 51.2353 54.6367 52.3408C53.4596 53.3899 51.5105 52.704 50.4033 51.5977L50.375 51.5693L50.5703 51.835C51.5775 53.2057 51.8185 55.1743 50.3184 55.9512C48.8881 56.6916 47.154 55.5346 46.3691 54.1406L44.9404 51.6035L45.8115 53.9805C46.4021 55.5924 46.0588 57.5989 44.3984 58.0059C42.8106 58.3948 41.4486 56.8346 41.0869 55.2471L40.416 52.3027L40.7227 56.416C40.8499 58.1258 39.9468 60.0339 38.2324 60.0176C36.4438 60.0003 35.4716 58.0505 35.5742 56.2646L35.7617 52.9902L35.248 55.2471C34.8863 56.8346 33.5244 58.3949 31.9365 58.0059C30.2765 57.5988 29.9329 55.5923 30.5234 53.9805L31.3945 51.6025L29.9658 54.1406C29.181 55.5345 27.4468 56.6914 26.0166 55.9512C24.5166 55.1743 24.7566 53.2057 25.7637 51.835L25.958 51.5693L25.9307 51.5977C24.8234 52.7039 22.8743 53.39 21.6973 52.3408C20.4576 51.2353 21.2305 49.4421 22.54 48.4004L24.8057 46.5977L22.3682 48.0254C21.0453 48.7999 19.0307 49.0038 18.1914 47.71C17.3037 46.3408 18.5317 44.8269 20.0283 44.1523L20.751 43.8262L20.2031 43.9893C18.7547 44.4193 16.8004 44.1602 16.3652 42.708C15.9037 41.1663 17.4955 40.0065 19.082 39.7061L19.5293 39.6211L17.7246 39.6426C15.9571 39.6634 13.9364 38.7675 14.001 37.002C14.0579 35.4563 15.8025 34.7456 17.3779 34.7725C16.58 34.2241 16.0796 33.4172 16.3652 32.4639C16.8005 31.0119 18.7548 30.7527 20.2031 31.1826L20.751 31.3447L20.0283 31.0195C18.5317 30.3449 17.3032 28.8312 18.1914 27.4619C19.0307 26.1683 21.0454 26.3722 22.3682 27.1465L24.8096 28.5752L22.54 26.7705C21.2306 25.7286 20.4572 23.9355 21.6973 22.8301C22.8743 21.7811 24.8234 22.468 25.9307 23.5742L25.958 23.6016L25.7637 23.3369C24.7568 21.9661 24.5165 19.9974 26.0166 19.2207C27.4467 18.4806 29.1809 19.6375 29.9658 21.0312L31.3936 23.5674L30.5234 21.1914C29.933 19.5796 30.2764 17.573 31.9365 17.166C33.5243 16.777 34.8862 18.3374 35.248 19.9248L35.7051 21.9316L35.4629 18.6973C35.3311 16.9408 36.2612 14.9842 38.0225 15.001Z" fill="var(--fill-0, #FFDBDE)"/>
<path d="M38.0225 15.001L38.0245 14.7926L38.0244 14.7926L38.0225 15.001ZM40.7549 18.8516L40.9629 18.8637L40.9629 18.8636L40.7549 18.8516ZM40.5576 22.2461L40.3496 22.234L40.7608 22.2924L40.5576 22.2461ZM41.0869 19.9248L41.2901 19.9711L41.2901 19.9711L41.0869 19.9248ZM44.3984 17.166L44.448 16.9636L44.448 16.9636L44.3984 17.166ZM45.8115 21.1914L46.0072 21.2631L46.0072 21.2631L45.8115 21.1914ZM44.9404 23.5674L44.7448 23.4956L45.122 23.6697L44.9404 23.5674ZM46.3691 21.0312L46.5507 21.1335L46.5507 21.1335L46.3691 21.0312ZM50.3184 19.2207L50.4142 19.0356L50.4142 19.0356L50.3184 19.2207ZM50.5703 23.3369L50.738 23.4607L50.7383 23.4603L50.5703 23.3369ZM50.375 23.6016L50.2073 23.4778L50.5198 23.7515L50.375 23.6016ZM50.4033 23.5742L50.5481 23.7242L50.5506 23.7216L50.4033 23.5742ZM54.6367 22.8301L54.7754 22.6745L54.7753 22.6744L54.6367 22.8301ZM53.7939 26.7705L53.9236 26.9336L53.9237 26.9336L53.7939 26.7705ZM51.5215 28.5771L51.3918 28.414L51.6267 28.757L51.5215 28.5771ZM53.9668 27.1465L54.072 27.3264L54.0721 27.3263L53.9668 27.1465ZM58.1436 27.4619L58.3184 27.3485L58.3184 27.3485L58.1436 27.4619ZM56.3066 31.0195L56.3921 31.2096L56.3923 31.2095L56.3066 31.0195ZM55.583 31.3447L55.4976 31.1546L55.642 31.5446L55.583 31.3447ZM56.1318 31.1826L56.1909 31.3825L56.1912 31.3824L56.1318 31.1826ZM59.9697 32.4639L60.1694 32.404L60.1694 32.404L59.9697 32.4639ZM58.8164 34.8613L58.706 34.6845L58.1383 35.039L58.8069 35.0695L58.8164 34.8613ZM61.7861 37.0225L61.9944 37.0148V37.0148L61.7861 37.0225ZM58.1699 39.5869L58.1675 39.7953H58.1675L58.1699 39.5869ZM56.5205 39.5674L56.523 39.359L56.4817 39.7722L56.5205 39.5674ZM57.2529 39.7061L57.2917 39.5013L57.2917 39.5013L57.2529 39.7061ZM59.9697 42.708L60.1694 42.7678L60.1694 42.7678L59.9697 42.708ZM56.1318 43.9893L56.0725 44.189L56.0725 44.189L56.1318 43.9893ZM55.583 43.8262L55.6424 43.6264L55.4974 44.0162L55.583 43.8262ZM56.3066 44.1523L56.221 44.3423L56.221 44.3423L56.3066 44.1523ZM58.1436 47.71L58.3184 47.8234L58.3184 47.8234L58.1436 47.71ZM53.9668 48.0254L53.8615 48.2052L53.8615 48.2052L53.9668 48.0254ZM51.5254 46.5957L51.6307 46.4159L51.3956 46.7588L51.5254 46.5957ZM53.7939 48.4004L53.6642 48.5635L53.6642 48.5635L53.7939 48.4004ZM54.6367 52.3408L54.7754 52.4964L54.7754 52.4964L54.6367 52.3408ZM50.4033 51.5977L50.256 51.745L50.256 51.7451L50.4033 51.5977ZM50.375 51.5693L50.5224 51.422L50.2071 51.6928L50.375 51.5693ZM50.5703 51.835L50.7383 51.7116L50.7382 51.7115L50.5703 51.835ZM50.3184 55.9512L50.4142 56.1363L50.4142 56.1362L50.3184 55.9512ZM46.3691 54.1406L46.5507 54.0384L46.5507 54.0384L46.3691 54.1406ZM44.9404 51.6035L45.122 51.5013L44.7447 51.6752L44.9404 51.6035ZM45.8115 53.9805L46.0072 53.9088L46.0072 53.9088L45.8115 53.9805ZM44.3984 58.0059L44.448 58.2083L44.448 58.2083L44.3984 58.0059ZM41.0869 55.2471L41.2901 55.2008V55.2008L41.0869 55.2471ZM40.416 52.3027L40.6192 52.2564L40.2082 52.3182L40.416 52.3027ZM40.7227 56.416L40.9305 56.4005L40.9305 56.4005L40.7227 56.416ZM38.2324 60.0176L38.2304 60.226L38.2304 60.226L38.2324 60.0176ZM35.5742 56.2646L35.7823 56.2766L35.7823 56.2766L35.5742 56.2646ZM35.7617 52.9902L35.9698 53.0022L35.5585 52.944L35.7617 52.9902ZM35.248 55.2471L35.4513 55.2934L35.4513 55.2933L35.248 55.2471ZM31.9365 58.0059L31.8869 58.2083L31.8869 58.2083L31.9365 58.0059ZM30.5234 53.9805L30.7191 54.0522L30.7191 54.0522L30.5234 53.9805ZM31.3945 51.6025L31.5902 51.6742L31.2129 51.5003L31.3945 51.6025ZM29.9658 54.1406L30.1474 54.2429L30.1474 54.2429L29.9658 54.1406ZM26.0166 55.9512L25.9208 56.1362L25.9208 56.1363L26.0166 55.9512ZM25.7637 51.835L25.9316 51.9584L25.9319 51.958L25.7637 51.835ZM25.958 51.5693L26.1262 51.6924L25.8081 51.4246L25.958 51.5693ZM25.9307 51.5977L26.078 51.7451L26.0806 51.7424L25.9307 51.5977ZM21.6973 52.3408L21.5586 52.4964L21.5586 52.4964L21.6973 52.3408ZM22.54 48.4004L22.6698 48.5635L22.6698 48.5635L22.54 48.4004ZM24.8057 46.5977L24.9354 46.7607L24.7003 46.4178L24.8057 46.5977ZM22.3682 48.0254L22.4735 48.2052L22.4735 48.2052L22.3682 48.0254ZM18.1914 47.71L18.0165 47.8233L18.0166 47.8234L18.1914 47.71ZM20.0283 44.1523L20.114 44.3423L20.1141 44.3423L20.0283 44.1523ZM20.751 43.8262L20.8367 44.0161L20.6915 43.6264L20.751 43.8262ZM20.2031 43.9893L20.2624 44.189L20.2626 44.189L20.2031 43.9893ZM16.3652 42.708L16.1656 42.7678L16.1656 42.7678L16.3652 42.708ZM19.082 39.7061L19.1208 39.9108L19.1209 39.9108L19.082 39.7061ZM19.5293 39.6211L19.5682 39.8258L19.5268 39.4127L19.5293 39.6211ZM17.7246 39.6426L17.7271 39.851H17.7271L17.7246 39.6426ZM14.001 37.002L13.7927 36.9943L13.7927 36.9943L14.001 37.002ZM17.3779 34.7725L17.3744 34.9808L18.0663 34.9927L17.496 34.6007L17.3779 34.7725ZM16.3652 32.4639L16.1656 32.404L16.1656 32.404L16.3652 32.4639ZM20.2031 31.1826L20.1438 31.3824L20.144 31.3825L20.2031 31.1826ZM20.751 31.3447L20.6918 31.5446L20.8365 31.1547L20.751 31.3447ZM20.0283 31.0195L19.9427 31.2095L19.9428 31.2096L20.0283 31.0195ZM18.1914 27.4619L18.0166 27.3485L18.0166 27.3485L18.1914 27.4619ZM22.3682 27.1465L22.2629 27.3263L22.2629 27.3264L22.3682 27.1465ZM24.8096 28.5752L24.7043 28.7551L24.9393 28.4121L24.8096 28.5752ZM22.54 26.7705L22.4103 26.9336L22.4103 26.9336L22.54 26.7705ZM21.6973 22.8301L21.5586 22.6745L21.5586 22.6745L21.6973 22.8301ZM25.9307 23.5742L26.078 23.4268L26.078 23.4268L25.9307 23.5742ZM25.958 23.6016L25.8106 23.7489L26.126 23.4782L25.958 23.6016ZM25.7637 23.3369L25.9317 23.2136L25.9316 23.2135L25.7637 23.3369ZM26.0166 19.2207L25.9208 19.0356L25.9208 19.0356L26.0166 19.2207ZM29.9658 21.0312L30.1474 20.929L30.1474 20.929L29.9658 21.0312ZM31.3936 23.5674L31.2119 23.6696L31.5893 23.4957L31.3936 23.5674ZM30.5234 21.1914L30.7191 21.1197L30.7191 21.1197L30.5234 21.1914ZM31.9365 17.166L31.8869 16.9636L31.8869 16.9636L31.9365 17.166ZM35.248 19.9248L35.4513 19.8785L35.4512 19.8785L35.248 19.9248ZM35.7051 21.9316L35.5019 21.9779L35.9129 21.9161L35.7051 21.9316ZM35.4629 18.6973L35.6707 18.6817L35.6707 18.6817L35.4629 18.6973ZM38.0225 15.001L38.0204 15.2094C38.8529 15.2174 39.5036 15.6712 39.9416 16.3574C40.382 17.0473 40.5977 17.961 40.5468 18.8395L40.7549 18.8516L40.9629 18.8636C41.0182 17.9083 40.786 16.9056 40.2929 16.1331C39.7974 15.3568 39.0287 14.8023 38.0245 14.7926L38.0225 15.001ZM40.7549 18.8516L40.5468 18.8395L40.3496 22.234L40.5576 22.2461L40.7657 22.2582L40.9629 18.8637L40.7549 18.8516ZM40.5576 22.2461L40.7608 22.2924L41.2901 19.9711L41.0869 19.9248L40.8837 19.8785L40.3544 22.1998L40.5576 22.2461ZM41.0869 19.9248L41.2901 19.9711C41.4626 19.2143 41.8741 18.466 42.4244 17.9574C42.9726 17.4508 43.641 17.1951 44.3489 17.3684L44.3984 17.166L44.448 16.9636C43.5682 16.7482 42.7617 17.0781 42.1415 17.6513C41.5234 18.2225 41.073 19.0479 40.8837 19.8785L41.0869 19.9248ZM44.3984 17.166L44.3488 17.3684C45.0923 17.5506 45.5457 18.0871 45.7489 18.7851C45.9541 19.4896 45.8984 20.3483 45.6158 21.1197L45.8115 21.1914L46.0072 21.2631C46.3151 20.4226 46.3831 19.4721 46.1491 18.6686C45.9133 17.8586 45.3649 17.1883 44.448 16.9636L44.3984 17.166ZM45.8115 21.1914L45.6158 21.1197L44.7448 23.4956L44.9404 23.5674L45.1361 23.6391L46.0072 21.2631L45.8115 21.1914ZM44.9404 23.5674L45.122 23.6697L46.5507 21.1335L46.3691 21.0312L46.1876 20.929L44.7588 23.4651L44.9404 23.5674ZM46.3691 21.0312L46.5507 21.1335C46.9251 20.4688 47.5265 19.8612 48.1982 19.5105C48.8685 19.1606 49.5854 19.076 50.2226 19.4058L50.3184 19.2207L50.4142 19.0356C49.6212 18.6252 48.756 18.7491 48.0053 19.141C47.2562 19.5322 46.5981 20.2 46.1875 20.929L46.3691 21.0312ZM50.3184 19.2207L50.2225 19.4058C50.8907 19.7518 51.1749 20.3579 51.1761 21.0564C51.1774 21.7639 50.8851 22.5564 50.4024 23.2135L50.5703 23.3369L50.7383 23.4603C51.2625 22.7467 51.5944 21.8695 51.5929 21.0557C51.5915 20.233 51.2462 19.4665 50.4142 19.0356L50.3184 19.2207ZM50.5703 23.3369L50.4026 23.2132L50.2073 23.4778L50.375 23.6016L50.5427 23.7253L50.738 23.4607L50.5703 23.3369ZM50.375 23.6016L50.5198 23.7515L50.5481 23.7241L50.4033 23.5742L50.2586 23.4243L50.2302 23.4516L50.375 23.6016ZM50.4033 23.5742L50.5506 23.7216C51.0791 23.1935 51.8092 22.7664 52.5407 22.5972C53.2711 22.4282 53.9757 22.5204 54.4981 22.9857L54.6367 22.8301L54.7753 22.6744C54.1206 22.0913 53.262 22.0024 52.4467 22.1911C51.6326 22.3795 50.8346 22.8486 50.256 23.4268L50.4033 23.5742ZM54.6367 22.8301L54.498 22.9857C55.0472 23.4751 55.1558 24.1117 54.971 24.7676C54.7833 25.4332 54.293 26.1072 53.6642 26.6074L53.7939 26.7705L53.9237 26.9336C54.6046 26.392 55.1557 25.6485 55.3721 24.8807C55.5913 24.1033 55.4665 23.2905 54.7754 22.6745L54.6367 22.8301ZM53.7939 26.7705L53.6643 26.6074L51.3918 28.414L51.5215 28.5771L51.6512 28.7403L53.9236 26.9336L53.7939 26.7705ZM51.5215 28.5771L51.6267 28.757L54.072 27.3264L53.9668 27.1465L53.8616 26.9666L51.4162 28.3973L51.5215 28.5771ZM53.9668 27.1465L54.0721 27.3263C54.7043 26.9562 55.5013 26.7239 56.2326 26.7371C56.9627 26.7503 57.5987 27.0052 57.9687 27.5754L58.1436 27.4619L58.3184 27.3485C57.849 26.6251 57.058 26.3351 56.2402 26.3203C55.4237 26.3056 54.552 26.5623 53.8615 26.9666L53.9668 27.1465ZM58.1436 27.4619L57.9687 27.5753C58.36 28.1785 58.2928 28.8116 57.9411 29.3934C57.5846 29.9833 56.9403 30.5054 56.221 30.8295L56.3066 31.0195L56.3923 31.2095C57.1698 30.8591 57.888 30.2871 58.2979 29.6091C58.7125 28.923 58.8154 28.1147 58.3184 27.3485L58.1436 27.4619ZM56.3066 31.0195L56.2212 30.8294L55.4976 31.1546L55.583 31.3447L55.6684 31.5348L56.3921 31.2096L56.3066 31.0195ZM55.583 31.3447L55.642 31.5446L56.1909 31.3825L56.1318 31.1826L56.0728 30.9827L55.524 31.1449L55.583 31.3447ZM56.1318 31.1826L56.1912 31.3824C56.8842 31.1766 57.6955 31.1376 58.3771 31.3189C59.0563 31.4996 59.5797 31.8889 59.7701 32.5237L59.9697 32.4639L60.1694 32.404C59.9243 31.5869 59.253 31.1206 58.4842 30.9161C57.7178 30.7122 56.8277 30.7586 56.0725 30.9828L56.1318 31.1826ZM59.9697 32.4639L59.7701 32.5237C60.0332 33.4018 59.5459 34.1602 58.706 34.6845L58.8164 34.8613L58.9268 35.0381C59.8426 34.4664 60.5102 33.5415 60.1694 32.404L59.9697 32.4639ZM58.8164 34.8613L58.8069 35.0695C59.5008 35.1012 60.1921 35.2845 60.7095 35.6168C61.222 35.9459 61.5551 36.4132 61.5779 37.0301L61.7861 37.0225L61.9944 37.0148C61.9656 36.2313 61.534 35.6509 60.9347 35.266C60.3402 34.8843 59.5725 34.6873 58.8259 34.6531L58.8164 34.8613ZM61.7861 37.0225L61.5779 37.0301C61.6057 37.7918 61.1893 38.3758 60.5361 38.7779C59.8786 39.1827 58.9993 39.3883 58.1724 39.3785L58.1699 39.5869L58.1675 39.7953C59.0573 39.8058 60.0175 39.5866 60.7546 39.1328C61.496 38.6764 62.0293 37.968 61.9944 37.0148L61.7861 37.0225ZM58.1699 39.5869L58.1724 39.3785L56.523 39.359L56.5205 39.5674L56.518 39.7758L58.1675 39.7953L58.1699 39.5869ZM56.5205 39.5674L56.4817 39.7722L57.2142 39.9108L57.2529 39.7061L57.2917 39.5013L56.5593 39.3626L56.5205 39.5674ZM57.2529 39.7061L57.2142 39.9108C57.9767 40.0552 58.7313 40.4053 59.2346 40.8914C59.7327 41.3725 59.973 41.9706 59.7701 42.6482L59.9697 42.708L60.1694 42.7678C60.4282 41.9036 60.1033 41.1509 59.5242 40.5916C58.9504 40.0373 58.1158 39.6573 57.2917 39.5013L57.2529 39.7061ZM59.9697 42.708L59.7701 42.6482C59.5798 43.2832 59.0564 43.6725 58.3772 43.8531C57.6956 44.0344 56.8843 43.9953 56.1912 43.7895L56.1318 43.9893L56.0725 44.189C56.8278 44.4133 57.7179 44.4598 58.4843 44.2559C59.2531 44.0515 59.9245 43.5851 60.1694 42.7678L59.9697 42.708ZM56.1318 43.9893L56.1912 43.7895L55.6424 43.6264L55.583 43.8262L55.5236 44.0259L56.0725 44.189L56.1318 43.9893ZM55.583 43.8262L55.4974 44.0162L56.221 44.3423L56.3066 44.1523L56.3923 43.9623L55.6686 43.6362L55.583 43.8262ZM56.3066 44.1523L56.221 44.3423C56.9402 44.6665 57.5845 45.1886 57.941 45.7784C58.2926 46.3603 58.3598 46.9935 57.9687 47.5966L58.1436 47.71L58.3184 47.8234C58.8153 47.0572 58.7123 46.2488 58.2977 45.5628C57.8879 44.8848 57.1698 44.3127 56.3923 43.9623L56.3066 44.1523ZM58.1436 47.71L57.9687 47.5965C57.5987 48.1669 56.9628 48.4218 56.2327 48.4349C55.5014 48.4481 54.7044 48.2157 54.0721 47.8455L53.9668 48.0254L53.8615 48.2052C54.5521 48.6096 55.4238 48.8664 56.2402 48.8517C57.058 48.837 57.849 48.5469 58.3184 47.8234L58.1436 47.71ZM53.9668 48.0254L54.0721 47.8455L51.6307 46.4159L51.5254 46.5957L51.4201 46.7755L53.8615 48.2052L53.9668 48.0254ZM51.5254 46.5957L51.3956 46.7588L53.6642 48.5635L53.7939 48.4004L53.9237 48.2373L51.6551 46.4326L51.5254 46.5957ZM53.7939 48.4004L53.6642 48.5635C54.2931 49.0637 54.7834 49.7377 54.971 50.4032C55.1559 51.0592 55.0472 51.6957 54.498 52.1852L54.6367 52.3408L54.7754 52.4964C55.4665 51.8804 55.5913 51.0676 55.3722 50.2902C55.1558 49.5224 54.6046 48.7789 53.9237 48.2373L53.7939 48.4004ZM54.6367 52.3408L54.4981 52.1852C53.9756 52.6509 53.2711 52.7433 52.5408 52.5745C51.8093 52.4054 51.0792 51.9784 50.5506 51.4502L50.4033 51.5977L50.256 51.7451C50.8347 52.3233 51.6327 52.7924 52.4469 52.9806C53.2622 53.169 54.1207 53.0799 54.7754 52.4964L54.6367 52.3408ZM50.4033 51.5977L50.5507 51.4503L50.5224 51.422L50.375 51.5693L50.2276 51.7167L50.256 51.745L50.4033 51.5977ZM50.375 51.5693L50.2071 51.6928L50.4024 51.9584L50.5703 51.835L50.7382 51.7115L50.5429 51.4459L50.375 51.5693ZM50.5703 51.835L50.4024 51.9584C50.8852 52.6155 51.1774 53.4079 51.1761 54.1154C51.1749 54.8139 50.8907 55.4201 50.2225 55.7661L50.3184 55.9512L50.4142 56.1362C51.2462 55.7054 51.5915 54.9388 51.593 54.1161C51.5944 53.3024 51.2626 52.4252 50.7383 51.7116L50.5703 51.835ZM50.3184 55.9512L50.2225 55.7661C49.5853 56.096 48.8684 56.0115 48.1982 55.6615C47.5265 55.3108 46.9251 54.7032 46.5507 54.0384L46.3691 54.1406L46.1875 54.2429C46.5981 54.972 47.2561 55.6399 48.0053 56.031C48.7559 56.423 49.6212 56.5468 50.4142 56.1363L50.3184 55.9512ZM46.3691 54.1406L46.5507 54.0384L45.122 51.5013L44.9404 51.6035L44.7588 51.7058L46.1875 54.2429L46.3691 54.1406ZM44.9404 51.6035L44.7447 51.6752L45.6158 54.0522L45.8115 53.9805L46.0072 53.9088L45.1361 51.5318L44.9404 51.6035ZM45.8115 53.9805L45.6158 54.0522C45.8985 54.8235 45.9541 55.6822 45.749 56.3868C45.5457 57.0847 45.0923 57.6212 44.3488 57.8034L44.3984 58.0059L44.448 58.2083C45.3649 57.9836 45.9133 57.3133 46.1492 56.5033C46.3831 55.6998 46.3152 54.7493 46.0072 53.9088L45.8115 53.9805ZM44.3984 58.0059L44.3489 57.8034C43.6409 57.9768 42.9725 57.7211 42.4243 57.2145C41.874 56.706 41.4626 55.9577 41.2901 55.2008L41.0869 55.2471L40.8837 55.2934C41.073 56.124 41.5234 56.9495 42.1414 57.5207C42.7616 58.0938 43.5681 58.4238 44.448 58.2083L44.3984 58.0059ZM41.0869 55.2471L41.2901 55.2008L40.6192 52.2564L40.416 52.3027L40.2128 52.349L40.8837 55.2934L41.0869 55.2471ZM40.416 52.3027L40.2082 52.3182L40.5148 56.4315L40.7227 56.416L40.9305 56.4005L40.6239 52.2872L40.416 52.3027ZM40.7227 56.416L40.5148 56.4315C40.5756 57.2484 40.389 58.1081 39.9907 58.7548C39.595 59.3973 39.0016 59.8165 38.2344 59.8092L38.2324 60.0176L38.2304 60.226C39.1777 60.235 39.893 59.7083 40.3456 58.9734C40.7956 58.2427 40.9969 57.2934 40.9305 56.4005L40.7227 56.416ZM38.2324 60.0176L38.2344 59.8092C37.4262 59.8014 36.7951 59.3602 36.3699 58.6924C35.9424 58.0208 35.7332 57.1313 35.7823 56.2766L35.5742 56.2646L35.3662 56.2527C35.3127 57.1838 35.5383 58.1622 36.0183 58.9163C36.5008 59.6741 37.25 60.2165 38.2304 60.226L38.2324 60.0176ZM35.5742 56.2646L35.7823 56.2766L35.9698 53.0022L35.7617 52.9902L35.5536 52.9783L35.3661 56.2527L35.5742 56.2646ZM35.7617 52.9902L35.5585 52.944L35.0448 55.2008L35.248 55.2471L35.4513 55.2933L35.9649 53.0365L35.7617 52.9902ZM35.248 55.2471L35.0448 55.2008C34.8724 55.9577 34.461 56.706 33.9107 57.2146C33.3625 57.7212 32.6941 57.9769 31.9861 57.8034L31.9365 58.0059L31.8869 58.2083C32.7669 58.4239 33.5733 58.0939 34.1936 57.5207C34.8116 56.9495 35.262 56.124 35.4513 55.2934L35.248 55.2471ZM31.9365 58.0059L31.9862 57.8034C31.2428 57.6212 30.7894 57.0846 30.5861 56.3866C30.3809 55.6821 30.4365 54.8235 30.7191 54.0522L30.5234 53.9805L30.3277 53.9088C30.0198 54.7492 29.9519 55.6997 30.1859 56.5032C30.4218 57.3132 30.9702 57.9835 31.8869 58.2083L31.9365 58.0059ZM30.5234 53.9805L30.7191 54.0522L31.5902 51.6742L31.3945 51.6025L31.1988 51.5309L30.3277 53.9088L30.5234 53.9805ZM31.3945 51.6025L31.2129 51.5003L29.7842 54.0384L29.9658 54.1406L30.1474 54.2429L31.5761 51.7048L31.3945 51.6025ZM29.9658 54.1406L29.7842 54.0384C29.4099 54.7032 28.8085 55.3107 28.1368 55.6614C27.4666 56.0114 26.7496 56.0959 26.1124 55.7661L26.0166 55.9512L25.9208 56.1363C26.7138 56.5467 27.579 56.4229 28.3297 56.0309C29.0788 55.6398 29.7369 54.9719 30.1474 54.2429L29.9658 54.1406ZM26.0166 55.9512L26.1124 55.7661C25.4443 55.4201 25.1599 54.8138 25.1584 54.1153C25.1569 53.4079 25.4489 52.6154 25.9316 51.9584L25.7637 51.835L25.5957 51.7116C25.0714 52.4252 24.7398 53.3025 24.7416 54.1162C24.7433 54.9389 25.0889 55.7054 25.9208 56.1362L26.0166 55.9512ZM25.7637 51.835L25.9319 51.958L26.1262 51.6924L25.958 51.5693L25.7898 51.4463L25.5955 51.7119L25.7637 51.835ZM25.958 51.5693L25.8081 51.4246L25.7807 51.4529L25.9307 51.5977L26.0806 51.7424L26.1079 51.7141L25.958 51.5693ZM25.9307 51.5977L25.7834 51.4502C25.2548 51.9783 24.5246 52.4054 23.7932 52.5745C23.0628 52.7433 22.3583 52.6509 21.8359 52.1852L21.6973 52.3408L21.5586 52.4964C22.2132 53.0799 23.0718 53.1691 23.8871 52.9806C24.7012 52.7924 25.4993 52.3232 26.078 51.7451L25.9307 51.5977ZM21.6973 52.3408L21.836 52.1853C21.2871 51.6958 21.1784 51.0592 21.3633 50.4032C21.5508 49.7376 22.041 49.0636 22.6698 48.5635L22.54 48.4004L22.4103 48.2373C21.7294 48.7789 21.1784 49.5224 20.9621 50.2902C20.743 51.0676 20.8678 51.8803 21.5586 52.4964L21.6973 52.3408ZM22.54 48.4004L22.6698 48.5635L24.9354 46.7607L24.8057 46.5977L24.6759 46.4346L22.4103 48.2373L22.54 48.4004ZM24.8057 46.5977L24.7003 46.4178L22.2628 47.8456L22.3682 48.0254L22.4735 48.2052L24.911 46.7775L24.8057 46.5977ZM22.3682 48.0254L22.2629 47.8455C21.6306 48.2157 20.8336 48.4481 20.1022 48.4349C19.3722 48.4218 18.7362 48.1669 18.3663 47.5965L18.1914 47.71L18.0166 47.8234C18.4859 48.5469 19.2769 48.8369 20.0947 48.8517C20.9112 48.8664 21.7829 48.6095 22.4735 48.2052L22.3682 48.0254ZM18.1914 47.71L18.3663 47.5966C17.9753 46.9935 18.0425 46.3603 18.3941 45.7784C18.7506 45.1886 19.3948 44.6665 20.114 44.3423L20.0283 44.1523L19.9427 43.9623C19.1653 44.3127 18.4471 44.8848 18.0374 45.5629C17.6228 46.2489 17.5198 47.0572 18.0165 47.8233L18.1914 47.71ZM20.0283 44.1523L20.1141 44.3423L20.8367 44.0161L20.751 43.8262L20.6652 43.6362L19.9426 43.9624L20.0283 44.1523ZM20.751 43.8262L20.6915 43.6264L20.1437 43.7895L20.2031 43.9893L20.2626 44.189L20.8104 44.0259L20.751 43.8262ZM20.2031 43.9893L20.1438 43.7895C19.4507 43.9953 18.6394 44.0343 17.9578 43.8531C17.2785 43.6724 16.7552 43.2832 16.5649 42.6482L16.3652 42.708L16.1656 42.7678C16.4105 43.5851 17.0818 44.0514 17.8507 44.2559C18.6171 44.4597 19.5072 44.4133 20.2624 44.189L20.2031 43.9893ZM16.3652 42.708L16.5649 42.6482C16.3621 41.9707 16.6023 41.3726 17.1004 40.8915C17.6037 40.4053 18.3584 40.0552 19.1208 39.9108L19.082 39.7061L19.0432 39.5013C18.2192 39.6574 17.3847 40.0374 16.8108 40.5917C16.2318 41.151 15.9069 41.9036 16.1656 42.7678L16.3652 42.708ZM19.082 39.7061L19.1209 39.9108L19.5682 39.8258L19.5293 39.6211L19.4904 39.4163L19.0431 39.5013L19.082 39.7061ZM19.5293 39.6211L19.5268 39.4127L17.7221 39.4342L17.7246 39.6426L17.7271 39.851L19.5318 39.8295L19.5293 39.6211ZM17.7246 39.6426L17.7222 39.4342C16.8698 39.4442 15.9633 39.2323 15.285 38.8147C14.611 38.3998 14.1804 37.7966 14.2092 37.0096L14.001 37.002L13.7927 36.9943C13.7569 37.9729 14.3044 38.7004 15.0665 39.1696C15.8243 39.6362 16.8119 39.8618 17.7271 39.851L17.7246 39.6426ZM14.001 37.002L14.2092 37.0096C14.2344 36.3272 14.6279 35.8203 15.2238 35.4783C15.8242 35.1336 16.6151 34.9679 17.3744 34.9808L17.3779 34.7725L17.3815 34.5641C16.5654 34.5501 15.6962 34.7264 15.0162 35.1168C14.3317 35.5098 13.8245 36.131 13.7927 36.9943L14.001 37.002ZM17.3779 34.7725L17.496 34.6007C16.7381 34.0799 16.3155 33.356 16.5649 32.5237L16.3652 32.4639L16.1656 32.404C15.8437 33.4785 16.4219 34.3683 17.2599 34.9442L17.3779 34.7725ZM16.3652 32.4639L16.5649 32.5237C16.7552 31.8889 17.2786 31.4996 17.9579 31.3189C18.6395 31.1377 19.4507 31.1767 20.1438 31.3824L20.2031 31.1826L20.2624 30.9828C19.5072 30.7586 18.6172 30.7123 17.8507 30.9161C17.0819 31.1206 16.4106 31.5869 16.1656 32.404L16.3652 32.4639ZM20.2031 31.1826L20.144 31.3825L20.6918 31.5446L20.751 31.3447L20.8101 31.1449L20.2623 30.9828L20.2031 31.1826ZM20.751 31.3447L20.8365 31.1547L20.1138 30.8295L20.0283 31.0195L19.9428 31.2096L20.6655 31.5348L20.751 31.3447ZM20.0283 31.0195L20.114 30.8295C19.3948 30.5053 18.7504 29.9832 18.3939 29.3934C18.0422 28.8116 17.975 28.1784 18.3663 27.5753L18.1914 27.4619L18.0166 27.3485C17.5196 28.1147 17.6225 28.923 18.0372 29.609C18.447 30.287 19.1652 30.8591 19.9427 31.2095L20.0283 31.0195ZM18.1914 27.4619L18.3662 27.5753C18.7362 27.0051 19.3722 26.7502 20.1022 26.7371C20.8336 26.7239 21.6306 26.9562 22.2629 27.3263L22.3682 27.1465L22.4734 26.9666C21.7829 26.5624 20.9112 26.3056 20.0947 26.3203C19.2769 26.3351 18.4859 26.6251 18.0166 27.3485L18.1914 27.4619ZM22.3682 27.1465L22.2629 27.3264L24.7043 28.7551L24.8096 28.5752L24.9148 28.3953L22.4734 26.9666L22.3682 27.1465ZM24.8096 28.5752L24.9393 28.4121L22.6698 26.6074L22.54 26.7705L22.4103 26.9336L24.6799 28.7383L24.8096 28.5752ZM22.54 26.7705L22.6698 26.6074C22.0411 26.1072 21.5508 25.4331 21.3632 24.7675C21.1783 24.1116 21.2869 23.4751 21.8359 22.9857L21.6973 22.8301L21.5586 22.6745C20.8676 23.2905 20.7429 24.1032 20.962 24.8806C21.1784 25.6484 21.7295 26.3919 22.4103 26.9336L22.54 26.7705ZM21.6973 22.8301L21.8359 22.9857C22.3583 22.5202 23.0628 22.428 23.7931 22.597C24.5246 22.7663 25.2548 23.1936 25.7834 23.7217L25.9307 23.5742L26.078 23.4268C25.4993 22.8487 24.7013 22.3794 23.8871 22.1909C23.0719 22.0022 22.2133 22.0911 21.5586 22.6745L21.6973 22.8301ZM25.9307 23.5742L25.7833 23.7216L25.8106 23.7489L25.958 23.6016L26.1054 23.4542L26.078 23.4268L25.9307 23.5742ZM25.958 23.6016L26.126 23.4782L25.9317 23.2136L25.7637 23.3369L25.5957 23.4603L25.79 23.7249L25.958 23.6016ZM25.7637 23.3369L25.9316 23.2135C25.449 22.5564 25.157 21.7639 25.1584 21.0565C25.1599 20.3579 25.4443 19.7517 26.1124 19.4058L26.0166 19.2207L25.9208 19.0356C25.0888 19.4664 24.7433 20.2329 24.7416 21.0556C24.7399 21.8694 25.0715 22.7466 25.5957 23.4603L25.7637 23.3369ZM26.0166 19.2207L26.1124 19.4058C26.7495 19.0761 27.4665 19.1606 28.1367 19.5106C28.8084 19.8613 29.4099 20.4688 29.7842 21.1335L29.9658 21.0312L30.1474 20.929C29.7369 20.2 29.0788 19.5322 28.3296 19.1411C27.579 18.7491 26.7137 18.6253 25.9208 19.0356L26.0166 19.2207ZM29.9658 21.0312L29.7842 21.1335L31.2119 23.6696L31.3936 23.5674L31.5752 23.4651L30.1474 20.929L29.9658 21.0312ZM31.3936 23.5674L31.5893 23.4957L30.7191 21.1197L30.5234 21.1914L30.3277 21.2631L31.1979 23.6391L31.3936 23.5674ZM30.5234 21.1914L30.7191 21.1197C30.4366 20.3484 30.381 19.4897 30.5861 18.7852C30.7894 18.0872 31.2428 17.5507 31.9861 17.3684L31.9365 17.166L31.8869 16.9636C30.9701 17.1883 30.4218 17.8586 30.1859 18.6686C29.952 19.4721 30.0199 20.4226 30.3277 21.2631L30.5234 21.1914ZM31.9365 17.166L31.9861 17.3684C32.694 17.195 33.3624 17.4507 33.9106 17.9573C34.4609 18.4659 34.8723 19.2143 35.0448 19.9711L35.248 19.9248L35.4512 19.8785C35.2619 19.0479 34.8115 18.2224 34.1935 17.6512C33.5733 17.078 32.7668 16.748 31.8869 16.9636L31.9365 17.166ZM35.248 19.9248L35.0448 19.9711L35.5019 21.9779L35.7051 21.9316L35.9083 21.8854L35.4513 19.8785L35.248 19.9248ZM35.7051 21.9316L35.9129 21.9161L35.6707 18.6817L35.4629 18.6973L35.2551 18.7128L35.4972 21.9472L35.7051 21.9316ZM35.4629 18.6973L35.6707 18.6817C35.6077 17.8416 35.7999 16.9582 36.2102 16.2936C36.6178 15.6333 37.2297 15.2018 38.0205 15.2094L38.0225 15.001L38.0244 14.7926C37.054 14.7833 36.3202 15.3218 35.8555 16.0747C35.3933 16.8233 35.1863 17.7965 35.2551 18.7129L35.4629 18.6973Z" fill="var(--stroke-0, #FFA2AD)" mask="url(#path-4-inside-1_17107_3035)"/>
</g>
<path id="Union_2" d="M37.973 23.3734C39.1073 23.3845 39.7261 24.6189 39.6605 25.7514L39.5384 27.8481L39.8656 26.4145C40.089 25.4341 40.9299 24.4702 41.9105 24.7104C42.9359 24.9616 43.1483 26.2013 42.7836 27.1967L42.2474 28.6586L43.1273 27.0971C43.6119 26.2363 44.6826 25.5219 45.5658 25.9789C46.4922 26.4587 46.344 27.6744 45.722 28.5209L45.6 28.6859L45.6185 28.6684C46.3023 27.9851 47.5068 27.5604 48.2337 28.2084C48.9992 28.8912 48.521 29.9987 47.7123 30.642L46.3099 31.7572L47.8197 30.8734C48.6366 30.3954 49.8806 30.2699 50.3988 31.0688C50.9468 31.9143 50.1882 32.8485 49.264 33.265L48.8168 33.4662L49.1566 33.3656C50.0511 33.1 51.258 33.2598 51.5267 34.1566C51.7129 34.7787 51.3566 35.2987 50.8148 35.6371C51.7043 35.6779 52.617 36.1073 52.6488 36.9721C52.6874 38.0309 51.4755 38.5685 50.4154 38.5561L49.3978 38.5434L49.849 38.6293C50.8287 38.8149 51.8117 39.5308 51.5267 40.4828C51.2578 41.3793 50.0509 41.5403 49.1566 41.2748L48.8109 41.1713L49.264 41.3764C50.1881 41.7929 50.9468 42.7272 50.3988 43.5727C49.8805 44.3713 48.6365 44.246 47.8197 43.768L46.3099 42.8832L47.7123 43.9994C48.5209 44.6427 48.9992 45.7503 48.2337 46.433C47.5069 47.0808 46.3023 46.6572 45.6185 45.974L45.6048 45.9604L45.722 46.1195C46.3439 46.9661 46.4923 48.1819 45.5658 48.6615C44.6827 49.1183 43.612 48.4039 43.1273 47.5434L42.2455 45.9779L42.7836 47.4457C43.1479 48.4411 42.9357 49.6799 41.9105 49.9311C40.9302 50.1712 40.0892 49.2081 39.8656 48.2279L39.4496 46.4057L39.64 48.9486C39.7185 50.0044 39.1606 51.1833 38.1019 51.1733C36.9978 51.1624 36.3973 49.9584 36.4603 48.8559L36.5755 46.8393L36.2601 48.2279C36.0366 49.208 35.1954 50.1709 34.2152 49.9311C33.19 49.6799 32.9777 48.4411 33.3421 47.4457L33.8793 45.9779L32.9984 47.5434C32.5137 48.404 31.4421 49.1186 30.5589 48.6615C29.6328 48.1818 29.781 46.966 30.4027 46.1195L30.5189 45.9604L30.5062 45.974C29.8225 46.6572 28.6179 47.0807 27.891 46.433C27.1255 45.7503 27.6038 44.6427 28.4125 43.9994L29.8138 42.8832L28.305 43.768C27.4882 44.246 26.2443 44.3713 25.7259 43.5727C25.1779 42.7272 25.9366 41.7929 26.8607 41.3764L27.3138 41.1713L26.9681 41.2748C26.0738 41.5403 24.8669 41.3793 24.598 40.4828C24.313 39.5308 25.296 38.8149 26.2757 38.6293L26.5511 38.5766L25.4379 38.5902C24.3466 38.6031 23.0997 38.0502 23.139 36.9604C23.174 36.0054 24.2517 35.5665 25.225 35.5834C24.7313 35.2448 24.4216 34.7459 24.598 34.1566C24.8668 33.2598 26.0737 33.1 26.9681 33.3656L27.307 33.4662L26.8607 33.265C25.9365 32.8485 25.1779 31.9143 25.7259 31.0688C26.2442 30.2699 27.4881 30.3954 28.305 30.8734L29.8138 31.7572L28.4125 30.642C27.6037 29.9987 27.1255 28.8912 27.891 28.2084C28.6179 27.5604 29.8224 27.9851 30.5062 28.6684L30.5238 28.6859L30.4027 28.5209C29.7809 27.6745 29.6329 26.4587 30.5589 25.9789C31.4422 25.5216 32.5137 26.2363 32.9984 27.0971L33.8773 28.6586L33.3421 27.1967C32.9774 26.2012 33.1898 24.9616 34.2152 24.7104C35.1957 24.4704 36.0368 25.4342 36.2601 26.4145L36.5414 27.6508L36.392 25.6557C36.3107 24.571 36.8853 23.363 37.973 23.3734Z" fill="var(--fill-0, #FFC6CD)"/>
<circle id="Ellipse 229" cx="37.9684" cy="37.3004" r="4.37664" fill="var(--fill-0, #94656B)"/>
<circle id="Ellipse 228" cx="37.9949" cy="37.3268" r="2.52727" fill="var(--fill-0, #3C2A2C)"/>
</g>
</g>
</svg>
