<svg width="67" height="67" viewBox="0 0 67 67" fill="none" xmlns="http://www.w3.org/2000/svg">
<g clip-path="url(#clip0_16953_10842)">
<path d="M15.8376 16.7523C21.6022 8.57864 30.4282 10.9088 34.1207 13.0956C41.6921 8.01932 47.6 13.3466 49.6076 16.6448C52.7265 14.709 61.868 16.9675 61.6529 22.6675C61.4378 28.3675 63.2661 26.5392 65.8473 30.5185C67.9122 33.7019 65.5605 36.577 64.1265 37.6166C68.7511 42.5638 64.7718 49.8771 60.4699 51.3827C56.168 52.8884 62.1907 55.2544 56.4906 59.6639C51.9306 63.1915 48.2812 60.7752 47.0264 59.1262C43.5849 68.8055 36.3792 67.9453 32.1849 66.2245C27.9905 64.5037 25.3018 66.7622 18.9565 66.2245C12.6112 65.6867 12.181 55.8997 8.84701 54.6092C6.17982 53.5767 5.65643 49.5186 5.72813 47.6186C-3.21984 43.4027 0.279044 35.7525 3.14698 32.4543C5.40548 31.9166 7.12625 30.8411 9.70739 23.3128C11.7723 17.2901 14.6546 16.4297 15.8376 16.7523Z" fill="#FED8E1" stroke="#EF8EAB" stroke-width="0.215095"/>
<ellipse cx="34.4145" cy="36.4866" rx="5.37739" ry="3.54907" fill="#F092AD"/>
<path d="M41.0839 37.7783C40.9118 40.6175 35.4914 41.8293 32.8027 42.0802C39.9726 42.9047 52.9142 42.5317 47.3217 34.4442C41.7292 26.3566 35.3122 29.6405 32.8027 32.2934C38.1801 31.2179 41.299 34.2292 41.0839 37.7783Z" fill="#FB9FBA"/>
<path d="M31.0799 30.3574C17.8301 41.6284 33.9479 43.9443 43.663 43.6933C41.6913 46.0235 31.3422 50.469 23.229 42.833C17.744 37.6707 25.2724 32.4725 31.0799 30.3574Z" fill="#F092AD"/>
<path d="M46.0312 43.7999C44.7406 46.209 34.2009 48.1018 31.082 48.9622C33.4481 50.4678 35.6636 52.2962 44.9557 51.866C54.2478 51.4358 54.7067 47.2414 53.7746 45.198C60.3995 38.5731 52.8067 35.3395 48.1821 34.5508C52.1399 39.0248 48.3972 42.581 46.0312 43.7999Z" fill="url(#paint0_linear_16953_10842)"/>
<path d="M29.6827 47.78C30.7151 50.9634 35.2035 52.1894 37.3186 52.4045C30.0053 55.4158 25.7392 52.5838 24.5204 50.7913C21.1649 51.3936 16.9562 49.6083 15.2713 48.6403C-2.36657 37.2833 20.6486 27.7761 30.9732 28.9591C9.03349 38.5093 21.2939 44.9837 29.6827 47.78Z" fill="url(#paint1_linear_16953_10842)"/>
<path d="M34.3067 28.208C27.3161 23.691 15.5934 29.8573 12.582 32.295C18.2821 19.9264 30.1123 15.1941 37.6406 23.4755C47.3199 15.7319 59.4011 31.0699 56.9992 37.5586C48.6105 30.1429 41.0105 27.1683 34.3067 28.208Z" fill="url(#paint2_linear_16953_10842)"/>
<path d="M23.5535 52.6204C16.5844 53.0506 11.9742 49.86 10.5402 48.2109C9.35719 49.3581 7.44284 51.8461 9.24964 52.6204C11.5081 53.5883 14.1968 60.1487 16.4553 63.2676C18.2621 65.7627 25.7403 64.3072 29.2535 63.2676C31.9064 65.2752 38.4381 67.7201 43.3423 61.4393C48.2464 55.1585 41.8724 53.7317 38.0724 53.8034C31.5335 56.3846 25.6686 54.0902 23.5535 52.6204Z" fill="url(#paint3_linear_16953_10842)"/>
<path d="M46.0294 54.4455C44.5668 56.5964 48.2879 58.2096 50.3313 58.7474C58.6125 58.7474 57.7521 54.4455 57.6446 52.187C57.5585 50.3802 60.4767 48.4228 61.9465 47.67C66.9367 42.2496 62.0899 39.819 59.0427 39.2812C60.5914 40.8299 57.8238 45.9492 56.2464 48.3153C56.8487 51.0685 49.686 53.5492 46.0294 54.4455Z" fill="url(#paint4_linear_16953_10842)"/>
<path d="M47.5352 20.8922C55.7948 23.9896 59.3654 31.0016 58.3975 37.7772C66.2485 37.2396 65.0654 30.2487 62.0541 29.9261C59.645 29.668 59.2579 25.5167 59.3654 23.4734C56.7843 14.6975 50.4031 18.096 47.5352 20.8922Z" fill="url(#paint5_linear_16953_10842)"/>
<path d="M12.2612 21.3247C14.3261 17.453 18.3914 19.497 18.8216 22.2933C5.0555 36.3175 6.34607 44.0537 8.71211 46.1688L5.91588 44.6632C-0.214344 45.2009 1.50642 32.9405 5.91588 32.9405C10.3253 32.9405 9.68004 26.1643 12.2612 21.3247Z" fill="url(#paint6_linear_16953_10842)"/>
<path d="M19.5728 21.7525C20.2611 19.6015 18.4257 17.9166 17.4219 17.343C21.7238 10.9762 30.471 12.3958 34.3069 13.9015C43.1688 9.94387 46.3881 16.2675 46.8899 19.924C44.653 19.1496 40.0786 20.8203 38.071 21.7525C31.6182 14.7617 23.0144 18.777 19.5728 21.7525Z" fill="url(#paint7_linear_16953_10842)"/>
</g>
<defs>
<linearGradient id="paint0_linear_16953_10842" x1="43.7274" y1="34.5508" x2="45.3859" y2="58.5339" gradientUnits="userSpaceOnUse">
<stop stop-color="#F092AD"/>
<stop offset="1" stop-color="#FED8E1"/>
</linearGradient>
<linearGradient id="paint1_linear_16953_10842" x1="33.9845" y1="37.4552" x2="18.175" y2="52.8345" gradientUnits="userSpaceOnUse">
<stop stop-color="#F092AD"/>
<stop offset="1" stop-color="#FED8E1"/>
</linearGradient>
<linearGradient id="paint2_linear_16953_10842" x1="35.0595" y1="33.5848" x2="37.1029" y2="18.7432" gradientUnits="userSpaceOnUse">
<stop stop-color="#F092AD"/>
<stop offset="1" stop-color="#FED8E1"/>
</linearGradient>
<linearGradient id="paint3_linear_16953_10842" x1="26.8158" y1="48.2109" x2="26.8158" y2="65.4658" gradientUnits="userSpaceOnUse">
<stop stop-color="#FED8E1"/>
<stop offset="1" stop-color="#F6AFC3"/>
</linearGradient>
<linearGradient id="paint4_linear_16953_10842" x1="64.9578" y1="51.219" x2="52.5898" y2="42.0775" gradientUnits="userSpaceOnUse">
<stop stop-color="#F3A0B7"/>
<stop offset="1" stop-color="#FED8E1"/>
</linearGradient>
<linearGradient id="paint5_linear_16953_10842" x1="49.1484" y1="37.8846" x2="71.0881" y2="30.2487" gradientUnits="userSpaceOnUse">
<stop stop-color="#F4A4BB"/>
<stop offset="1" stop-color="#FED8E1"/>
</linearGradient>
<linearGradient id="paint6_linear_16953_10842" x1="10.3795" y1="19.1875" x2="10.3795" y2="46.1688" gradientUnits="userSpaceOnUse">
<stop stop-color="#F7B4C6"/>
<stop offset="1" stop-color="#FED8E1"/>
</linearGradient>
<linearGradient id="paint7_linear_16953_10842" x1="30.9729" y1="17.5579" x2="30.8653" y2="8.41638" gradientUnits="userSpaceOnUse">
<stop stop-color="#F7B3C6"/>
<stop offset="1" stop-color="#FED8E1"/>
</linearGradient>
<clipPath id="clip0_16953_10842">
<rect width="67" height="67" fill="white"/>
</clipPath>
</defs>
</svg>
