<svg preserveAspectRatio="none" width="100%" height="100%" overflow="visible" style="display: block;" viewBox="0 0 76 76" fill="none" xmlns="http://www.w3.org/2000/svg">
<g id="Frame 1739334045">
<rect width="76" height="76" rx="12" fill="var(--fill-0, white)"/>
<path id="Vector 539" d="M61.3292 43.1328C60.9795 43.1146 46.1396 51.7952 40.2528 58.6294C39.477 60.7331 38.7092 58.2877 37.8729 57.9905C30.4985 55.3698 37.8245 44.7602 51.6904 36.9989C57.5696 33.708 69.1669 35.7913 72.6915 39.2291C66.9549 39.2061 61.3292 43.1328 61.3292 43.1328Z" fill="var(--fill-0, #70C272)"/>
<path id="Vector 540" d="M15 54.352C15.3181 54.2056 32.3181 56.7699 40.3181 60.9366C41.8181 62.6031 45.7991 66.5366 42.9991 60.9366C39.4991 53.9366 37.4348 47.1547 21.6801 45.0834C15 44.2051 5 50.437 3 54.936C8.31982 52.7892 15 54.352 15 54.352Z" fill="var(--fill-0, #5A9F5C)"/>
<g id="Group 196">
<path id="Vector 152" d="M32.4451 57.0567C27.3143 58.0915 24.8836 54.6185 24.3096 52.7527C22.0093 54.0045 20.2734 52.5545 19.6931 51.673C12.8322 53.4582 14.1026 49.1512 15.5954 46.7746C13.8872 45.9427 14.7676 43.8422 15.4214 42.896C9.56463 43.6235 13.6979 38.8919 16.4966 36.4351C14.3076 34.5374 17.8487 31.6415 19.8929 30.4308C21.2434 23.4717 27.5381 23.2043 30.5167 23.9404C30.4446 22.9291 30.7971 22.1914 30.9824 21.949C35.8891 15.0812 47.0962 17.7454 47.5462 20.0366C47.9061 21.8696 48.1333 22.4743 48.202 22.5475C51.9539 23.2193 52.1934 27.5958 51.8441 29.7002C53.1735 29.0252 56.2813 27.7718 58.0771 28.1575C59.8729 28.5432 59.4436 30.8061 59.0045 31.8893C61.6904 33.4176 60.9975 37.1131 60.516 38.072C60.0346 39.031 54.7599 37.0259 53.5132 37.5916C52.2664 38.1573 56.5563 39.9748 58.0367 40.7926C59.221 41.4468 58.283 42.1217 57.666 42.3775C60.2669 42.9858 60.1612 44.9039 59.7832 45.787C59.0195 45.0938 56.3222 44.7631 55.069 44.6844C55.5286 46.6778 53.1343 47.2753 51.8797 47.3248C52.5527 48.991 50.9048 49.6 49.9967 49.6963C44.9014 49.0865 39.8923 52.3383 38.8549 55.5295C38.0251 58.0824 34.2359 57.6113 32.4451 57.0567Z" fill="var(--fill-0, #CE1420)" stroke="var(--stroke-0, #580909)" stroke-width="0.208411"/>
<path id="Vector 235" d="M21.318 31.4276C21.4414 31.0724 23.1168 29.8453 24.1669 28.9447C22.5805 29.7377 19.3844 31.4826 19.2905 32.1185C19.1731 32.9133 21.8305 31.7208 21.2668 33.948C20.7031 36.1753 19.5472 36.546 20.4649 37.3765C21.1992 38.0408 21.8643 37.909 22.1051 37.7601C21.5566 39.1636 20.6665 41.8909 21.494 41.5712C22.3215 41.2515 23.7881 40.2849 24.418 39.8416C24.7792 41.144 25.7102 43.712 26.5448 43.5651C27.3793 43.4181 28.8297 41.8062 29.4505 41.0186L33.8618 44.4638C35.1709 43.8148 37.914 42.2532 38.4143 41.1986C38.9145 40.144 43.1743 41.6438 45.2417 42.5256L43.824 37.344L47.9737 39.1679C47.4464 37.2198 46.578 33.3842 47.3229 33.6269C48.0678 33.8695 50.1267 33.3703 51.0631 33.0903L49.514 30.2047L50.1779 27.3661L48.29 26.3661L48.868 23.8949L44.6713 23.2983L45.7829 21.7773L44.1516 21.3958C43.8986 20.8015 43.504 20.8615 43.1691 20.9769C42.8343 21.0923 42.5672 21.2581 42.6195 21.3845C43.0326 21.5953 44.435 21.8989 44.092 22.3066C43.8764 22.5629 43.1353 22.7915 42.4791 23.2763C42.2017 23.4812 42.0495 23.7503 42.4636 23.8849C43.7142 24.2916 45.1449 24.4594 46.1461 25.2086C46.3748 25.3797 46.4685 25.6299 46.286 25.8974C46.1035 26.1649 45.3872 26.4639 45.5386 26.6428C46.0236 27.2164 49.6135 28.0437 48.4293 28.8964C47.8261 29.3307 46.4708 29.7473 46.7384 30.2294C46.9826 30.6694 49.4071 30.9692 48.6381 32.2881C48.4417 32.625 43.4596 31.1553 44.3766 33.2528C44.8814 34.4076 46.8547 36.739 45.8787 36.6761C44.7416 36.6027 42.6049 35.2542 41.9944 36.6935C41.7425 37.2873 43.1765 40.1862 41.4949 40.111C40.0867 40.048 37.971 38.0069 37.2099 39.0708C36.9272 39.4659 36.5606 39.3029 36.111 40.0713C35.8516 40.5146 35.5395 42.0206 35.1258 41.533C33.8611 40.0426 32.4956 38.1843 31.8169 38.7746L31.8044 38.7855C30.7982 39.6606 29.7942 40.5338 29.6556 40.1418C29.4481 39.5547 29.2221 38.4366 28.6934 38.6552C27.801 39.0242 26.1378 41.0611 25.5518 40.1067C25.3856 39.8361 25.4383 39.2082 25.3468 38.5182C25.3046 38.2005 25.1833 37.8662 24.843 38.0245C23.8519 38.4857 22.792 39.1615 22.831 38.9261C23.0148 37.8148 23.5541 36.1237 23.0194 36.1335C22.4022 36.1448 21.3376 36.4575 21.4722 36.1914C21.9077 35.3304 24.3519 33.8322 22.9193 32.4547C22.4486 32.0022 21.144 31.9281 21.318 31.4276Z" fill="url(#paint0_linear_17107_3096)" fill-opacity="0.8"/>
<path id="Vector 236" d="M18.8566 39.1534C18.8742 37.7715 19.3176 35.8757 19.9439 34.1841L15.6737 40.9315C16.8567 40.9164 19.1268 41.2962 18.7433 42.9357L17.7812 47.0496L23.1483 43.9659C24.5056 46.1531 26.7118 50.844 27.9771 52.8819C29.2425 54.9199 34.6557 55.6969 36.2858 54.8252C40.3986 51.4271 48.4393 46.0723 52.7108 45.9251C56.398 45.7981 53.2105 39.3979 51.4593 37.1435C52.9897 36.4628 56.5464 35.3861 58.5301 36.5253C60.5137 37.6645 58.2332 34.1204 56.8449 32.206C55.6598 31.9288 54.7217 31.7094 54.1238 31.648C53.5259 31.5865 53.2756 31.6802 53.2905 31.799C53.3054 31.9178 53.5772 32.0575 53.8443 32.2364C54.1115 32.4154 54.3664 32.6272 53.9671 32.8059C53.5678 32.9847 52.5454 33.1261 52.0824 33.3257C51.6195 33.5253 51.7132 33.7755 51.8368 34.0754C51.9603 34.3753 52.1093 34.7146 52.1118 35.0242C52.1144 35.3338 52.0064 35.6471 51.776 35.7897C51.327 36.0675 49.0896 35.8134 48.9105 37.0418C48.8457 37.4867 49.0503 38.3548 49.9615 39.633C50.1933 39.9582 50.3367 40.4013 49.7849 40.3193C48.0007 40.0542 46.0741 39.4934 46.0406 39.9452C46.0042 40.436 47.4926 43.1122 46.2831 43.4982C45.8682 43.6306 45.2707 43.5067 44.6017 43.4497C43.314 43.3399 41.1164 42.1898 40.8315 43.1468C40.4874 44.3024 40.2537 45.983 39.7161 45.7664C38.5569 45.2992 37.9249 44.3989 36.9297 44.0377C36.6438 43.9339 36.2661 43.9217 35.7697 44.3925C35.2733 44.8634 34.6763 45.7892 34.2464 46.143C33.8166 46.4968 33.5678 46.2763 33.3314 46.1158C32.9016 45.8238 31.8913 44.5465 30.2329 43.2371C29.6187 42.7521 29.2635 42.7032 28.9335 43.0589C28.1133 43.9429 27.5086 44.9067 27.0853 44.8867C26.8937 44.8777 26.7186 44.6749 26.4599 44.4302C25.3258 43.3578 24.5612 42.2882 23.6086 41.998C23.0715 41.8343 20.1065 44.491 20.0193 42.8789C19.9264 41.161 20.6301 38.8431 20.1404 38.9198C19.7418 38.9822 18.8518 39.5251 18.8566 39.1534Z" fill="url(#paint1_linear_17107_3096)" fill-opacity="0.5"/>
<path id="Vector 257" d="M28.128 31.7793L25.9056 32.933L25.9003 30.5707L28.5159 28.6899L26.6899 28.2628L27.551 25.898L22.5849 26.8564L25.7125 28.0342C24.8015 29.0671 22.8856 31.2001 22.5101 31.4695C22.1347 31.7389 23.7244 31.6047 24.5662 31.5039C24.5766 33.0498 24.5701 36.258 24.4612 36.7234C24.3524 37.1889 26.22 35.4053 27.1674 34.4554C26.9928 35.6791 26.6238 38.2111 26.5446 38.5496C26.4654 38.8881 29.9114 36.3989 31.6443 35.1119L34.806 38.5292L37.3206 34.9334L40.7613 37.6348L40.5297 31.9463L43.2884 33.9859L42.48 31.9559L45.7446 30.8784L42.4242 27.424L44.2448 25.8414L40.1831 23.8872L41.1855 22.2249L38.7524 21.6558L39.9843 19.4894C38.8814 19.0529 37.1098 19.9328 36.3619 20.4273L33.2035 24.1517L37.9827 23.0382L35.2484 25.1881L39.8737 25.2098L38.5944 26.8631L42.0364 30.5133L37.8645 29.9839L38.7936 33.8832L35.4531 31.7072L34.8346 34.352L31.2488 32.5092L28.2073 35.2567L28.128 31.7793Z" fill="url(#paint2_linear_17107_3096)"/>
<path id="Vector 258" d="M28.2172 27.8731L28.6371 26.078L30.1533 26.1167L28.9929 24.5567L31.1744 25.4614L32.626 23.3028L32.1069 25.5219L35.0494 24.1849L34.6529 25.8805L38.2654 25.7262L36.8009 27.0405L39.7099 29.2198L36.5238 29.2373L37.1735 31.5194L33.325 29.6463C33.4665 30.5033 33.7353 32.2773 33.6793 32.5167C33.6233 32.756 32.2125 31.3671 31.5141 30.6428L29.1273 32.9773L29.7221 30.434L26.9918 31.4259L29.9902 28.051L28.2172 27.8731Z" fill="var(--fill-0, #A20912)"/>
</g>
</g>
<defs>
<linearGradient id="paint0_linear_17107_3096" x1="40.5606" y1="56.7569" x2="33.009" y2="29.2073" gradientUnits="userSpaceOnUse">
<stop stop-color="#CE1420"/>
<stop offset="1" stop-color="#A20912"/>
</linearGradient>
<linearGradient id="paint1_linear_17107_3096" x1="36.8443" y1="34.6257" x2="33.6495" y2="55.1704" gradientUnits="userSpaceOnUse">
<stop stop-color="#A20912"/>
<stop offset="1" stop-color="#CE1420"/>
</linearGradient>
<linearGradient id="paint2_linear_17107_3096" x1="35.6463" y1="43.5235" x2="33.4662" y2="27.5604" gradientUnits="userSpaceOnUse">
<stop stop-color="#CE1420"/>
<stop offset="1" stop-color="#A20912"/>
</linearGradient>
</defs>
</svg>
