<svg width="67" height="67" viewBox="0 0 67 67" fill="none" xmlns="http://www.w3.org/2000/svg">
<path d="M38.7604 12.3516C40.062 14.3541 41.5538 21.5131 37.1084 34.1284C37.1084 34.1284 40.9231 33.858 38.7604 43.5898C36.5978 53.3217 33.4539 55.3542 32.1523 55.1539" stroke="#FFC90C" stroke-width="2" stroke-linecap="round"/>
<path d="M51.7338 20.5371C50.1398 20.6078 46.0381 22.832 42.3828 31.1629" stroke="#FFC90C" stroke-width="2" stroke-linecap="round"/>
<path d="M32.5627 59.2981C26.4554 62.0997 22.3968 58.4744 21.131 56.3115C18.6244 58.5521 16.029 57.2504 15.0446 56.3195C6.99585 60.5674 7.31714 54.8118 8.48388 51.403C6.10472 50.8656 6.58741 47.982 7.12615 46.6074C0.0212613 49.2384 3.79525 42.1103 6.57035 38.2174C3.27699 36.4896 6.8507 31.8297 9.04922 29.7158C8.69087 20.6225 16.4783 18.4376 20.4169 18.4819C20.0294 17.2393 20.2531 16.2138 20.4134 15.8563C24.5259 5.83158 39.3139 5.866 40.5498 8.59693C41.5385 10.7817 42.0002 11.4705 42.1075 11.5418C46.9936 11.2782 48.5795 16.6769 48.7616 19.4093C50.2245 18.175 53.7397 15.695 56.0971 15.649C58.4545 15.6031 58.5834 18.557 58.3532 20.0397C62.1588 21.1599 62.3795 25.9816 62.0597 27.3215C61.74 28.6614 54.5591 27.7066 53.1675 28.78C51.7758 29.8534 57.6709 30.8635 59.7612 31.4501C61.4335 31.9194 60.4598 33.0386 59.764 33.5396C63.1931 33.5351 63.6249 35.9632 63.4122 37.1778C62.254 36.5361 58.7861 36.9158 57.1969 37.1859C58.3573 39.5419 55.541 40.9924 53.9877 41.4231C55.3186 43.3073 53.4383 44.5529 52.3319 44.9402C45.7853 45.6763 40.4818 51.2124 40.1237 55.5052C39.8372 58.9393 34.9637 59.4647 32.5627 59.2981Z" fill="url(#paint0_linear_16951_15790)" stroke="#831C1C" stroke-width="0.267549"/>
<path d="M11.1229 30.5416C11.1727 30.0615 12.9055 28.0355 13.953 26.6014C12.2038 28.0587 8.72277 31.1788 8.79238 32.001C8.87938 33.0288 11.8495 30.7574 11.7999 33.7063C11.7503 36.6553 10.4149 37.4584 11.8058 38.2263C12.9186 38.8406 13.7111 38.4804 13.9682 38.2235C13.6954 40.1387 13.3849 43.8084 14.325 43.1656C15.2651 42.5229 16.8137 40.8838 17.4705 40.1446C18.3047 41.666 20.2231 44.6014 21.2228 44.1724C22.2225 43.7434 23.561 41.3027 24.1053 40.1359L30.6306 43.1443C32.0757 41.9484 35.0446 39.1904 35.3596 37.7255C35.6746 36.2606 41.4388 36.8825 44.2815 37.3765L40.9866 31.3183L46.7083 32.3775C45.4767 30.0981 43.2639 25.5603 44.2661 25.6446C45.2683 25.7288 47.6944 24.4996 48.7822 23.8744L45.9981 20.7239L45.9931 16.9816L43.34 16.287L43.3357 13.0289L37.916 13.5172L38.8578 11.2897L36.7073 11.2925C36.2163 10.6244 35.7409 10.8153 35.3563 11.0579C34.9718 11.3006 34.6868 11.5863 34.7893 11.7289C35.3675 11.8709 37.2093 11.8379 36.9005 12.4483C36.7064 12.832 35.8475 13.3355 35.1701 14.1341C34.8837 14.4718 34.7726 14.8528 35.3297 14.8993C37.012 15.0398 38.8491 14.8289 40.3206 15.4708C40.6566 15.6174 40.8473 15.9025 40.6979 16.2905C40.5485 16.6784 39.7413 17.2625 39.983 17.4416C40.7578 18.0158 45.487 17.9943 44.2579 19.4079C43.6319 20.128 42.0607 21.047 42.5368 21.5708C42.9713 22.0488 46.0891 21.7107 45.516 23.5849C45.3696 24.0636 38.7117 23.6918 40.4743 26.0434C41.4446 27.3379 44.5959 29.6713 43.3578 29.8795C41.9153 30.1221 38.8488 29.0653 38.509 31.0433C38.3688 31.8594 41.0131 35.0604 38.8895 35.4608C37.1113 35.7961 33.8674 33.8674 33.229 35.4206C32.992 35.9975 32.4858 35.9016 32.1499 36.994C31.9561 37.6242 32.0089 39.5979 31.3485 39.1102C29.33 37.6196 27.0773 35.6989 26.4027 36.636L26.3902 36.6533C25.3901 38.0427 24.3922 39.4291 24.1038 38.9799C23.6719 38.3073 23.0607 36.9765 22.4643 37.4052C21.4577 38.1286 19.9781 41.163 18.9652 40.1427C18.678 39.8533 18.5592 39.0532 18.242 38.2179C18.0959 37.8332 17.846 37.4511 17.4673 37.749C16.3644 38.6167 15.2387 39.7728 15.2181 39.4672C15.1211 38.0245 15.2978 35.7527 14.6326 35.9221C13.8645 36.1177 12.6262 36.8214 12.7162 36.4493C13.0072 35.2453 15.6212 32.6545 13.4259 31.3544C12.7046 30.9273 11.0527 31.2182 11.1229 30.5416Z" fill="url(#paint1_linear_16951_15790)" fill-opacity="0.8"/>
<path d="M10.3187 40.9208C9.93447 39.1888 9.93119 36.6893 10.2165 34.3914L6.86407 44.0786C8.33793 43.7119 11.2864 43.5191 11.2892 45.6805L11.2963 51.1043L17.0967 45.6729C19.4358 48.007 23.5718 53.2204 25.7522 55.395C27.9326 57.5697 34.9256 56.9492 36.7063 55.3807C40.8468 49.9252 49.3205 40.8697 54.615 39.43C59.1853 38.1872 53.3205 31.1264 50.4693 28.8241C52.1816 27.5235 56.3096 25.1324 59.1234 25.9728C61.9371 26.8132 58.0453 23.0548 55.7477 21.0706C54.1852 21.0727 52.9485 21.0743 52.1832 21.1733C51.418 21.2723 51.1328 21.463 51.1863 21.6071C51.2399 21.7511 51.6205 21.8458 52.007 21.9908C52.3935 22.1359 52.7743 22.3257 52.3279 22.6664C51.8815 23.0072 50.6454 23.4845 50.1255 23.87C49.6057 24.2556 49.7963 24.5407 50.0389 24.8791C50.2815 25.2175 50.5674 25.5977 50.6616 25.9839C50.7558 26.3701 50.713 26.7934 50.467 27.0392C49.9876 27.5184 47.117 27.8587 47.2543 29.4463C47.3041 30.0214 47.815 31.046 49.3295 32.3754C49.7148 32.7136 50.0242 33.2252 49.3105 33.285C47.0031 33.4783 44.4305 33.3438 44.5215 33.9183C44.6204 34.5423 47.2671 37.449 45.8692 38.2869C45.3896 38.5743 44.6065 38.5952 43.7538 38.7206C42.1123 38.9621 39.0281 38.1709 38.9534 39.4505C38.8632 40.9958 39.0651 43.1647 38.3296 43.052C36.7438 42.809 35.6893 41.8697 34.3395 41.7109C33.9517 41.6653 33.4762 41.7611 32.9942 42.4954C32.5123 43.2297 32.0384 44.5622 31.6053 45.1307C31.1722 45.6992 30.7965 45.4968 30.4539 45.3657C29.8309 45.1272 28.1929 43.8281 25.7355 42.6793C24.8254 42.2539 24.3672 42.2971 24.0594 42.8386C23.2943 44.1845 22.8221 45.5667 22.2872 45.6661C22.0451 45.7111 21.7667 45.5093 21.3714 45.2796C19.639 44.2729 18.3691 43.1611 17.0933 43.0784C16.374 43.0318 13.4499 47.2233 12.867 45.2345C12.2459 43.115 12.4437 40.0116 11.8544 40.2514C11.3747 40.4467 10.4221 41.3867 10.3187 40.9208Z" fill="url(#paint2_linear_16951_15790)" fill-opacity="0.5"/>
<path d="M19.7348 28.9774L17.2968 31.0725L16.5955 28.1221L19.3112 25.0028L16.9038 25.0059L17.2846 21.7976L11.3606 24.4553L15.6152 25.0076C14.7804 26.5662 13.0133 29.795 12.6234 30.242C12.2335 30.689 14.1806 30.0539 15.2029 29.6805C15.6703 31.6092 16.6054 35.6202 16.6062 36.2338C16.607 36.8475 18.4165 34.0696 19.3211 32.604C19.4627 34.1845 19.7459 37.4571 19.7465 37.9034C19.7471 38.3497 23.3215 34.2259 25.1086 32.1083L30.0642 35.4491L32.1494 30.2164L37.2433 32.5805L35.2814 25.5402L39.3284 27.2778L37.7215 24.9786L41.4842 22.6724L36.3193 19.3319L38.1292 16.819L32.4789 15.5711L33.2429 13.1991L30.035 13.2033L30.9376 10.1339C29.431 9.91271 27.4759 11.5331 26.6866 12.3709L23.8348 17.9535L29.4797 15.1571L26.6949 18.6475L32.4812 17.3148L31.3686 19.7569L36.743 23.3064L31.374 23.8714L33.6813 28.471L28.8673 26.7339L28.8718 30.2207L23.8492 28.972L20.8562 33.2996L19.7348 28.9774Z" fill="url(#paint3_linear_16951_15790)"/>
<path d="M18.6996 24.0716L18.6964 21.705L20.6025 21.3075L18.6938 19.6992L21.6859 20.1884L22.8652 17.0642L22.869 19.9899L26.153 17.4541L26.1559 19.6895L30.6249 18.4346L29.1813 20.5076L33.4572 22.3757L29.4808 23.3342L30.9636 25.995L25.6037 24.7857C26.0324 25.8151 26.8899 27.9529 26.8903 28.2685C26.8908 28.5841 24.7194 27.2633 23.6337 26.5634L21.3374 30.1824L21.333 26.8294L18.2127 28.8716L20.9674 23.7727L18.6996 24.0716Z" fill="#A20912"/>
<defs>
<linearGradient id="paint0_linear_16951_15790" x1="48.2471" y1="53.8837" x2="4.17118" y2="4.98009" gradientUnits="userSpaceOnUse">
<stop stop-color="#CE1420"/>
<stop offset="1" stop-color="#E43C49"/>
</linearGradient>
<linearGradient id="paint1_linear_16951_15790" x1="42.6158" y1="56.5367" x2="25.0796" y2="24.33" gradientUnits="userSpaceOnUse">
<stop stop-color="#CE1420"/>
<stop offset="1" stop-color="#A20912"/>
</linearGradient>
<linearGradient id="paint2_linear_16951_15790" x1="31.4656" y1="29.9746" x2="33.5135" y2="56.5872" gradientUnits="userSpaceOnUse">
<stop stop-color="#A20912"/>
<stop offset="1" stop-color="#CE1420"/>
</linearGradient>
<linearGradient id="paint3_linear_16951_15790" x1="32.5826" y1="41.4431" x2="25.1653" y2="22.1359" gradientUnits="userSpaceOnUse">
<stop stop-color="#CE1420"/>
<stop offset="1" stop-color="#A20912"/>
</linearGradient>
</defs>
</svg>
