<svg width="67" height="67" viewBox="0 0 67 67" fill="none" xmlns="http://www.w3.org/2000/svg">
<path d="M27.4509 12.778C20.4352 9.23077 17.1244 17.0347 16.8091 17.6654C11.8251 17.6654 13.1963 22.9606 14.5049 25.6082C11.0797 25.3759 10.1507 28.9754 9.1057 32.4588C8.26969 35.2454 12.598 35.4545 14.8667 35.2107L14.5049 35.4196C13.5373 35.826 10.5889 37.2486 13.422 42.2646C16.9634 48.5346 20.6715 42.2288 20.3685 46.1019C19.7183 54.4155 26.0457 54.7102 29.2907 53.8184C28.6147 55.1188 28.9956 57.6139 35.9275 57.1905C37.7853 57.1905 34.9986 55.0425 40.9783 56.3197C45.7621 57.3415 45.6809 51.443 45.0423 48.366C47.0875 48.7337 52.0525 49.0743 55.5504 47.4952C56.2731 47.2285 57.2092 46.4332 55.1713 45.3851C56.5977 44.0701 59.0603 40.8171 57.5003 38.3254C56.7497 38.4066 55.4737 38.1764 56.3744 36.6053C56.9417 34.0742 57.2647 28.497 54.0178 26.4372C50.771 24.3773 50.7718 22.5163 51.1781 21.8433C52.8177 14.4019 42.4544 12.6992 37.0679 12.778C33.0949 8.86808 29.0011 11.1489 27.4509 12.778Z" fill="url(#paint0_linear_17130_2885)" stroke="#831C1C" stroke-width="0.5417"/>
<path d="M51.4358 43.1429L52.0924 37.6713C55.1628 37.6713 55.9453 40.1409 55.9527 41.3758C54.2648 42.425 53.9949 45.7286 54.0709 47.2493C53.2954 47.8205 50.5164 46.1948 49.2238 45.3105L47.6272 47.9906L44.2627 46.5352C43.9966 49.0162 43.2859 54.1835 42.5718 55.0046C41.6793 56.0311 37.99 53.8641 35.4239 55.4608C33.371 56.7382 31.6736 53.7881 31.0815 52.1534C30.153 52.6666 27.5317 53.3851 24.4752 52.1534C21.4187 50.9217 20.967 45.9757 21.1231 43.6567C16.8409 44.5994 14.7687 41.1983 14.2679 39.3799C13.5836 36.9621 16.2637 35.6733 17.6893 35.3312L13.0703 32.8221C8.46274 28.9428 12.8992 26.9099 15.6934 26.3783C13.7774 20.7583 16.2257 18.9044 17.6893 18.68C17.4612 16.9793 22.0231 13.3769 22.9835 12.8635C23.7518 12.4529 26.0849 13.8374 27.1553 14.581L30.3154 11.9512L36.553 15.2375V13.3769H39.6437L45.5265 16.9885L38.304 14.581L37.1002 17.8642L32.3947 15.2375L30.3154 20.3808L23.9684 17.8642L26.7042 24.9774L20.1382 25.8526L25.8288 29.1356L21.1231 31.981L25.8288 33.4034L22.9835 37.1241L27.7985 38.4373L25.8288 44.456L32.3947 42.0485L31.0815 48.2862L36.553 44.456V51.2408L42.5718 44.456L46.1831 46.5352V42.0485L51.4358 43.1429Z" fill="url(#paint1_linear_17130_2885)"/>
<path d="M38.8274 17.6106L43.0401 18.079L38.8274 16.2734L36.4202 19.2156L32.943 17.6106L30.5358 22.3584L25.9887 21.0879L27.9948 26.2368L25.6544 27.2398L30.0008 29.3796C28.708 31.0513 26.0289 34.5418 25.6544 35.1302C25.2799 35.7187 29.4659 34.885 31.6057 34.3947C30.3575 36.7128 27.7541 41.5763 27.3261 42.4857C26.8982 43.3951 31.1599 39.5212 33.3443 37.4706L34.3473 44.0237L38.8274 38.808L39.3624 44.0237L42.6389 39.6104L49.2588 41.9508L49.5932 37.4706L51.2649 39.6104L51.6539 36.4007L53.0035 36.0664V33.9935C54.0511 34.3947 56.1061 34.5017 55.9456 31.72C55.7852 28.9382 54.1848 29.0007 53.4047 29.3796L54.1402 31.72L50.7299 31.185C51.0643 32.7007 50.7299 34.5953 50.7299 35.1302C50.7299 35.6652 49.3703 35.2863 48.189 34.3947L47.7209 38.4068L42.1708 34.3947L40.6329 38.0056L38.8274 33.9935L35.6178 36.4007L36.8882 31.72H32.3412L34.3473 28.7109L28.8641 24.5651H32.3412L33.3443 20.1518L36.4202 21.0879L38.8274 17.6106Z" fill="url(#paint2_linear_17130_2885)" fill-opacity="0.7"/>
<path d="M39.046 18.459L43.1899 19.113V20.066L40.6273 19.6031L39.3187 22.2427L35.3528 23.6059L38.5218 26.005L37.0287 29.331L39.3187 27.4226L39.046 31.6756L41.2271 28.9493V31.2939L42.2631 29.7127L45.3165 32.4934L45.9162 29.331L47.3339 30.0943L47.0067 28.0224H49.6784L48.4244 23.6059L52.6228 26.3866H50.6599L53.168 30.0943L48.9696 29.331L49.6784 33.1477L47.0067 31.2939L46.4615 34.947L42.2631 32.1663C41.7178 33.0023 40.6273 34.7289 40.6273 34.947V31.6756C39.7913 32.1663 38.0537 33.2132 37.792 33.4749C37.5303 33.7366 37.683 31.3302 37.792 30.0943L35.0112 30.476L37.3645 26.005H33.5391L35.0112 24.9145L34.0843 22.2427L38.1361 21.4549L39.046 18.459Z" fill="url(#paint3_linear_17130_2885)"/>
<path d="M41.3362 20.4904L43.5352 21.4546L44.924 20.4902L45.387 22.7278L49.6306 22.2263L46.5443 23.4608L48.2032 26.5856L46.1586 25.9684C45.7488 27.1626 44.9851 29.4824 44.9215 30.0281C44.9391 30.1274 44.9417 30.1702 44.924 30.1349C44.9158 30.1183 44.9152 30.0818 44.9215 30.0281C44.847 29.6069 44.5045 28.1688 44.3068 27.3572L40.5647 29.209L40.8733 25.9684L38.0957 24.5411C39.6903 24.2068 39.8317 22.2263 39.986 22.2263C40.1403 22.2263 41.3362 23.8853 41.3362 20.4904Z" fill="#A20912"/>
<defs>
<linearGradient id="paint0_linear_17130_2885" x1="27.4313" y1="29.3686" x2="51.7307" y2="15.275" gradientUnits="userSpaceOnUse">
<stop stop-color="#CE1420"/>
<stop offset="1" stop-color="#E43743"/>
</linearGradient>
<linearGradient id="paint1_linear_17130_2885" x1="23.1371" y1="51.8731" x2="45.692" y2="27.7742" gradientUnits="userSpaceOnUse">
<stop stop-color="#CE1420"/>
<stop offset="1" stop-color="#A20912"/>
</linearGradient>
<linearGradient id="paint2_linear_17130_2885" x1="29.2796" y1="46.3889" x2="40.7927" y2="32.0544" gradientUnits="userSpaceOnUse">
<stop stop-color="#CE1420"/>
<stop offset="1" stop-color="#A20912"/>
</linearGradient>
<linearGradient id="paint3_linear_17130_2885" x1="43.3535" y1="19.4618" x2="29.8183" y2="40.2044" gradientUnits="userSpaceOnUse">
<stop offset="0.209089" stop-color="#A20912"/>
<stop offset="1" stop-color="#C9131E"/>
</linearGradient>
</defs>
</svg>
