<svg width="67" height="67" viewBox="0 0 67 67" fill="none" xmlns="http://www.w3.org/2000/svg">
<g clip-path="url(#clip0_17130_3117)">
<mask id="path-1-inside-1_17130_3117" fill="white">
<path fill-rule="evenodd" clip-rule="evenodd" d="M27.3997 7.70552C28.0206 7.60513 28.6561 7.9421 28.9427 8.51247C30.9483 12.5053 32.8523 15.4747 33.9801 18.84C35.1746 14.7353 37.2945 11.6877 39.2357 7.19795C39.4912 6.60694 40.1224 6.29255 40.7527 6.46033C41.3606 6.62227 41.8035 7.18921 41.8322 7.82693C42.0471 12.616 42.6352 16.2817 42.1219 20.0846C44.4667 18.1893 47.1764 16.6463 50.3063 14.4886C50.8317 14.1264 51.5501 14.1368 52.0462 14.5232C52.5608 14.9242 52.6922 15.6177 52.3755 16.1784C50.5068 19.4858 49.3951 22.3532 47.7979 25.0767C50.8539 24.6367 53.8796 24.6596 57.5669 24.1655C58.2051 24.08 58.8 24.4592 58.981 25.0858C59.1554 25.6902 58.8974 26.3617 58.3656 26.7149C55.1028 28.8813 52.6106 30.8747 49.8868 32.3612C52.8582 33.845 55.3999 35.7676 58.9016 37.6563C59.4685 37.962 59.7273 38.6178 59.5056 39.2313C59.2917 39.8228 58.6893 40.214 58.0516 40.1875C53.5032 39.9978 49.9347 40.2316 46.3803 39.5366C49.4095 42.7479 50.9227 46.2048 53.8243 50.2857C54.1974 50.8106 54.14 51.5135 53.6698 51.9657C53.2163 52.4017 52.5019 52.4857 51.9417 52.1798C47.3764 49.6871 43.7143 48.2564 40.5552 45.4397C41.19 49.7671 40.4394 53.4583 40.4715 58.4282C40.4757 59.0902 40.0138 59.6496 39.3515 59.7566C38.7137 59.8596 38.0617 59.5153 37.7635 58.9311C35.7976 55.0788 33.9246 52.1813 32.7777 48.9516C31.5669 52.8829 29.5153 55.8847 27.6294 60.2466C27.3738 60.8377 26.7418 61.1524 26.1114 60.9845C25.5036 60.8225 25.0615 60.2553 25.0329 59.6176C24.8179 54.8279 24.2281 51.1617 24.7417 47.3584C22.3975 49.2527 19.6897 50.7964 16.561 52.9533C16.0355 53.3156 15.3164 53.3056 14.8202 52.919C14.3056 52.5179 14.175 51.8242 14.4919 51.2634C16.5817 47.5647 17.7244 44.4163 19.6591 41.4042C15.8806 41.9865 12.2114 41.4763 7.4343 41.3603C6.79626 41.3446 6.22089 40.9136 6.04651 40.3093C5.86582 39.6826 6.1672 39.0447 6.75288 38.777C10.5787 37.0286 13.3363 35.1718 16.6278 33.8722C13.9253 32.4397 11.5041 30.6597 8.25861 28.9092C7.69211 28.6035 7.43321 27.9476 7.65471 27.3342C7.86858 26.7427 8.47182 26.3511 9.10963 26.3777C13.1201 26.5451 16.3687 26.3826 19.5176 26.8179C17.098 23.9134 15.6159 20.7822 13.0398 17.1591C12.6666 16.6342 12.725 15.931 13.1953 15.4788C13.6486 15.0429 14.362 14.9584 14.9222 15.2641C19.4865 17.7563 23.1485 19.1872 26.3071 22.0025C25.663 17.669 26.3789 13.9784 26.3164 8.99895C26.3084 8.35506 26.7557 7.80969 27.3997 7.70552Z"/>
</mask>
<path fill-rule="evenodd" clip-rule="evenodd" d="M27.3997 7.70552C28.0206 7.60513 28.6561 7.9421 28.9427 8.51247C30.9483 12.5053 32.8523 15.4747 33.9801 18.84C35.1746 14.7353 37.2945 11.6877 39.2357 7.19795C39.4912 6.60694 40.1224 6.29255 40.7527 6.46033C41.3606 6.62227 41.8035 7.18921 41.8322 7.82693C42.0471 12.616 42.6352 16.2817 42.1219 20.0846C44.4667 18.1893 47.1764 16.6463 50.3063 14.4886C50.8317 14.1264 51.5501 14.1368 52.0462 14.5232C52.5608 14.9242 52.6922 15.6177 52.3755 16.1784C50.5068 19.4858 49.3951 22.3532 47.7979 25.0767C50.8539 24.6367 53.8796 24.6596 57.5669 24.1655C58.2051 24.08 58.8 24.4592 58.981 25.0858C59.1554 25.6902 58.8974 26.3617 58.3656 26.7149C55.1028 28.8813 52.6106 30.8747 49.8868 32.3612C52.8582 33.845 55.3999 35.7676 58.9016 37.6563C59.4685 37.962 59.7273 38.6178 59.5056 39.2313C59.2917 39.8228 58.6893 40.214 58.0516 40.1875C53.5032 39.9978 49.9347 40.2316 46.3803 39.5366C49.4095 42.7479 50.9227 46.2048 53.8243 50.2857C54.1974 50.8106 54.14 51.5135 53.6698 51.9657C53.2163 52.4017 52.5019 52.4857 51.9417 52.1798C47.3764 49.6871 43.7143 48.2564 40.5552 45.4397C41.19 49.7671 40.4394 53.4583 40.4715 58.4282C40.4757 59.0902 40.0138 59.6496 39.3515 59.7566C38.7137 59.8596 38.0617 59.5153 37.7635 58.9311C35.7976 55.0788 33.9246 52.1813 32.7777 48.9516C31.5669 52.8829 29.5153 55.8847 27.6294 60.2466C27.3738 60.8377 26.7418 61.1524 26.1114 60.9845C25.5036 60.8225 25.0615 60.2553 25.0329 59.6176C24.8179 54.8279 24.2281 51.1617 24.7417 47.3584C22.3975 49.2527 19.6897 50.7964 16.561 52.9533C16.0355 53.3156 15.3164 53.3056 14.8202 52.919C14.3056 52.5179 14.175 51.8242 14.4919 51.2634C16.5817 47.5647 17.7244 44.4163 19.6591 41.4042C15.8806 41.9865 12.2114 41.4763 7.4343 41.3603C6.79626 41.3446 6.22089 40.9136 6.04651 40.3093C5.86582 39.6826 6.1672 39.0447 6.75288 38.777C10.5787 37.0286 13.3363 35.1718 16.6278 33.8722C13.9253 32.4397 11.5041 30.6597 8.25861 28.9092C7.69211 28.6035 7.43321 27.9476 7.65471 27.3342C7.86858 26.7427 8.47182 26.3511 9.10963 26.3777C13.1201 26.5451 16.3687 26.3826 19.5176 26.8179C17.098 23.9134 15.6159 20.7822 13.0398 17.1591C12.6666 16.6342 12.725 15.931 13.1953 15.4788C13.6486 15.0429 14.362 14.9584 14.9222 15.2641C19.4865 17.7563 23.1485 19.1872 26.3071 22.0025C25.663 17.669 26.3789 13.9784 26.3164 8.99895C26.3084 8.35506 26.7557 7.80969 27.3997 7.70552Z" fill="url(#paint0_linear_17130_3117)"/>
<path d="M27.3997 7.70552L27.3069 7.13187L27.3069 7.13188L27.3997 7.70552ZM28.9427 8.51247L29.462 8.25164L29.4619 8.25159L28.9427 8.51247ZM33.9801 18.84L33.4291 19.0247L34.0192 20.7854L34.5381 19.0024L33.9801 18.84ZM39.2357 7.19795L38.7023 6.9673L38.7023 6.96734L39.2357 7.19795ZM40.7527 6.46033L40.9023 5.89882L40.9022 5.89879L40.7527 6.46033ZM41.8322 7.82693L41.2517 7.85298L41.2517 7.85298L41.8322 7.82693ZM42.1219 20.0846L41.546 20.0068L41.3506 21.4553L42.4872 20.5365L42.1219 20.0846ZM50.3063 14.4886L49.9765 14.0101L49.9765 14.0102L50.3063 14.4886ZM52.0462 14.5232L52.4034 14.0648L52.4032 14.0647L52.0462 14.5232ZM52.3755 16.1784L52.8814 16.4643L52.8814 16.4642L52.3755 16.1784ZM47.7979 25.0767L47.2966 24.7827L46.686 25.8239L47.8807 25.6519L47.7979 25.0767ZM57.5669 24.1655L57.4898 23.5895L57.4897 23.5895L57.5669 24.1655ZM58.981 25.0858L59.5393 24.9247L59.5393 24.9246L58.981 25.0858ZM58.3656 26.7149L58.0442 26.2308V26.2308L58.3656 26.7149ZM49.8868 32.3612L49.6084 31.8512L48.6319 32.3841L49.6272 32.8811L49.8868 32.3612ZM58.9016 37.6563L58.6258 38.1678V38.1678L58.9016 37.6563ZM59.5056 39.2313L60.052 39.4289L60.0521 39.4288L59.5056 39.2313ZM58.0516 40.1875L58.0273 40.7681L58.0274 40.7681L58.0516 40.1875ZM46.3803 39.5366L46.4918 38.9663L44.716 38.6191L45.9576 39.9353L46.3803 39.5366ZM53.8243 50.2857L54.2979 49.949L54.2979 49.949L53.8243 50.2857ZM53.6698 51.9657L54.0725 52.3846L54.0726 52.3846L53.6698 51.9657ZM51.9417 52.1798L52.2201 51.6698L52.2201 51.6698L51.9417 52.1798ZM40.5552 45.4397L40.942 45.006L39.7482 43.9416L39.9803 45.5241L40.5552 45.4397ZM40.4715 58.4282L39.8904 58.432L39.8904 58.432L40.4715 58.4282ZM39.3515 59.7566L39.4442 60.3303L39.4443 60.3303L39.3515 59.7566ZM37.7635 58.9311L38.2811 58.667V58.667L37.7635 58.9311ZM32.7777 48.9516L33.3253 48.7571L32.7385 47.1047L32.2224 48.7805L32.7777 48.9516ZM27.6294 60.2466L28.1627 60.4772L28.1628 60.4772L27.6294 60.2466ZM26.1114 60.9845L25.9617 61.546L25.9618 61.546L26.1114 60.9845ZM25.0329 59.6176L25.6134 59.5916L25.6134 59.5915L25.0329 59.6176ZM24.7417 47.3584L25.3175 47.4361L25.5131 45.9879L24.3764 46.9064L24.7417 47.3584ZM16.561 52.9533L16.2312 52.4748L16.2312 52.4748L16.561 52.9533ZM14.8202 52.919L14.463 53.3773L14.463 53.3773L14.8202 52.919ZM14.4919 51.2634L14.9978 51.5493L14.9978 51.5493L14.4919 51.2634ZM19.6591 41.4042L20.1481 41.7183L20.8448 40.6335L19.5706 40.8299L19.6591 41.4042ZM7.4343 41.3603L7.42006 41.9412L7.42019 41.9412L7.4343 41.3603ZM6.04651 40.3093L5.48816 40.4703L5.4882 40.4704L6.04651 40.3093ZM6.75288 38.777L6.99441 39.3055L6.99441 39.3055L6.75288 38.777ZM16.6278 33.8722L16.8412 34.4127L18.0143 33.9495L16.8999 33.3588L16.6278 33.8722ZM8.25861 28.9092L7.98262 29.4206L7.98276 29.4207L8.25861 28.9092ZM7.65471 27.3342L7.10823 27.1367L7.10816 27.1369L7.65471 27.3342ZM9.10963 26.3777L9.08541 26.9583L9.08541 26.9583L9.10963 26.3777ZM19.5176 26.8179L19.4381 27.3935L20.9247 27.599L19.9641 26.446L19.5176 26.8179ZM13.0398 17.1591L12.5662 17.4958L12.5662 17.4958L13.0398 17.1591ZM13.1953 15.4788L12.7925 15.0599L12.7925 15.0599L13.1953 15.4788ZM14.9222 15.2641L15.2007 14.754L15.2005 14.7539L14.9222 15.2641ZM26.3071 22.0025L25.9205 22.4363L27.1177 23.5034L26.8819 21.9171L26.3071 22.0025ZM26.3164 8.99895L25.7354 9.00619L25.7354 9.00625L26.3164 8.99895ZM27.3997 7.70552L27.4924 8.27916C27.8526 8.22094 28.246 8.42007 28.4234 8.77334L28.9427 8.51247L29.4619 8.25159C29.0663 7.46413 28.1887 6.98933 27.3069 7.13187L27.3997 7.70552ZM28.9427 8.51247L28.4234 8.77329C30.4652 12.8382 32.3185 15.7103 33.4291 19.0247L33.9801 18.84L34.5311 18.6554C33.3862 15.239 31.4313 12.1723 29.462 8.25164L28.9427 8.51247ZM33.9801 18.84L34.5381 19.0024C35.1203 17.0017 35.9298 15.2513 36.8472 13.4241C37.7605 11.6052 38.7897 9.69372 39.769 7.42856L39.2357 7.19795L38.7023 6.96734C37.7405 9.19188 36.7392 11.0491 35.8086 12.9026C34.8821 14.7479 34.0345 16.5737 33.4222 18.6777L33.9801 18.84ZM39.2357 7.19795L39.769 7.4286C39.912 7.09788 40.2552 6.92921 40.6033 7.02187L40.7527 6.46033L40.9022 5.89879C39.9897 5.6559 39.0705 6.11599 38.7023 6.9673L39.2357 7.19795ZM40.7527 6.46033L40.6031 7.02183C40.9561 7.11585 41.2339 7.45836 41.2517 7.85298L41.8322 7.82693L42.4127 7.80088C42.3731 6.92006 41.7651 6.12868 40.9023 5.89882L40.7527 6.46033ZM41.8322 7.82693L41.2517 7.85298C41.3584 10.2305 41.563 12.4178 41.6699 14.3576C41.7788 16.3335 41.7955 18.1586 41.546 20.0068L42.1219 20.0846L42.6978 20.1623C42.9616 18.2077 42.9409 16.2985 42.8303 14.2936C42.7178 12.2525 42.5209 10.2124 42.4127 7.80088L41.8322 7.82693ZM42.1219 20.0846L42.4872 20.5365C44.8134 18.6562 47.4474 17.1653 50.6361 14.967L50.3063 14.4886L49.9765 14.0102C46.9055 16.1273 44.12 17.7223 41.7566 19.6326L42.1219 20.0846ZM50.3063 14.4886L50.6361 14.967C50.9613 14.7428 51.4012 14.7574 51.6892 14.9816L52.0462 14.5232L52.4032 14.0647C51.6989 13.5162 50.7021 13.51 49.9765 14.0101L50.3063 14.4886ZM52.0462 14.5232L51.689 14.9815C51.9736 15.2033 52.0465 15.5793 51.8695 15.8926L52.3755 16.1784L52.8814 16.4642C53.3379 15.6561 53.148 14.6451 52.4034 14.0648L52.0462 14.5232ZM52.3755 16.1784L51.8695 15.8926C50.9247 17.5647 50.1721 19.1245 49.4617 20.5935C48.7491 22.0674 48.0816 23.4443 47.2966 24.7827L47.7979 25.0767L48.2991 25.3707C49.1114 23.9856 49.7984 22.5671 50.508 21.0995C51.22 19.6271 51.9575 18.0995 52.8814 16.4643L52.3755 16.1784ZM47.7979 25.0767L47.8807 25.6519C49.3838 25.4354 50.8825 25.3324 52.4859 25.2211C54.0842 25.1101 55.7797 24.9913 57.6441 24.7414L57.5669 24.1655L57.4897 23.5895C55.6668 23.8338 54.0058 23.9506 52.4054 24.0617C50.8102 24.1724 49.268 24.2779 47.7151 24.5015L47.7979 25.0767ZM57.5669 24.1655L57.644 24.7414C58.0011 24.6936 58.3228 24.901 58.4228 25.2471L58.981 25.0858L59.5393 24.9246C59.2773 24.0174 58.4091 23.4664 57.4898 23.5895L57.5669 24.1655ZM58.981 25.0858L58.4227 25.2469C58.5239 25.5975 58.3735 26.0121 58.0442 26.2308L58.3656 26.7149L58.687 27.1989C59.4213 26.7114 59.787 25.7829 59.5393 24.9247L58.981 25.0858ZM58.3656 26.7149L58.0442 26.2308C54.7212 28.4372 52.3067 30.3786 49.6084 31.8512L49.8868 32.3612L50.1651 32.8713C52.9146 31.3708 55.4844 29.3255 58.687 27.1989L58.3656 26.7149ZM49.8868 32.3612L49.6272 32.8811C51.0849 33.609 52.4415 34.4466 53.8875 35.3498C55.3288 36.25 56.8557 37.2131 58.6258 38.1678L58.9016 37.6563L59.1775 37.1449C57.4458 36.2109 55.951 35.2683 54.5032 34.3641C53.0601 33.4628 51.6601 32.5972 50.1464 31.8414L49.8868 32.3612ZM58.9016 37.6563L58.6258 38.1678C58.9432 38.3389 59.0814 38.6951 58.959 39.0338L59.5056 39.2313L60.0521 39.4288C60.3731 38.5404 59.9938 37.5851 59.1775 37.1449L58.9016 37.6563ZM59.5056 39.2313L58.9591 39.0337C58.8351 39.3767 58.4707 39.6234 58.0757 39.6069L58.0516 40.1875L58.0274 40.7681C58.9078 40.8047 59.7483 40.2688 60.052 39.4289L59.5056 39.2313ZM58.0516 40.1875L58.0758 39.6069C55.8041 39.5122 53.7316 39.5219 51.8591 39.4706C49.9654 39.4188 48.2221 39.3046 46.4918 38.9663L46.3803 39.5366L46.2688 40.1069C48.0929 40.4636 49.911 40.5799 51.8273 40.6324C53.7647 40.6854 55.7507 40.6731 58.0273 40.7681L58.0516 40.1875ZM46.3803 39.5366L45.9576 39.9353C47.4335 41.4999 48.5454 43.1295 49.6586 44.895C50.7664 46.652 51.8875 48.5645 53.3507 50.6225L53.8243 50.2857L54.2979 49.949C52.8596 47.9261 51.7732 46.0697 50.6417 44.2751C49.5156 42.4892 48.3564 40.7846 46.803 39.1379L46.3803 39.5366ZM53.8243 50.2857L53.3507 50.6224C53.5598 50.9166 53.5262 51.2976 53.267 51.5469L53.6698 51.9657L54.0726 52.3846C54.7537 51.7295 54.835 50.7046 54.2979 49.949L53.8243 50.2857ZM53.6698 51.9657L53.267 51.5469C53.0044 51.7994 52.5676 51.8595 52.2201 51.6698L51.9417 52.1798L51.6632 52.6898C52.4363 53.112 53.4283 53.004 54.0725 52.3846L53.6698 51.9657ZM51.9417 52.1798L52.2201 51.6698C51.0712 51.0424 49.98 50.4824 48.9452 49.9537C47.9081 49.4238 46.9311 48.927 45.9984 48.4206C44.1355 47.4091 42.4739 46.3719 40.942 45.006L40.5552 45.4397L40.1685 45.8735C41.7956 47.3242 43.5446 48.4107 45.4438 49.4419C46.3922 49.9568 47.3841 50.4611 48.4164 50.9886C49.4509 51.5172 50.5295 52.0708 51.6632 52.6898L51.9417 52.1798ZM40.5552 45.4397L39.9803 45.5241C40.2894 47.6312 40.2627 49.591 40.159 51.664C40.0558 53.7267 39.8742 55.9251 39.8904 58.432L40.4715 58.4282L41.0525 58.4245C41.0367 55.9614 41.2143 53.8292 41.3197 51.722C41.4246 49.6251 41.4559 47.5757 41.1302 45.3554L40.5552 45.4397ZM40.4715 58.4282L39.8904 58.432C39.8928 58.8121 39.6336 59.1224 39.2588 59.183L39.3515 59.7566L39.4443 60.3303C40.394 60.1767 41.0586 59.3683 41.0525 58.4245L40.4715 58.4282ZM39.3515 59.7566L39.2589 59.183C38.8812 59.2439 38.4698 59.0367 38.2811 58.667L37.7635 58.9311L37.2459 59.1953C37.6535 59.994 38.5463 60.4753 39.4442 60.3303L39.3515 59.7566ZM37.7635 58.9311L38.2811 58.667C36.2789 54.7437 34.4559 51.9408 33.3253 48.7571L32.7777 48.9516L32.2301 49.146C33.3934 52.4218 35.3162 55.4139 37.2459 59.1953L37.7635 58.9311ZM32.7777 48.9516L32.2224 48.7805C31.6317 50.6982 30.8341 52.3962 29.9377 54.1762C29.045 55.9488 28.0478 57.8145 27.096 60.016L27.6294 60.2466L28.1628 60.4772C29.0968 58.3168 30.0684 56.5006 30.9757 54.699C31.8792 52.9048 32.7129 51.1363 33.3331 49.1226L32.7777 48.9516ZM27.6294 60.2466L27.096 60.0159C26.953 60.3467 26.6091 60.5157 26.261 60.423L26.1114 60.9845L25.9618 61.546C26.8745 61.7891 27.7945 61.3286 28.1627 60.4772L27.6294 60.2466ZM26.1114 60.9845L26.261 60.423C25.9088 60.3291 25.6311 59.9868 25.6134 59.5916L25.0329 59.6176L24.4524 59.6437C24.4919 60.5238 25.0984 61.3159 25.9617 61.546L26.1114 60.9845ZM25.0329 59.6176L25.6134 59.5915C25.5067 57.2131 25.3016 55.0265 25.1943 53.086C25.0849 51.1098 25.0679 49.2845 25.3175 47.4361L24.7417 47.3584L24.1658 47.2806C23.9018 49.2356 23.9229 51.1451 24.0339 53.1502C24.1468 55.191 24.3442 57.2324 24.4524 59.6437L25.0329 59.6176ZM24.7417 47.3584L24.3764 46.9064C22.0509 48.7856 19.4183 50.2776 16.2312 52.4748L16.561 52.9533L16.8909 53.4317C19.961 51.3151 22.7441 49.7197 25.1069 47.8103L24.7417 47.3584ZM16.561 52.9533L16.2312 52.4748C15.9055 52.6994 15.465 52.6848 15.1774 52.4606L14.8202 52.919L14.463 53.3773C15.1677 53.9265 16.1654 53.9318 16.8909 53.4317L16.561 52.9533ZM14.8202 52.919L15.1774 52.4606C14.8933 52.2393 14.8204 51.8633 14.9978 51.5493L14.4919 51.2634L13.9859 50.9776C13.5297 51.7851 13.7178 52.7965 14.463 53.3773L14.8202 52.919ZM14.4919 51.2634L14.9978 51.5493C16.0538 49.6803 16.871 47.9492 17.6565 46.3299C18.4447 44.705 19.2011 43.1925 20.1481 41.7183L19.6591 41.4042L19.1702 41.0902C18.1824 42.628 17.4001 44.1957 16.6108 45.8227C15.8188 47.4553 15.0198 49.1478 13.9859 50.9776L14.4919 51.2634ZM19.6591 41.4042L19.5706 40.8299C17.7341 41.1129 15.9139 41.1322 13.9414 41.0634C12.0035 40.9958 9.82157 40.837 7.4484 40.7794L7.4343 41.3603L7.42019 41.9412C9.82416 41.9996 11.8653 42.1539 13.9009 42.2249C15.9019 42.2946 17.8057 42.2778 19.7477 41.9785L19.6591 41.4042ZM7.4343 41.3603L7.44853 40.7794C7.05383 40.7697 6.70609 40.4991 6.60482 40.1482L6.04651 40.3093L5.4882 40.4704C5.73568 41.328 6.53869 41.9196 7.42006 41.9412L7.4343 41.3603ZM6.04651 40.3093L6.60486 40.1483C6.50504 39.8021 6.66679 39.4553 6.99441 39.3055L6.75288 38.777L6.51135 38.2485C5.6676 38.6341 5.2266 39.563 5.48816 40.4703L6.04651 40.3093ZM6.75288 38.777L6.99441 39.3055C8.9277 38.422 10.5919 37.5106 12.165 36.6686C13.7435 35.8237 15.2297 35.049 16.8412 34.4127L16.6278 33.8722L16.4144 33.3318C14.7344 33.995 13.1961 34.7985 11.6165 35.644C10.0315 36.4924 8.40392 37.3836 6.51135 38.2485L6.75288 38.777ZM16.6278 33.8722L16.8999 33.3588C15.5703 32.654 14.3073 31.8624 12.9548 31.0172C11.6066 30.1747 10.1755 29.2829 8.53445 28.3978L8.25861 28.9092L7.98276 29.4207C9.58722 30.286 10.9895 31.1595 12.3389 32.0027C13.6839 32.8433 14.9828 33.6579 16.3556 34.3857L16.6278 33.8722ZM8.25861 28.9092L8.5346 28.3978C8.21738 28.2266 8.07901 27.8701 8.20125 27.5316L7.65471 27.3342L7.10816 27.1369C6.7874 28.025 7.16684 28.9803 7.98262 29.4206L8.25861 28.9092ZM7.65471 27.3342L8.20118 27.5318C8.32517 27.1889 8.69018 26.9418 9.08541 26.9583L9.10963 26.3777L9.13385 25.7971C8.25346 25.7604 7.41199 26.2965 7.10823 27.1367L7.65471 27.3342ZM9.10963 26.3777L9.08541 26.9583C13.1697 27.1287 16.3222 26.9628 19.4381 27.3935L19.5176 26.8179L19.5972 26.2423C16.4152 25.8024 13.0705 25.9614 9.13385 25.7971L9.10963 26.3777ZM19.5176 26.8179L19.9641 26.446C18.7816 25.0265 17.8239 23.5467 16.8308 21.9509C15.8413 20.3611 14.8146 18.6524 13.5134 16.8223L13.0398 17.1591L12.5662 17.4958C13.8411 19.2889 14.8435 20.9574 15.8441 22.565C16.8409 24.1668 17.834 25.7047 19.0712 27.1898L19.5176 26.8179ZM13.0398 17.1591L13.5134 16.8224C13.3047 16.5288 13.3382 16.1475 13.598 15.8977L13.1953 15.4788L12.7925 15.0599C12.1117 15.7145 12.0286 16.7396 12.5662 17.4958L13.0398 17.1591ZM13.1953 15.4788L13.598 15.8977C13.8609 15.6449 14.2968 15.5848 14.6439 15.7742L14.9222 15.2641L15.2005 14.7539C14.4271 14.332 13.4363 14.4409 12.7925 15.0599L13.1953 15.4788ZM14.9222 15.2641L14.6437 15.7741C15.7924 16.4013 16.8834 16.9612 17.9181 17.4899C18.955 18.0197 19.9319 18.5165 20.8645 19.0228C22.7272 20.0341 24.3887 21.071 25.9205 22.4363L26.3071 22.0025L26.6938 21.5687C25.067 20.1187 23.3181 19.0325 21.4191 18.0015C20.4708 17.4866 19.479 16.9824 18.4469 16.455C17.4125 15.9265 16.3341 15.3729 15.2007 14.754L14.9222 15.2641ZM26.3071 22.0025L26.8819 21.9171C26.5681 19.8056 26.5841 17.8434 26.6742 15.7682C26.7639 13.7029 26.929 11.5031 26.8974 8.99165L26.3164 8.99895L25.7354 9.00625C25.7664 11.4743 25.6047 13.6095 25.5131 15.7178C25.422 17.8161 25.4021 19.866 25.7323 22.088L26.3071 22.0025ZM26.3164 8.99895L26.8975 8.99172C26.893 8.63072 27.1375 8.33657 27.4925 8.27915L27.3997 7.70552L27.3069 7.13188C26.3739 7.28281 25.7238 8.07939 25.7354 9.00619L26.3164 8.99895Z" fill="#AFAF70" mask="url(#path-1-inside-1_17130_3117)"/>
<path fill-rule="evenodd" clip-rule="evenodd" d="M30.3414 22.0792C30.6126 22.0354 30.8902 22.1824 31.0153 22.4315C31.891 24.1749 32.7224 25.4716 33.2151 26.9408C33.7369 25.1484 34.6631 23.8175 35.5108 21.857C35.6224 21.5987 35.8986 21.4611 36.1739 21.5345C36.4393 21.6053 36.6325 21.8529 36.645 22.1314C36.7389 24.2234 36.9956 25.8247 36.7713 27.486C37.7957 26.6577 38.9803 25.9839 40.3479 25.0411C40.5774 24.883 40.8909 24.8878 41.1076 25.0566C41.3323 25.2318 41.3895 25.5346 41.2511 25.7795C40.4346 27.2247 39.9487 28.4773 39.2506 29.6673C40.586 29.4749 41.9077 29.4829 43.5189 29.267C43.7976 29.2297 44.057 29.3957 44.1361 29.6693C44.2122 29.9333 44.1001 30.2267 43.8678 30.3809C42.2664 31.4443 41.0902 32.4125 39.7174 33.0778C41.1566 33.7431 42.3197 34.6523 43.9722 35.5436C44.2196 35.6772 44.3327 35.964 44.2359 36.2319C44.1424 36.4902 43.8786 36.6608 43.6001 36.6491C41.8482 36.5761 40.4293 36.646 39.0538 36.4558C40.1115 37.725 40.7592 39.0938 41.885 40.6771C42.0475 40.9062 42.022 41.2128 41.817 41.4102C41.619 41.6007 41.3072 41.6376 41.0624 41.504C39.0676 40.4147 37.4672 39.7902 36.087 38.559C36.369 40.453 36.057 42.0655 36.0843 44.2415C36.0878 44.5227 35.8921 44.7605 35.6109 44.806C35.3397 44.8499 35.0622 44.7029 34.937 44.4537C34.0607 42.7092 33.2281 41.4123 32.7355 39.9419C32.2137 41.7344 31.2888 43.0657 30.441 45.0264C30.3294 45.2846 30.0532 45.4222 29.7779 45.3489C29.5126 45.2779 29.3193 45.0303 29.3068 44.752C29.213 42.6614 28.9559 41.0608 29.1795 39.4007C28.1556 40.228 26.973 40.9026 25.6066 41.8446C25.3771 42.0027 25.0636 41.9978 24.8469 41.829C24.6222 41.6538 24.565 41.351 24.7034 41.1061C25.5466 39.6135 26.0365 38.3258 26.7727 37.1009C25.2618 37.2662 23.7544 37.0749 21.8394 37.0284C21.5607 37.0216 21.3094 36.833 21.2332 36.569C21.1542 36.2952 21.2863 36.0165 21.5421 35.8995C23.2717 35.1091 24.501 34.2668 26.007 33.6974C24.6702 33.0435 23.5442 32.1836 21.9796 31.3397C21.7323 31.2061 21.6191 30.9193 21.7159 30.6515C21.8094 30.3931 22.0732 30.2226 22.3517 30.2342C24.1047 30.3073 25.5245 30.2361 26.9009 30.4268C25.8433 29.1577 25.1956 27.7896 24.0699 26.2064C23.907 25.9771 23.9322 25.6698 24.1376 25.4723C24.3356 25.282 24.6475 25.2451 24.8922 25.3786C26.885 26.4667 28.4835 27.0922 29.8628 28.3208C29.5823 26.4294 29.8954 24.8175 29.8681 22.6437C29.8647 22.3626 30.0602 22.1246 30.3414 22.0792Z" fill="#FFDE87"/>
<circle cx="32.9678" cy="33.6845" r="4.74455" transform="rotate(-16.0966 32.9678 33.6845)" fill="#FFB800"/>
</g>
<defs>
<linearGradient id="paint0_linear_17130_3117" x1="25.6165" y1="8.20965" x2="40.4068" y2="59.4633" gradientUnits="userSpaceOnUse">
<stop stop-color="#F4F4D6"/>
<stop offset="1" stop-color="#FFF0C8"/>
</linearGradient>
<clipPath id="clip0_17130_3117">
<rect width="67" height="67" fill="white"/>
</clipPath>
</defs>
</svg>
