<svg width="67" height="67" viewBox="0 0 67 67" fill="none" xmlns="http://www.w3.org/2000/svg">
<g clip-path="url(#clip0_17130_3001)">
<path d="M30.9916 4.59761C33.8857 2.30611 35.5732 3.84462 36.0551 4.90032C41.2527 2.87089 44.8184 8.27579 45.9516 11.2319C47.8296 11.4459 48.965 13.059 49.2979 13.8388C55.8104 14.2758 53.7494 21.024 51.9048 24.3435C58.0646 26.131 56.8412 30.3369 55.4596 32.2164C56.1988 35.8916 53.3693 37.5227 51.8622 37.8788C51.8466 39.2801 49.9151 39.9384 48.9512 40.0924C48.9422 42.4451 48.1154 43.21 47.7031 43.2984C53.904 54.9023 47.4318 57.4954 43.4205 57.3415C41.242 59.9354 37.5213 59.4031 35.9333 58.8127C33.6223 62.0278 29.0702 60.1724 27.083 58.8428C25.3391 61.0295 23.5702 59.7699 22.9037 58.8667C20.1714 60.5811 17.6874 58.6338 16.7869 57.4458C12.5601 57.3657 11.6715 55.1635 11.7556 54.0725C8.96061 52.6882 10.2905 50.8771 11.3048 50.1445C8.92134 49.7414 9.19417 48.2306 9.62852 47.5255C4.99246 46.3078 5.79109 44.4568 6.76991 43.6834C3.88186 42.8049 5.008 41.3153 5.93208 40.6804C2.67137 38.9619 5.35129 37.3066 7.09885 36.6938C2.61024 34.9688 3.83571 32.4857 5.00952 31.4598C3.62507 28.6958 6.53027 27.2999 8.15593 26.9475C6.19765 23.9437 8.36951 22.5094 9.70022 22.1677C8.82266 19.5009 11.4211 19.5617 12.83 19.9255C10.3211 15.8098 14.3398 15.0993 16.6627 15.2585C17.0647 11.7088 19.565 12.0328 20.7649 12.6385C20.3637 8.75288 23.0131 8.18506 24.3879 8.38685C26.5464 2.59669 29.6897 3.44813 30.9916 4.59761Z" fill="url(#paint0_linear_17130_3001)" stroke="#9E0C3A" stroke-width="0.51017"/>
<path d="M16.8534 38.2786L14.5827 33.9338L12.5403 40.4491C12.4398 40.7699 11.975 37.3364 11.7551 35.5796L8.22598 37.0052L9.67139 32.3942L7.30182 30.463L10.7666 26.7933L10.6008 23.1087L14.2209 24.9042L19.3271 18.7989L18.8197 25.6851L23.0294 27.0048L19.0858 29.4012L22.3529 33.7279L18.1432 32.4082L16.8534 38.2786Z" fill="#B11133"/>
<path d="M10.9444 38.1258L8.10918 39.2607L6.47367 41.7338L9.15294 41.2579L11.5651 46.3153L14.9225 41.0933L18.4419 44.8784L21.785 36.3121L29.2113 35.7052L24.9362 29.8109L29.6071 24.5957L22.6266 22.8123L24.6185 14.6824L19.3116 15.9538L19.6191 13.52L15.9556 19.557L20.1574 17.1296L20.2232 24.1838L25.107 25.7148L22.0274 29.4048L25.3212 34.2324L19.8568 34.3921L17.9937 40.3356L14.6201 37.861L12.286 42.24L10.9444 38.1258Z" fill="#B01132"/>
<path d="M15.104 43.3974L12.5149 47.2952L13.5429 53.4653L15.9481 47.004L23.2743 54.1613L25.2711 40.2806L39.0198 40.0334L32.0819 28.9722L38.5612 20.9018L29.6401 18.1053L32.2632 9.73755L26.5066 12.1103L27.6111 9.79838L21.0958 14.5916L27.8371 13.4389L25.246 19.7662L32.2307 21.9557L27.9397 29.3448L31.6511 36.8882L22.7268 37.7363L20.1666 48.3264L15.104 43.3974Z" fill="url(#paint1_linear_17130_3001)"/>
<path d="M16.5934 49.786L15.7158 54.5239C16.4563 57.9765 18.8911 57.3168 20.0159 56.5553C20.1801 58.5511 26.4942 57.7759 29.6307 57.1388C32.638 59.1753 35.7006 57.32 36.856 56.1378C40.9286 58.265 45.0103 55.8078 46.5421 54.3134C50.4182 51.6398 46.9567 45.0761 44.7414 42.1284C47.4193 41.145 48.9532 37.9802 49.3854 36.5207C55.5395 29.4876 47.6926 24.9683 47.2472 24.6856C50.736 21.8905 48.3005 19.9524 46.6466 19.3326C47.3305 16.5697 40.9231 13.7661 37.6339 12.7096L34.47 16.5031L42.5612 19.0394L35.2241 29.1195L40.656 41.8351L28.2037 42.7925L23.933 56.4161L16.5934 49.786Z" fill="url(#paint2_linear_17130_3001)"/>
</g>
<defs>
<linearGradient id="paint0_linear_17130_3001" x1="30.6038" y1="39.3564" x2="28.7604" y2="-2.31216" gradientUnits="userSpaceOnUse">
<stop stop-color="#C8183D"/>
<stop offset="1" stop-color="#D22A4D"/>
</linearGradient>
<linearGradient id="paint1_linear_17130_3001" x1="16.4024" y1="29.5636" x2="39.9845" y2="36.956" gradientUnits="userSpaceOnUse">
<stop stop-color="#B01132"/>
<stop offset="1" stop-color="#C8183D"/>
</linearGradient>
<linearGradient id="paint2_linear_17130_3001" x1="29.5436" y1="34.59" x2="47.0751" y2="47.2027" gradientUnits="userSpaceOnUse">
<stop stop-color="#B01132"/>
<stop offset="1" stop-color="#C8183D"/>
</linearGradient>
<clipPath id="clip0_17130_3001">
<rect width="67" height="67" fill="white"/>
</clipPath>
</defs>
</svg>
