<svg width="67" height="67" viewBox="0 0 67 67" fill="none" xmlns="http://www.w3.org/2000/svg">
<mask id="path-1-inside-1_16892_8514" fill="white">
<path fill-rule="evenodd" clip-rule="evenodd" d="M33.5361 2.839C33.8899 0.9657 35.6404 -0.254114 37.5273 0.0450553C39.4079 0.343454 40.7932 2.05091 40.6836 3.95619C40.443 8.14041 40.148 11.7754 39.7588 15.299C41.3329 12.3436 43.0406 9.35198 45.0576 5.97474C46.0624 4.2924 48.1291 3.83471 49.7812 4.9142C51.4277 5.99022 52.1139 8.23454 51.3359 10.0568C49.6938 13.9034 48.187 17.1999 46.6191 20.3615C49.2123 18.7372 51.927 17.1567 55.0449 15.4337C56.873 14.4237 59.0237 15.1073 59.9805 16.9826C60.9334 18.8508 60.3898 21.2919 58.7119 22.5783C55.6993 24.8879 53.0157 26.8278 50.335 28.6261C53.9967 28.6297 57.6562 28.8022 61.9434 29.1359C64.106 29.3044 65.7637 31.121 65.7637 33.2902C65.7635 35.4502 64.119 37.263 61.9658 37.4357C58.7824 37.691 55.9413 37.843 53.1797 37.8995C55.1147 39.2557 57.0997 40.7163 59.252 42.3663C60.9297 43.6528 61.4734 46.0938 60.5205 47.962C59.5638 49.8377 57.4123 50.5212 55.584 49.5109C52.4662 47.788 49.7522 46.2074 47.1592 44.5831C48.7267 47.7442 50.2341 51.0399 51.876 54.8859C52.6539 56.708 51.9676 58.9524 50.3213 60.0285C48.6692 61.1081 46.6026 60.651 45.5977 58.9689C43.6371 55.6862 41.9682 52.7676 40.4307 49.8927C40.774 53.1402 41.0215 56.4967 41.2041 60.3019C41.3124 62.5611 39.6598 64.5686 37.4316 64.922C35.1947 65.2767 33.1124 63.8479 32.6719 61.632C32.2018 59.2675 31.7953 57.0722 31.4404 54.9611C30.9689 57.2705 30.4355 59.6732 29.8154 62.2833C29.3755 64.1346 27.5765 65.2518 25.7109 64.8488C23.8393 64.4443 22.5299 62.6456 22.7285 60.7355C23.1039 57.1258 23.4879 53.9314 23.9277 50.8761C22.5373 53.4539 21.0322 56.0859 19.2861 58.9933C18.281 60.6669 16.2206 61.1169 14.5742 60.0411C12.9221 58.9614 12.2388 56.7062 13.0234 54.88C14.9226 50.4606 16.6167 46.7609 18.4229 43.1759C15.5639 44.9973 12.5944 46.7382 9.125 48.6554C7.29675 49.6657 5.14524 48.982 4.18848 47.1066C3.2356 45.2384 3.77931 42.7973 5.45703 41.5109C6.99992 40.328 8.45722 39.2427 9.87109 38.2228C8.44232 38.1462 6.9621 38.0464 5.39941 37.921C3.24621 37.7483 1.60167 35.9356 1.60156 33.7755C1.60156 31.6063 3.25926 29.7897 5.42188 29.6212C8.09294 29.4134 10.5205 29.2667 12.8564 29.1857C10.3208 27.4701 7.76627 25.6174 4.91797 23.4337C3.24018 22.1474 2.69661 19.7072 3.64941 17.839C4.60603 15.9635 6.75671 15.2792 8.58496 16.2892C12.055 18.2068 15.0263 19.9469 17.8857 21.7687C16.0792 18.183 14.3829 14.4839 12.4834 10.0636C11.6987 8.2375 12.3823 5.98236 14.0342 4.90248C15.6806 3.82651 17.7409 4.27586 18.7461 5.94935C20.492 8.8565 21.9984 11.4879 23.3887 14.0656C22.9489 11.0106 22.5648 7.81649 22.1895 4.20716C21.9908 2.29698 23.3001 0.499245 25.1719 0.09486C27.0375 -0.308169 28.8356 0.808879 29.2754 2.66029C30.2597 6.80367 31.0267 10.4233 31.6689 13.9796C32.158 10.4997 32.764 6.92764 33.5361 2.839Z"/>
</mask>
<path fill-rule="evenodd" clip-rule="evenodd" d="M33.5361 2.839C33.8899 0.9657 35.6404 -0.254114 37.5273 0.0450553C39.4079 0.343454 40.7932 2.05091 40.6836 3.95619C40.443 8.14041 40.148 11.7754 39.7588 15.299C41.3329 12.3436 43.0406 9.35198 45.0576 5.97474C46.0624 4.2924 48.1291 3.83471 49.7812 4.9142C51.4277 5.99022 52.1139 8.23454 51.3359 10.0568C49.6938 13.9034 48.187 17.1999 46.6191 20.3615C49.2123 18.7372 51.927 17.1567 55.0449 15.4337C56.873 14.4237 59.0237 15.1073 59.9805 16.9826C60.9334 18.8508 60.3898 21.2919 58.7119 22.5783C55.6993 24.8879 53.0157 26.8278 50.335 28.6261C53.9967 28.6297 57.6562 28.8022 61.9434 29.1359C64.106 29.3044 65.7637 31.121 65.7637 33.2902C65.7635 35.4502 64.119 37.263 61.9658 37.4357C58.7824 37.691 55.9413 37.843 53.1797 37.8995C55.1147 39.2557 57.0997 40.7163 59.252 42.3663C60.9297 43.6528 61.4734 46.0938 60.5205 47.962C59.5638 49.8377 57.4123 50.5212 55.584 49.5109C52.4662 47.788 49.7522 46.2074 47.1592 44.5831C48.7267 47.7442 50.2341 51.0399 51.876 54.8859C52.6539 56.708 51.9676 58.9524 50.3213 60.0285C48.6692 61.1081 46.6026 60.651 45.5977 58.9689C43.6371 55.6862 41.9682 52.7676 40.4307 49.8927C40.774 53.1402 41.0215 56.4967 41.2041 60.3019C41.3124 62.5611 39.6598 64.5686 37.4316 64.922C35.1947 65.2767 33.1124 63.8479 32.6719 61.632C32.2018 59.2675 31.7953 57.0722 31.4404 54.9611C30.9689 57.2705 30.4355 59.6732 29.8154 62.2833C29.3755 64.1346 27.5765 65.2518 25.7109 64.8488C23.8393 64.4443 22.5299 62.6456 22.7285 60.7355C23.1039 57.1258 23.4879 53.9314 23.9277 50.8761C22.5373 53.4539 21.0322 56.0859 19.2861 58.9933C18.281 60.6669 16.2206 61.1169 14.5742 60.0411C12.9221 58.9614 12.2388 56.7062 13.0234 54.88C14.9226 50.4606 16.6167 46.7609 18.4229 43.1759C15.5639 44.9973 12.5944 46.7382 9.125 48.6554C7.29675 49.6657 5.14524 48.982 4.18848 47.1066C3.2356 45.2384 3.77931 42.7973 5.45703 41.5109C6.99992 40.328 8.45722 39.2427 9.87109 38.2228C8.44232 38.1462 6.9621 38.0464 5.39941 37.921C3.24621 37.7483 1.60167 35.9356 1.60156 33.7755C1.60156 31.6063 3.25926 29.7897 5.42188 29.6212C8.09294 29.4134 10.5205 29.2667 12.8564 29.1857C10.3208 27.4701 7.76627 25.6174 4.91797 23.4337C3.24018 22.1474 2.69661 19.7072 3.64941 17.839C4.60603 15.9635 6.75671 15.2792 8.58496 16.2892C12.055 18.2068 15.0263 19.9469 17.8857 21.7687C16.0792 18.183 14.3829 14.4839 12.4834 10.0636C11.6987 8.2375 12.3823 5.98236 14.0342 4.90248C15.6806 3.82651 17.7409 4.27586 18.7461 5.94935C20.492 8.8565 21.9984 11.4879 23.3887 14.0656C22.9489 11.0106 22.5648 7.81649 22.1895 4.20716C21.9908 2.29698 23.3001 0.499245 25.1719 0.09486C27.0375 -0.308169 28.8356 0.808879 29.2754 2.66029C30.2597 6.80367 31.0267 10.4233 31.6689 13.9796C32.158 10.4997 32.764 6.92764 33.5361 2.839Z" fill="url(#paint0_linear_16892_8514)"/>
<path d="M33.5361 2.839L33.0707 2.7511L33.0707 2.75111L33.5361 2.839ZM37.5273 0.0450553L37.6016 -0.422721L37.6015 -0.42273L37.5273 0.0450553ZM40.6836 3.95619L41.1564 3.98338V3.98338L40.6836 3.95619ZM39.7588 15.299L39.288 15.247L40.1768 15.5216L39.7588 15.299ZM45.0576 5.97474L44.651 5.73189V5.73189L45.0576 5.97474ZM49.7812 4.9142L50.0404 4.51773L50.0403 4.5177L49.7812 4.9142ZM51.3359 10.0568L51.7715 10.2427H51.7715L51.3359 10.0568ZM46.6191 20.3615L46.1948 20.151L45.4502 21.6525L46.8706 20.7628L46.6191 20.3615ZM55.0449 15.4337L54.8159 15.0192L54.8158 15.0192L55.0449 15.4337ZM59.9805 16.9826L60.4024 16.7674L60.4024 16.7673L59.9805 16.9826ZM58.7119 22.5783L59.0001 22.9541V22.9541L58.7119 22.5783ZM50.335 28.6261L50.0711 28.2328L48.781 29.0982L50.3345 29.0997L50.335 28.6261ZM61.9434 29.1359L61.9801 28.6637L61.9801 28.6637L61.9434 29.1359ZM65.7637 33.2902L66.2373 33.2902V33.2902H65.7637ZM61.9658 37.4357L62.0037 37.9078V37.9078L61.9658 37.4357ZM53.1797 37.8995L53.17 37.426L51.7211 37.4557L52.9079 38.2874L53.1797 37.8995ZM59.252 42.3663L59.5401 41.9905L59.5401 41.9905L59.252 42.3663ZM60.5205 47.962L60.9424 48.1773L60.9424 48.1772L60.5205 47.962ZM55.584 49.5109L55.3549 49.9254V49.9254L55.584 49.5109ZM47.1592 44.5831L47.4106 44.1818L45.9903 43.2921L46.7349 44.7936L47.1592 44.5831ZM51.876 54.8859L52.3116 54.6999H52.3116L51.876 54.8859ZM50.3213 60.0285L50.5804 60.4249L50.5804 60.4249L50.3213 60.0285ZM45.5977 58.9689L45.191 59.2117L45.1911 59.2118L45.5977 58.9689ZM40.4307 49.8927L40.8483 49.6693L39.9597 49.9425L40.4307 49.8927ZM41.2041 60.3019L41.6772 60.2792V60.2792L41.2041 60.3019ZM37.4316 64.922L37.5058 65.3898H37.5058L37.4316 64.922ZM32.6719 61.632L32.2073 61.7243L32.2073 61.7243L32.6719 61.632ZM31.4404 54.9611L31.9075 54.8825L30.9764 54.8663L31.4404 54.9611ZM29.8154 62.2833L30.2762 62.3928L30.2762 62.3928L29.8154 62.2833ZM25.7109 64.8488L25.6109 65.3117L25.6109 65.3117L25.7109 64.8488ZM22.7285 60.7355L22.2574 60.6865V60.6865L22.7285 60.7355ZM23.9277 50.8761L24.3965 50.9436L23.5109 50.6513L23.9277 50.8761ZM19.2861 58.9933L19.6922 59.2371H19.6922L19.2861 58.9933ZM14.5742 60.0411L14.3151 60.4376L14.3152 60.4376L14.5742 60.0411ZM13.0234 54.88L12.5883 54.693L12.5883 54.693L13.0234 54.88ZM18.4229 43.1759L18.8458 43.389L19.6205 41.8513L18.1684 42.7765L18.4229 43.1759ZM9.125 48.6554L9.35408 49.07V49.07L9.125 48.6554ZM4.18848 47.1066L3.76656 47.3218L3.76658 47.3218L4.18848 47.1066ZM5.45703 41.5109L5.16886 41.135L5.16884 41.135L5.45703 41.5109ZM9.87109 38.2228L10.1482 38.6069L11.2367 37.8217L9.89645 37.7498L9.87109 38.2228ZM5.39941 37.921L5.36155 38.3931H5.36155L5.39941 37.921ZM1.60156 33.7755H1.12793V33.7755L1.60156 33.7755ZM5.42188 29.6212L5.38513 29.149L5.38509 29.149L5.42188 29.6212ZM12.8564 29.1857L12.8729 29.659L14.3267 29.6086L13.1219 28.7934L12.8564 29.1857ZM4.91797 23.4337L4.62979 23.8096L4.6298 23.8096L4.91797 23.4337ZM3.64941 17.839L3.2275 17.6238L3.22749 17.6238L3.64941 17.839ZM8.58496 16.2892L8.81404 15.8747L8.81398 15.8746L8.58496 16.2892ZM17.8857 21.7687L17.6312 22.1681L19.0835 23.0934L18.3087 21.5556L17.8857 21.7687ZM12.4834 10.0636L12.0482 10.2506V10.2506L12.4834 10.0636ZM14.0342 4.90248L13.7751 4.50601L13.775 4.50604L14.0342 4.90248ZM18.7461 5.94935L19.1521 5.7055L19.1521 5.70547L18.7461 5.94935ZM23.3887 14.0656L22.9718 14.2904L23.8575 13.9981L23.3887 14.0656ZM22.1895 4.20716L21.7184 4.25614V4.25615L22.1895 4.20716ZM25.1719 0.09486L25.0719 -0.368089L25.0719 -0.368087L25.1719 0.09486ZM29.2754 2.66029L29.7362 2.55083V2.55083L29.2754 2.66029ZM31.6689 13.9796L31.2029 14.0638L32.138 14.0455L31.6689 13.9796ZM33.5361 2.839L34.0015 2.9269C34.3073 1.30819 35.8163 0.253319 37.4532 0.512841L37.5273 0.0450553L37.6015 -0.42273C35.4644 -0.761547 33.4726 0.623209 33.0707 2.7511L33.5361 2.839ZM37.5273 0.0450553L37.4531 0.512831C39.0949 0.773343 40.3063 2.26811 40.2107 3.929L40.6836 3.95619L41.1564 3.98338C41.2801 1.8337 39.7209 -0.0864346 37.6016 -0.422721L37.5273 0.0450553ZM40.6836 3.95619L40.2107 3.929C39.9705 8.10656 39.6762 11.7332 39.288 15.247L39.7588 15.299L40.2296 15.351C40.6198 11.8177 40.9154 8.17426 41.1564 3.98338L40.6836 3.95619ZM39.7588 15.299L40.1768 15.5216C41.7463 12.5748 43.4501 9.59013 45.4642 6.21759L45.0576 5.97474L44.651 5.73189C42.6312 9.11382 40.9194 12.1124 39.3408 15.0763L39.7588 15.299ZM45.0576 5.97474L45.4642 6.21759C46.3278 4.77162 48.09 4.37495 49.5222 5.31069L49.7812 4.9142L50.0403 4.5177C48.1682 3.29447 45.7969 3.81318 44.651 5.73189L45.0576 5.97474ZM49.7812 4.9142L49.5221 5.31066C50.9765 6.26117 51.588 8.26007 50.9003 9.87082L51.3359 10.0568L51.7715 10.2427C52.6397 8.20902 51.8789 5.71928 50.0404 4.51773L49.7812 4.9142ZM51.3359 10.0568L50.9003 9.87081C49.261 13.7108 47.7579 16.999 46.1948 20.151L46.6191 20.3615L47.0435 20.5719C48.616 17.4008 50.1266 14.0959 51.7715 10.2427L51.3359 10.0568ZM46.6191 20.3615L46.8706 20.7628C49.4547 19.1442 52.1616 17.5682 55.274 15.8483L55.0449 15.4337L54.8158 15.0192C51.6924 16.7452 48.97 18.3301 46.3677 19.9601L46.6191 20.3615ZM55.0449 15.4337L55.274 15.8483C56.8614 14.9713 58.7201 15.5545 59.5586 17.1978L59.9805 16.9826L60.4024 16.7673C59.3273 14.6602 56.8847 13.8762 54.8159 15.0192L55.0449 15.4337ZM59.9805 16.9826L59.5586 17.1978C60.408 18.8631 59.9199 21.0554 58.4237 22.2024L58.7119 22.5783L59.0001 22.9541C60.8598 21.5284 61.4588 18.8386 60.4024 16.7674L59.9805 16.9826ZM58.7119 22.5783L58.4237 22.2024C55.4175 24.5072 52.7421 26.441 50.0711 28.2328L50.335 28.6261L50.5988 29.0194C53.2894 27.2146 55.9811 25.2687 59.0001 22.9541L58.7119 22.5783ZM50.335 28.6261L50.3345 29.0997C53.981 29.1033 57.6279 29.2751 61.9066 29.6081L61.9434 29.1359L61.9801 28.6637C57.6844 28.3294 54.0124 28.156 50.3354 28.1525L50.335 28.6261ZM61.9434 29.1359L61.9066 29.6081C63.8191 29.7571 65.29 31.3647 65.29 33.2902H65.7637H66.2373C66.2373 30.8772 64.3929 28.8517 61.9801 28.6637L61.9434 29.1359ZM65.7637 33.2902L65.29 33.2901C65.2899 35.2078 63.8305 36.811 61.928 36.9636L61.9658 37.4357L62.0037 37.9078C64.4074 37.715 66.2371 35.6926 66.2373 33.2902L65.7637 33.2902ZM61.9658 37.4357L61.928 36.9636C58.7521 37.2183 55.9206 37.3697 53.17 37.426L53.1797 37.8995L53.1894 38.3731C55.962 38.3163 58.8126 38.1637 62.0037 37.9078L61.9658 37.4357ZM53.1797 37.8995L52.9079 38.2874C54.8366 39.6391 56.8161 41.0957 58.9638 42.7422L59.252 42.3663L59.5401 41.9905C57.3834 40.337 55.3929 38.8723 53.4515 37.5117L53.1797 37.8995ZM59.252 42.3663L58.9638 42.7422C60.4598 43.8893 60.948 46.0816 60.0986 47.7468L60.5205 47.962L60.9424 48.1772C61.9988 46.1061 61.3996 43.4162 59.5401 41.9905L59.252 42.3663ZM60.5205 47.962L60.0986 47.7468C59.2602 49.3905 57.4007 49.9737 55.8131 49.0963L55.584 49.5109L55.3549 49.9254C57.4239 51.0687 59.8674 50.2849 60.9424 48.1773L60.5205 47.962ZM55.584 49.5109L55.8131 49.0963C52.7009 47.3765 49.9946 45.8003 47.4106 44.1818L47.1592 44.5831L46.9078 44.9845C49.5099 46.6144 52.2316 48.1995 55.3549 49.9254L55.584 49.5109ZM47.1592 44.5831L46.7349 44.7936C48.2977 47.9451 49.8013 51.2325 51.4404 55.0718L51.876 54.8859L52.3116 54.6999C50.6669 50.8473 49.1558 47.5433 47.5835 44.3727L47.1592 44.5831ZM51.876 54.8859L51.4404 55.0718C52.128 56.6825 51.5165 58.6814 50.0622 59.632L50.3213 60.0285L50.5804 60.4249C52.4188 59.2233 53.1798 56.7336 52.3116 54.6999L51.876 54.8859ZM50.3213 60.0285L50.0622 59.632C48.63 60.568 46.8679 60.1717 46.0043 58.726L45.5977 58.9689L45.1911 59.2118C46.3372 61.1303 48.7084 61.6483 50.5804 60.4249L50.3213 60.0285ZM45.5977 58.9689L46.0043 58.726C44.0464 55.4478 42.3814 52.5359 40.8483 49.6693L40.4307 49.8927L40.013 50.1161C41.5549 52.9992 43.2278 55.9245 45.191 59.2117L45.5977 58.9689ZM40.4307 49.8927L39.9597 49.9425C40.3018 53.1794 40.5488 56.5267 40.731 60.3246L41.2041 60.3019L41.6772 60.2792C41.4943 56.4667 41.2461 53.101 40.9017 49.8429L40.4307 49.8927ZM41.2041 60.3019L40.731 60.3246C40.8276 62.3398 39.3496 64.1383 37.3575 64.4542L37.4316 64.922L37.5058 65.3898C39.9699 64.999 41.7972 62.7823 41.6772 60.2792L41.2041 60.3019ZM37.4316 64.922L37.3575 64.4542C35.3675 64.7697 33.5265 63.5018 33.1364 61.5396L32.6719 61.632L32.2073 61.7243C32.6983 64.1939 35.0218 65.7836 37.5058 65.3898L37.4316 64.922ZM32.6719 61.632L33.1364 61.5396C32.6671 59.1789 32.2615 56.9882 31.9075 54.8825L31.4404 54.9611L30.9734 55.0396C31.3292 57.1561 31.7366 59.356 32.2073 61.7243L32.6719 61.632ZM31.4404 54.9611L30.9764 54.8663C30.506 57.1702 29.9737 59.5679 29.3546 62.1739L29.8154 62.2833L30.2762 62.3928C30.8973 59.7784 31.4318 57.3708 31.9045 55.0558L31.4404 54.9611ZM29.8154 62.2833L29.3546 62.1738C28.9753 63.7703 27.4286 64.7353 25.8109 64.3858L25.7109 64.8488L25.6109 65.3117C27.7245 65.7683 29.7758 64.4989 30.2762 62.3928L29.8154 62.2833ZM25.7109 64.8488L25.811 64.3858C24.1748 64.0322 23.026 62.4537 23.1996 60.7845L22.7285 60.7355L22.2574 60.6865C22.0337 62.8376 23.5037 64.8563 25.6109 65.3117L25.7109 64.8488ZM22.7285 60.7355L23.1996 60.7845C23.5745 57.1792 23.9578 53.9912 24.3965 50.9436L23.9277 50.8761L23.4589 50.8086C23.018 53.8716 22.6333 57.0723 22.2574 60.6865L22.7285 60.7355ZM23.9277 50.8761L23.5109 50.6513C22.1244 53.2218 20.623 55.8474 18.8801 58.7495L19.2861 58.9933L19.6922 59.2371C21.4414 56.3245 22.9502 53.6861 24.3446 51.101L23.9277 50.8761ZM19.2861 58.9933L18.8801 58.7495C18.017 60.1866 16.2609 60.5775 14.8333 59.6447L14.5742 60.0411L14.3152 60.4376C16.1804 61.6564 18.545 61.1472 19.6922 59.2371L19.2861 58.9933ZM14.5742 60.0411L14.8333 59.6447C13.3741 58.691 12.7646 56.6821 13.4586 55.067L13.0234 54.88L12.5883 54.693C11.7129 56.7303 12.47 59.2318 14.3151 60.4376L14.5742 60.0411ZM13.0234 54.88L13.4586 55.067C15.3552 50.6534 17.0453 46.963 18.8458 43.389L18.4229 43.1759L17.9999 42.9628C16.1882 46.5589 14.49 50.2677 12.5883 54.693L13.0234 54.88ZM18.4229 43.1759L18.1684 42.7765C15.3198 44.5913 12.3591 46.3271 8.89592 48.2409L9.125 48.6554L9.35408 49.07C12.8297 47.1493 15.8081 45.4034 18.6773 43.5754L18.4229 43.1759ZM9.125 48.6554L8.89592 48.2409C7.30834 49.1182 5.4488 48.5348 4.61038 46.8913L4.18848 47.1066L3.76658 47.3218C4.84168 49.4292 7.28515 50.2132 9.35408 49.07L9.125 48.6554ZM4.18848 47.1066L4.61039 46.8914C3.76104 45.2261 4.24924 43.0338 5.74522 41.8867L5.45703 41.5109L5.16884 41.135C3.30938 42.5608 2.71016 45.2506 3.76656 47.3218L4.18848 47.1066ZM5.45703 41.5109L5.7452 41.8868C7.2848 40.7064 8.7384 39.6238 10.1482 38.6069L9.87109 38.2228L9.59401 37.8387C8.17605 38.8615 6.71503 39.9496 5.16886 41.135L5.45703 41.5109ZM9.87109 38.2228L9.89645 37.7498C8.4722 37.6735 6.99616 37.574 5.43728 37.4489L5.39941 37.921L5.36155 38.3931C6.92803 38.5188 8.41244 38.6189 9.84573 38.6957L9.87109 38.2228ZM5.39941 37.921L5.43728 37.4489C3.53462 37.2963 2.07528 35.6932 2.07519 33.7755L1.60156 33.7755L1.12793 33.7755C1.12805 36.178 2.95779 38.2003 5.36155 38.3931L5.39941 37.921ZM1.60156 33.7755H2.07519C2.07519 31.85 3.54616 30.2424 5.45866 30.0934L5.42188 29.6212L5.38509 29.149C2.97235 29.337 1.12793 31.3626 1.12793 33.7755H1.60156ZM5.42188 29.6212L5.45862 30.0934C8.12479 29.8859 10.5453 29.7398 12.8729 29.659L12.8564 29.1857L12.84 28.7123C10.4956 28.7937 8.06109 28.9408 5.38513 29.149L5.42188 29.6212ZM12.8564 29.1857L13.1219 28.7934C10.5953 27.084 8.04841 25.2369 5.20614 23.0579L4.91797 23.4337L4.6298 23.8096C7.48412 25.9979 10.0463 27.8562 12.591 29.578L12.8564 29.1857ZM4.91797 23.4337L5.20614 23.0579C3.7101 21.9109 3.22205 19.7195 4.07134 18.0542L3.64941 17.839L3.22749 17.6238C2.17118 19.695 2.77025 22.3839 4.62979 23.8096L4.91797 23.4337ZM3.64941 17.839L4.07133 18.0542C4.9097 16.4105 6.7685 15.8268 8.35594 16.7038L8.58496 16.2892L8.81398 15.8746C6.74492 14.7316 4.30236 15.5164 3.2275 17.6238L3.64941 17.839ZM8.58496 16.2892L8.35588 16.7037C11.8199 18.6179 14.7823 20.353 17.6312 22.1681L17.8857 21.7687L18.1402 21.3692C15.2704 19.5408 12.2902 17.7956 8.81404 15.8747L8.58496 16.2892ZM17.8857 21.7687L18.3087 21.5556C16.5077 17.9808 14.8155 14.2909 12.9185 9.87661L12.4834 10.0636L12.0482 10.2506C13.9504 14.6769 15.6508 18.3852 17.4628 21.9818L17.8857 21.7687ZM12.4834 10.0636L12.9185 9.87661C12.2246 8.26166 12.8343 6.25274 14.2933 5.29891L14.0342 4.90248L13.775 4.50604C11.9303 5.71198 11.1728 8.21335 12.0482 10.2506L12.4834 10.0636ZM14.0342 4.90248L14.2933 5.29895C15.721 4.3659 17.4769 4.75629 18.3401 6.19324L18.7461 5.94935L19.1521 5.70547C18.0048 3.79544 15.6401 3.28712 13.7751 4.50601L14.0342 4.90248ZM18.7461 5.94935L18.3401 6.1932C20.0829 9.09518 21.5855 11.7202 22.9718 14.2904L23.3887 14.0656L23.8055 13.8407C22.4112 11.2557 20.9012 8.61782 19.1521 5.7055L18.7461 5.94935ZM23.3887 14.0656L23.8575 13.9981C23.4188 10.9508 23.0354 7.76304 22.6605 4.15817L22.1895 4.20716L21.7184 4.25615C22.0942 7.86994 22.4791 11.0704 22.9199 14.133L23.3887 14.0656ZM22.1895 4.20716L22.6605 4.15819C22.487 2.48904 23.6356 0.911326 25.2719 0.557807L25.1719 0.09486L25.0719 -0.368087C22.9647 0.0871637 21.4947 2.10492 21.7184 4.25614L22.1895 4.20716ZM25.1719 0.09486L25.2719 0.557809C26.8895 0.208366 28.4353 1.17306 28.8146 2.76975L29.2754 2.66029L29.7362 2.55083C29.2359 0.4447 27.1856 -0.824704 25.0719 -0.368089L25.1719 0.09486ZM29.2754 2.66029L28.8146 2.76975C29.7972 6.9064 30.5624 10.5174 31.2029 14.0638L31.6689 13.9796L32.135 13.8955C31.491 10.3291 30.7221 6.70095 29.7362 2.55083L29.2754 2.66029ZM31.6689 13.9796L32.138 14.0455C32.6257 10.575 33.2304 7.0105 34.0015 2.92689L33.5361 2.839L33.0707 2.75111C32.2977 6.84478 31.6903 10.4245 31.1999 13.9137L31.6689 13.9796Z" fill="#FDD27B" mask="url(#path-1-inside-1_16892_8514)"/>
<path fill-rule="evenodd" clip-rule="evenodd" d="M33.3213 17.2078C33.5036 16.2426 34.4057 15.6132 35.3779 15.7673C36.3468 15.9211 37.0604 16.8014 37.0039 17.783C36.8799 19.9402 36.7281 21.8141 36.5273 23.6306C37.3389 22.1067 38.2197 20.5645 39.2598 18.823C39.7774 17.9562 40.8422 17.7199 41.6934 18.2761C42.5416 18.8305 42.8948 19.9867 42.4941 20.9255C41.6484 22.9067 40.8719 24.6047 40.0645 26.2331C41.3995 25.397 42.7973 24.584 44.4023 23.697C45.3443 23.1765 46.4534 23.5285 46.9463 24.4949C47.4371 25.4574 47.1564 26.715 46.292 27.3777C44.598 28.6764 43.1054 29.7473 41.5967 30.7449C43.3853 30.7552 45.188 30.8437 47.2812 31.0066C48.3955 31.0933 49.25 32.0296 49.25 33.1472C49.2499 34.2601 48.4023 35.194 47.293 35.283C46.0311 35.3842 44.8735 35.4528 43.7588 35.4929C44.6561 36.1288 45.5792 36.8114 46.5713 37.572C47.4357 38.2348 47.7156 39.4923 47.2246 40.4548C46.7317 41.4211 45.6236 41.7732 44.6816 41.2527C43.076 40.3654 41.6783 39.5511 40.3428 38.7146C41.1502 40.3429 41.9258 42.0412 42.7715 44.0222C43.1721 44.961 42.8189 46.1173 41.9707 46.6716C41.1195 47.2279 40.0548 46.9916 39.5371 46.1247C38.4975 44.384 37.6169 42.8424 36.8057 41.3191C37.0064 43.1356 37.1591 45.0095 37.2832 47.1667C37.3397 48.1484 36.6253 49.0278 35.6562 49.1814C34.6841 49.3354 33.7828 48.707 33.6006 47.7419C33.2027 45.6348 32.8897 43.7941 32.6377 42.0007C32.3068 43.8329 31.9124 45.6981 31.4053 47.8328C31.1786 48.7864 30.252 49.3615 29.291 49.154C28.3266 48.9457 27.6516 48.0191 27.7539 47.0349C27.9472 45.1758 28.1446 43.5304 28.3711 41.9568C27.6549 43.2846 26.8798 44.6409 25.9805 46.1384C25.4625 47.0005 24.4009 47.2318 23.5527 46.6775C22.7017 46.1211 22.3496 44.9591 22.7539 44.0183C23.7322 41.7417 24.6048 39.8358 25.5352 37.989C24.0623 38.9273 22.5325 39.8246 20.7451 40.8122C19.8033 41.3326 18.6951 40.9804 18.2021 40.0144C17.7112 39.0518 17.991 37.7934 18.8555 37.1306C19.6495 36.5219 20.3993 35.9632 21.127 35.4382C20.3918 35.3988 19.6302 35.3474 18.8262 35.283C17.7169 35.194 16.8693 34.2601 16.8691 33.1472C16.8691 32.0296 17.7236 31.0933 18.8379 31.0066C20.2144 30.8995 21.4652 30.8237 22.6689 30.782C21.3624 29.898 20.0457 28.9432 18.5781 27.8181C17.714 27.1553 17.4339 25.8977 17.9248 24.9353C18.4177 23.9692 19.5259 23.6172 20.4678 24.1374C22.2544 25.1248 23.7845 26.0208 25.2568 26.9587C24.3264 25.1118 23.453 23.2062 22.4746 20.9294C22.0703 19.9885 22.4232 18.8266 23.2744 18.2703C24.1225 17.7162 25.1833 17.9475 25.7012 18.8093C26.6003 20.3065 27.3757 21.6625 28.0918 22.99C27.8654 21.4167 27.6679 19.7716 27.4746 17.9128C27.3723 16.9287 28.0473 16.002 29.0117 15.7937C29.9728 15.5861 30.8993 16.1613 31.126 17.115C31.6332 19.2504 32.0284 21.1161 32.3594 22.949C32.6114 21.1556 32.9234 19.3148 33.3213 17.2078Z" fill="#FFD868"/>
<path fill-rule="evenodd" clip-rule="evenodd" d="M32.8057 24.6408C32.8992 24.1457 33.3616 23.8235 33.8604 23.9025C34.3574 23.9813 34.724 24.4323 34.6953 24.9357C34.6316 26.0431 34.5523 27.0053 34.4492 27.9377C34.8656 27.1558 35.317 26.3643 35.8506 25.4709C36.1162 25.0262 36.6629 24.9052 37.0996 25.1906C37.5347 25.4751 37.7164 26.0684 37.5107 26.55C37.076 27.5683 36.6749 28.4397 36.2598 29.2765C36.9468 28.8461 37.6659 28.4275 38.4922 27.9709C38.9755 27.7039 39.544 27.8843 39.7969 28.3801C40.0486 28.8739 39.9044 29.5186 39.4609 29.8586C38.591 30.5255 37.8236 31.0739 37.0488 31.5861C37.9675 31.5914 38.8935 31.6362 39.9688 31.7199C40.5402 31.7645 40.9783 32.2444 40.9785 32.8176C40.9785 33.3886 40.5438 33.8686 39.9746 33.9142C39.3257 33.9663 38.7304 33.9992 38.1572 34.0197C38.6184 34.3464 39.0927 34.6972 39.6025 35.0881C40.046 35.4281 40.1893 36.0728 39.9375 36.5666C39.6846 37.0624 39.1161 37.2438 38.6328 36.9767C37.8077 36.5208 37.0905 36.101 36.4043 35.6711C36.8192 36.5075 37.2189 37.379 37.6533 38.3967C37.8589 38.8782 37.6781 39.4715 37.2432 39.756C36.8064 40.0415 36.2597 39.9205 35.9941 39.4758C35.4601 38.5816 35.0084 37.7895 34.5918 37.007C34.6949 37.9395 34.7742 38.9015 34.8379 40.009C34.8667 40.5125 34.5009 40.9632 34.0039 41.0422C33.5051 41.1213 33.0427 40.7991 32.9492 40.3039C32.7447 39.221 32.5845 38.2752 32.4551 37.3537C32.285 38.2961 32.0831 39.2556 31.8223 40.3537C31.7059 40.8429 31.2303 41.1379 30.7373 41.0314C30.2428 40.9244 29.8968 40.4492 29.9492 39.9445C30.0485 38.9903 30.1503 38.1457 30.2666 37.3381C29.8991 38.0195 29.5016 38.716 29.04 39.4846C28.7743 39.9267 28.23 40.0453 27.7949 39.7609C27.3583 39.4755 27.1773 38.8793 27.3848 38.3967C27.8878 37.226 28.3369 36.2466 28.8154 35.2971C28.0579 35.7799 27.272 36.243 26.3525 36.7512C25.8693 37.018 25.3007 36.8377 25.0479 36.342C24.796 35.8481 24.9403 35.2025 25.3838 34.8625C25.793 34.5488 26.1798 34.2617 26.5547 33.9914C26.176 33.9711 25.7834 33.9475 25.3691 33.9142C24.8 33.8686 24.3652 33.3886 24.3652 32.8176C24.3655 32.2444 24.8035 31.7644 25.375 31.7199C26.0824 31.6649 26.7252 31.628 27.3438 31.6066C26.6725 31.1526 25.9963 30.6623 25.2422 30.0842C24.7987 29.7441 24.6553 29.0985 24.9072 28.6047C25.1602 28.1092 25.7288 27.9285 26.2119 28.1955C27.1301 28.7029 27.9153 29.1645 28.6719 29.6467C28.1938 28.698 27.7448 27.7196 27.2422 26.55C27.0348 26.0674 27.2149 25.4712 27.6514 25.1857C28.0865 24.9013 28.6317 25.0198 28.8975 25.4621C29.3595 26.2315 29.7571 26.9284 30.125 27.6105C30.0085 26.8017 29.906 25.9559 29.8066 25.0002C29.7543 24.4954 30.1001 24.0201 30.5947 23.9133C31.0878 23.8069 31.5635 24.1027 31.6797 24.592C31.9403 25.689 32.1416 26.6475 32.3115 27.589C32.4409 26.6682 32.6013 25.7229 32.8057 24.6408Z" fill="#F9F7DE"/>
<defs>
<linearGradient id="paint0_linear_16892_8514" x1="36.8055" y1="5.70773" x2="31.1628" y2="59.4354" gradientUnits="userSpaceOnUse">
<stop stop-color="#FFFDE2"/>
<stop offset="1" stop-color="#FFFBC3"/>
</linearGradient>
</defs>
</svg>
