<svg width="67" height="67" viewBox="0 0 67 67" fill="none" xmlns="http://www.w3.org/2000/svg">
<path d="M12.1578 41.2269C9.06899 56.5296 18.5338 59.1249 23.6524 58.5097C25.042 60.7002 28.1642 61.7 29.5515 61.926C49.038 64.834 52.3408 44.3013 52.1044 40.1578C51.868 36.0142 53.1972 24.0527 53.7749 21.5208C54.2371 19.4952 53.4573 19.0223 53.0097 19.039C55.616 14.414 56.1103 6.05766 51.028 4.40984C46.9621 3.09159 41.9916 8.10981 40.0147 10.7837C37.2102 4.11964 16.0188 22.0985 12.1578 41.2269Z" fill="url(#paint0_linear_16890_3341)" stroke="#F6C100"/>
<path d="M38.7604 12.3516C40.062 14.3541 41.5538 21.5131 37.1084 34.1284C37.1084 34.1284 40.9231 33.858 38.7604 43.5898C36.5978 53.3217 33.4539 55.3542 32.1523 55.1539" stroke="#FFC90C" stroke-width="2" stroke-linecap="round"/>
<path d="M51.7338 20.5371C50.1398 20.6078 46.0381 22.832 42.3828 31.1629" stroke="#FFC90C" stroke-width="2" stroke-linecap="round"/>
<defs>
<linearGradient id="paint0_linear_16890_3341" x1="32.3298" y1="4.83657" x2="34.4747" y2="62.1738" gradientUnits="userSpaceOnUse">
<stop stop-color="#FFCD2B"/>
<stop offset="1" stop-color="#FFE842"/>
</linearGradient>
</defs>
</svg>
