<svg width="67" height="67" viewBox="0 0 67 67" fill="none" xmlns="http://www.w3.org/2000/svg">
<g clip-path="url(#clip0_16892_8292)">
<mask id="path-1-inside-1_16892_8292" fill="white">
<path fill-rule="evenodd" clip-rule="evenodd" d="M42.7361 7.70437C46.32 8.71502 48.4058 12.4393 47.3955 16.0233L45.1356 24.0379L50.7373 21.1236C54.0407 19.4046 58.1123 20.6889 59.8313 23.9923C61.5502 27.2956 60.2651 31.367 56.9617 33.086L50.7583 36.3136L56.6684 37.9801C60.2523 38.9909 62.3383 42.7151 61.3278 46.299C60.3172 49.8831 56.5927 51.9698 53.0086 50.9594L50.9183 50.3699L51.7147 51.6944C53.6335 54.8859 52.6015 59.0287 49.41 60.9474C46.2186 62.8658 42.0767 61.8341 40.1579 58.643L36.3088 52.2399L33.8345 61.0149C32.8239 64.599 29.0993 66.6857 25.5153 65.6752C21.9311 64.6646 19.8446 60.9393 20.8552 57.3551L23.1148 49.3414L17.514 52.256C14.2107 53.975 10.1391 52.6906 8.42002 49.3874C6.70104 46.084 7.98534 42.0124 11.2887 40.2933L14.4664 38.6386L10.1557 37.5286C6.54959 36.5992 4.37962 32.9222 5.30898 29.3161C6.23838 25.7103 9.91458 23.5401 13.5205 24.4692L19.0674 25.8983L16.5361 21.6871C14.6174 18.4956 15.6493 14.3528 18.8408 12.4341C22.0323 10.5156 26.1752 11.5474 28.0939 14.7388L31.9419 21.1385L34.4162 12.3635C35.427 8.77962 39.1521 6.69378 42.7361 7.70437Z"/>
</mask>
<path fill-rule="evenodd" clip-rule="evenodd" d="M42.7361 7.70437C46.32 8.71502 48.4058 12.4393 47.3955 16.0233L45.1356 24.0379L50.7373 21.1236C54.0407 19.4046 58.1123 20.6889 59.8313 23.9923C61.5502 27.2956 60.2651 31.367 56.9617 33.086L50.7583 36.3136L56.6684 37.9801C60.2523 38.9909 62.3383 42.7151 61.3278 46.299C60.3172 49.8831 56.5927 51.9698 53.0086 50.9594L50.9183 50.3699L51.7147 51.6944C53.6335 54.8859 52.6015 59.0287 49.41 60.9474C46.2186 62.8658 42.0767 61.8341 40.1579 58.643L36.3088 52.2399L33.8345 61.0149C32.8239 64.599 29.0993 66.6857 25.5153 65.6752C21.9311 64.6646 19.8446 60.9393 20.8552 57.3551L23.1148 49.3414L17.514 52.256C14.2107 53.975 10.1391 52.6906 8.42002 49.3874C6.70104 46.084 7.98534 42.0124 11.2887 40.2933L14.4664 38.6386L10.1557 37.5286C6.54959 36.5992 4.37962 32.9222 5.30898 29.3161C6.23838 25.7103 9.91458 23.5401 13.5205 24.4692L19.0674 25.8983L16.5361 21.6871C14.6174 18.4956 15.6493 14.3528 18.8408 12.4341C22.0323 10.5156 26.1752 11.5474 28.0939 14.7388L31.9419 21.1385L34.4162 12.3635C35.427 8.77962 39.1521 6.69378 42.7361 7.70437Z" fill="url(#paint0_linear_16892_8292)"/>
<path d="M42.7361 7.70437L42.8766 7.20604L42.8766 7.20604L42.7361 7.70437ZM47.3955 16.0233L47.8938 16.1638L47.8938 16.1638L47.3955 16.0233ZM45.1356 24.0379L44.6372 23.8974L44.3123 25.0499L45.3745 24.4972L45.1356 24.0379ZM50.7373 21.1236L50.9763 21.5829L50.9763 21.5829L50.7373 21.1236ZM59.8313 23.9923L60.2906 23.7533L60.2906 23.7532L59.8313 23.9923ZM56.9617 33.086L57.2007 33.5453L57.2007 33.5453L56.9617 33.086ZM50.7583 36.3136L50.5193 35.8543L49.3602 36.4574L50.6177 36.812L50.7583 36.3136ZM56.6684 37.9801L56.809 37.4818L56.8089 37.4818L56.6684 37.9801ZM61.3278 46.299L61.8261 46.4396L61.8261 46.4395L61.3278 46.299ZM53.0086 50.9594L52.8681 51.4577L52.8681 51.4577L53.0086 50.9594ZM50.9183 50.3699L51.0588 49.8716L49.8012 49.517L50.4745 50.6368L50.9183 50.3699ZM51.7147 51.6944L52.1584 51.4276L52.1584 51.4276L51.7147 51.6944ZM49.41 60.9474L49.6767 61.3912L49.6768 61.3912L49.41 60.9474ZM40.1579 58.643L39.7141 58.9097L39.7141 58.9098L40.1579 58.643ZM36.3088 52.2399L36.7525 51.9731L36.1355 50.9467L35.8104 52.0994L36.3088 52.2399ZM33.8345 61.0149L34.3328 61.1554V61.1554L33.8345 61.0149ZM25.5153 65.6752L25.3748 66.1736L25.3748 66.1736L25.5153 65.6752ZM20.8552 57.3551L21.3535 57.4956V57.4956L20.8552 57.3551ZM23.1148 49.3414L23.6132 49.482L23.9382 48.3293L22.8758 48.8821L23.1148 49.3414ZM17.514 52.256L17.7531 52.7153L17.7531 52.7153L17.514 52.256ZM8.42002 49.3874L7.96072 49.6264L7.96073 49.6264L8.42002 49.3874ZM11.2887 40.2933L11.5277 40.7526L11.5278 40.7526L11.2887 40.2933ZM14.4664 38.6386L14.7055 39.0978L15.9035 38.4739L14.5955 38.1371L14.4664 38.6386ZM10.1557 37.5286L10.0264 38.03L10.0266 38.03L10.1557 37.5286ZM5.30898 29.3161L4.8076 29.1869L4.8076 29.1869L5.30898 29.3161ZM13.5205 24.4692L13.3913 24.9706L13.3913 24.9706L13.5205 24.4692ZM19.0674 25.8983L18.9382 26.3997L20.1624 26.7151L19.5111 25.6316L19.0674 25.8983ZM16.5361 21.6871L16.9799 21.4204L16.9799 21.4203L16.5361 21.6871ZM18.8408 12.4341L18.5741 11.9903L18.5741 11.9903L18.8408 12.4341ZM28.0939 14.7388L27.6502 15.0056L27.6502 15.0056L28.0939 14.7388ZM31.9419 21.1385L31.4982 21.4053L32.1153 22.4316L32.4403 21.279L31.9419 21.1385ZM34.4162 12.3635L33.9179 12.2229L33.9179 12.223L34.4162 12.3635ZM42.7361 7.70437L42.5956 8.20271C45.9042 9.13574 47.8299 12.574 46.8971 15.8828L47.3955 16.0233L47.8938 16.1638C48.9817 12.3046 46.7358 8.2943 42.8766 7.20604L42.7361 7.70437ZM47.3955 16.0233L46.8971 15.8828L44.6372 23.8974L45.1356 24.0379L45.6339 24.1784L47.8938 16.1638L47.3955 16.0233ZM45.1356 24.0379L45.3745 24.4972L50.9763 21.5829L50.7373 21.1236L50.4983 20.6643L44.8966 23.5786L45.1356 24.0379ZM50.7373 21.1236L50.9763 21.5829C54.0261 19.9959 57.7851 21.1816 59.372 24.2313L59.8313 23.9923L60.2906 23.7532C58.4396 20.1962 54.0553 18.8134 50.4983 20.6643L50.7373 21.1236ZM59.8313 23.9923L59.372 24.2312C60.9589 27.2809 59.7725 31.0397 56.7227 32.6267L56.9617 33.086L57.2007 33.5453C60.7577 31.6944 62.1415 27.3104 60.2906 23.7533L59.8313 23.9923ZM56.9617 33.086L56.7228 32.6267L50.5193 35.8543L50.7583 36.3136L50.9972 36.7729L57.2007 33.5453L56.9617 33.086ZM50.7583 36.3136L50.6177 36.812L56.5279 38.4785L56.6684 37.9801L56.8089 37.4818L50.8988 35.8153L50.7583 36.3136ZM56.6684 37.9801L56.5279 38.4785C59.8366 39.4116 61.7624 42.8498 60.8295 46.1585L61.3278 46.299L61.8261 46.4395C62.9142 42.5803 60.668 38.5702 56.809 37.4818L56.6684 37.9801ZM61.3278 46.299L60.8295 46.1585C59.8965 49.4674 56.4579 51.3938 53.1491 50.461L53.0086 50.9594L52.8681 51.4577C56.7275 52.5457 60.738 50.2988 61.8261 46.4396L61.3278 46.299ZM53.0086 50.9594L53.1491 50.461L51.0588 49.8716L50.9183 50.3699L50.7777 50.8683L52.8681 51.4577L53.0086 50.9594ZM50.9183 50.3699L50.4745 50.6368L51.271 51.9612L51.7147 51.6944L52.1584 51.4276L51.362 50.1031L50.9183 50.3699ZM51.7147 51.6944L51.2709 51.9612C53.0424 54.9076 52.0897 58.7322 49.1432 60.5037L49.41 60.9474L49.6768 61.3912C53.1133 59.3251 54.2246 54.8642 52.1584 51.4276L51.7147 51.6944ZM49.41 60.9474L49.1432 60.5037C46.197 62.2747 42.373 61.3222 40.6016 58.3762L40.1579 58.643L39.7141 58.9098C41.7803 62.3459 46.2403 63.4569 49.6767 61.3912L49.41 60.9474ZM40.1579 58.643L40.6016 58.3762L36.7525 51.9731L36.3088 52.2399L35.865 52.5067L39.7141 58.9097L40.1579 58.643ZM36.3088 52.2399L35.8104 52.0994L33.3361 60.8744L33.8345 61.0149L34.3328 61.1554L36.8071 52.3804L36.3088 52.2399ZM33.8345 61.0149L33.3361 60.8744C32.4031 64.1833 28.9645 66.1097 25.6558 65.1769L25.5153 65.6752L25.3748 66.1736C29.2341 67.2616 33.2446 65.0146 34.3328 61.1554L33.8345 61.0149ZM25.5153 65.6752L25.6558 65.1769C22.3469 64.2439 20.4205 60.8046 21.3535 57.4956L20.8552 57.3551L20.3569 57.2146C19.2686 61.074 21.5154 65.0853 25.3748 66.1736L25.5153 65.6752ZM20.8552 57.3551L21.3535 57.4956L23.6132 49.482L23.1148 49.3414L22.6165 49.2009L20.3569 57.2146L20.8552 57.3551ZM23.1148 49.3414L22.8758 48.8821L17.275 51.7967L17.514 52.256L17.7531 52.7153L23.3539 49.8007L23.1148 49.3414ZM17.514 52.256L17.275 51.7967C14.2254 53.3837 10.4664 52.1979 8.87932 49.1483L8.42002 49.3874L7.96073 49.6264C9.8118 53.1833 14.1961 54.5663 17.7531 52.7153L17.514 52.256ZM8.42002 49.3874L8.87932 49.1484C7.29233 46.0986 8.47803 42.3397 11.5277 40.7526L11.2887 40.2933L11.0497 39.834C7.49265 41.6851 6.10974 46.0693 7.96072 49.6264L8.42002 49.3874ZM11.2887 40.2933L11.5278 40.7526L14.7055 39.0978L14.4664 38.6386L14.2273 38.1793L11.0495 39.8341L11.2887 40.2933ZM14.4664 38.6386L14.5955 38.1371L10.2848 37.0272L10.1557 37.5286L10.0266 38.03L14.3373 39.14L14.4664 38.6386ZM10.1557 37.5286L10.2849 37.0272C6.95573 36.1692 4.95237 32.7745 5.81037 29.4454L5.30898 29.3161L4.8076 29.1869C3.80688 33.0699 6.14345 37.0292 10.0264 38.03L10.1557 37.5286ZM5.30898 29.3161L5.81036 29.4454C6.66841 26.1164 10.0623 24.1129 13.3913 24.9706L13.5205 24.4692L13.6497 23.9678C9.76681 22.9674 5.80835 25.3042 4.8076 29.1869L5.30898 29.3161ZM13.5205 24.4692L13.3913 24.9706L18.9382 26.3997L19.0674 25.8983L19.1965 25.3969L13.6496 23.9678L13.5205 24.4692ZM19.0674 25.8983L19.5111 25.6316L16.9799 21.4204L16.5361 21.6871L16.0924 21.9538L18.6236 26.1651L19.0674 25.8983ZM16.5361 21.6871L16.9799 21.4203C15.2085 18.4739 16.1612 14.6493 19.1076 12.8778L18.8408 12.4341L18.5741 11.9903C15.1375 14.0564 14.0263 18.5173 16.0924 21.9539L16.5361 21.6871ZM18.8408 12.4341L19.1076 12.8778C22.054 11.1067 25.8788 12.0592 27.6502 15.0056L28.0939 14.7388L28.5376 14.472C26.4716 11.0355 22.0106 9.92451 18.5741 11.9903L18.8408 12.4341ZM28.0939 14.7388L27.6502 15.0056L31.4982 21.4053L31.9419 21.1385L32.3857 20.8717L28.5376 14.472L28.0939 14.7388ZM31.9419 21.1385L32.4403 21.279L34.9146 12.504L34.4162 12.3635L33.9179 12.223L31.4436 20.998L31.9419 21.1385ZM34.4162 12.3635L34.9146 12.504C35.8477 9.19542 39.2867 7.26971 42.5956 8.20271L42.7361 7.70437L42.8766 7.20604C39.0174 6.11786 35.0064 8.36381 33.9179 12.2229L34.4162 12.3635Z" fill="#F6C100" mask="url(#path-1-inside-1_16892_8292)"/>
<circle cx="34.2766" cy="37.4256" r="9.38194" transform="rotate(15.747 34.2766 37.4256)" fill="#CE9600"/>
<circle cx="34.2793" cy="37.424" r="6.25436" transform="rotate(15.747 34.2793 37.424)" fill="#543824"/>
</g>
<defs>
<linearGradient id="paint0_linear_16892_8292" x1="33.669" y1="11.1448" x2="58.3928" y2="58.8066" gradientUnits="userSpaceOnUse">
<stop stop-color="#FFBD0A"/>
<stop offset="1" stop-color="#F7F199"/>
</linearGradient>
<clipPath id="clip0_16892_8292">
<rect width="67" height="67" fill="white"/>
</clipPath>
</defs>
</svg>
