<svg width="67" height="67" viewBox="0 0 67 67" fill="none" xmlns="http://www.w3.org/2000/svg">
<g clip-path="url(#clip0_16892_8403)">
<path d="M9.2295 23.3497C7.29097 22.5834 6.33787 24.1689 6.888 25.5584C5.00843 24.9513 4.99877 26.6366 5.23432 27.1548C5.46987 27.673 5.49652 28.8381 3.75947 28.7513C2.02243 28.6644 -2.56882 32.5575 2.85616 43.8788C8.01185 54.6381 18.0504 63.3208 37.149 62.74C59.7585 62.0524 64.2938 39.0715 66.2915 31.168C68.289 23.2644 65.5351 25.1985 64.7341 23.3497C62.7538 18.7791 58.8101 26.1649 60.5472 22.2566C62.2842 18.3482 60.0863 15.5967 55.8692 14.9252C54.1015 14.6437 54.0453 18.6598 52.3082 14.9252C50.5712 11.1905 45.2732 12.4062 44.231 12.4062C43.1888 12.4062 43.3625 14.9252 40.8437 12.4062C38.325 9.88723 36.7617 11.4509 35.6326 11.7983C34.5035 12.1457 34.6772 14.9252 32.3322 12.4062C29.9872 9.88723 25.0366 11.8853 23.8207 14.9252C22.848 17.357 19.9413 18.0228 18.6096 18.0517C12.2523 16.4213 8.96895 20.0783 9.2295 23.3497Z" fill="url(#paint0_linear_16892_8403)" stroke="#FFC500" stroke-width="0.53921"/>
<ellipse cx="33.6455" cy="27.4072" rx="6.22951" ry="2.63376" fill="#FFD53D"/>
<path d="M27.7046 23.4416C20.7175 24.6825 25.4062 29.1303 28.624 31.1991C28.624 31.4859 17.1891 33.2681 12.19 27.2922C7.19089 21.3162 13.7988 22.5804 16.7867 20.2241C19.7747 17.8679 20.4067 29.1306 23.7395 20.2241C27.0722 11.3177 31.4967 14.7074 31.5542 14.7074C31.6116 14.7074 32.7608 18.5575 35.0593 15.5695C37.3577 12.5815 40.3457 18.1553 41.4949 18.2702C42.6441 18.3851 41.8971 15.0522 46.3988 14.7074C50.9005 14.3627 50.976 21.2585 46.0918 24.4763C41.2076 27.6941 36.4385 21.8905 27.7046 23.4416Z" fill="url(#paint1_linear_16892_8403)"/>
<path d="M9.87357 36.7638C7.26536 33.1659 5.57856 34.1071 5.06118 34.3572C3.139 35.9675 1.41041 41.7066 9.87357 51.7801C15.182 60.3234 40.8666 59.623 45.0288 58.1187C50.1408 56.2712 53.6833 52.9582 59.6696 44.3139C65.6558 35.6696 64.1085 27.473 61.5272 25.1926C59.4622 23.3683 56.5513 26.9651 56.2855 28.1299C57.9932 28.8297 61.616 29.8439 59.0079 30.6834C55.7479 31.7328 47.9857 26.1867 52.5654 30.6839C57.145 35.1811 51.5563 40.1604 42.1642 42.9336C32.772 45.7069 28.5805 35.1472 28.7357 40.9935C28.8909 46.8399 13.1338 41.2611 9.87357 36.7638Z" fill="url(#paint2_linear_16892_8403)"/>
<path d="M7.70609 31.9117C4.40123 35.5364 6.42679 21.4639 10.1046 27.9139C13.3168 30.054 21.7946 33.8497 30.008 31.9117C40.2748 29.4891 41.026 31.1168 41.0886 29.0509C41.1512 26.985 47.9749 26.5468 49.1643 24.5436C50.3538 22.5403 52.1693 18.5955 51.6684 17.8443C51.1676 17.0931 59.3059 16.4679 56.927 21.476C54.5481 26.4842 50.5416 24.5608 50.2286 28.2362C49.9156 31.9117 40.9634 36.3745 33.7642 33.3696C26.5649 30.3647 28.4964 36.3139 21.5947 35.6859C17.0109 35.2688 16.751 35.6859 11.7499 32.5602C9.61777 31.2276 11.011 28.2869 7.70609 31.9117Z" fill="url(#paint3_linear_16892_8403)"/>
<path d="M31.8956 34.0124C21.3649 39.4338 10.8263 34.2516 8.82812 31.7972C10.718 39.3559 23.3366 41.8635 23.3366 41.8635C23.3366 41.8635 26.7273 40.7596 30.0501 39.1119C41.4536 44.9767 51.6196 38.0039 52.8702 34.7457C53.8707 32.1391 53.1693 31.0151 51.7708 31.7972C46.9226 36.6975 36.5006 35.3158 31.8956 34.0124Z" fill="url(#paint4_linear_16892_8403)"/>
</g>
<defs>
<linearGradient id="paint0_linear_16892_8403" x1="32.6294" y1="61.7612" x2="49.6299" y2="12.3486" gradientUnits="userSpaceOnUse">
<stop stop-color="#FFEB7F"/>
<stop offset="1" stop-color="#FFF1A7"/>
</linearGradient>
<linearGradient id="paint1_linear_16892_8403" x1="30.0713" y1="14.0742" x2="31.5425" y2="26.939" gradientUnits="userSpaceOnUse">
<stop stop-color="#FFEE8E"/>
<stop offset="1" stop-color="#FFD53D"/>
</linearGradient>
<linearGradient id="paint2_linear_16892_8403" x1="39.0692" y1="60.566" x2="31.7914" y2="38.2914" gradientUnits="userSpaceOnUse">
<stop stop-color="#FFEE95" stop-opacity="0"/>
<stop offset="1" stop-color="#FFD53D"/>
</linearGradient>
<linearGradient id="paint3_linear_16892_8403" x1="18.978" y1="31.9581" x2="17.4525" y2="37.7193" gradientUnits="userSpaceOnUse">
<stop stop-color="#FFD948"/>
<stop offset="1" stop-color="#FFED8D"/>
</linearGradient>
<linearGradient id="paint4_linear_16892_8403" x1="31.9947" y1="42.2674" x2="31.9947" y2="32.6933" gradientUnits="userSpaceOnUse">
<stop stop-color="#FFEF9A"/>
<stop offset="1" stop-color="#FFD743"/>
</linearGradient>
<clipPath id="clip0_16892_8403">
<rect width="67" height="67" fill="white"/>
</clipPath>
</defs>
</svg>
