<svg width="24" height="24" viewBox="0 0 24 24" fill="none" xmlns="http://www.w3.org/2000/svg">
<g clip-path="url(#clip0_156_3714)">
<path d="M17.5717 1.65234H6.42883C3.7914 1.65234 1.65332 3.79042 1.65332 6.42785V17.5707C1.65332 20.2082 3.7914 22.3462 6.42883 22.3462H17.5717C20.2092 22.3462 22.3472 20.2082 22.3472 17.5707V6.42785C22.3472 3.79042 20.2092 1.65234 17.5717 1.65234Z" stroke="black" stroke-width="2" stroke-linecap="round" stroke-linejoin="round"/>
<g clip-path="url(#clip1_156_3714)">
<path fill-rule="evenodd" clip-rule="evenodd" d="M9.44923 6.92986C10.2897 6.99076 11.1654 7.40046 12.0038 8.22963C12.8419 7.40069 13.7168 6.99177 14.5565 6.93223C15.5042 6.86502 16.3419 7.24803 16.9481 7.85233C18.1398 9.04045 18.514 11.1903 17.0353 12.6691C17.0303 12.6741 17.0252 12.679 17.0199 12.6837L12.2915 16.9668C12.1282 17.1147 11.8793 17.1147 11.716 16.9668L6.98754 12.6837C6.98232 12.679 6.97721 12.6741 6.97222 12.6691C5.48574 11.1826 5.85797 9.03249 7.0536 7.8453C7.66122 7.24195 8.50069 6.86113 9.44923 6.92986Z" fill="black"/>
</g>
</g>
<defs>
<clipPath id="clip0_156_3714">
<rect width="24" height="24" fill="white"/>
</clipPath>
<clipPath id="clip1_156_3714">
<rect width="12" height="12" fill="white" transform="translate(6 6)"/>
</clipPath>
</defs>
</svg>
