<svg width="55" height="12" viewBox="0 0 55 12" fill="none" xmlns="http://www.w3.org/2000/svg">
<path d="M44.4788 11.271C44.2882 11.271 44.1278 11.2363 43.9978 11.167C43.8678 11.1063 43.7595 11.024 43.6728 10.92C43.5948 10.816 43.5342 10.6947 43.4908 10.556C43.4562 10.426 43.4388 10.2917 43.4388 10.153V6.487H44.2188V7.735H53.5918V0H54.3588V11.271H44.4788ZM44.2188 9.75C44.2188 9.87133 44.2188 9.97967 44.2188 10.075C44.2275 10.179 44.2535 10.2657 44.2968 10.335C44.3488 10.4043 44.4225 10.4563 44.5178 10.491C44.6132 10.5257 44.7518 10.543 44.9338 10.543H53.5918V8.463H44.2188V9.75ZM50.0038 0.728H46.9098V1.287C46.9098 1.911 47.0138 2.483 47.2218 3.003C47.4385 3.523 47.7592 3.94767 48.1838 4.277C48.4785 4.50233 48.7905 4.66267 49.1198 4.758C49.4578 4.85333 49.7915 4.91833 50.1208 4.953V5.694C49.6875 5.65067 49.2715 5.56833 48.8728 5.447C48.4828 5.32567 48.1188 5.14367 47.7808 4.901C47.1742 4.46767 46.7408 3.874 46.4808 3.12C46.2208 3.874 45.7875 4.46767 45.1808 4.901C44.8428 5.14367 44.4745 5.32567 44.0758 5.447C43.6858 5.56833 43.2742 5.65067 42.8408 5.694V4.953C43.1702 4.91833 43.4995 4.85333 43.8288 4.758C44.1668 4.66267 44.4832 4.50233 44.7778 4.277C45.2025 3.94767 45.5188 3.523 45.7268 3.003C45.9435 2.483 46.0518 1.911 46.0518 1.287V0.728H42.8928V0H50.0038V0.728Z" fill="white"/>
<path d="M40.1888 0C40.9688 0 41.3588 0.416 41.3588 1.248V5.252H29.8408V4.524H33.6888V1.651C33.6888 1.46033 33.6802 1.30867 33.6628 1.196C33.6455 1.07467 33.6065 0.979334 33.5458 0.910001C33.4852 0.840667 33.3985 0.793 33.2858 0.767C33.1818 0.741 33.0388 0.728 32.8568 0.728H30.1008V0H33.2988C34.0788 0 34.4688 0.416 34.4688 1.248V4.524H36.2368V2.834H36.9648V4.524H40.5788V1.651C40.5788 1.46033 40.5702 1.30867 40.5528 1.196C40.5355 1.07467 40.4965 0.979334 40.4358 0.910001C40.3752 0.840667 40.2885 0.793 40.1758 0.767C40.0718 0.741 39.9288 0.728 39.7468 0.728H35.3138V0H40.1888ZM41.3588 8.151H35.9898C35.9898 8.385 36.0375 8.59733 36.1328 8.788C36.2282 8.97867 36.3538 9.152 36.5098 9.308C36.6745 9.464 36.8608 9.60267 37.0688 9.724C37.2855 9.854 37.5108 9.971 37.7448 10.075C38.0222 10.1963 38.3168 10.2873 38.6288 10.348C38.9408 10.4087 39.2528 10.452 39.5648 10.478C39.8855 10.5127 40.1975 10.53 40.5008 10.53C40.8042 10.5387 41.0902 10.543 41.3588 10.543V11.284C41.2635 11.284 41.1465 11.284 41.0078 11.284C40.8778 11.284 40.7392 11.284 40.5918 11.284C40.4445 11.284 40.2972 11.2797 40.1498 11.271C40.0112 11.271 39.8855 11.2667 39.7728 11.258C39.4088 11.232 39.0145 11.1757 38.5898 11.089C38.1738 11.011 37.7708 10.8897 37.3808 10.725C36.9995 10.569 36.6572 10.3827 36.3538 10.166C36.0505 9.94933 35.8035 9.685 35.6128 9.373C35.4222 9.685 35.1708 9.94933 34.8588 10.166C34.5468 10.3827 34.2002 10.569 33.8188 10.725C33.4288 10.8897 33.0215 11.011 32.5968 11.089C32.1808 11.1757 31.7908 11.232 31.4268 11.258C31.3142 11.2667 31.1842 11.271 31.0368 11.271C30.8982 11.2797 30.7552 11.284 30.6078 11.284C30.4605 11.284 30.3175 11.284 30.1788 11.284C30.0488 11.284 29.9362 11.284 29.8408 11.284V10.543C30.1095 10.543 30.3955 10.5387 30.6988 10.53C31.0022 10.53 31.3098 10.5127 31.6218 10.478C31.9425 10.452 32.2588 10.4087 32.5708 10.348C32.8828 10.2873 33.1775 10.1963 33.4548 10.075C33.6888 9.971 33.9098 9.854 34.1178 9.724C34.3345 9.60267 34.5208 9.464 34.6768 9.308C34.8415 9.152 34.9715 8.97867 35.0668 8.788C35.1622 8.59733 35.2098 8.385 35.2098 8.151H29.8408V7.423H35.2098V6.305H35.9898V7.423H41.3588V8.151Z" fill="white"/>
<path d="M15.2528 4.251C14.9235 4.251 14.6288 4.199 14.3688 4.095C14.1088 3.98233 13.8878 3.83067 13.7058 3.64C13.5238 3.44933 13.3808 3.224 13.2768 2.964C13.1815 2.704 13.1338 2.42667 13.1338 2.132C13.1338 1.83733 13.1815 1.56 13.2768 1.3C13.3808 1.04 13.5238 0.814667 13.7058 0.624C13.8878 0.433334 14.1088 0.281667 14.3688 0.169C14.6288 0.0563334 14.9235 0 15.2528 0H22.5328C22.8621 0 23.1568 0.0563334 23.4168 0.169C23.6768 0.281667 23.8978 0.433334 24.0798 0.624C24.2618 0.814667 24.4005 1.04 24.4958 1.3C24.5998 1.56 24.6518 1.83733 24.6518 2.132C24.6518 2.42667 24.5998 2.704 24.4958 2.964C24.4005 3.224 24.2618 3.44933 24.0798 3.64C23.8978 3.83067 23.6768 3.98233 23.4168 4.095C23.1568 4.199 22.8621 4.251 22.5328 4.251H15.2528ZM24.6518 11.271H14.3038C13.5238 11.271 13.1338 10.855 13.1338 10.023V7.475H24.6518V11.271ZM22.4938 3.523C22.9531 3.523 23.2998 3.38867 23.5338 3.12C23.7678 2.85133 23.8848 2.522 23.8848 2.132C23.8848 1.742 23.7678 1.41267 23.5338 1.144C23.2998 0.866667 22.9531 0.728 22.4938 0.728H15.2918C14.8325 0.728 14.4858 0.866667 14.2518 1.144C14.0178 1.41267 13.9008 1.742 13.9008 2.132C13.9008 2.522 14.0178 2.85133 14.2518 3.12C14.4858 3.38867 14.8325 3.523 15.2918 3.523H22.4938ZM13.9008 9.62C13.9008 9.81067 13.9095 9.96233 13.9268 10.075C13.9441 10.1963 13.9831 10.2917 14.0438 10.361C14.1045 10.4303 14.1868 10.478 14.2908 10.504C14.4035 10.53 14.5508 10.543 14.7328 10.543H23.8978V8.203H13.9008V9.62ZM24.6518 6.175H13.1338V5.447H24.6518V6.175Z" fill="white"/>
<path d="M1.157 10.205C0.385667 10.205 0 9.789 0 8.957V0H7.293V10.205H1.157ZM0.767 8.554C0.767 8.74467 0.775667 8.90067 0.793 9.022C0.819 9.13467 0.858 9.22567 0.91 9.295C0.970667 9.36433 1.053 9.412 1.157 9.438C1.26967 9.464 1.417 9.477 1.599 9.477H6.526V0.728H0.767V8.554ZM11.804 4.667H10.647V11.271H9.88V0H10.647V3.939H11.804V4.667Z" fill="white"/>
</svg>
