<svg width="24" height="24" viewBox="0 0 24 24" fill="none" xmlns="http://www.w3.org/2000/svg">
<path d="M21 11.9169C21.0013 11.7247 20.9626 11.5344 20.8863 11.358C20.81 11.1816 20.6978 11.023 20.5569 10.8923L12 3L3.44311 10.8923C3.30219 11.023 3.19002 11.1816 3.11374 11.358C3.03745 11.5344 2.99873 11.7247 3.00003 11.9169V19.6154C3.00003 19.9826 3.14591 20.3348 3.40558 20.5944C3.66524 20.854 4.01743 21 4.38464 21H19.6154C19.9825 21 20.3348 20.854 20.5944 20.5944C20.8542 20.3348 21 19.9826 21 19.6154V11.9169Z" stroke="black" stroke-width="2" stroke-linecap="round" stroke-linejoin="round"/>
<path d="M12 20.9994V15.4609" stroke="black" stroke-width="2" stroke-linecap="round" stroke-linejoin="round"/>
</svg>
