<svg width="26" height="26" viewBox="0 0 26 26" fill="none" xmlns="http://www.w3.org/2000/svg">
<path d="M19.8261 7.41929C19.8261 8.11701 19.2679 8.67519 18.5702 8.67519C17.8725 8.67519 17.3143 8.11701 17.3143 7.41929C17.3143 6.72157 17.8725 6.16339 18.5702 6.16339C19.2679 6.16339 19.8261 6.72157 19.8261 7.41929ZM23.4542 13.0011C23.4542 15.8384 23.4426 16.1989 23.3961 17.3153C23.3496 18.4316 23.1635 19.1875 22.9077 19.8503C22.6402 20.5364 22.2797 21.1179 21.6983 21.6993C21.1169 22.2807 20.5354 22.6412 19.8493 22.9087C19.1865 23.1645 18.419 23.3389 17.3143 23.3971C16.1979 23.4436 15.8375 23.4552 13.0001 23.4552C10.1627 23.4552 9.80218 23.4436 8.68583 23.3971C7.56948 23.3506 6.81362 23.1645 6.15078 22.9087C5.46469 22.6412 4.88326 22.2807 4.30183 21.6993C3.72039 21.1179 3.3599 20.5364 3.09245 19.8503C2.83661 19.1875 2.66218 18.42 2.60404 17.3153C2.55753 16.1989 2.5459 15.8384 2.5459 13.0011C2.5459 10.1637 2.55753 9.80317 2.60404 8.68681C2.65056 7.57046 2.83661 6.8146 3.09245 6.15176C3.3599 5.46567 3.72039 4.88424 4.30183 4.3028C4.88326 3.72137 5.46469 3.36088 6.15078 3.09342C6.81362 2.83759 7.58111 2.66316 8.68583 2.60502C9.80218 2.5585 10.1627 2.54688 13.0001 2.54688C15.8375 2.54688 16.1979 2.5585 17.3143 2.60502C18.4306 2.65153 19.1865 2.83759 19.8493 3.09342C20.5354 3.36088 21.1169 3.72137 21.6983 4.3028C22.2797 4.88424 22.6402 5.46567 22.9077 6.15176C23.1635 6.8146 23.3379 7.58209 23.3961 8.68681C23.4426 9.80317 23.4542 10.1637 23.4542 13.0011ZM21.5704 13.0011C21.5704 10.2102 21.5704 9.87294 21.5122 8.76821C21.4657 7.74489 21.2913 7.19834 21.1518 6.82623C20.9657 6.33782 20.7331 5.98896 20.3726 5.62847C20.0121 5.26798 19.6633 5.03541 19.1749 4.84935C18.8028 4.70981 18.2562 4.53538 17.2329 4.48886C16.1282 4.44235 15.8026 4.43072 13.0001 4.43072C10.1976 4.43072 9.87195 4.43072 8.76723 4.48886C7.74391 4.53538 7.19736 4.70981 6.82524 4.84935C6.33684 5.03541 5.98798 5.26798 5.62749 5.62847C5.267 5.98896 5.03443 6.33782 4.84837 6.82623C4.70883 7.19834 4.5344 7.74489 4.48788 8.76821C4.44137 9.87294 4.42974 10.1985 4.42974 13.0011C4.42974 15.8036 4.42974 16.1292 4.48788 17.2339C4.5344 18.2572 4.70883 18.8038 4.84837 19.1759C5.03443 19.6643 5.267 20.0131 5.62749 20.3736C5.98798 20.7341 6.33684 20.9667 6.82524 21.1528C7.19736 21.2923 7.74391 21.4667 8.76723 21.5132C9.87195 21.5598 10.1976 21.5714 13.0001 21.5714C15.8026 21.5714 16.1282 21.5714 17.2329 21.5132C18.2562 21.4667 18.8028 21.2923 19.1749 21.1528C19.6633 20.9667 20.0121 20.7341 20.3726 20.3736C20.7331 20.0131 20.9657 19.6643 21.1518 19.1759C21.2913 18.8038 21.4657 18.2572 21.5122 17.2339C21.5588 16.1292 21.5704 15.8036 21.5704 13.0011ZM18.3609 13.0011C18.3609 15.9664 15.9537 18.3735 12.9884 18.3735C10.0231 18.3735 7.61599 15.9664 7.61599 13.0011C7.61599 10.0357 10.0231 7.6286 12.9884 7.6286C15.9537 7.6286 18.3609 10.0357 18.3609 13.0011ZM16.477 13.0011C16.477 11.0707 14.9188 9.51245 12.9884 9.51245C11.0581 9.51245 9.49984 11.0707 9.49984 13.0011C9.49984 14.9314 11.0581 16.4897 12.9884 16.4897C14.9188 16.4897 16.477 14.9314 16.477 13.0011Z" fill="#B986A0"/>
</svg>
