<svg width="24" height="24" viewBox="0 0 24 24" fill="none" xmlns="http://www.w3.org/2000/svg">
<path fill-rule="evenodd" clip-rule="evenodd" d="M11.9998 3.1543C6.79527 3.1543 2.57129 6.43544 2.57129 10.4709C2.57129 12.9883 4.20243 15.1852 6.69156 16.524L5.64499 20.3614C5.62525 20.4378 5.62931 20.5183 5.65664 20.5923C5.68397 20.6662 5.73326 20.73 5.79789 20.7752C5.86253 20.8203 5.93943 20.8446 6.01827 20.8448C6.09711 20.845 6.17413 20.8211 6.23899 20.7763L10.8213 17.7309C11.2078 17.7309 11.6038 17.7969 11.9998 17.7969C17.2044 17.7969 21.4284 14.5157 21.4284 10.4709C21.4284 6.42601 17.2044 3.1543 11.9998 3.1543Z" fill="black"/>
</svg>
