<svg width="28" height="28" viewBox="0 0 28 28" fill="none" xmlns="http://www.w3.org/2000/svg">
<path fill-rule="evenodd" clip-rule="evenodd" d="M8.04787 1.02044C10.0088 1.17635 12.0522 2.22522 14.0082 4.34799C15.9637 2.22581 18.0052 1.17894 19.9644 1.0265C22.1755 0.854436 24.1302 1.83499 25.5445 3.38205C28.325 6.42376 29.1982 11.9277 25.7479 15.7136C25.7363 15.7263 25.7243 15.7388 25.7121 15.7509L14.6795 26.7161C14.2985 27.0946 13.7179 27.0946 13.3369 26.7161L2.30417 15.7509C2.29197 15.7388 2.28005 15.7263 2.26841 15.7136C-1.1999 11.908 -0.331393 6.4034 2.45829 3.36406C3.87601 1.81944 5.8347 0.844496 8.04787 1.02044Z" fill="black"/>
<path d="M13.9229 9C14.3807 9.00013 14.752 9.37126 14.752 9.8291V12.9434H18.1709C18.6287 12.9434 18.9998 13.3138 19 13.7715C19 14.2294 18.6288 14.6006 18.1709 14.6006H14.752V18.1709C14.752 18.6287 14.3807 18.9999 13.9229 19C13.4649 19 13.0938 18.6288 13.0938 18.1709V14.6006H9.8291C9.37118 14.6006 9 14.2294 9 13.7715C9.00022 13.3138 9.37132 12.9434 9.8291 12.9434H13.0938V9.8291C13.0938 9.37118 13.4649 9 13.9229 9Z" fill="white"/>
</svg>
