<svg width="24" height="24" viewBox="0 0 24 24" fill="none" xmlns="http://www.w3.org/2000/svg">
<path fill-rule="evenodd" clip-rule="evenodd" d="M17.8999 2.35156C16.0222 2.35156 14.5 3.87379 14.5 5.75156C14.5 6.01827 14.5307 6.2778 14.5887 6.52681L8.8516 9.64483C8.23295 9.00117 7.36325 8.60059 6.39999 8.60059C4.52223 8.60059 3 10.1228 3 12.0006C3 13.8784 4.52223 15.4006 6.39999 15.4006C7.36261 15.4006 8.2318 15.0005 8.85037 14.3576L14.5885 17.4762C14.5306 17.725 14.5 17.9842 14.5 18.2506C14.5 20.1284 16.0222 21.6506 17.8999 21.6506C19.7777 21.6506 21.2999 20.1284 21.2999 18.2506C21.2999 16.3728 19.7777 14.8506 17.8999 14.8506C16.9367 14.8506 16.067 15.2512 15.4483 15.8948L9.71099 12.7767C9.7692 12.5274 9.79997 12.2676 9.79997 12.0006C9.79997 11.7342 9.76934 11.475 9.7114 11.2262L15.4489 8.10796C16.0676 8.75125 16.937 9.15156 17.8999 9.15156C19.7777 9.15156 21.2999 7.62933 21.2999 5.75156C21.2999 3.87379 19.7777 2.35156 17.8999 2.35156ZM16.2999 5.75156C16.2999 4.86791 17.0163 4.15156 17.8999 4.15156C18.7836 4.15156 19.4999 4.86791 19.4999 5.75156C19.4999 6.63522 18.7836 7.35156 17.8999 7.35156C17.0163 7.35156 16.2999 6.63522 16.2999 5.75156ZM4.79999 12.0006C4.79999 11.1169 5.51633 10.4006 6.39999 10.4006C7.28364 10.4006 7.99998 11.1169 7.99998 12.0006C7.99998 12.8842 7.28364 13.6006 6.39999 13.6006C5.51633 13.6006 4.79999 12.8842 4.79999 12.0006ZM16.2999 18.2506C16.2999 17.3669 17.0163 16.6506 17.8999 16.6506C18.7836 16.6506 19.4999 17.3669 19.4999 18.2506C19.4999 19.1342 18.7836 19.8506 17.8999 19.8506C17.0163 19.8506 16.2999 19.1342 16.2999 18.2506Z" fill="#171719"/>
</svg>
