<svg width="328" height="618" viewBox="0 0 328 618" fill="none" xmlns="http://www.w3.org/2000/svg">
<path d="M164.738 537.295C163.094 537.147 162.725 538.564 163.453 539.496C161.89 539.455 162.26 540.737 162.554 541.078C162.849 541.419 163.13 542.297 161.791 542.62C160.453 542.942 157.837 546.925 164.488 554.309C170.808 561.327 180.372 565.676 194.745 560.965C211.76 555.388 210.066 536.923 209.816 530.475C209.566 524.026 207.907 526.111 206.886 524.886C204.36 521.858 203.017 528.348 203.462 524.992C203.907 521.636 201.623 520.038 198.27 520.471C196.865 520.652 197.72 523.714 195.566 521.267C193.412 518.819 189.661 520.927 188.87 521.16C188.078 521.393 188.773 523.267 186.298 521.917C183.822 520.567 182.984 522.104 182.204 522.62C181.425 523.137 182.178 525.208 179.834 523.82C177.49 522.431 174.178 525.055 173.934 527.636C173.739 529.7 171.681 530.855 170.676 531.175C165.484 531.358 163.808 534.869 164.738 537.295Z" fill="url(#paint0_linear_17150_8133)" stroke="#FFC500" stroke-width="1.02301"/>
<ellipse cx="184.189" cy="534.916" rx="4.9315" ry="2.08498" transform="rotate(-16.4055 184.189 534.916)" fill="#FFD53D"/>
<path d="M178.787 533.233C173.759 535.738 178.314 538.067 181.22 538.919C181.284 539.136 172.999 543.046 167.867 539.626C162.735 536.206 168.035 535.688 169.777 533.231C171.52 530.774 174.518 539.185 175.057 531.677C175.597 524.168 179.714 525.753 179.758 525.74C179.801 525.728 181.535 528.394 182.612 525.611C183.69 522.829 187.205 526.393 188.103 526.223C189.001 526.054 187.689 523.69 191.03 522.422C194.372 521.153 195.971 526.373 192.981 529.908C189.992 533.444 185.073 530.103 178.787 533.233Z" fill="url(#paint1_linear_17150_8133)"/>
<path d="M168.227 547.337C165.442 545.188 164.372 546.279 164.035 546.585C162.935 548.238 162.906 552.982 171.585 558.739C177.526 564.04 196.873 557.766 199.697 555.693C203.166 553.147 205.115 549.839 207.728 541.937C210.342 534.034 207.334 528.156 204.864 527.002C202.888 526.078 201.482 529.46 201.54 530.404C202.994 530.554 205.971 530.514 204.179 531.734C201.938 533.26 194.804 530.784 199.287 533.175C203.77 535.566 200.639 540.597 194.127 544.803C187.615 549.008 182.071 541.927 183.496 546.332C184.921 550.736 171.709 550.023 168.227 547.337Z" fill="url(#paint2_linear_17150_8133)"/>
<path d="M165.496 544.135C163.797 547.626 162.189 536.487 166.424 540.563C169.342 541.47 176.628 542.457 182.432 539.149C189.686 535.014 190.62 536.082 190.206 534.499C189.792 532.917 194.875 531.058 195.331 529.271C195.786 527.484 196.283 524.083 195.735 523.624C195.186 523.166 201.226 520.871 200.54 525.206C199.853 529.541 196.381 528.976 196.965 531.837C197.549 534.698 191.748 540.089 185.61 539.416C179.471 538.744 182.268 542.83 176.887 543.896C173.313 544.604 173.209 544.979 168.712 543.723C166.795 543.188 167.196 540.644 165.496 544.135Z" fill="url(#paint3_linear_17150_8133)"/>
<path d="M184.334 540.322C177.55 546.793 168.388 545.214 166.322 543.797C169.447 549.114 179.59 548.197 179.59 548.197C179.59 548.197 181.918 546.601 184.073 544.607C194.043 546.511 200.204 538.943 200.425 536.189C200.602 533.986 199.818 533.29 198.931 534.196C196.345 539.001 188.122 540.282 184.334 540.322Z" fill="url(#paint4_linear_17150_8133)"/>
<mask id="path-7-inside-1_17150_8133" fill="white">
<path fill-rule="evenodd" clip-rule="evenodd" d="M131.45 501.523C135.547 503.252 137.467 507.975 135.739 512.072L129.914 525.877C129.821 526.098 129.717 526.311 129.607 526.519L143.121 532.22C147.274 533.973 149.22 538.76 147.468 542.913C145.716 547.066 140.928 549.012 136.775 547.26L122.783 541.356C122.576 541.269 122.376 541.172 122.181 541.07L116.397 554.777C114.676 558.857 109.972 560.769 105.892 559.047C101.812 557.326 99.9001 552.622 101.622 548.542L107.422 534.796C107.571 534.443 107.744 534.107 107.935 533.787L94.0139 528.281C89.7527 526.596 87.664 521.775 89.3496 517.514C91.0351 513.252 95.8564 511.165 100.118 512.851L114.474 518.529C114.781 518.65 115.076 518.789 115.36 518.942L120.9 505.811C122.629 501.714 127.352 499.794 131.45 501.523ZM118.394 530.742C118.397 530.743 118.4 530.745 118.403 530.746C118.409 530.73 118.414 530.714 118.421 530.698C118.412 530.712 118.403 530.727 118.394 530.742Z"/>
</mask>
<path fill-rule="evenodd" clip-rule="evenodd" d="M131.45 501.523C135.547 503.252 137.467 507.975 135.739 512.072L129.914 525.877C129.821 526.098 129.717 526.311 129.607 526.519L143.121 532.22C147.274 533.973 149.22 538.76 147.468 542.913C145.716 547.066 140.928 549.012 136.775 547.26L122.783 541.356C122.576 541.269 122.376 541.172 122.181 541.07L116.397 554.777C114.676 558.857 109.972 560.769 105.892 559.047C101.812 557.326 99.9001 552.622 101.622 548.542L107.422 534.796C107.571 534.443 107.744 534.107 107.935 533.787L94.0139 528.281C89.7527 526.596 87.664 521.775 89.3496 517.514C91.0351 513.252 95.8564 511.165 100.118 512.851L114.474 518.529C114.781 518.65 115.076 518.789 115.36 518.942L120.9 505.811C122.629 501.714 127.352 499.794 131.45 501.523ZM118.394 530.742C118.397 530.743 118.4 530.745 118.403 530.746C118.409 530.73 118.414 530.714 118.421 530.698C118.412 530.712 118.403 530.727 118.394 530.742Z" fill="#FF596A"/>
<path d="M131.45 501.523L131.782 500.736L131.782 500.736L131.45 501.523ZM135.739 512.072L136.525 512.404L136.525 512.404L135.739 512.072ZM129.914 525.877L130.7 526.209L129.914 525.877ZM129.607 526.519L128.853 526.119L128.417 526.943L129.275 527.305L129.607 526.519ZM143.121 532.22L143.452 531.434V531.434L143.121 532.22ZM147.468 542.913L148.255 543.244L148.255 543.244L147.468 542.913ZM136.775 547.26L136.443 548.046V548.046L136.775 547.26ZM122.783 541.356L122.451 542.142V542.142L122.783 541.356ZM122.181 541.07L122.575 540.313L121.754 539.886L121.394 540.738L122.181 541.07ZM116.397 554.777L117.184 555.109V555.109L116.397 554.777ZM105.892 559.047L105.56 559.834L105.56 559.834L105.892 559.047ZM101.622 548.542L102.408 548.874V548.874L101.622 548.542ZM107.422 534.796L106.635 534.464L106.635 534.464L107.422 534.796ZM107.935 533.787L108.668 534.226L109.184 533.363L108.249 532.994L107.935 533.787ZM94.0139 528.281L93.7 529.075L93.7 529.075L94.0139 528.281ZM89.3496 517.514L88.5558 517.2L88.5558 517.2L89.3496 517.514ZM100.118 512.851L99.8037 513.644L99.8038 513.644L100.118 512.851ZM114.474 518.529L114.788 517.735L114.788 517.735L114.474 518.529ZM115.36 518.942L114.956 519.693L115.782 520.137L116.146 519.273L115.36 518.942ZM120.9 505.811L120.113 505.48L120.113 505.48L120.9 505.811ZM118.394 530.742L117.676 530.28L117.161 531.081L118.013 531.506L118.394 530.742ZM118.403 530.746L118.021 531.51L118.844 531.921L119.193 531.07L118.403 530.746ZM118.421 530.698L119.209 531.026L117.7 530.24L118.421 530.698ZM131.45 501.523L131.118 502.309C134.781 503.855 136.498 508.078 134.952 511.741L135.739 512.072L136.525 512.404C138.437 507.873 136.313 502.648 131.782 500.736L131.45 501.523ZM135.739 512.072L134.952 511.741L129.127 525.545L129.914 525.877L130.7 526.209L136.525 512.404L135.739 512.072ZM129.914 525.877L129.127 525.545C129.046 525.738 128.954 525.929 128.853 526.119L129.607 526.519L130.362 526.918C130.48 526.693 130.596 526.457 130.7 526.209L129.914 525.877ZM129.607 526.519L129.275 527.305L142.789 533.007L143.121 532.22L143.452 531.434L129.939 525.732L129.607 526.519ZM143.121 532.22L142.789 533.007C146.507 534.576 148.25 538.862 146.682 542.581L147.468 542.913L148.255 543.244C150.19 538.657 148.04 533.369 143.452 531.434L143.121 532.22ZM147.468 542.913L146.682 542.581C145.113 546.299 140.826 548.042 137.107 546.473L136.775 547.26L136.443 548.046C141.031 549.982 146.319 547.832 148.255 543.244L147.468 542.913ZM136.775 547.26L137.107 546.473L123.115 540.569L122.783 541.356L122.451 542.142L136.443 548.046L136.775 547.26ZM122.783 541.356L123.115 540.569C122.935 540.493 122.756 540.407 122.575 540.313L122.181 541.07L121.787 541.827C121.996 541.936 122.218 542.044 122.451 542.142L122.783 541.356ZM122.181 541.07L121.394 540.738L115.611 554.445L116.397 554.777L117.184 555.109L122.967 541.402L122.181 541.07ZM116.397 554.777L115.611 554.445C114.073 558.091 109.87 559.799 106.224 558.261L105.892 559.047L105.56 559.834C110.075 561.739 115.279 559.623 117.184 555.109L116.397 554.777ZM105.892 559.047L106.224 558.261C102.578 556.723 100.87 552.52 102.408 548.874L101.622 548.542L100.835 548.211C98.9303 552.725 101.046 557.929 105.56 559.834L105.892 559.047ZM101.622 548.542L102.408 548.874L108.208 535.128L107.422 534.796L106.635 534.464L100.835 548.211L101.622 548.542ZM107.422 534.796L108.208 535.128C108.34 534.814 108.495 534.514 108.668 534.226L107.935 533.787L107.203 533.349C106.993 533.7 106.801 534.071 106.635 534.464L107.422 534.796ZM107.935 533.787L108.249 532.994L94.3279 527.488L94.0139 528.281L93.7 529.075L107.621 534.581L107.935 533.787ZM94.0139 528.281L94.3279 527.488C90.5049 525.975 88.6312 521.65 90.1433 517.828L89.3496 517.514L88.5558 517.2C86.6968 521.899 89.0004 527.216 93.7 529.075L94.0139 528.281ZM89.3496 517.514L90.1433 517.828C91.6554 514.005 95.9807 512.132 99.8037 513.644L100.118 512.851L100.432 512.057C95.7322 510.198 90.4148 512.5 88.5558 517.2L89.3496 517.514ZM100.118 512.851L99.8038 513.644L114.16 519.322L114.474 518.529L114.788 517.735L100.432 512.057L100.118 512.851ZM114.474 518.529L114.16 519.322C114.434 519.431 114.699 519.555 114.956 519.693L115.36 518.942L115.764 518.19C115.453 518.023 115.128 517.869 114.788 517.735L114.474 518.529ZM115.36 518.942L116.146 519.273L121.686 506.143L120.9 505.811L120.113 505.48L114.573 518.61L115.36 518.942ZM120.9 505.811L121.686 506.143C123.232 502.48 127.455 500.764 131.118 502.309L131.45 501.523L131.782 500.736C127.25 498.824 122.026 500.948 120.113 505.48L120.9 505.811ZM118.394 530.742L118.013 531.506C118 531.499 117.99 531.494 117.985 531.491C117.982 531.489 117.979 531.488 117.978 531.487C117.977 531.486 117.976 531.486 117.977 531.486C117.977 531.486 117.978 531.487 117.98 531.488C117.982 531.489 117.985 531.491 117.989 531.493C117.996 531.497 118.007 531.503 118.021 531.51L118.403 530.746L118.785 529.983C118.797 529.989 118.807 529.994 118.813 529.998C118.815 529.999 118.818 530 118.819 530.001C118.82 530.002 118.821 530.002 118.82 530.002C118.82 530.002 118.818 530.001 118.817 530C118.815 529.999 118.812 529.997 118.808 529.995C118.801 529.991 118.789 529.985 118.775 529.978L118.394 530.742ZM118.403 530.746L119.193 531.07C119.199 531.054 119.204 531.041 119.207 531.032C119.211 531.023 119.214 531.015 119.215 531.012C119.216 531.008 119.216 531.008 119.215 531.01C119.215 531.012 119.212 531.018 119.209 531.026L118.421 530.698L117.633 530.37C117.626 530.386 117.621 530.399 117.617 530.41C117.614 530.42 117.61 530.428 117.609 530.432C117.607 530.438 117.607 530.437 117.607 530.437C117.608 530.435 117.61 530.43 117.613 530.423L118.403 530.746ZM118.421 530.698L117.7 530.24C117.695 530.25 117.69 530.258 117.686 530.264C117.682 530.27 117.679 530.276 117.677 530.278C117.672 530.286 117.674 530.284 117.676 530.28L118.394 530.742L119.112 531.204C119.124 531.185 119.134 531.168 119.138 531.161C119.144 531.151 119.143 531.153 119.142 531.155L118.421 530.698Z" fill="#F60000" mask="url(#path-7-inside-1_17150_8133)"/>
<circle cx="118.51" cy="530.345" r="7.45401" transform="rotate(33.6391 118.51 530.345)" fill="#FFBCBC"/>
<circle cx="118.365" cy="530.302" r="4.96912" transform="rotate(33.6391 118.365 530.302)" fill="#543824"/>
<g opacity="0.7">
<path d="M303.734 415.646L301.459 408.645L297.018 414.516C294.856 417.379 290.584 419.445 285.068 420.316C290.008 422.946 293.357 426.295 294.463 429.707L296.738 436.707L301.179 430.836C303.341 427.974 307.613 425.908 313.129 425.036C308.202 422.408 304.84 419.058 303.734 415.646Z" fill="white"/>
</g>
<g opacity="0.4">
<path d="M43.3318 487.686L41.338 485.137L40.3881 488.231C39.9262 489.739 38.4725 491.235 36.3255 492.426C38.7619 492.768 40.6493 493.647 41.6201 494.89L43.6139 497.438L44.5639 494.345C45.0257 492.837 46.4794 491.34 48.6265 490.15C46.1956 489.806 44.3026 488.929 43.3318 487.686Z" fill="white"/>
</g>
<g opacity="0.4">
<path d="M11.402 607.021L11.4486 603.785L8.76804 605.598C7.46235 606.482 5.39128 606.736 2.97249 606.316C4.65485 608.111 5.57326 609.979 5.54949 611.556L5.50292 614.792L8.18345 612.979C9.48914 612.095 11.5602 611.841 13.979 612.261C12.3016 610.469 11.3782 608.598 11.402 607.021Z" fill="white"/>
</g>
<g opacity="0.4">
<path d="M316.332 72.6861L314.338 70.1374L313.388 73.2308C312.926 74.7386 311.473 76.2354 309.325 77.4259C311.762 77.7683 313.649 78.6469 314.62 79.8897L316.614 82.4384L317.564 79.345C318.026 77.8372 319.479 76.3404 321.626 75.1499C319.196 74.8065 317.303 73.9289 316.332 72.6861Z" fill="white"/>
</g>
<path d="M39.1345 333.407L36.2097 329.669L34.8163 334.206C34.1388 336.418 32.0063 338.614 28.8568 340.36C32.4309 340.862 35.1995 342.151 36.6236 343.974L39.5484 347.713L40.9418 343.175C41.6193 340.964 43.7518 338.768 46.9013 337.021C43.3354 336.518 40.5586 335.23 39.1345 333.407Z" fill="#ED83A3"/>
<path d="M298.926 255.553L298.119 252.42L296.01 254.874C294.983 256.071 293.052 256.86 290.608 257.092C292.703 258.381 294.081 259.942 294.473 261.469L295.28 264.603L297.389 262.149C298.416 260.952 300.347 260.162 302.791 259.931C300.701 258.643 299.318 257.081 298.926 255.553Z" fill="#FED8E1"/>
<g opacity="0.4">
<path d="M322.074 586.105L320.434 583.315L319.084 586.255C318.426 587.689 316.787 588.98 314.502 589.876C316.872 590.538 318.626 591.658 319.424 593.018L321.063 595.809L322.414 592.868C323.071 591.435 324.71 590.143 326.996 589.247C324.632 588.585 322.871 587.465 322.074 586.105Z" fill="#ED83A3"/>
</g>
<g opacity="0.4">
<path d="M258.2 10.76L257.516 4.46064L252.74 8.62501C250.414 10.656 246.45 11.6442 241.649 11.4065C245.348 14.493 247.58 17.9043 247.911 20.9743L248.595 27.2737L253.37 23.1093C255.696 21.0783 259.661 20.0901 264.462 20.3278C260.773 17.2453 258.531 13.83 258.2 10.76Z" fill="#ED83A3"/>
</g>
<g opacity="0.4">
<path d="M80.326 235.611L79.1549 231.061L76.093 234.624C74.602 236.362 71.7979 237.508 68.2495 237.844C71.292 239.716 73.2923 241.982 73.8615 244.2L75.0327 248.75L78.0946 245.186C79.5855 243.449 82.3896 242.302 85.9381 241.966C82.9036 240.097 80.8952 237.829 80.326 235.611Z" fill="white"/>
</g>
<mask id="path-20-inside-2_17150_8133" fill="white">
<path fill-rule="evenodd" clip-rule="evenodd" d="M230.827 350.477C235.226 351.031 238.343 355.047 237.789 359.446L237.023 365.518L241.525 362.241C245.109 359.632 250.131 360.422 252.74 364.007C255.349 367.591 254.56 372.612 250.975 375.222L245.601 379.134L252.191 379.965C256.589 380.519 259.706 384.535 259.152 388.934C258.598 393.332 254.582 396.449 250.183 395.894L246.104 395.38C248.574 398.782 248.005 403.563 244.72 406.278C241.303 409.103 236.242 408.622 233.418 405.205L231.154 402.467L230.425 408.251C229.871 412.65 225.855 415.766 221.456 415.212C217.058 414.657 213.942 410.642 214.496 406.244L215.145 401.092L213.015 402.643C209.431 405.252 204.41 404.462 201.8 400.878C199.191 397.294 199.982 392.273 203.566 389.663L204.531 388.96L198.926 388.383C194.516 387.928 191.31 383.983 191.764 379.573C192.219 375.163 196.164 371.957 200.574 372.412L208.071 373.184L203.303 367.417C200.478 363.999 200.957 358.939 204.375 356.114C207.792 353.29 212.852 353.77 215.677 357.187L221.069 363.709L221.859 357.439C222.413 353.04 226.428 349.923 230.827 350.477ZM224.681 380.591C225.156 380.894 225.604 381.25 226.016 381.658C226.298 381.492 226.589 381.345 226.884 381.217C226.104 381.112 225.365 380.897 224.681 380.591Z"/>
</mask>
<path fill-rule="evenodd" clip-rule="evenodd" d="M230.827 350.477C235.226 351.031 238.343 355.047 237.789 359.446L237.023 365.518L241.525 362.241C245.109 359.632 250.131 360.422 252.74 364.007C255.349 367.591 254.56 372.612 250.975 375.222L245.601 379.134L252.191 379.965C256.589 380.519 259.706 384.535 259.152 388.934C258.598 393.332 254.582 396.449 250.183 395.894L246.104 395.38C248.574 398.782 248.005 403.563 244.72 406.278C241.303 409.103 236.242 408.622 233.418 405.205L231.154 402.467L230.425 408.251C229.871 412.65 225.855 415.766 221.456 415.212C217.058 414.657 213.942 410.642 214.496 406.244L215.145 401.092L213.015 402.643C209.431 405.252 204.41 404.462 201.8 400.878C199.191 397.294 199.982 392.273 203.566 389.663L204.531 388.96L198.926 388.383C194.516 387.928 191.31 383.983 191.764 379.573C192.219 375.163 196.164 371.957 200.574 372.412L208.071 373.184L203.303 367.417C200.478 363.999 200.957 358.939 204.375 356.114C207.792 353.29 212.852 353.77 215.677 357.187L221.069 363.709L221.859 357.439C222.413 353.04 226.428 349.923 230.827 350.477ZM224.681 380.591C225.156 380.894 225.604 381.25 226.016 381.658C226.298 381.492 226.589 381.345 226.884 381.217C226.104 381.112 225.365 380.897 224.681 380.591Z" fill="#F7F199"/>
<path d="M230.827 350.477L230.952 349.485L230.952 349.485L230.827 350.477ZM237.023 365.518L236.031 365.393L235.742 367.688L237.612 366.327L237.023 365.518ZM241.525 362.241L242.114 363.049L242.114 363.049L241.525 362.241ZM252.74 364.007L253.548 363.418L253.548 363.418L252.74 364.007ZM250.975 375.222L251.564 376.03L251.564 376.03L250.975 375.222ZM245.601 379.134L245.013 378.326L242.973 379.811L245.476 380.126L245.601 379.134ZM252.191 379.965L252.316 378.972V378.972L252.191 379.965ZM259.152 388.934L260.144 389.059L260.144 389.059L259.152 388.934ZM250.183 395.894L250.308 394.902V394.902L250.183 395.894ZM246.104 395.38L246.229 394.388L243.938 394.099L245.295 395.968L246.104 395.38ZM244.72 406.278L245.357 407.049L245.357 407.049L244.72 406.278ZM233.418 405.205L232.647 405.842L232.647 405.842L233.418 405.205ZM231.154 402.467L231.925 401.83L230.451 400.047L230.162 402.342L231.154 402.467ZM230.425 408.251L231.418 408.376L231.418 408.376L230.425 408.251ZM221.456 415.212L221.331 416.204L221.331 416.204L221.456 415.212ZM214.496 406.244L213.504 406.119L213.504 406.119L214.496 406.244ZM215.145 401.092L216.137 401.217L216.426 398.922L214.556 400.284L215.145 401.092ZM213.015 402.643L213.604 403.451L213.604 403.451L213.015 402.643ZM201.8 400.878L200.992 401.467L200.992 401.467L201.8 400.878ZM203.566 389.663L204.155 390.472L204.155 390.471L203.566 389.663ZM204.531 388.96L205.12 389.768L207.226 388.232L204.633 387.965L204.531 388.96ZM198.926 388.383L198.824 389.377L198.824 389.377L198.926 388.383ZM191.764 379.573L190.77 379.471L190.77 379.471L191.764 379.573ZM200.574 372.412L200.471 373.406L200.471 373.406L200.574 372.412ZM208.071 373.184L207.969 374.179L210.398 374.429L208.842 372.547L208.071 373.184ZM203.303 367.417L202.532 368.054L202.532 368.054L203.303 367.417ZM204.375 356.114L203.737 355.344L203.737 355.344L204.375 356.114ZM215.677 357.187L216.448 356.55L216.448 356.55L215.677 357.187ZM221.069 363.709L220.298 364.347L221.772 366.129L222.061 363.835L221.069 363.709ZM224.681 380.591L225.088 379.678L224.143 381.435L224.681 380.591ZM226.016 381.658L225.311 382.368L225.859 382.912L226.524 382.52L226.016 381.658ZM226.884 381.217L227.284 382.133L230.566 380.703L227.018 380.226L226.884 381.217ZM230.827 350.477L230.702 351.469C234.553 351.955 237.282 355.47 236.796 359.321L237.789 359.446L238.781 359.571C239.404 354.625 235.899 350.108 230.952 349.485L230.827 350.477ZM237.789 359.446L236.796 359.321L236.031 365.393L237.023 365.518L238.016 365.643L238.781 359.571L237.789 359.446ZM237.023 365.518L237.612 366.327L242.114 363.049L241.525 362.241L240.937 361.433L236.435 364.71L237.023 365.518ZM241.525 362.241L242.114 363.049C245.251 360.765 249.647 361.457 251.932 364.595L252.74 364.007L253.548 363.418C250.614 359.387 244.967 358.498 240.937 361.433L241.525 362.241ZM252.74 364.007L251.932 364.595C254.216 367.733 253.524 372.129 250.387 374.413L250.975 375.222L251.564 376.03C255.595 373.096 256.483 367.449 253.548 363.418L252.74 364.007ZM250.975 375.222L250.387 374.413L245.013 378.326L245.601 379.134L246.19 379.943L251.564 376.03L250.975 375.222ZM245.601 379.134L245.476 380.126L252.066 380.957L252.191 379.965L252.316 378.972L245.726 378.142L245.601 379.134ZM252.191 379.965L252.066 380.957C255.916 381.442 258.645 384.958 258.16 388.809L259.152 388.934L260.144 389.059C260.768 384.112 257.262 379.596 252.316 378.972L252.191 379.965ZM259.152 388.934L258.16 388.809C257.675 392.659 254.159 395.387 250.308 394.902L250.183 395.894L250.058 396.886C255.005 397.51 259.521 394.006 260.144 389.059L259.152 388.934ZM250.183 395.894L250.308 394.902L246.229 394.388L246.104 395.38L245.979 396.372L250.058 396.886L250.183 395.894ZM246.104 395.38L245.295 395.968C247.457 398.945 246.958 403.13 244.083 405.507L244.72 406.278L245.357 407.049C249.052 403.995 249.692 398.619 246.913 394.793L246.104 395.38ZM244.72 406.278L244.083 405.507C241.091 407.98 236.661 407.559 234.188 404.568L233.418 405.205L232.647 405.842C235.824 409.685 241.514 410.225 245.357 407.049L244.72 406.278ZM233.418 405.205L234.188 404.568L231.925 401.83L231.154 402.467L230.384 403.104L232.647 405.842L233.418 405.205ZM231.154 402.467L230.162 402.342L229.433 408.126L230.425 408.251L231.418 408.376L232.147 402.592L231.154 402.467ZM230.425 408.251L229.433 408.126C228.948 411.977 225.432 414.705 221.581 414.22L221.456 415.212L221.331 416.204C226.278 416.827 230.794 413.323 231.418 408.376L230.425 408.251ZM221.456 415.212L221.581 414.22C217.731 413.734 215.003 410.22 215.488 406.369L214.496 406.244L213.504 406.119C212.88 411.065 216.385 415.58 221.331 416.204L221.456 415.212ZM214.496 406.244L215.488 406.369L216.137 401.217L215.145 401.092L214.153 400.967L213.504 406.119L214.496 406.244ZM215.145 401.092L214.556 400.284L212.427 401.834L213.015 402.643L213.604 403.451L215.734 401.901L215.145 401.092ZM213.015 402.643L212.427 401.834C209.289 404.119 204.893 403.427 202.609 400.29L201.8 400.878L200.992 401.467C203.927 405.498 209.573 406.386 213.604 403.451L213.015 402.643ZM201.8 400.878L202.609 400.29C200.325 397.152 201.017 392.756 204.155 390.472L203.566 389.663L202.978 388.855C198.947 391.789 198.057 397.436 200.992 401.467L201.8 400.878ZM203.566 389.663L204.155 390.471L205.12 389.768L204.531 388.96L203.942 388.152L202.977 388.855L203.566 389.663ZM204.531 388.96L204.633 387.965L199.029 387.388L198.926 388.383L198.824 389.377L204.428 389.955L204.531 388.96ZM198.926 388.383L199.029 387.388C195.168 386.99 192.361 383.537 192.759 379.676L191.764 379.573L190.77 379.471C190.258 384.43 193.864 388.866 198.824 389.377L198.926 388.383ZM191.764 379.573L192.759 379.676C193.157 375.815 196.61 373.008 200.471 373.406L200.574 372.412L200.676 371.417C195.717 370.905 191.281 374.511 190.77 379.471L191.764 379.573ZM200.574 372.412L200.471 373.406L207.969 374.179L208.071 373.184L208.174 372.189L200.676 371.417L200.574 372.412ZM208.071 373.184L208.842 372.547L204.073 366.779L203.303 367.417L202.532 368.054L207.3 373.821L208.071 373.184ZM203.303 367.417L204.073 366.78C201.6 363.788 202.02 359.358 205.012 356.885L204.375 356.114L203.737 355.344C199.895 358.52 199.355 364.211 202.532 368.054L203.303 367.417ZM204.375 356.114L205.012 356.885C208.003 354.412 212.433 354.833 214.906 357.824L215.677 357.187L216.448 356.55C213.271 352.708 207.58 352.167 203.737 355.344L204.375 356.114ZM215.677 357.187L214.906 357.824L220.298 364.347L221.069 363.709L221.839 363.072L216.448 356.55L215.677 357.187ZM221.069 363.709L222.061 363.835L222.851 357.564L221.859 357.439L220.867 357.314L220.077 363.584L221.069 363.709ZM221.859 357.439L222.851 357.564C223.336 353.713 226.851 350.984 230.702 351.469L230.827 350.477L230.952 349.485C226.005 348.862 221.49 352.367 220.867 357.314L221.859 357.439ZM224.681 380.591L224.143 381.435C224.56 381.7 224.952 382.011 225.311 382.368L226.016 381.658L226.72 380.949C226.257 380.489 225.753 380.089 225.218 379.748L224.681 380.591ZM226.016 381.658L226.524 382.52C226.768 382.375 227.022 382.247 227.284 382.133L226.884 381.217L226.485 380.3C226.155 380.443 225.828 380.608 225.507 380.797L226.016 381.658ZM226.884 381.217L227.018 380.226C226.334 380.133 225.687 379.946 225.088 379.678L224.681 380.591L224.273 381.505C225.044 381.849 225.875 382.09 226.751 382.208L226.884 381.217Z" fill="#F6C100" mask="url(#path-20-inside-2_17150_8133)"/>
<circle cx="225.64" cy="382.783" r="8.73234" transform="rotate(17.9452 225.64 382.783)" fill="#CE9600"/>
<circle cx="225.463" cy="382.781" r="5.8213" transform="rotate(17.9452 225.463 382.781)" fill="#543824"/>
<mask id="path-24-inside-3_17150_8133" fill="white">
<path d="M143.416 276.28C152.303 277.762 158.306 286.169 156.825 295.057C156.574 296.56 156.124 297.98 155.509 299.296C158.046 298.384 160.845 298.09 163.694 298.565C172.581 300.047 178.585 308.453 177.103 317.341C175.924 324.411 170.363 329.656 163.663 330.759C165.179 333.753 165.789 337.238 165.195 340.801C163.713 349.689 155.306 355.693 146.418 354.211C140.31 353.193 135.564 348.904 133.674 343.435C130.112 347.995 124.231 350.513 118.123 349.495C109.235 348.013 103.231 339.606 104.713 330.718C105.287 327.273 106.902 324.261 109.182 321.951C102.709 318.93 98.7663 311.874 99.9983 304.485C101.48 295.597 109.887 289.594 118.775 291.076C120.835 291.419 122.739 292.136 124.432 293.143C124.379 292.01 124.445 290.854 124.639 289.69C126.121 280.802 134.528 274.798 143.416 276.28Z"/>
</mask>
<path d="M143.416 276.28C152.303 277.762 158.306 286.169 156.825 295.057C156.574 296.56 156.124 297.98 155.509 299.296C158.046 298.384 160.845 298.09 163.694 298.565C172.581 300.047 178.585 308.453 177.103 317.341C175.924 324.411 170.363 329.656 163.663 330.759C165.179 333.753 165.789 337.238 165.195 340.801C163.713 349.689 155.306 355.693 146.418 354.211C140.31 353.193 135.564 348.904 133.674 343.435C130.112 347.995 124.231 350.513 118.123 349.495C109.235 348.013 103.231 339.606 104.713 330.718C105.287 327.273 106.902 324.261 109.182 321.951C102.709 318.93 98.7663 311.874 99.9983 304.485C101.48 295.597 109.887 289.594 118.775 291.076C120.835 291.419 122.739 292.136 124.432 293.143C124.379 292.01 124.445 290.854 124.639 289.69C126.121 280.802 134.528 274.798 143.416 276.28Z" fill="#2BAFFF"/>
<path d="M143.416 276.28L143.593 275.214L143.593 275.214L143.416 276.28ZM156.825 295.057L157.891 295.235L157.891 295.235L156.825 295.057ZM155.509 299.296L154.53 298.837L153.429 301.191L155.874 300.313L155.509 299.296ZM163.694 298.565L163.871 297.499L163.871 297.499L163.694 298.565ZM177.103 317.341L178.169 317.518L178.169 317.518L177.103 317.341ZM163.663 330.759L163.488 329.693L162.033 329.932L162.699 331.248L163.663 330.759ZM165.195 340.801L166.261 340.979L166.261 340.979L165.195 340.801ZM146.418 354.211L146.24 355.278L146.24 355.278L146.418 354.211ZM133.674 343.435L134.696 343.082L134.046 341.203L132.822 342.77L133.674 343.435ZM118.123 349.495L117.945 350.561L117.945 350.561L118.123 349.495ZM104.713 330.718L103.647 330.54L103.647 330.54L104.713 330.718ZM109.182 321.951L109.951 322.71L111.027 321.619L109.639 320.971L109.182 321.951ZM99.9983 304.485L98.932 304.307L98.932 304.307L99.9983 304.485ZM118.775 291.076L118.953 290.009L118.952 290.009L118.775 291.076ZM124.432 293.143L123.879 294.072L125.604 295.098L125.512 293.093L124.432 293.143ZM124.639 289.69L123.573 289.513L123.573 289.513L124.639 289.69ZM143.416 276.28L143.238 277.347C151.536 278.731 157.142 286.58 155.758 294.879L156.825 295.057L157.891 295.235C159.471 285.758 153.07 276.794 143.593 275.214L143.416 276.28ZM156.825 295.057L155.758 294.879C155.524 296.284 155.104 297.609 154.53 298.837L155.509 299.296L156.488 299.754C157.145 298.35 157.624 296.836 157.891 295.235L156.825 295.057ZM155.509 299.296L155.874 300.313C158.242 299.463 160.854 299.188 163.516 299.632L163.694 298.565L163.871 297.499C160.836 296.993 157.85 297.306 155.144 298.278L155.509 299.296ZM163.694 298.565L163.516 299.632C171.815 301.015 177.42 308.864 176.037 317.163L177.103 317.341L178.169 317.518C179.749 308.042 173.348 299.079 163.871 297.499L163.694 298.565ZM177.103 317.341L176.037 317.163C174.936 323.763 169.745 328.662 163.488 329.693L163.663 330.759L163.839 331.826C170.981 330.65 176.912 325.059 178.169 317.518L177.103 317.341ZM163.663 330.759L162.699 331.248C164.114 334.043 164.683 337.295 164.128 340.623L165.195 340.801L166.261 340.979C166.894 337.181 166.244 333.463 164.628 330.271L163.663 330.759ZM165.195 340.801L164.128 340.623C162.745 348.922 154.895 354.529 146.596 353.145L146.418 354.211L146.24 355.278C155.717 356.858 164.681 350.456 166.261 340.979L165.195 340.801ZM146.418 354.211L146.596 353.145C140.894 352.194 136.462 348.191 134.696 343.082L133.674 343.435L132.652 343.789C134.667 349.616 139.726 354.191 146.24 355.278L146.418 354.211ZM133.674 343.435L132.822 342.77C129.494 347.03 124.003 349.379 118.301 348.428L118.123 349.495L117.945 350.561C124.46 351.647 130.73 348.96 134.526 344.101L133.674 343.435ZM118.123 349.495L118.301 348.428C110.002 347.045 104.396 339.195 105.779 330.896L104.713 330.718L103.647 330.54C102.067 340.017 108.468 348.981 117.945 350.561L118.123 349.495ZM104.713 330.718L105.779 330.896C106.316 327.678 107.823 324.867 109.951 322.71L109.182 321.951L108.412 321.191C105.981 323.655 104.259 326.869 103.647 330.54L104.713 330.718ZM109.182 321.951L109.639 320.971C103.595 318.15 99.9145 311.561 101.065 304.663L99.9983 304.485L98.932 304.307C97.618 312.188 101.824 319.71 108.724 322.93L109.182 321.951ZM99.9983 304.485L101.065 304.663C102.449 296.364 110.298 290.758 118.597 292.142L118.775 291.076L118.952 290.009C109.476 288.429 100.512 294.83 98.932 304.307L99.9983 304.485ZM118.775 291.076L118.597 292.142C120.522 292.463 122.299 293.132 123.879 294.072L124.432 293.143L124.984 292.214C123.179 291.139 121.147 290.375 118.953 290.009L118.775 291.076ZM124.432 293.143L125.512 293.093C125.463 292.036 125.524 290.956 125.705 289.868L124.639 289.69L123.573 289.513C123.366 290.752 123.296 291.984 123.352 293.193L124.432 293.143ZM124.639 289.69L125.705 289.868C127.089 281.569 134.939 275.963 143.238 277.347L143.416 276.28L143.593 275.214C134.117 273.634 125.153 280.036 123.573 289.513L124.639 289.69Z" fill="#2A91CF" mask="url(#path-24-inside-3_17150_8133)"/>
<circle cx="137.371" cy="316.898" r="12.7294" transform="rotate(9.46593 137.371 316.898)" fill="#8BC4E6"/>
<path d="M140.939 296.59L140.928 313.602L157.938 313.868L141.756 319.115L146.759 335.374L136.768 321.605L122.851 331.387L132.858 317.631L119.254 307.418L135.43 312.685L140.939 296.59Z" fill="#FFD359"/>
<mask id="path-28-inside-4_17150_8133" fill="white">
<path fill-rule="evenodd" clip-rule="evenodd" d="M144.922 389.031C152.109 393.48 154.84 402.185 152.201 409.67C159.225 410.104 165.664 414.792 167.854 422.064C171.049 432.669 163.684 443.53 152.649 444.485L152.378 444.508L152.493 444.755C157.183 454.79 151.46 466.598 140.678 469.134C133.607 470.797 126.64 467.911 122.646 462.523C117.206 468.59 107.902 470.314 100.458 465.705C93.2711 461.254 90.539 452.547 93.1799 445.061C86.1559 444.628 79.7161 439.941 77.5255 432.67C74.3305 422.064 81.6958 411.203 92.7311 410.247L93.0007 410.223L92.8871 409.981C88.197 399.946 93.9205 388.137 104.703 385.601C111.773 383.938 118.74 386.823 122.735 392.21C128.175 386.145 137.479 384.422 144.922 389.031Z"/>
</mask>
<path fill-rule="evenodd" clip-rule="evenodd" d="M144.922 389.031C152.109 393.48 154.84 402.185 152.201 409.67C159.225 410.104 165.664 414.792 167.854 422.064C171.049 432.669 163.684 443.53 152.649 444.485L152.378 444.508L152.493 444.755C157.183 454.79 151.46 466.598 140.678 469.134C133.607 470.797 126.64 467.911 122.646 462.523C117.206 468.59 107.902 470.314 100.458 465.705C93.2711 461.254 90.539 452.547 93.1799 445.061C86.1559 444.628 79.7161 439.941 77.5255 432.67C74.3305 422.064 81.6958 411.203 92.7311 410.247L93.0007 410.223L92.8871 409.981C88.197 399.946 93.9205 388.137 104.703 385.601C111.773 383.938 118.74 386.823 122.735 392.21C128.175 386.145 137.479 384.422 144.922 389.031Z" fill="#FFA4C7"/>
<path d="M144.922 389.031L145.609 387.921L145.609 387.921L144.922 389.031ZM152.201 409.67L150.97 409.236L150.396 410.866L152.12 410.972L152.201 409.67ZM167.854 422.064L169.103 421.687L169.103 421.687L167.854 422.064ZM152.649 444.485L152.758 445.786L152.762 445.785L152.649 444.485ZM152.378 444.508L152.269 443.208L150.402 443.364L151.196 445.061L152.378 444.508ZM152.493 444.755L153.675 444.203L153.675 444.203L152.493 444.755ZM140.678 469.134L140.977 470.404L140.977 470.404L140.678 469.134ZM122.646 462.523L123.694 461.746L122.742 460.462L121.674 461.652L122.646 462.523ZM100.458 465.705L99.7716 466.814L99.7716 466.814L100.458 465.705ZM93.1799 445.061L94.4103 445.496L94.9854 443.866L93.2603 443.759L93.1799 445.061ZM77.5255 432.67L76.2762 433.046L76.2762 433.046L77.5255 432.67ZM92.7311 410.247L92.8437 411.547L92.845 411.547L92.7311 410.247ZM93.0007 410.223L93.1146 411.523L94.9738 411.36L94.1823 409.67L93.0007 410.223ZM92.8871 409.981L91.7051 410.533L91.7055 410.534L92.8871 409.981ZM104.703 385.601L104.404 384.331L104.404 384.331L104.703 385.601ZM122.735 392.21L121.687 392.988L122.639 394.272L123.706 393.082L122.735 392.21ZM144.922 389.031L144.236 390.14C150.882 394.255 153.413 402.309 150.97 409.236L152.201 409.67L153.431 410.104C156.267 402.062 153.336 392.705 145.609 387.921L144.922 389.031ZM152.201 409.67L152.12 410.972C158.624 411.374 164.579 415.715 166.605 422.44L167.854 422.064L169.103 421.687C166.748 413.869 159.825 408.833 152.281 408.368L152.201 409.67ZM167.854 422.064L166.605 422.44C169.561 432.253 162.747 442.301 152.537 443.186L152.649 444.485L152.762 445.785C164.622 444.758 172.537 433.086 169.103 421.687L167.854 422.064ZM152.649 444.485L152.541 443.185L152.269 443.208L152.378 444.508L152.486 445.808L152.758 445.786L152.649 444.485ZM152.378 444.508L151.196 445.061L151.311 445.308L152.493 444.755L153.675 444.203L153.56 443.956L152.378 444.508ZM152.493 444.755L151.311 445.308C155.651 454.592 150.356 465.518 140.379 467.864L140.678 469.134L140.977 470.404C152.565 467.679 158.716 454.988 153.675 444.203L152.493 444.755ZM140.678 469.134L140.379 467.864C133.84 469.402 127.393 466.736 123.694 461.746L122.646 462.523L121.597 463.3C125.887 469.086 133.374 472.192 140.977 470.404L140.678 469.134ZM122.646 462.523L121.674 461.652C116.639 467.268 108.029 468.858 101.145 464.595L100.458 465.705L99.7716 466.814C107.776 471.77 117.773 469.911 123.617 463.394L122.646 462.523ZM100.458 465.705L101.145 464.595C94.498 460.479 91.966 452.424 94.4103 445.496L93.1799 445.061L91.9495 444.627C89.1119 452.67 92.0442 462.029 99.7716 466.814L100.458 465.705ZM93.1799 445.061L93.2603 443.759C86.7559 443.358 80.8007 439.018 78.7748 432.293L77.5255 432.67L76.2762 433.046C78.6315 440.864 85.5558 445.898 93.0996 446.364L93.1799 445.061ZM77.5255 432.67L78.7748 432.293C75.8186 422.481 82.6334 412.431 92.8437 411.547L92.7311 410.247L92.6185 408.947C80.7583 409.974 72.8423 421.648 76.2762 433.046L77.5255 432.67ZM92.7311 410.247L92.845 411.547L93.1146 411.523L93.0007 410.223L92.8868 408.924L92.6172 408.947L92.7311 410.247ZM93.0007 410.223L94.1823 409.67L94.0687 409.427L92.8871 409.981L91.7055 410.534L91.8191 410.777L93.0007 410.223ZM92.8871 409.981L94.0691 409.428C89.7296 400.144 95.0253 389.217 105.002 386.871L104.703 385.601L104.404 384.331C92.8158 387.056 86.6643 399.748 91.7051 410.533L92.8871 409.981ZM104.703 385.601L105.002 386.871C111.541 385.333 117.987 387.999 121.687 392.988L122.735 392.21L123.783 391.433C119.493 385.648 112.006 382.543 104.404 384.331L104.703 385.601ZM122.735 392.21L123.706 393.082C128.742 387.467 137.352 385.878 144.236 390.14L144.922 389.031L145.609 387.921C137.606 382.966 127.607 384.823 121.764 391.339L122.735 392.21Z" fill="#FF5C9A" mask="url(#path-28-inside-4_17150_8133)"/>
<mask id="path-30-inside-5_17150_8133" fill="white">
<path fill-rule="evenodd" clip-rule="evenodd" d="M122.775 383.052C131.223 383.312 137.942 389.485 139.399 397.287C145.698 394.151 153.618 394.992 159.151 400.193C167.221 407.78 166.273 420.868 157.194 427.214L156.972 427.368L157.194 427.522C166.273 433.867 167.221 446.956 159.151 454.544C153.859 459.519 146.383 460.504 140.23 457.836C138.552 465.809 131.356 471.955 122.605 471.685C114.156 471.425 107.437 465.25 105.981 457.448C99.6811 460.585 91.7601 459.746 86.227 454.544C78.157 446.956 79.1049 433.867 88.184 427.522L88.4047 427.368L88.184 427.214C79.105 420.868 78.1571 407.78 86.227 400.193C91.5192 395.217 98.9964 394.231 105.15 396.9C106.827 388.927 114.024 382.782 122.775 383.052Z"/>
</mask>
<path fill-rule="evenodd" clip-rule="evenodd" d="M122.775 383.052C131.223 383.312 137.942 389.485 139.399 397.287C145.698 394.151 153.618 394.992 159.151 400.193C167.221 407.78 166.273 420.868 157.194 427.214L156.972 427.368L157.194 427.522C166.273 433.867 167.221 446.956 159.151 454.544C153.859 459.519 146.383 460.504 140.23 457.836C138.552 465.809 131.356 471.955 122.605 471.685C114.156 471.425 107.437 465.25 105.981 457.448C99.6811 460.585 91.7601 459.746 86.227 454.544C78.157 446.956 79.1049 433.867 88.184 427.522L88.4047 427.368L88.184 427.214C79.105 420.868 78.1571 407.78 86.227 400.193C91.5192 395.217 98.9964 394.231 105.15 396.9C106.827 388.927 114.024 382.782 122.775 383.052Z" fill="#FFCDE0"/>
<path d="M122.775 383.052L122.812 381.858L122.812 381.858L122.775 383.052ZM139.399 397.287L138.225 397.506L138.515 399.06L139.931 398.356L139.399 397.287ZM159.151 400.193L159.969 399.323L159.969 399.323L159.151 400.193ZM157.194 427.214L157.876 428.194L157.878 428.192L157.194 427.214ZM156.972 427.368L156.29 426.388L154.882 427.368L156.29 428.348L156.972 427.368ZM157.194 427.522L157.878 426.544L157.876 426.542L157.194 427.522ZM159.151 454.544L159.969 455.414L159.969 455.414L159.151 454.544ZM140.23 457.836L140.705 456.74L139.363 456.158L139.062 457.59L140.23 457.836ZM122.605 471.685L122.568 472.879H122.568L122.605 471.685ZM105.981 457.448L107.155 457.229L106.864 455.674L105.449 456.379L105.981 457.448ZM86.227 454.544L85.4091 455.414L85.4092 455.414L86.227 454.544ZM88.184 427.522L88.8679 428.501L88.8681 428.501L88.184 427.522ZM88.4047 427.368L89.0888 428.346L90.4884 427.368L89.0888 426.389L88.4047 427.368ZM88.184 427.214L88.8681 426.235L88.8679 426.235L88.184 427.214ZM86.227 400.193L85.4091 399.323L85.4091 399.323L86.227 400.193ZM105.15 396.9L104.675 397.995L106.017 398.578L106.318 397.146L105.15 396.9ZM122.775 383.052L122.738 384.245C130.606 384.487 136.868 390.236 138.225 397.506L139.399 397.287L140.572 397.068C139.016 388.734 131.841 382.137 122.812 381.858L122.775 383.052ZM139.399 397.287L139.931 398.356C145.804 395.432 153.181 396.219 158.333 401.063L159.151 400.193L159.969 399.323C154.056 393.764 145.593 392.869 138.867 396.218L139.399 397.287ZM159.151 400.193L158.333 401.063C165.851 408.131 164.968 420.324 156.51 426.235L157.194 427.214L157.878 428.192C167.578 421.413 168.591 407.43 159.969 399.323L159.151 400.193ZM157.194 427.214L156.512 426.234L156.29 426.388L156.972 427.368L157.654 428.348L157.876 428.194L157.194 427.214ZM156.972 427.368L156.29 428.348L156.512 428.502L157.194 427.522L157.876 426.542L157.654 426.388L156.972 427.368ZM157.194 427.522L156.51 428.501C164.968 434.412 165.851 446.606 158.333 453.674L159.151 454.544L159.969 455.414C168.591 447.307 167.578 433.323 157.878 426.544L157.194 427.522ZM159.151 454.544L158.333 453.674C153.405 458.307 146.442 459.228 140.705 456.74L140.23 457.836L139.755 458.931C146.324 461.78 154.313 460.731 159.969 455.414L159.151 454.544ZM140.23 457.836L139.062 457.59C137.498 465.022 130.791 470.743 122.642 470.492L122.605 471.685L122.568 472.879C131.922 473.167 139.607 466.597 141.398 458.081L140.23 457.836ZM122.605 471.685L122.642 470.492C114.774 470.249 108.512 464.5 107.155 457.229L105.981 457.448L104.807 457.667C106.363 466.001 113.538 472.6 122.568 472.879L122.605 471.685ZM105.981 457.448L105.449 456.379C99.5755 459.304 92.1973 458.518 87.0448 453.674L86.227 454.544L85.4092 455.414C91.3228 460.973 99.7867 461.867 106.513 458.517L105.981 457.448ZM86.227 454.544L87.0448 453.674C79.5269 446.606 80.41 434.412 88.8679 428.501L88.184 427.522L87.5001 426.544C77.7999 433.323 76.7871 447.307 85.4091 455.414L86.227 454.544ZM88.184 427.522L88.8681 428.501L89.0888 428.346L88.4047 427.368L87.7206 426.389L87.4999 426.544L88.184 427.522ZM88.4047 427.368L89.0888 426.389L88.8681 426.235L88.184 427.214L87.4999 428.192L87.7206 428.346L88.4047 427.368ZM88.184 427.214L88.8679 426.235C80.41 420.324 79.527 408.131 87.0448 401.063L86.227 400.193L85.4091 399.323C76.7873 407.43 77.8 421.413 87.5001 428.192L88.184 427.214ZM86.227 400.193L87.0448 401.063C91.9732 396.429 98.9376 395.507 104.675 397.995L105.15 396.9L105.625 395.805C99.0553 392.955 91.0652 394.006 85.4091 399.323L86.227 400.193ZM105.15 396.9L106.318 397.146C107.882 389.714 114.589 383.994 122.738 384.245L122.775 383.052L122.812 381.858C113.458 381.57 105.773 388.139 103.981 396.654L105.15 396.9Z" fill="#FF5C9A" mask="url(#path-30-inside-5_17150_8133)"/>
<path fill-rule="evenodd" clip-rule="evenodd" d="M122.734 404.711C127.065 404.845 130.507 408.011 131.252 412.01C134.481 410.401 138.542 410.831 141.378 413.498C145.514 417.386 145.028 424.093 140.375 427.345L140.262 427.424L140.375 427.503C145.028 430.755 145.514 437.464 141.378 441.352C138.665 443.903 134.832 444.406 131.678 443.037C130.819 447.124 127.134 450.275 122.648 450.137C118.317 450.004 114.874 446.839 114.128 442.839C110.9 444.448 106.839 444.018 104.003 441.352C99.8676 437.464 100.354 430.755 105.006 427.503L105.119 427.424L105.006 427.345C100.354 424.093 99.8681 417.386 104.003 413.498C106.716 410.947 110.549 410.443 113.703 411.811C114.562 407.724 118.248 404.573 122.734 404.711Z" fill="#FF9DC2"/>
<path fill-rule="evenodd" clip-rule="evenodd" d="M122.706 418.97C124.276 419.019 125.522 420.166 125.791 421.616C126.961 421.033 128.432 421.189 129.459 422.155C130.958 423.564 130.782 425.994 129.096 427.172L129.055 427.2L129.096 427.229C130.782 428.407 130.958 430.837 129.459 432.246C128.477 433.169 127.089 433.352 125.947 432.857C125.635 434.337 124.3 435.478 122.675 435.428C121.107 435.38 119.86 434.233 119.589 432.785C118.42 433.367 116.949 433.212 115.921 432.246C114.423 430.837 114.599 428.407 116.285 427.229L116.325 427.2L116.285 427.172C114.599 425.994 114.423 423.564 115.921 422.155C116.903 421.232 118.291 421.049 119.433 421.544C119.744 420.062 121.081 418.92 122.706 418.97Z" fill="#FFDD81"/>
<mask id="path-34-inside-6_17150_8133" fill="white">
<path fill-rule="evenodd" clip-rule="evenodd" d="M221.653 455.579C225.74 454.089 230.458 455.17 233.794 458.338C237.455 461.815 238.802 467.141 237.146 471.707L236.017 474.821L238.228 472.787C242.204 469.131 248.037 468.529 252.584 471.272C256.164 473.432 258.391 477.37 258.427 481.649C258.472 487.105 255.004 491.989 249.906 493.651L243.456 495.753C246.228 496.68 248.601 498.802 249.83 501.632C251.244 504.89 250.899 508.59 248.91 511.323C246.454 514.697 242.029 515.934 237.987 514.377L228.291 510.643L222.978 519.57C220.763 523.292 216.518 525.055 212.503 523.92C209.25 523.002 206.692 520.305 205.79 516.87C205.011 513.904 205.554 510.788 207.138 508.352L202.36 510.103C197.325 511.948 191.58 510.252 188.243 505.935C185.627 502.549 184.944 498.077 186.423 494.166C188.302 489.199 193.259 486.067 198.645 486.485L198.722 486.49L197.375 485.68C193.197 483.168 190.909 478.166 191.642 473.147C192.306 468.594 195.368 464.849 199.502 463.494C204.038 462.008 209.022 463.641 211.998 467.62L214.652 471.171L214.477 466.621C214.284 461.628 217.148 457.222 221.653 455.579Z"/>
</mask>
<path fill-rule="evenodd" clip-rule="evenodd" d="M221.653 455.579C225.74 454.089 230.458 455.17 233.794 458.338C237.455 461.815 238.802 467.141 237.146 471.707L236.017 474.821L238.228 472.787C242.204 469.131 248.037 468.529 252.584 471.272C256.164 473.432 258.391 477.37 258.427 481.649C258.472 487.105 255.004 491.989 249.906 493.651L243.456 495.753C246.228 496.68 248.601 498.802 249.83 501.632C251.244 504.89 250.899 508.59 248.91 511.323C246.454 514.697 242.029 515.934 237.987 514.377L228.291 510.643L222.978 519.57C220.763 523.292 216.518 525.055 212.503 523.92C209.25 523.002 206.692 520.305 205.79 516.87C205.011 513.904 205.554 510.788 207.138 508.352L202.36 510.103C197.325 511.948 191.58 510.252 188.243 505.935C185.627 502.549 184.944 498.077 186.423 494.166C188.302 489.199 193.259 486.067 198.645 486.485L198.722 486.49L197.375 485.68C193.197 483.168 190.909 478.166 191.642 473.147C192.306 468.594 195.368 464.849 199.502 463.494C204.038 462.008 209.022 463.641 211.998 467.62L214.652 471.171L214.477 466.621C214.284 461.628 217.148 457.222 221.653 455.579Z" fill="#9DA3F3"/>
<path d="M221.653 455.579L221.383 454.837L221.383 454.837L221.653 455.579ZM233.794 458.338L234.338 457.766L234.338 457.766L233.794 458.338ZM237.146 471.707L237.888 471.976L237.888 471.976L237.146 471.707ZM236.017 474.821L235.275 474.551L236.551 475.402L236.017 474.821ZM238.228 472.787L238.762 473.368L238.762 473.368L238.228 472.787ZM252.584 471.272L252.992 470.596L252.992 470.596L252.584 471.272ZM258.427 481.649L259.216 481.642L259.216 481.642L258.427 481.649ZM249.906 493.651L250.15 494.401L250.15 494.401L249.906 493.651ZM243.456 495.753L243.212 495.002L240.939 495.743L243.206 496.501L243.456 495.753ZM249.83 501.632L250.554 501.318V501.318L249.83 501.632ZM248.91 511.323L249.548 511.788L249.548 511.788L248.91 511.323ZM237.987 514.377L237.703 515.114L237.704 515.114L237.987 514.377ZM228.291 510.643L228.575 509.906L227.954 509.667L227.613 510.239L228.291 510.643ZM222.978 519.57L223.656 519.974L223.656 519.974L222.978 519.57ZM212.503 523.92L212.288 524.68L212.288 524.68L212.503 523.92ZM205.79 516.87L205.027 517.071L205.027 517.071L205.79 516.87ZM207.138 508.352L207.8 508.782L209.092 506.795L206.866 507.611L207.138 508.352ZM202.36 510.103L202.632 510.844L202.632 510.844L202.36 510.103ZM188.243 505.935L187.619 506.418L187.619 506.418L188.243 505.935ZM186.423 494.166L185.685 493.887L185.685 493.887L186.423 494.166ZM198.645 486.485L198.584 487.271L198.587 487.272L198.645 486.485ZM198.722 486.49L198.664 487.277L199.128 485.814L198.722 486.49ZM197.375 485.68L197.782 485.004L197.782 485.004L197.375 485.68ZM191.642 473.147L190.861 473.033L190.861 473.033L191.642 473.147ZM199.502 463.494L199.257 462.744L199.257 462.744L199.502 463.494ZM211.998 467.62L212.63 467.147L212.63 467.147L211.998 467.62ZM214.652 471.171L214.02 471.643L215.539 473.674L215.441 471.14L214.652 471.171ZM214.477 466.621L215.266 466.59L215.266 466.59L214.477 466.621ZM221.653 455.579L221.924 456.32C225.708 454.941 230.114 455.932 233.251 458.911L233.794 458.338L234.338 457.766C230.801 454.408 225.773 453.237 221.383 454.837L221.653 455.579ZM233.794 458.338L233.251 458.911C236.698 462.184 237.947 467.184 236.404 471.438L237.146 471.707L237.888 471.976C239.657 467.098 238.213 461.446 234.338 457.766L233.794 458.338ZM237.146 471.707L236.404 471.438L235.275 474.551L236.017 474.821L236.758 475.09L237.888 471.976L237.146 471.707ZM236.017 474.821L236.551 475.402L238.762 473.368L238.228 472.787L237.694 472.206L235.482 474.24L236.017 474.821ZM238.228 472.787L238.762 473.368C242.484 469.945 247.934 469.388 252.177 471.948L252.584 471.272L252.992 470.596C248.14 467.669 241.924 468.316 237.694 472.206L238.228 472.787ZM252.584 471.272L252.177 471.948C255.517 473.963 257.604 477.645 257.638 481.655L258.427 481.649L259.216 481.642C259.178 477.095 256.812 472.901 252.992 470.596L252.584 471.272ZM258.427 481.649L257.638 481.655C257.68 486.775 254.425 491.348 249.661 492.901L249.906 493.651L250.15 494.401C255.584 492.63 259.264 487.434 259.216 481.642L258.427 481.649ZM249.906 493.651L249.661 492.901L243.212 495.002L243.456 495.753L243.701 496.503L250.15 494.401L249.906 493.651ZM243.456 495.753L243.206 496.501C245.766 497.358 247.967 499.323 249.106 501.946L249.83 501.632L250.554 501.318C249.236 498.281 246.689 496.002 243.706 495.004L243.456 495.753ZM249.83 501.632L249.106 501.946C250.416 504.965 250.086 508.367 248.272 510.859L248.91 511.323L249.548 511.788C251.713 508.814 252.071 504.814 250.554 501.318L249.83 501.632ZM248.91 511.323L248.272 510.859C246.037 513.928 241.997 515.076 238.271 513.641L237.987 514.377L237.704 515.114C242.061 516.792 246.871 515.465 249.548 511.788L248.91 511.323ZM237.987 514.377L238.271 513.641L228.575 509.906L228.291 510.643L228.008 511.379L237.703 515.114L237.987 514.377ZM228.291 510.643L227.613 510.239L222.3 519.166L222.978 519.57L223.656 519.974L228.97 511.046L228.291 510.643ZM222.978 519.57L222.3 519.166C220.258 522.598 216.371 524.193 212.717 523.161L212.503 523.92L212.288 524.68C216.666 525.916 221.268 523.986 223.656 519.974L222.978 519.57ZM212.503 523.92L212.717 523.161C209.752 522.323 207.389 519.853 206.553 516.67L205.79 516.87L205.027 517.071C205.995 520.757 208.748 523.68 212.288 524.68L212.503 523.92ZM205.79 516.87L206.553 516.67C205.831 513.92 206.336 511.033 207.8 508.782L207.138 508.352L206.476 507.922C204.772 510.543 204.191 513.888 205.027 517.071L205.79 516.87ZM207.138 508.352L206.866 507.611L202.089 509.362L202.36 510.103L202.632 510.844L207.41 509.093L207.138 508.352ZM202.36 510.103L202.089 509.362C197.384 511.086 191.999 509.504 188.868 505.452L188.243 505.935L187.619 506.418C191.161 511 197.266 512.811 202.632 510.844L202.36 510.103ZM188.243 505.935L188.868 505.452C186.415 502.279 185.781 498.095 187.161 494.446L186.423 494.166L185.685 493.887C184.106 498.06 184.838 502.82 187.619 506.418L188.243 505.935ZM186.423 494.166L187.161 494.446C188.914 489.812 193.543 486.881 198.584 487.271L198.645 486.485L198.706 485.698C192.976 485.254 187.689 488.587 185.685 493.887L186.423 494.166ZM198.645 486.485L198.587 487.272L198.664 487.277L198.722 486.49L198.779 485.703L198.703 485.697L198.645 486.485ZM198.722 486.49L199.128 485.814L197.782 485.004L197.375 485.68L196.968 486.356L198.315 487.166L198.722 486.49ZM197.375 485.68L197.782 485.004C193.891 482.664 191.734 477.982 192.423 473.261L191.642 473.147L190.861 473.033C190.085 478.35 192.504 483.671 196.968 486.356L197.375 485.68ZM191.642 473.147L192.423 473.261C193.047 468.985 195.917 465.499 199.748 464.244L199.502 463.494L199.257 462.744C194.82 464.198 191.566 468.203 190.861 473.033L191.642 473.147ZM199.502 463.494L199.748 464.244C203.947 462.868 208.583 464.372 211.365 468.093L211.998 467.62L212.63 467.147C209.461 462.91 204.129 461.147 199.257 462.744L199.502 463.494ZM211.998 467.62L211.365 468.093L214.02 471.643L214.652 471.171L215.284 470.698L212.63 467.147L211.998 467.62ZM214.652 471.171L215.441 471.14L215.266 466.59L214.477 466.621L213.688 466.651L213.864 471.201L214.652 471.171ZM214.477 466.621L215.266 466.59C215.085 461.921 217.758 457.839 221.924 456.32L221.653 455.579L221.383 454.837C216.537 456.604 213.483 461.336 213.688 466.651L214.477 466.621Z" fill="#525EFE" mask="url(#path-34-inside-6_17150_8133)"/>
<path fill-rule="evenodd" clip-rule="evenodd" d="M222.193 474.593C224.143 473.882 226.392 474.399 227.983 475.91C229.729 477.568 230.371 480.107 229.582 482.285L229.043 483.769L230.099 482.798C231.995 481.054 234.777 480.767 236.945 482.075C238.652 483.105 239.715 484.983 239.732 487.023C239.754 489.625 238.099 491.955 235.668 492.747L232.581 493.753C233.907 494.193 235.044 495.205 235.631 496.558C236.306 498.111 236.142 499.877 235.193 501.18C234.022 502.789 231.911 503.378 229.983 502.636L225.358 500.855L222.825 505.109C221.769 506.884 219.745 507.725 217.83 507.184C216.279 506.746 215.059 505.46 214.629 503.822C214.257 502.407 214.517 500.92 215.274 499.758L212.993 500.595C210.592 501.475 207.852 500.665 206.261 498.607C205.013 496.992 204.687 494.859 205.393 492.994C206.289 490.626 208.653 489.132 211.221 489.331L211.255 489.334L210.616 488.949C208.623 487.751 207.531 485.365 207.881 482.971C208.198 480.8 209.658 479.015 211.629 478.368C213.793 477.66 216.169 478.438 217.589 480.336L218.855 482.029L218.771 479.859C218.679 477.478 220.045 475.377 222.193 474.593Z" fill="#DDDFFF"/>
<rect x="217.596" y="483.225" width="1.99141" height="13.5584" rx="0.995707" transform="rotate(-19.0875 217.596 483.225)" fill="#FFDF89"/>
<rect width="2.01044" height="10.3472" rx="1.00522" transform="matrix(0.998744 0.0501107 -0.00255832 0.999997 222.818 484.514)" fill="#FFCC42"/>
<rect width="2.00177" height="7.53387" rx="1.00088" transform="matrix(0.817583 -0.575811 0.545859 0.837877 216.508 490.23)" fill="#FFCC42"/>
<g clip-path="url(#clip0_17150_8133)">
<g filter="url(#filter0_i_17150_8133)">
<path d="M61.1875 471H277.188L260.745 562.256C258.686 573.685 248.739 582 237.126 582H101.25C89.6364 582 79.6893 573.685 77.63 562.256L61.1875 471Z" fill="url(#paint5_linear_17150_8133)"/>
</g>
<path d="M276.589 471.5L260.253 562.167C258.237 573.358 248.497 581.5 237.126 581.5H101.251C89.8797 581.5 80.1395 573.358 78.1231 562.167L61.7871 471.5H276.589Z" stroke="white"/>
<path opacity="0.7" d="M168.938 472V581" stroke="white" stroke-width="2" stroke-linecap="round"/>
<path opacity="0.7" d="M182.938 472V581" stroke="white" stroke-width="2" stroke-linecap="round"/>
<path opacity="0.7" d="M198.14 472.014L195.734 581.101" stroke="white" stroke-width="2" stroke-linecap="round"/>
<path opacity="0.7" d="M214.01 472.039L209.867 581.076" stroke="white" stroke-width="2" stroke-linecap="round"/>
<path opacity="0.7" d="M227.121 472L222.936 581.035" stroke="white" stroke-width="2" stroke-linecap="round"/>
<path opacity="0.7" d="M241.518 472L234.938 580.92" stroke="white" stroke-width="2" stroke-linecap="round"/>
<path opacity="0.7" d="M154.938 472V581" stroke="white" stroke-width="2" stroke-linecap="round"/>
<path opacity="0.7" d="M139.145 472.029L142.732 581.085" stroke="white" stroke-width="2" stroke-linecap="round"/>
<path opacity="0.7" d="M125.436 472.021L128.441 581.094" stroke="white" stroke-width="2" stroke-linecap="round"/>
<path opacity="0.7" d="M110.842 472.039L115.034 581.074" stroke="white" stroke-width="2" stroke-linecap="round"/>
<path opacity="0.7" d="M97.1875 472L102.188 581" stroke="white" stroke-width="2" stroke-linecap="round"/>
<path opacity="0.7" d="M81.1875 472L88.1875 577" stroke="white" stroke-width="2" stroke-linecap="round"/>
<path opacity="0.7" d="M256.938 472L248.938 577" stroke="white" stroke-width="2" stroke-linecap="round"/>
<path opacity="0.7" d="M65.1875 484H273.188" stroke="white" stroke-width="2" stroke-linecap="round"/>
<path opacity="0.7" d="M67.1875 498H271.188" stroke="white" stroke-width="2" stroke-linecap="round"/>
<path opacity="0.7" d="M70.1875 512H268.188" stroke="white" stroke-width="2" stroke-linecap="round"/>
<path opacity="0.6" d="M72.1875 527H266.188" stroke="white" stroke-width="2" stroke-linecap="round"/>
<path opacity="0.5" d="M75.1875 541H263.188" stroke="white" stroke-width="2" stroke-linecap="round"/>
<path opacity="0.3" d="M77.1875 555H260.188" stroke="white" stroke-width="2" stroke-linecap="round"/>
<path opacity="0.4" d="M81.1875 568H257.188" stroke="white" stroke-width="2" stroke-linecap="round"/>
</g>
<path d="M54.1875 467C54.1875 465.895 55.0829 465 56.1875 465H282.188C283.292 465 284.188 465.895 284.188 467V469C284.188 470.105 283.292 471 282.188 471H56.1875C55.0829 471 54.1875 470.105 54.1875 469V467Z" fill="white"/>
<g filter="url(#filter1_d_17150_8133)">
<path d="M153.188 471L59.1875 528" stroke="white" stroke-width="6" stroke-linecap="round"/>
</g>
<g filter="url(#filter2_d_17150_8133)">
<path d="M181.187 472L278.188 531" stroke="white" stroke-width="6" stroke-linecap="round"/>
</g>
<mask id="path-65-inside-7_17150_8133" fill="white">
<path d="M231.72 250.597C231.72 250.597 241.9 253.394 244.265 259.419C249.685 256.263 259.078 259.39 259.078 259.39C259.095 259.454 261.915 270.317 257.281 275.157C261.813 278.134 264.888 284.277 264.888 284.277C264.888 284.277 258.97 294.38 252.088 294.154C251.839 294.146 251.592 294.13 251.347 294.11C249.923 299.55 244.291 304.55 244.291 304.55C244.227 304.533 237.077 302.555 233.396 298.364C233.25 298.448 233.103 298.534 232.952 298.614C226.903 301.845 217.185 295.464 217.105 295.412C217.105 295.412 217.147 288.543 219.895 283.869C213.598 281.576 211.326 270.58 211.314 270.52C211.346 270.488 218.182 263.75 224.36 263.984C223.882 257.554 231.72 250.597 231.72 250.597ZM239.345 274.164C238.729 274.479 238.073 274.723 237.379 274.885C236.768 275.027 236.155 275.099 235.545 275.108C235.56 275.995 235.443 276.886 235.177 277.762C234.985 278.394 234.724 278.99 234.404 279.547C235.273 279.897 236.078 280.355 236.794 280.919C237.372 280.635 237.986 280.414 238.631 280.263C239.351 280.096 240.075 280.025 240.793 280.041C241.189 279.197 241.717 278.409 242.355 277.694C241.823 277.336 241.326 276.917 240.875 276.435C240.235 275.752 239.727 274.986 239.345 274.164Z"/>
</mask>
<path d="M231.72 250.597C231.72 250.597 241.9 253.394 244.265 259.419C249.685 256.263 259.078 259.39 259.078 259.39C259.095 259.454 261.915 270.317 257.281 275.157C261.813 278.134 264.888 284.277 264.888 284.277C264.888 284.277 258.97 294.38 252.088 294.154C251.839 294.146 251.592 294.13 251.347 294.11C249.923 299.55 244.291 304.55 244.291 304.55C244.227 304.533 237.077 302.555 233.396 298.364C233.25 298.448 233.103 298.534 232.952 298.614C226.903 301.845 217.185 295.464 217.105 295.412C217.105 295.412 217.147 288.543 219.895 283.869C213.598 281.576 211.326 270.58 211.314 270.52C211.346 270.488 218.182 263.75 224.36 263.984C223.882 257.554 231.72 250.597 231.72 250.597ZM239.345 274.164C238.729 274.479 238.073 274.723 237.379 274.885C236.768 275.027 236.155 275.099 235.545 275.108C235.56 275.995 235.443 276.886 235.177 277.762C234.985 278.394 234.724 278.99 234.404 279.547C235.273 279.897 236.078 280.355 236.794 280.919C237.372 280.635 237.986 280.414 238.631 280.263C239.351 280.096 240.075 280.025 240.793 280.041C241.189 279.197 241.717 278.409 242.355 277.694C241.823 277.336 241.326 276.917 240.875 276.435C240.235 275.752 239.727 274.986 239.345 274.164Z" fill="white"/>
<path d="M231.72 250.597L231.903 249.929L231.541 249.83L231.26 250.079L231.72 250.597ZM244.265 259.419L243.62 259.672L243.915 260.423L244.613 260.017L244.265 259.419ZM259.078 259.39L259.749 259.216L259.654 258.852L259.297 258.733L259.078 259.39ZM257.281 275.157L256.781 274.678L256.206 275.279L256.901 275.735L257.281 275.157ZM264.888 284.277L265.486 284.627L265.676 284.303L265.508 283.967L264.888 284.277ZM252.088 294.154L252.065 294.846L252.065 294.846L252.088 294.154ZM251.347 294.11L251.403 293.42L250.824 293.373L250.677 293.935L251.347 294.11ZM244.291 304.55L244.107 305.218L244.469 305.318L244.75 305.068L244.291 304.55ZM233.396 298.364L233.917 297.907L233.542 297.48L233.05 297.764L233.396 298.364ZM232.952 298.614L233.279 299.225L233.279 299.225L232.952 298.614ZM217.105 295.412L216.413 295.408L216.41 295.783L216.724 295.99L217.105 295.412ZM219.895 283.869L220.492 284.22L220.914 283.503L220.132 283.218L219.895 283.869ZM211.314 270.52L210.828 270.027L210.56 270.291L210.636 270.659L211.314 270.52ZM224.36 263.984L224.333 264.676L225.108 264.705L225.05 263.932L224.36 263.984ZM239.345 274.164L239.973 273.872L239.67 273.22L239.03 273.547L239.345 274.164ZM237.379 274.885L237.536 275.559L237.536 275.559L237.379 274.885ZM235.545 275.108L235.535 274.415L234.841 274.425L234.853 275.119L235.545 275.108ZM235.177 277.762L235.839 277.963L235.839 277.963L235.177 277.762ZM234.404 279.547L233.804 279.202L233.408 279.891L234.145 280.189L234.404 279.547ZM236.794 280.919L236.366 281.463L236.708 281.733L237.099 281.541L236.794 280.919ZM238.631 280.263L238.474 279.589L238.474 279.589L238.631 280.263ZM240.793 280.041L240.776 280.734L241.228 280.744L241.42 280.336L240.793 280.041ZM242.355 277.694L242.872 278.155L243.401 277.563L242.742 277.119L242.355 277.694ZM240.875 276.435L240.369 276.908L240.369 276.908L240.875 276.435ZM231.72 250.597C231.536 251.265 231.536 251.265 231.536 251.265C231.536 251.265 231.536 251.265 231.536 251.265C231.536 251.265 231.536 251.265 231.537 251.265C231.538 251.265 231.539 251.265 231.541 251.266C231.545 251.267 231.552 251.269 231.56 251.271C231.578 251.276 231.605 251.284 231.64 251.294C231.712 251.315 231.818 251.347 231.956 251.39C232.23 251.476 232.628 251.605 233.113 251.78C234.085 252.129 235.403 252.656 236.79 253.365C239.606 254.805 242.537 256.911 243.62 259.672L244.265 259.419L244.909 259.166C243.628 255.901 240.286 253.597 237.421 252.132C235.967 251.389 234.593 250.84 233.582 250.476C233.076 250.295 232.659 250.159 232.368 250.068C232.222 250.022 232.108 249.988 232.029 249.965C231.989 249.954 231.959 249.945 231.938 249.939C231.927 249.936 231.919 249.934 231.913 249.932C231.91 249.931 231.908 249.93 231.906 249.93C231.906 249.93 231.905 249.93 231.904 249.929C231.904 249.929 231.904 249.929 231.904 249.929C231.903 249.929 231.903 249.929 231.72 250.597ZM244.265 259.419L244.613 260.017C247.115 258.561 250.62 258.524 253.616 258.908C255.095 259.097 256.41 259.383 257.356 259.622C257.829 259.742 258.208 259.849 258.467 259.926C258.597 259.964 258.697 259.995 258.763 260.016C258.796 260.027 258.821 260.035 258.838 260.04C258.846 260.043 258.852 260.045 258.855 260.046C258.857 260.046 258.859 260.047 258.859 260.047C258.86 260.047 258.86 260.047 258.86 260.047C258.86 260.047 258.86 260.047 258.86 260.047C258.86 260.047 258.86 260.047 259.078 259.39C259.297 258.733 259.297 258.733 259.297 258.733C259.297 258.733 259.296 258.733 259.296 258.733C259.296 258.733 259.295 258.732 259.294 258.732C259.293 258.732 259.291 258.731 259.288 258.73C259.282 258.728 259.275 258.726 259.265 258.723C259.245 258.716 259.217 258.707 259.18 258.695C259.106 258.672 258.999 258.639 258.861 258.598C258.586 258.516 258.188 258.404 257.696 258.28C256.711 258.031 255.339 257.732 253.792 257.534C250.737 257.143 246.835 257.121 243.916 258.82L244.265 259.419ZM259.078 259.39L258.408 259.565C258.411 259.576 259.107 262.253 259.232 265.509C259.359 268.811 258.888 272.477 256.781 274.678L257.281 275.157L257.782 275.635C260.308 272.996 260.745 268.811 260.616 265.456C260.485 262.055 259.762 259.268 259.749 259.216L259.078 259.39ZM257.281 275.157L256.901 275.735C259.059 277.153 260.901 279.35 262.217 281.23C262.871 282.164 263.386 283.008 263.737 283.616C263.913 283.921 264.047 284.166 264.137 284.333C264.182 284.417 264.215 284.482 264.238 284.525C264.249 284.546 264.257 284.562 264.262 284.573C264.265 284.578 264.267 284.582 264.268 284.584C264.268 284.585 264.269 284.586 264.269 284.587C264.269 284.587 264.269 284.587 264.269 284.587C264.269 284.587 264.269 284.587 264.269 284.587C264.269 284.587 264.269 284.587 264.888 284.277C265.508 283.967 265.507 283.967 265.507 283.966C265.507 283.966 265.507 283.966 265.507 283.966C265.507 283.966 265.507 283.965 265.506 283.965C265.506 283.964 265.505 283.962 265.504 283.96C265.502 283.957 265.5 283.952 265.497 283.945C265.49 283.932 265.48 283.913 265.468 283.889C265.443 283.841 265.406 283.77 265.358 283.68C265.262 283.501 265.12 283.243 264.937 282.924C264.57 282.288 264.033 281.41 263.352 280.436C261.997 278.5 260.035 276.137 257.662 274.578L257.281 275.157ZM264.888 284.277C264.291 283.927 264.291 283.927 264.291 283.927C264.291 283.927 264.291 283.927 264.291 283.927C264.291 283.927 264.291 283.927 264.29 283.927C264.29 283.928 264.289 283.93 264.288 283.932C264.286 283.936 264.282 283.942 264.277 283.951C264.266 283.968 264.25 283.995 264.229 284.03C264.186 284.1 264.121 284.205 264.036 284.339C263.866 284.607 263.614 284.992 263.289 285.454C262.64 286.38 261.705 287.608 260.564 288.827C258.241 291.307 255.227 293.564 252.111 293.462L252.088 294.154L252.065 294.846C255.831 294.97 259.218 292.289 261.574 289.774C262.773 288.495 263.748 287.211 264.423 286.25C264.761 285.768 265.025 285.365 265.205 285.082C265.295 284.94 265.364 284.828 265.412 284.75C265.435 284.711 265.453 284.681 265.466 284.661C265.472 284.65 265.477 284.642 265.48 284.636C265.482 284.634 265.483 284.631 265.484 284.63C265.485 284.629 265.485 284.628 265.485 284.628C265.485 284.627 265.486 284.627 265.486 284.627C265.486 284.627 265.486 284.627 264.888 284.277ZM252.088 294.154L252.111 293.462C251.875 293.454 251.64 293.439 251.403 293.42L251.347 294.11L251.29 294.8C251.543 294.821 251.802 294.838 252.065 294.846L252.088 294.154ZM251.347 294.11L250.677 293.935C250.003 296.51 248.314 299.027 246.75 300.93C245.973 301.875 245.24 302.654 244.702 303.196C244.433 303.467 244.213 303.678 244.061 303.82C243.985 303.891 243.927 303.945 243.887 303.981C243.868 303.999 243.853 304.012 243.844 304.021C243.839 304.025 243.835 304.028 243.833 304.03C243.832 304.031 243.831 304.032 243.831 304.032C243.831 304.032 243.831 304.033 243.831 304.033C243.831 304.033 243.831 304.033 243.831 304.033C243.831 304.032 243.831 304.032 244.291 304.55C244.75 305.068 244.75 305.068 244.751 305.068C244.751 305.068 244.751 305.068 244.751 305.067C244.751 305.067 244.752 305.067 244.752 305.066C244.753 305.066 244.754 305.064 244.756 305.063C244.759 305.06 244.764 305.056 244.77 305.05C244.782 305.04 244.799 305.024 244.821 305.004C244.865 304.964 244.929 304.905 245.01 304.829C245.171 304.677 245.403 304.455 245.684 304.172C246.246 303.606 247.01 302.795 247.82 301.81C249.427 299.853 251.267 297.15 252.017 294.286L251.347 294.11ZM244.291 304.55L244.475 303.883C244.462 303.879 242.696 303.392 240.486 302.391C238.261 301.385 235.66 299.892 233.917 297.907L233.396 298.364L232.876 298.821C234.814 301.027 237.628 302.619 239.915 303.653C242.215 304.694 244.056 305.204 244.107 305.218L244.291 304.55ZM233.396 298.364L233.05 297.764C232.903 297.85 232.765 297.929 232.626 298.003L232.952 298.614L233.279 299.225C233.441 299.138 233.598 299.047 233.743 298.964L233.396 298.364ZM232.952 298.614L232.626 298.003C229.887 299.466 226.205 298.785 223.033 297.596C219.908 296.424 217.508 294.848 217.486 294.833L217.105 295.412L216.724 295.99C216.782 296.028 219.281 297.668 222.547 298.893C225.767 300.099 229.968 300.993 233.279 299.225L232.952 298.614ZM217.105 295.412C217.798 295.416 217.798 295.416 217.798 295.416C217.798 295.416 217.798 295.416 217.798 295.416C217.798 295.416 217.798 295.416 217.798 295.416C217.798 295.415 217.798 295.414 217.798 295.413C217.798 295.41 217.798 295.406 217.798 295.4C217.798 295.389 217.798 295.371 217.799 295.347C217.799 295.298 217.801 295.225 217.804 295.13C217.811 294.94 217.823 294.661 217.846 294.311C217.891 293.609 217.981 292.625 218.154 291.498C218.503 289.23 219.183 286.446 220.492 284.22L219.895 283.869L219.298 283.518C217.859 285.966 217.144 288.953 216.785 291.288C216.604 292.462 216.511 293.488 216.464 294.22C216.44 294.587 216.427 294.881 216.42 295.085C216.417 295.186 216.415 295.266 216.414 295.32C216.413 295.348 216.413 295.369 216.413 295.383C216.413 295.391 216.413 295.396 216.413 295.4C216.413 295.402 216.413 295.404 216.413 295.405C216.413 295.406 216.413 295.406 216.413 295.407C216.413 295.407 216.413 295.407 216.413 295.407C216.413 295.407 216.413 295.408 217.105 295.412ZM219.895 283.869L220.132 283.218C217.269 282.176 215.226 279.094 213.88 276.075C212.553 273.098 211.994 270.39 211.992 270.38L211.314 270.52L210.636 270.659C210.646 270.71 211.229 273.53 212.615 276.639C213.982 279.706 216.224 283.269 219.658 284.52L219.895 283.869ZM211.314 270.52L211.8 271.013C211.799 271.014 212.22 270.599 212.946 269.979C213.674 269.36 214.702 268.539 215.917 267.728C218.376 266.086 221.474 264.568 224.333 264.676L224.36 263.984L224.386 263.292C221.068 263.166 217.659 264.9 215.148 266.576C212.611 268.27 210.859 269.996 210.828 270.027L211.314 270.52ZM224.36 263.984L225.05 263.932C224.831 260.984 226.532 257.814 228.415 255.294C229.343 254.052 230.288 253.003 231.001 252.266C231.357 251.897 231.654 251.607 231.861 251.41C231.964 251.312 232.045 251.237 232.1 251.187C232.127 251.162 232.148 251.143 232.161 251.131C232.168 251.125 232.173 251.121 232.176 251.118C232.177 251.117 232.178 251.116 232.179 251.115C232.179 251.115 232.18 251.115 232.18 251.115C232.18 251.115 232.18 251.115 232.18 251.115C232.18 251.115 232.179 251.115 231.72 250.597C231.26 250.079 231.26 250.079 231.26 250.079C231.26 250.079 231.259 250.08 231.259 250.08C231.259 250.08 231.258 250.081 231.258 250.081C231.256 250.082 231.255 250.084 231.252 250.086C231.248 250.09 231.242 250.095 231.234 250.103C231.217 250.117 231.194 250.139 231.164 250.166C231.104 250.221 231.017 250.302 230.907 250.406C230.687 250.615 230.376 250.919 230.005 251.303C229.263 252.071 228.278 253.164 227.306 254.465C225.389 257.03 223.41 260.554 223.669 264.035L224.36 263.984ZM239.345 274.164L239.03 273.547C238.462 273.837 237.859 274.062 237.222 274.21L237.379 274.885L237.536 275.559C238.286 275.384 238.996 275.12 239.66 274.781L239.345 274.164ZM237.379 274.885L237.222 274.21C236.661 274.341 236.097 274.407 235.535 274.415L235.545 275.108L235.555 275.8C236.213 275.791 236.876 275.713 237.536 275.559L237.379 274.885ZM235.545 275.108L234.853 275.119C234.866 275.937 234.758 276.757 234.514 277.561L235.177 277.762L235.839 277.963C236.127 277.016 236.253 276.052 236.237 275.096L235.545 275.108ZM235.177 277.762L234.514 277.561C234.338 278.141 234.098 278.689 233.804 279.202L234.404 279.547L235.005 279.891C235.35 279.291 235.632 278.647 235.839 277.963L235.177 277.762ZM234.404 279.547L234.145 280.189C234.957 280.516 235.704 280.943 236.366 281.463L236.794 280.919L237.222 280.375C236.451 279.768 235.589 279.278 234.663 278.904L234.404 279.547ZM236.794 280.919L237.099 281.541C237.631 281.28 238.195 281.076 238.789 280.938L238.631 280.263L238.474 279.589C237.777 279.752 237.113 279.991 236.489 280.297L236.794 280.919ZM238.631 280.263L238.789 280.938C239.45 280.784 240.116 280.718 240.776 280.734L240.793 280.041L240.809 279.349C240.035 279.331 239.252 279.408 238.474 279.589L238.631 280.263ZM240.793 280.041L241.42 280.336C241.786 279.555 242.275 278.823 242.872 278.155L242.355 277.694L241.839 277.233C241.158 277.995 240.592 278.839 240.166 279.747L240.793 280.041ZM242.355 277.694L242.742 277.119C242.252 276.789 241.795 276.404 241.38 275.961L240.875 276.435L240.369 276.908C240.857 277.429 241.394 277.882 241.969 278.269L242.355 277.694ZM240.875 276.435L241.38 275.961C240.793 275.334 240.325 274.63 239.973 273.872L239.345 274.164L238.717 274.456C239.129 275.343 239.678 276.17 240.369 276.908L240.875 276.435Z" fill="#CEC8C8" mask="url(#path-65-inside-7_17150_8133)"/>
<ellipse cx="227.747" cy="275.016" rx="5.03895" ry="4.18416" transform="rotate(16.8835 227.747 275.016)" fill="#D9FBA7"/>
<ellipse cx="235.858" cy="268.212" rx="5.03895" ry="4.18416" transform="rotate(76.8835 235.858 268.212)" fill="#D9FBA7"/>
<ellipse cx="240.603" cy="288.586" rx="5.03895" ry="4.18416" transform="rotate(-103.117 240.603 288.586)" fill="#D9FBA7"/>
<ellipse cx="5.03895" cy="4.18416" rx="5.03895" ry="4.18416" transform="matrix(-0.729965 0.683484 0.683484 0.729965 247.309 264.15)" fill="#D9FBA7"/>
<ellipse cx="5.03895" cy="4.18416" rx="5.03895" ry="4.18416" transform="matrix(0.729965 -0.683484 -0.683484 -0.729965 229.434 292.273)" fill="#D9FBA7"/>
<ellipse cx="248.997" cy="281.406" rx="5.03895" ry="4.18416" transform="rotate(-163.117 248.997 281.406)" fill="#D9FBA7"/>
<circle cx="238.232" cy="278.036" r="4.26784" transform="rotate(-13.1165 238.232 278.036)" fill="#FFCC42"/>
<rect x="244.979" y="271.223" width="1.5063" height="7.34171" rx="0.753149" transform="rotate(46.8835 244.979 271.223)" fill="#FFCC42"/>
<rect width="1.5063" height="7.34171" rx="0.753149" transform="matrix(-0.290426 0.956897 0.956897 0.290426 229.414 274.85)" fill="#FFCC42"/>
<rect width="1.5063" height="7.34171" rx="0.753149" transform="matrix(-0.973911 0.226932 0.226932 0.973911 237.086 269.797)" fill="#FFCC42"/>
<rect width="1.5063" height="7.34171" rx="0.753149" transform="matrix(0.973911 -0.226932 -0.226932 -0.973911 239.641 287.395)" fill="#FFCC42"/>
<rect width="1.5063" height="7.34171" rx="0.753149" transform="matrix(0.290426 -0.956897 -0.956897 -0.290426 247.512 282.1)" fill="#FFCC42"/>
<rect x="231.947" y="285.727" width="1.5063" height="7.34171" rx="0.753149" transform="rotate(-133.117 231.947 285.727)" fill="#FFCC42"/>
<path d="M255.188 327.623C255.188 325.29 258.188 312.623 270.688 314.123C271.688 319.456 269.988 329.623 255.188 327.623Z" fill="#92E084"/>
<path d="M192.92 452.623C192.92 450.29 189.92 437.623 177.42 439.123C176.42 444.456 178.12 454.623 192.92 452.623Z" fill="#8ACF7E"/>
<defs>
<filter id="filter0_i_17150_8133" x="61.1875" y="451" width="216" height="131" filterUnits="userSpaceOnUse" color-interpolation-filters="sRGB">
<feFlood flood-opacity="0" result="BackgroundImageFix"/>
<feBlend mode="normal" in="SourceGraphic" in2="BackgroundImageFix" result="shape"/>
<feColorMatrix in="SourceAlpha" type="matrix" values="0 0 0 0 0 0 0 0 0 0 0 0 0 0 0 0 0 0 127 0" result="hardAlpha"/>
<feOffset dy="-20"/>
<feGaussianBlur stdDeviation="12"/>
<feComposite in2="hardAlpha" operator="arithmetic" k2="-1" k3="1"/>
<feColorMatrix type="matrix" values="0 0 0 0 1 0 0 0 0 1 0 0 0 0 1 0 0 0 1 0"/>
<feBlend mode="normal" in2="shape" result="effect1_innerShadow_17150_8133"/>
</filter>
<filter id="filter1_d_17150_8133" x="48.1875" y="460" width="116" height="79" filterUnits="userSpaceOnUse" color-interpolation-filters="sRGB">
<feFlood flood-opacity="0" result="BackgroundImageFix"/>
<feColorMatrix in="SourceAlpha" type="matrix" values="0 0 0 0 0 0 0 0 0 0 0 0 0 0 0 0 0 0 127 0" result="hardAlpha"/>
<feOffset/>
<feGaussianBlur stdDeviation="4"/>
<feComposite in2="hardAlpha" operator="out"/>
<feColorMatrix type="matrix" values="0 0 0 0 0 0 0 0 0 0 0 0 0 0 0 0 0 0 0.02 0"/>
<feBlend mode="normal" in2="BackgroundImageFix" result="effect1_dropShadow_17150_8133"/>
<feBlend mode="normal" in="SourceGraphic" in2="effect1_dropShadow_17150_8133" result="shape"/>
</filter>
<filter id="filter2_d_17150_8133" x="170.188" y="461" width="119" height="81" filterUnits="userSpaceOnUse" color-interpolation-filters="sRGB">
<feFlood flood-opacity="0" result="BackgroundImageFix"/>
<feColorMatrix in="SourceAlpha" type="matrix" values="0 0 0 0 0 0 0 0 0 0 0 0 0 0 0 0 0 0 127 0" result="hardAlpha"/>
<feOffset/>
<feGaussianBlur stdDeviation="4"/>
<feComposite in2="hardAlpha" operator="out"/>
<feColorMatrix type="matrix" values="0 0 0 0 0 0 0 0 0 0 0 0 0 0 0 0 0 0 0.02 0"/>
<feBlend mode="normal" in2="BackgroundImageFix" result="effect1_dropShadow_17150_8133"/>
<feBlend mode="normal" in="SourceGraphic" in2="effect1_dropShadow_17150_8133" result="shape"/>
</filter>
<linearGradient id="paint0_linear_17150_8133" x1="191.094" y1="561.232" x2="192.957" y2="519.909" gradientUnits="userSpaceOnUse">
<stop stop-color="#FFEB7F"/>
<stop offset="1" stop-color="#FFF1A7"/>
</linearGradient>
<linearGradient id="paint1_linear_17150_8133" x1="178.49" y1="525.591" x2="182.484" y2="535.031" gradientUnits="userSpaceOnUse">
<stop stop-color="#FFEE8E"/>
<stop offset="1" stop-color="#FFD53D"/>
</linearGradient>
<linearGradient id="paint2_linear_17150_8133" x1="195.719" y1="558.884" x2="185.212" y2="543.596" gradientUnits="userSpaceOnUse">
<stop stop-color="#FFEE95" stop-opacity="0"/>
<stop offset="1" stop-color="#FFD53D"/>
</linearGradient>
<linearGradient id="paint3_linear_17150_8133" x1="174.066" y1="541.65" x2="174.196" y2="546.366" gradientUnits="userSpaceOnUse">
<stop stop-color="#FFD948"/>
<stop offset="1" stop-color="#FFED8D"/>
</linearGradient>
<linearGradient id="paint4_linear_17150_8133" x1="186.255" y1="546.568" x2="184.114" y2="539.298" gradientUnits="userSpaceOnUse">
<stop stop-color="#FFEF9A"/>
<stop offset="1" stop-color="#FFD743"/>
</linearGradient>
<linearGradient id="paint5_linear_17150_8133" x1="169.188" y1="471" x2="169.188" y2="533.5" gradientUnits="userSpaceOnUse">
<stop stop-color="white" stop-opacity="0.2"/>
<stop offset="1" stop-color="white" stop-opacity="0.7"/>
</linearGradient>
<clipPath id="clip0_17150_8133">
<rect width="216" height="112" fill="white" transform="translate(61.1875 471)"/>
</clipPath>
</defs>
</svg>
