<svg width="67" height="67" viewBox="0 0 67 67" fill="none" xmlns="http://www.w3.org/2000/svg">
<path d="M64.0496 48.9233L45.7339 31.9876C45.4075 31.6857 45.2218 31.2613 45.2218 30.8166L45.2218 8.41975C45.2218 7.53336 44.4993 6.81707 43.6129 6.82445C36.8974 6.88034 26.4598 6.94178 22.0412 6.88463C20.9926 6.87107 19.9724 7.84031 19.9724 8.88895L19.9724 31.5805C19.9724 31.9769 19.8248 32.3591 19.5583 32.6525L11.5765 41.4441C11.0046 42.0741 11.0279 43.0421 11.6296 43.6438L22.1841 54.1983C22.8346 54.8488 23.899 54.8156 24.5076 54.1258L32.5752 44.9826C33.1542 44.3264 34.1538 44.2593 34.8152 44.8323L53.8051 61.2821C54.4856 61.8716 55.5187 61.7813 56.0866 61.0829L64.2042 51.1005C64.7351 50.4476 64.6675 49.4946 64.0496 48.9233Z" fill="#F2F2F2" stroke="#C6C6C6" stroke-linecap="round"/>
<path d="M31.1946 18.5546L23.9374 11.1182C22.9384 10.0946 21.2012 10.8018 21.2012 12.2321L21.2012 27.4633C21.2012 28.9117 22.9762 29.6101 23.9632 28.55L31.2204 20.7552C31.8004 20.1323 31.789 19.1637 31.1946 18.5546Z" fill="url(#paint0_linear_16892_9436)"/>
<path d="M41.2106 28.2707L34.472 20.7444C33.9151 20.1224 33.9321 19.1761 34.5111 18.5746L41.2498 11.5734C42.2453 10.5391 43.9936 11.2438 43.9936 12.6794V27.2069C43.9936 28.6705 42.187 29.3611 41.2106 28.2707Z" fill="url(#paint1_linear_16892_9436)"/>
<path d="M42.4141 33.7366L35.563 41.2105C34.9502 41.879 35.0175 42.9233 35.7109 43.5077L46.0371 52.2095C46.3865 52.5039 46.8453 52.6343 47.2972 52.5678L60.6886 50.5954C62.0486 50.3951 62.535 48.6831 61.4835 47.7977L44.617 33.5943C43.9632 33.0438 42.9917 33.1065 42.4141 33.7366Z" fill="url(#paint2_linear_16892_9436)"/>
<path d="M31.4079 17.5535L24.5637 10.6216C23.5689 9.61399 24.2827 7.90625 25.6986 7.90625L39.5625 7.90625C40.9882 7.90625 41.6975 9.63409 40.6831 10.6358L33.6634 17.5678C33.0366 18.1867 32.0268 18.1803 31.4079 17.5535Z" fill="url(#paint3_linear_16892_9436)"/>
<defs>
<linearGradient id="paint0_linear_16892_9436" x1="24.4768" y1="13.0914" x2="23.7944" y2="26.8762" gradientUnits="userSpaceOnUse">
<stop stop-color="#F1F1F1"/>
<stop offset="1" stop-color="#D7D7D7"/>
</linearGradient>
<linearGradient id="paint1_linear_16892_9436" x1="42.0828" y1="12.8172" x2="32.802" y2="25.1007" gradientUnits="userSpaceOnUse">
<stop offset="0.294709" stop-color="#EDEDED"/>
<stop offset="0.932344" stop-color="#D7D7D7"/>
</linearGradient>
<linearGradient id="paint2_linear_16892_9436" x1="53.8201" y1="53.7643" x2="28.4342" y2="29.3338" gradientUnits="userSpaceOnUse">
<stop stop-color="#D9D9D9" stop-opacity="0"/>
<stop offset="1" stop-color="#D7D7D7"/>
</linearGradient>
<linearGradient id="paint3_linear_16892_9436" x1="32.665" y1="18.6885" x2="32.665" y2="7.90625" gradientUnits="userSpaceOnUse">
<stop stop-color="#D7D7D7"/>
<stop offset="1" stop-color="#E9E9E9"/>
</linearGradient>
</defs>
</svg>
